<?xml version="1.0" encoding="utf-8"?>
<!-- Generator: Adobe Illustrator 23.0.3, SVG Export Plug-In . SVG Version: 6.00 Build 0)  -->
<svg version="1.1" id="Layer_1" xmlns="http://www.w3.org/2000/svg" xmlns:xlink="http://www.w3.org/1999/xlink" x="0px" y="0px"
	 viewBox="0 0 129 33" style="enable-background:new 0 0 129 33;" xml:space="preserve">
<style type="text/css">
	.st0{fill:#FFFFFF;}
</style>
<g>
	<path class="st0" d="M2.69,30.28V2.85h9.61c3.33,0,5.85,0.64,7.57,1.91c1.72,1.27,2.58,3.14,2.58,5.6c0,1.34-0.35,2.53-1.04,3.55
		c-0.69,1.02-1.65,1.77-2.88,2.25c1.41,0.35,2.52,1.06,3.32,2.13c0.81,1.07,1.22,2.37,1.22,3.92c0,2.64-0.84,4.63-2.52,5.99
		c-1.68,1.36-4.08,2.05-7.2,2.07H2.69z M8.34,14.34h4.18c2.85-0.05,4.28-1.19,4.28-3.41c0-1.24-0.36-2.14-1.08-2.68
		s-1.86-0.82-3.42-0.82H8.34V14.34z M8.34,18.33v7.4h4.84c1.33,0,2.37-0.32,3.12-0.95c0.75-0.63,1.12-1.51,1.12-2.63
		c0-2.51-1.3-3.79-3.9-3.82H8.34z"/>
	<path class="st0" d="M37.47,20.23h-4.5v10.04h-5.65V2.85H37.5c3.24,0,5.74,0.72,7.5,2.17c1.76,1.44,2.64,3.49,2.64,6.12
		c0,1.87-0.4,3.43-1.21,4.68c-0.81,1.25-2.04,2.25-3.68,2.99l5.93,11.21v0.26h-6.07L37.47,20.23z M32.96,15.66h4.56
		c1.42,0,2.52-0.36,3.3-1.08c0.78-0.72,1.17-1.72,1.17-2.99c0-1.29-0.37-2.31-1.1-3.05s-1.86-1.11-3.38-1.11h-4.54V15.66z"/>
	<path class="st0" d="M67.42,24.62h-9.91l-1.88,5.65h-6.01L59.83,2.85h5.24l10.27,27.43h-6.01L67.42,24.62z M59.04,20.05h6.86
		L62.45,9.78L59.04,20.05z"/>
	<path class="st0" d="M100.2,30.28h-5.65l-11-18.05v18.05h-5.65V2.85h5.65l11.02,18.09V2.85h5.63V30.28z"/>
	<path class="st0" d="M105.13,30.28V2.85h8.44c2.41,0,4.57,0.54,6.47,1.63s3.39,2.63,4.46,4.63c1.07,2,1.6,4.28,1.6,6.83v1.26
		c0,2.55-0.52,4.82-1.57,6.8s-2.53,3.52-4.44,4.62c-1.91,1.09-4.06,1.64-6.46,1.66H105.13z M110.79,7.42v18.31h2.73
		c2.21,0,3.9-0.72,5.07-2.17c1.17-1.44,1.76-3.51,1.79-6.2v-1.45c0-2.79-0.58-4.9-1.73-6.34c-1.16-1.44-2.85-2.16-5.07-2.16H110.79z
		"/>
</g>
</svg>
