<?xml version="1.0" encoding="utf-8"?>
<!-- Generator: Adobe Illustrator 24.0.0, SVG Export Plug-In . SVG Version: 6.00 Build 0)  -->
<svg version="1.1" id="Layer_1" xmlns="http://www.w3.org/2000/svg" xmlns:xlink="http://www.w3.org/1999/xlink" x="0px" y="0px"
	 viewBox="0 0 960 1080" style="enable-background:new 0 0 960 1080;" xml:space="preserve">
<style type="text/css">
	.st0{fill:#FFEDE6;}
	.st1{fill:#DBDBDB;}
	.st2{fill:#FF7C3E;}
	.st3{fill:#FFED00;}
	.st4{fill:#FFFFFF;}
	.st5{fill:none;stroke:#000000;stroke-width:1.6;stroke-miterlimit:10;}
</style>
<rect class="st0" width="960" height="1080"/>
<g>
	<path class="st1" d="M479.8,295.4c0,0-1.4,0.4-6.6-0.6c-5.2-1-5.1,0.3-7.7-3.8s-6.7-11.6-11.2-8.9s-17.9,23.1-19.9,40.6
		c-2,17.5-4.3,27-2.8,40.3c1.5,13.3,2.6,45.2,2.9,66.4c0.3,21.2-2,82.9-5.1,94c-3.1,11-2.3,23.7-2.3,23.7s2.2,5.8-1.1,14.1
		s-8.5,21-9.2,25.8l2.7,6.4c0,0,61.8,19.4,82.4,6c0,0,3.6-6,5.8-13.9c2.2-7.9,11-35.3,17.9-43.5c6.8-8.2,15.6-24.9,15.6-24.9
		l-28.8-7.4l-34.4,3.4l11.8-129.2L479.8,295.4z"/>
	<g>
		<g>
			<path d="M455.3,282.3c1.3-0.5,2.6,0.2,3.7,0.9c1.3,0.9,2,2,2.9,3.3c1.7,2.6,3.2,5.8,5.7,7.8c1.9,1.5,4.7,2.1,6.9,0.7
				c0.9-0.6,1.6-1.6,1.8-2.6c0.1-1.1-0.6-1.9-0.4-3c0.2-0.9-1.3-1.3-1.4-0.4c-0.1,0.6-0.2,1.1,0,1.7c0.1,0.4,0.3,0.8,0.4,1.2
				c0.2,1.2-1,2.1-2,2.4c-2.9,0.9-5.2-1.6-6.6-3.7c-1-1.4-1.9-2.9-2.8-4.3c-0.7-1.1-1.4-2.3-2.3-3.2c-1.5-1.4-4-3-6.1-2.1
				C454,281.2,454.4,282.7,455.3,282.3L455.3,282.3z"/>
		</g>
	</g>
	<path class="st2" d="M455.1,281.6c0,0-17.4,16.4-21.5,45.4c-3.6,25.6,0.6,69.2,0.6,69.2s1.8,82.2-1.6,97.2
		c-3.4,15-5.6,50.3-5.6,50.3l-31.4,4.7c0,0,10-37.4,9.4-58.2c-1.3-51.6-3.8-107.5-1.5-125.4c2.3-17.8,8.4-54.3,15.1-71.1l3.1-9.1
		l31.5-21.3L455.1,281.6z"/>
	<path d="M541.2,569c0,0-27.1,20.2-55.1,26.3c0,0-22.2,3.9-31.9,3c0,0,5.2,25.3,3.9,35.3c0,0,0.6,38.9,1.9,44l10.1,44.6
		c0,0,7.7,34.3,4.6,57.9l-7.2,48.5l-7,30.8l-1.7,5.3c0,0,14.7,10.2,23.2,10.6c8.5,0.4,18.1,4.8,22.6-0.4l12-52.6l5.8-54.6
		c0,0,3.1-43.4-2.8-58.1c0,0,4.6-56.7,10.2-72.3C535.3,621.8,542,571.7,541.2,569z"/>
	<g>
		<g>
			<path d="M504.5,828.2c14.6,18.2,18.8,43.1,11.2,65.1c-1.9,5.6-4.6,10.9-7.9,15.8c-3.1,4.7-6.5,9.5-7.1,15.2
				c-0.5,5,1.5,9.5,5.5,12.4c4.1,3,9.4,3.7,14.3,2.8c5.7-0.9,11.2-3.7,16-6.7c4.7-3,8.9-6.6,12.6-10.7c7.7-8.6,12.6-19.2,17.1-29.7
				c5.2-12.2,10.5-24.3,15.7-36.5c2.1-4.9,5.4-10.6,2-15.7c-1.3-2-3.2-3.4-5.1-4.9c-2.5-1.9-5.1-3.8-7.6-5.6c-5-3.7-9.9-7.5-15-10.9
				c-4.6-3.1-9.6-5.8-15-6.8c-11.7-2.2-22.5,4.1-31.2,11.3c-2.3,1.9-4.4,3.9-6.6,5.9c-0.7,0.7,0.3,1.7,1.1,1.1
				c8.4-7.6,17.8-16,29.7-17.1c11.5-1,20.9,6.5,29.6,12.9c4.9,3.7,9.9,7.2,14.8,11c2,1.5,4.1,3.3,5,5.7c1.1,2.9-0.2,6-1.4,8.7
				c-5,11.7-10,23.3-15,34.9c-4.5,10.4-8.7,21-15.5,30.1c-6.5,8.8-15.6,16.2-25.9,20c-5.2,1.9-11.1,2.8-16.3,0.4
				c-4.7-2.2-7.8-6.5-7.5-11.8c0.3-5.8,3.9-10.7,6.9-15.3c3-4.6,5.5-9.4,7.5-14.5c7.6-20.4,5.2-43.5-6.4-61.9
				c-1.4-2.2-2.9-4.3-4.5-6.3C504.9,826.4,503.9,827.4,504.5,828.2L504.5,828.2z"/>
		</g>
	</g>
	<path class="st3" d="M394.3,179.6c0,0-4.5,10.3,20.7,11.3c25.2,1,54.5,4.1,78.9,13.4l12.7,5.9l7.5-11.1c0,0,17.9-25.6-21-45.6
		c0,0-43.1-29.7-58.3,5c0,0-5.7,20.5-24.5,16.8C410.3,175.3,397.8,172.4,394.3,179.6z"/>
	<path class="st2" d="M475.8,293.3c0,0-45.4,55-19.8,197.4l9.2,58c0,0,30.7-22.5,64-18.6l-4,11.7l28.2,9.4l4.8-17.3
		c0,0,2.5,2.9,12.2-15.3l11.5-33.1c0,0,12.5-38.3,0.9-85.2c0,0-6.8-52.7-2.1-70c0,0,0.4-22.7-10.3-34.6c0,0-21.9-16.4-24.2-32.4
		c0,0,1.5-44-40.4-28.2c0,0-5.4,1.5-10.9,7.8C487.1,251.7,477.9,269,475.8,293.3z"/>
	<g>
		<g>
			<path d="M458.5,869.1c-6.6,12.1-19.7,18.9-32.8,21.9c-8.2,1.8-16.5,2.4-24.8,2.7c-4.1,0.2-8.3,0.3-12.4,0.4
				c-3.7,0.2-7.5,0.4-10.9,2.1c-2.6,1.4-4.9,3.7-5.5,6.7c-0.7,3.4,1.2,6.4,3,9.1c0.9,1.4,1.9,2.8,3.1,3.9c1.3,1.3,2.8,2.3,4.4,3.3
				c3.3,2.1,6.7,4,10.3,5.6c13.4,6,28.3,8.3,42.8,10.2c16.9,2.1,33.9,1.5,50.8,3c2.1,0.2,4.2,0.4,6.3,0.7c1,0.1,0.9-1.4,0-1.5
				c-16.4-2-32.9-1.4-49.4-2.8c-7.6-0.6-15.2-1.8-22.7-3.1c-7-1.2-14-2.8-20.7-5.1c-3.6-1.3-7.1-2.7-10.4-4.5
				c-3.3-1.7-6.9-3.6-9.8-6.1c-1.4-1.2-2.5-2.7-3.5-4.2c-1-1.5-2.1-3.1-2.6-4.8c-1.1-3.5,0.9-6.8,3.9-8.5c3.3-2,7.3-2.1,11-2.3
				c4.1-0.2,8.1-0.3,12.2-0.4c7.9-0.3,15.8-0.8,23.6-2.4c12.5-2.5,25.1-8.4,32.8-18.9c0.9-1.3,1.8-2.6,2.5-4
				C460.3,869,459,868.2,458.5,869.1L458.5,869.1z"/>
		</g>
	</g>
	<g>
		<g>
			<path d="M493.5,937.8c-0.1-4.1,0.1-8.1,0-12.2c0-4.3-0.1-8.5,0.3-12.8c0.7-7.9,1.6-16.3,4.5-23.7c1.5-4,3.7-7.7,6.4-10.9
				c0.6-0.7-0.4-1.8-1.1-1.1c-4.9,5.7-7.8,12.7-9.2,20c-1.7,8.5-2.7,17.4-2.5,26c0.1,4.9-0.1,9.7,0,14.6
				C492.1,938.7,493.6,938.7,493.5,937.8L493.5,937.8z"/>
		</g>
	</g>
	<g>
		<g>
			<path d="M492.7,927.1c-17.3,1.3-34.6,2.7-51.9,1.7c-17-1-34.2-4.2-49.7-11.4c-3.9-1.8-7.8-3.9-10.6-7.2c-2.8-3.3-4.3-7.8-2.8-12
				c0.3-0.9-1.1-1.3-1.4-0.4c-2.6,7.5,2.8,14.4,8.8,18.1c3.5,2.2,7.3,3.8,11.1,5.3c4.1,1.6,8.4,3,12.6,4.2
				c17.4,4.7,35.5,5.8,53.4,5.3c10.2-0.3,20.3-1.2,30.5-1.9C493.7,928.5,493.7,927,492.7,927.1L492.7,927.1z"/>
		</g>
	</g>
	<g>
		<g>
			<path d="M460,869.5c3.7,2,7.4,4,11,6.1c3.4,1.9,6.9,3.8,10.6,5.2c6.7,2.7,14.4,3.7,21,0.4c0.9-0.4,0.1-1.7-0.8-1.3
				c-6.6,3.3-14.3,1.9-20.8-0.9c-7-3-13.6-7.1-20.3-10.7C459.9,867.7,459.1,869,460,869.5L460,869.5z"/>
		</g>
	</g>
	<g>
		<g>
			<path d="M579.2,835.9c-7.7-0.8-15.3,2.2-21.2,6.9c-6.1,4.9-10.6,11.6-14.1,18.6c-4,7.9-7,16.2-11,24.1
				c-3.9,7.6-8.5,14.9-13.5,21.9c-5.7,7.9-11.8,15.5-17.9,23.1c-0.6,0.7,0.5,1.8,1.1,1.1c10.4-12.9,20.9-26,29-40.5
				c4.2-7.6,7.4-15.7,11-23.6c3.3-7.3,7.2-14.5,12.8-20.3c6.2-6.3,14.7-10.6,23.7-9.7C580.2,837.5,580.2,836,579.2,835.9
				L579.2,835.9z"/>
		</g>
	</g>
	<g>
		<g>
			<path d="M455.2,599.5c24.5-0.3,48.8-7,70.1-19.2c6-3.4,11.7-7.3,17.1-11.5c-0.4-0.2-0.9-0.4-1.3-0.5c-1.8,19.1-5.6,38-9.4,56.7
				c-3.8,18.5-7.8,37-10.2,55.8c-1.4,10.6-2.2,21.3-2.2,32c0,1,1.5,1,1.5,0c0-19.1,2.7-38.1,6.2-56.9c3.5-18.7,7.8-37.3,11.2-56
				c1.9-10.5,3.5-21,4.5-31.7c0.1-0.7-0.8-0.9-1.3-0.5c-19,14.8-41.8,24.6-65.6,28.5c-6.8,1.1-13.7,1.7-20.5,1.8
				C454.2,598.1,454.2,599.6,455.2,599.5L455.2,599.5z"/>
		</g>
	</g>
	<g>
		<g>
			<path d="M518.9,709.9c3.6,14.7,4.1,29.9,3.2,45c-0.9,16.8-2.4,33.5-4.4,50.2c-1.1,9.5-2.5,19-4,28.5c-0.1,0.9,1.3,1.4,1.4,0.4
				c2.6-16.7,4.7-33.6,6.3-50.5c0.8-8.5,1.4-17,1.9-25.5c0.5-7.8,0.8-15.6,0.4-23.4c-0.4-8.5-1.5-17-3.5-25.2
				C520.1,708.6,518.6,709,518.9,709.9L518.9,709.9z"/>
		</g>
	</g>
	<g>
		<g>
			<path d="M458.9,865.5c12.9,10,29.6,14.5,45.8,12.3c0.2,0,0.5-0.3,0.5-0.5c3.2-14.3,6.4-28.7,9.6-43c0.2-0.9-1.2-1.3-1.4-0.4
				c-3.2,14.3-6.4,28.7-9.6,43c0.2-0.2,0.3-0.3,0.5-0.5c-15.6,2.1-31.9-2.3-44.4-11.9C459.2,863.9,458.1,864.9,458.9,865.5
				L458.9,865.5z"/>
		</g>
	</g>
	<g>
		<g>
			<path d="M452.9,599.5c5.3,16.5,4.7,34,4.7,51.1c0,8.6,0.2,17.2,1.4,25.7c1.1,8.6,3.1,17,5.3,25.3c2.2,8.5,4.5,16.9,6.3,25.4
				c1.8,8.8,2.9,17.7,3.4,26.7c0.9,17.9-0.6,35.9-3.4,53.6c-2.8,17.8-6.9,35.4-11.1,52.8c-0.5,2.2-1.1,4.4-1.6,6.5
				c-0.2,0.9,1.2,1.3,1.4,0.4c4.3-17.7,8.5-35.3,11.6-53.2c3-17.6,5-35.4,4.7-53.2c-0.2-8.9-0.9-17.7-2.3-26.5
				c-1.4-8.7-3.6-17.3-5.8-25.9c-2.2-8.5-4.5-17-6.1-25.7c-1.6-8.6-2.2-17.3-2.3-26c-0.3-17.1,0.9-34.5-3.1-51.3
				c-0.5-2.1-1.1-4.1-1.7-6.1C454,598.1,452.6,598.5,452.9,599.5L452.9,599.5z"/>
		</g>
	</g>
	<g>
		<g>
			<path d="M417.3,586.6c2.2,15.6-2.3,31.1-7.3,45.8c-4.9,14.5-10.6,29-11.8,44.3c-0.6,7.3,0,14.7,2,21.7c1.8,6,4.6,11.6,7.9,16.8
				c7.2,11,16.8,20,26.4,28.8c13.4,12.2,26.8,24.4,40.2,36.7c0.7,0.6,1.8-0.4,1.1-1.1c-11.9-10.9-23.8-21.7-35.7-32.6
				c-9.9-9-20-17.9-27.9-28.7c-3.8-5.2-7.2-10.9-9.4-17c-2.5-6.7-3.5-13.8-3.3-21c0.4-15.4,5.8-30.1,10.8-44.5
				c5.5-16,10.7-32.7,8.3-49.8C418.6,585.3,417.2,585.7,417.3,586.6L417.3,586.6z"/>
		</g>
	</g>
	<g>
		<g>
			<path d="M396.3,547.7c5.3-16.2,7.9-33.2,8.9-50.3c1.1-17.5,0.5-35-0.4-52.5c-0.9-18.1-2-36.3-1.8-54.5
				c0.2-17.2,1.7-34.4,4.8-51.3c3-16.7,7.4-33.2,12.9-49.3c0.7-2,1.4-4.1,2.1-6.1c0.3-0.9-1.1-1.3-1.4-0.4
				c-5.7,16.1-10.4,32.5-13.8,49.2c-3.3,16.5-5.3,33.3-5.9,50.2c-0.6,18.1,0.4,36.3,1.3,54.4c0.9,17.6,1.7,35.3,1.1,52.9
				c-0.6,17.2-2.6,34.5-7.3,51.2c-0.6,2.1-1.2,4.1-1.9,6.2C394.6,548.2,396,548.6,396.3,547.7L396.3,547.7z"/>
		</g>
	</g>
	<g>
		<g>
			<path d="M422.5,284.1c10.6-6.3,20.5-13.8,31.1-20.1c-0.4-0.2-0.8-0.4-1.1-0.6c0.5,4.8,0.9,9.5,1.4,14.3c0.1,0.6,0.1,1.1,0.2,1.7
				c0,0.5,0.3,1.3,0.1,1.8c-0.2,0.8-1.4,1.6-1.9,2.2c-1.3,1.4-2.5,2.9-3.6,4.4c-4.8,6.4-8.4,13.5-11.1,21c-6,16.6-7.2,34.4-6.8,51.9
				c0.2,9.7,0.9,19.4,1.5,29.1c0.6,9.7,1,19.4,1.2,29c0.4,19.5,0.1,39-1,58.4c-1.1,19.6-2.9,39.1-5.6,58.5c-0.3,2.4-0.7,4.8-1,7.2
				c0.2-0.2,0.5-0.4,0.7-0.6c-10.4,1.2-20.7,3.2-31.1,4.4c-0.9,0.1-1,1.6,0,1.5c10.4-1.2,20.7-3.2,31.1-4.4c0.3,0,0.7-0.2,0.7-0.6
				c2.8-19.2,4.8-38.4,6.1-57.7c1.3-19.4,1.8-38.9,1.6-58.4c-0.1-9.7-0.4-19.4-0.9-29.1c-0.5-9.7-1.2-19.4-1.7-29
				c-0.9-18.1-0.7-36.6,4.5-54.2c2.3-7.8,5.6-15.4,10-22.3c2.2-3.4,4.7-6.6,7.5-9.6c0.4-0.5,1.1-0.9,1.2-1.5
				c0.1-0.5-0.1-1.4-0.2-1.9c-0.1-0.6-0.1-1.3-0.2-1.9c-0.2-2.4-0.5-4.8-0.7-7.2c-0.2-2.4-0.5-4.8-0.7-7.2c-0.1-0.5-0.6-1-1.1-0.6
				c-10.6,6.3-20.5,13.8-31.1,20.1C421,283.3,421.7,284.6,422.5,284.1L422.5,284.1z"/>
		</g>
	</g>
	<g>
		<g>
			<path d="M479.4,285.3c-8.5,14.8-17.1,29.8-22.6,46c-5.5,16.2-7.5,33.4-8.2,50.5c-0.7,17.7-0.2,35.5,0.8,53.2
				c1,18,2.6,35.9,4.9,53.8c2.5,20,5.9,39.9,10.1,59.6c0.1,0.5,0.7,0.7,1.1,0.4c18.7-12.9,41.3-19.6,64-19.1
				c-0.2-0.3-0.5-0.6-0.7-0.9c-1.5,4.3-3,8.6-4.5,12.9c-0.1,0.4,0.2,0.8,0.5,0.9c9.4,3.1,18.8,6.2,28.2,9.3c0.4,0.1,0.8-0.2,0.9-0.5
				c1.7-5.8,3.4-11.6,5.1-17.4c-0.2,0.2-0.3,0.3-0.5,0.5c1.2-0.4,3.2-0.5,3.9-1.6c1.1-1.5,1.9-3.2,2.8-4.8c1.8-3.2,3.5-6.4,5.1-9.7
				c3-6.3,5.7-12.7,8-19.3c4.7-13.5,7.7-27.5,9-41.6c1.4-15,0.5-29.9-1.5-44.8c-2.1-15.6-5-31.2-5.7-47c-0.6-13.8,1.5-27.6,1.1-41.4
				c-0.2-6.1-1-12.3-3.1-18.1c-2.1-5.7-5.4-10.5-9.7-14.7c-4.2-4.1-9.1-7.7-13.1-12c-2-2.1-3.7-4.5-5-7.1c-1.6-3.4-2.2-7.2-2.6-10.9
				c-0.6-6.6-0.9-13.2-4.6-19c-3-4.7-7.5-8.4-12.7-10.5c-12-4.9-25.9-0.5-34.6,8.7c-4.8,5-8.3,11.1-11.4,17.3
				c-3.2,6.5-5.8,13.4-7.8,20.4c-1,3.5-1.8,7.1-2.4,10.7c-0.2,0.9,1.3,1.3,1.4,0.4c2.5-14.5,7.7-29.1,16-41.4
				c3.9-5.8,9-10.9,15.5-13.9c6.2-2.8,13.4-3.7,19.9-1.8c5.9,1.7,11.3,5.6,14.6,10.8c4,6.3,3.7,13.6,4.7,20.7
				c0.8,6.1,3.1,11.3,7.2,15.9c4,4.5,8.9,8.1,13.2,12.2c4.6,4.4,8.2,9.6,10.3,15.7c2.1,6.2,2.6,12.7,2.7,19.1
				c0,6.7-0.5,13.5-0.9,20.2c-0.4,7.3-0.5,14.5-0.1,21.7c1,15.9,4,31.5,6,47.3c1.8,14.9,2.4,29.8,0.7,44.8
				c-1.6,14.4-5,28.6-10.1,42.1c-2.6,6.8-5.6,13.5-9,20c-0.8,1.6-1.7,3.1-2.6,4.7c-0.4,0.6-0.7,1.3-1.1,1.9c-0.5,0.8-1,2.2-1.8,2.7
				c-1,0.6-2.6,0.3-3.3,1.4c-0.4,0.7-0.6,1.9-0.8,2.7c-0.3,1.1-0.6,2.2-1,3.3c-1.1,3.8-2.2,7.6-3.4,11.4c0.3-0.2,0.6-0.3,0.9-0.5
				c-9.4-3.1-18.8-6.2-28.2-9.3c0.2,0.3,0.3,0.6,0.5,0.9c1.5-4.3,3-8.6,4.5-12.9c0.2-0.5-0.3-0.9-0.7-0.9
				c-23-0.5-45.9,6.3-64.8,19.3c0.4,0.1,0.7,0.3,1.1,0.4c-7.4-35-12.2-70.5-14.5-106.2c-1.1-17.6-1.7-35.2-1.4-52.8
				c0.3-17.2,1.8-34.4,6.4-51c5.2-18.6,14.8-35.4,24.4-52C481.2,285.2,479.9,284.5,479.4,285.3L479.4,285.3z"/>
		</g>
	</g>
	<g>
		<g>
			<path d="M528.8,299.7c-7.5,12.7-11.4,27.2-12.7,41.8c-1.4,15.3-0.1,30.7,2.5,45.9c2.8,16.7,7,33.2,10.4,49.8
				c3.3,15.9,5.8,32,5.2,48.3c-0.6,15.5-4,31-11.1,44.9c-0.9,1.7-1.8,3.4-2.8,5c-0.3,0.5,0.1,1.1,0.6,1.1c2,0.1,4.1,0.2,6.1,0.2
				c1,0,1-1.5,0-1.5c-2-0.1-4.1-0.2-6.1-0.2c0.2,0.4,0.4,0.8,0.6,1.1c7.7-13.1,12.1-27.9,13.6-43.1c1.6-15.9-0.1-31.7-3-47.3
				c-3.1-16.7-7.3-33.1-10.6-49.8c-3-15.5-5.1-31.2-4.5-47c0.5-15,3.5-30.2,10.4-43.7c0.8-1.6,1.7-3.2,2.6-4.8
				C530.6,299.6,529.3,298.9,528.8,299.7L528.8,299.7z"/>
		</g>
	</g>
	<g>
		<g>
			<path d="M446.9,268.2c1.4-1.9,2.6-4.8,2.6-7.1c-0.1-2.5-2.6-4.2-4.9-3.9c-2.7,0.4-4.3,3.1-5.9,5c-2.1,2.4-5.1,3.5-8.3,3.3
				c-7-0.5-11.2-7.5-11.4-14c-0.1-3.9,0.9-7.7,2.6-11.3c0.4-0.9,0.6-1.9,1.6-1.9c1,0,1.8,0.7,2.5,1.3c1.1,1.1,1.9,2.5,2.9,3.8
				c1.6,1.9,4.2,3.5,6.5,1.8c1.9-1.4,2.4-4.2,1.5-6.4c-1.2-3-4.3-4.9-6.9-6.7c-1.6-1.2-3.2-2.4-4.9-3.5c-1.5-1.1-3.3-2.1-4.3-3.6
				c-1.1-1.7-0.3-3.6,1.5-4.3c1.9-0.7,4.2,0.1,5.9,1c3.1,1.5,5.9,3.9,7.8,6.8c1.5,2.2,2.7,5.1,5.2,6.4c2.7,1.3,5.3-0.2,7.2-2.1
				c1.7-1.8,3.2-3.8,4.7-5.8c1.7-2.2,3.4-4.5,5.1-6.8c3.5-4.7,7-9.5,10.7-14.1c0.7-0.9,1.3-1.7,2-2.5c-0.2,0.1-0.5,0.1-0.7,0.2
				c1.9,0.5,3.8-0.4,5.6,0.2c-0.1-0.4-0.3-0.7-0.4-1.1c-1.7,3.2-3.4,6.4-5,9.6c-1.6,3.2-3.6,6.7-4.4,10.2c-0.5,2.3-0.4,4.9,0.4,7.1
				c0.4,1.1,0.9,2,1.6,2.9c1,1.2,2.6,2,3.4,3.4c1.8,3.2-2.7,6.5-4.7,8.3c-2.7,2.5-5.3,5-8,7.5c-1.4,1.4-2.9,2.7-4.3,4.1
				c-1.2,1.2-2.5,2.3-3.4,3.7c-1.7,2.5-2.8,5.5-5,7.7c-0.7,0.7,0.4,1.7,1.1,1.1c1.9-1.9,3.1-4.4,4.4-6.7c1.7-2.8,4.2-4.8,6.5-7
				c2.7-2.5,5.3-5,8-7.5c1.3-1.2,2.6-2.4,3.9-3.7c1.1-1,2.1-2.1,2.8-3.4c0.5-1.1,0.8-2.3,0.6-3.5c-0.3-1.5-1.3-2.4-2.5-3.4
				c-2.3-2-3.4-4.7-3.4-7.7c0-3.8,2.1-7.5,3.7-10.8c1.8-3.7,3.7-7.4,5.7-11.1c0.2-0.4,0-1-0.4-1.1c-1.9-0.5-3.8,0.4-5.6-0.2
				c-0.2-0.1-0.6,0-0.7,0.2c-7,8.5-13.2,17.7-20.1,26.3c-1.6,2-3.9,5.5-6.9,5c-3-0.5-4.4-4.4-6-6.6c-1.8-2.6-4.2-4.7-7-6.3
				c-2.7-1.5-6.4-3-9.2-1.2c-2.5,1.6-2.7,4.5-0.8,6.7c1,1.2,2.4,2.1,3.7,3c1.6,1.2,3.2,2.4,4.9,3.5c2.5,1.8,6.9,4.2,7.1,7.8
				c0.1,1.3-0.4,2.9-1.6,3.5c-1.6,0.8-3.2-0.5-4.2-1.7c-1.8-2.1-3.2-5.5-6.4-5.7c-0.5,0-1.3,0-1.8,0.4c-0.6,0.5-0.9,1.6-1.3,2.3
				c-0.7,1.6-1.4,3.3-1.9,5c-1.7,6.2-1.1,13.4,3.5,18.3c3.9,4.2,10.6,5.7,15.6,2.5c2.4-1.6,3.6-4.4,6-6c1.3-0.9,3.1-0.9,4.2,0.5
				c0.8,1.2,0.3,2.6-0.1,3.9c-0.4,1.3-1,2.6-1.8,3.7C445,268.2,446.3,268.9,446.9,268.2L446.9,268.2z"/>
		</g>
	</g>
	<g>
		<g>
			<path d="M421.4,217.9c-2.6-2-3.1-5.4-1.8-8.4c1.3-3,4-5,6.5-7c-0.4-0.2-0.8-0.4-1.1-0.6c-0.2,4.5,2.3,9,6.3,11
				c1.1,0.6,2.4,0.8,3.4,1.6c1,0.9,1.1,2.3-0.4,2.7c-1.3,0.3-2.6-0.4-3.7-0.9c-1.1-0.4-2.2-0.7-3.3-0.7c-2.5,0-5,1.1-6.6,3
				c-0.6,0.7,0.4,1.8,1.1,1.1c1.6-1.8,4.2-2.8,6.6-2.4c2.4,0.4,4.5,2.3,6.9,1.3c2.3-1,2.1-3.7,0.3-5.2c-1-0.8-2.2-1.1-3.3-1.6
				c-1.1-0.5-2.1-1.3-2.9-2.1c-1.9-2.1-2.9-4.8-2.8-7.6c0-0.5-0.7-1-1.1-0.6c-3,2.3-6.2,4.8-7.5,8.5c-1.2,3.5-0.1,7.2,2.8,9.4
				C421.4,219.7,422.1,218.4,421.4,217.9L421.4,217.9z"/>
		</g>
	</g>
	<g>
		<g>
			<path d="M440,198.6c-0.8,3.1,1.5,5.6,1.9,8.6c0.6,4.2-4.7,5.3-7.8,4.5c-1.8-0.5-3.4-1.5-4.6-2.8c-1.1-1.2-1.6-2.7-2.4-4.2
				c-0.6-1.1-1.6-2-2.9-2c-1.5,0-2.5,1.2-3.3,2.4c-0.5,0.7-0.9,1.6-1.6,2c-1.5,0.9-2.2-0.8-2.3-2.1c-0.1-2.2,0.2-4.4,0.3-6.6
				c0.1-2.2,0.7-3.8,3.1-4.3c2.2-0.5,4.5-0.6,6.7-0.9c4.5-0.5,9-0.8,13.5-0.6c4.6,0.2,9.2,1.1,13.7,1.9c10.3,1.9,20.6,3.8,30.9,5.7
				c-0.1-0.5-0.1-0.9-0.2-1.4c-6.6,4.1-14.6,3.2-21.9,1.7c-7.5-1.6-15-3.7-22.7-2.4c-0.9,0.2-0.5,1.6,0.4,1.4
				c14.9-2.6,30.8,9.2,44.9,0.6c0.5-0.3,0.5-1.2-0.2-1.4c-10.3-1.9-20.6-3.8-30.9-5.7c-4.8-0.9-9.7-1.8-14.6-2
				c-5.2-0.2-10.3,0.3-15.5,0.9c-2,0.2-4.4,0.2-6.3,1.2c-1.6,0.8-2.3,2.3-2.5,4c-0.3,2.4-0.3,4.8-0.4,7.2c0,1.6,0.3,3.6,2,4.3
				c1.5,0.6,2.9-0.4,3.8-1.5c0.6-0.7,1-1.6,1.6-2.3c1-1,2-0.6,2.7,0.5c0.9,1.5,1.4,3.1,2.6,4.5c1.2,1.3,2.7,2.4,4.3,3
				c3.4,1.3,8.5,0.9,10.3-2.8c1.9-3.9-2.5-7.2-1.5-11C441.7,198.1,440.2,197.7,440,198.6L440,198.6z"/>
		</g>
	</g>
	<g>
		<g>
			<path d="M506.6,208.6c-2.3,5.3-4.7,10.5-6.9,15.8c-2,4.9-3.4,10.2-2.2,15.5c0.2,0.9,1.7,0.5,1.4-0.4c-1.3-5.2,0.4-10.3,2.3-15.1
				c2.1-5,4.4-10,6.6-15C508.3,208.4,507,207.7,506.6,208.6L506.6,208.6z"/>
		</g>
	</g>
	<g>
		<g>
			<path d="M508.4,208.9c3.6-4.6,7.1-9.4,9.2-14.9c2-5.2,2.1-10.8,0.3-16.1c-3.6-10.6-12.9-18.6-22-24.6
				c-9.7-6.4-21.2-11.3-32.8-12.9c-5.7-0.8-11.8-0.4-16.8,2.6c-4.4,2.6-7.5,6.7-10.1,11c-1.5,2.5-2.8,5.1-4.1,7.7
				c-1.4,2.8-2.8,5.7-4.8,8.1c-4.7,5.4-11.9,4.8-18.3,4c-1-0.1-0.9,1.4,0,1.5c5.2,0.7,11,1.3,15.8-1.4c4.6-2.6,6.8-7.7,9-12.1
				c2.3-4.5,4.6-9.1,7.9-12.9c3.8-4.3,8.8-6.8,14.5-7.2c5.8-0.4,11.7,1,17.2,2.7c5.6,1.7,11,4,16.1,6.8c9.6,5.3,19.4,12.6,24.8,22.3
				c3,5.4,4.3,11.6,2.6,17.7c-1.7,6.4-5.9,11.8-9.9,16.9C506.5,208.9,507.8,209.7,508.4,208.9L508.4,208.9z"/>
		</g>
	</g>
	<g>
		<path class="st4" d="M525,541.9c-7.2,14.3-14.9,31.7-18.1,47.3c-0.2,1.2-0.5,2.6,0.3,3.6c1,1.4,3.3,1.2,4.6-0.1
			c1.2-1.2,1.7-3,2.1-4.7c1.4-6.1,2.8-12.3,4.2-18.4c3.2,10.4,2.1,22-2.8,31.6c-1.4,2.7-3.1,5.9-1.7,8.6c0.4,0.8,1.2,1.5,2.1,1.8
			c1.4,0.5,2.9,0,4.2-0.5c7.1-2.7,13.2-7.9,17.1-14.4c-1.5,4.1-3.1,8.1-4.6,12.2c7.8-3,13.7-10.4,14.9-18.6c0.2,2.1,0.5,4.1,0.7,6.2
			c2.1,0.1,4-1.4,4.9-3.3s1-4.1,1-6.2c0.3-11.5-0.7-24.3-0.6-35.8"/>
	</g>
	<g>
		<g>
			<path d="M409.4,174.1c-4.1-0.7-8.7-1.4-12.4,1c-2.9,1.9-4.6,5.3-3.2,8.6c1.7,3.8,5.9,5.1,9.7,5.8c4.7,0.8,9.5,1.2,14.3,1.4
				c9.7,0.4,19.4-0.1,29.1,0.4c4.9,0.2,9.9,0.7,14.7,1.7c4.7,1,9.2,2.5,13.7,4.2c10.6,4.1,21,8.7,31.5,13.1c0.9,0.4,1.3-1.1,0.4-1.4
				c-8.7-3.6-17.4-7.3-26.1-10.9c-8.2-3.4-16.5-6.3-25.4-7.4c-8.9-1.2-17.9-1-26.9-1c-8.9,0-18.2,0.2-27-1.9c-2.2-0.5-4.5-1.4-6-3.2
				c-1.4-1.8-1.6-4-0.4-6c2.9-4.5,8.9-3.7,13.4-3C410,175.7,410.4,174.3,409.4,174.1L409.4,174.1z"/>
		</g>
	</g>
	<g>
		<g>
			<path d="M396.6,177.2c2.7-3.9,7.9-0.5,10.5,1.6c3.3,2.6,6.7,4.9,10.5,6.7c7.5,3.6,15.8,5.5,24.1,5.4c1,0,1-1.5,0-1.5
				c-7.1,0.1-14.1-1.2-20.7-3.9c-3.4-1.4-6.6-3.1-9.6-5.2c-2.7-1.9-5.1-4.4-8.2-5.7c-2.8-1.1-6.2-0.7-8,1.9
				C394.7,177.2,396,178,396.6,177.2L396.6,177.2z"/>
		</g>
	</g>
	<g>
		<g>
			<path d="M425.8,172.7c5.7,0.9,11,3.2,16.3,5.5c5.3,2.3,10.6,4.6,15.9,7.1c10.5,4.9,20.9,10,31.2,15.4c5.8,3.1,11.6,6.3,17.3,9.5
				c0.8,0.5,1.6-0.8,0.8-1.3c-20.4-11.6-41.5-22.1-63.1-31.4c-5.8-2.5-11.7-5.2-18-6.2C425.3,171.1,424.9,172.6,425.8,172.7
				L425.8,172.7z"/>
		</g>
	</g>
	<g>
		<g>
			<path d="M419,225.1c1.6,5.7,1.7,11.6,0.4,17.3c-0.2,0.9,1.2,1.3,1.4,0.4c1.4-6,1.3-12.2-0.4-18.1
				C420.1,223.7,418.7,224.1,419,225.1L419,225.1z"/>
		</g>
	</g>
	<g>
		<g>
			<path d="M480.6,286.2c1.4-1.6,2.9-3.1,4.9-4.1c2.1-1,4.5-1.7,6.8-2.2c6.4-1.4,13-0.3,19.5,0.1c5.5,0.3,11,0,16.1-2.1
				c4.4-1.8,8.4-4.4,11.7-7.8c3.7-3.8,6.4-8.4,7.9-13.5c0.3-0.9-1.2-1.3-1.4-0.4c-2.7,9.3-10,17.1-19,20.5c-5.3,2-10.8,2.2-16.4,1.8
				c-6.1-0.4-12.4-1.3-18.5,0c-2.5,0.5-5,1.3-7.3,2.3c-2.1,1-3.8,2.6-5.3,4.4C478.9,285.9,480,287,480.6,286.2L480.6,286.2z"/>
		</g>
	</g>
	<g>
		<g>
			<path d="M522,772.6c4.4,14.7,11.7,28.5,21.3,40.5c0.6,0.8,1.7-0.3,1.1-1.1c-9.5-11.8-16.6-25.4-20.9-39.9
				C523.1,771.3,521.7,771.7,522,772.6L522,772.6z"/>
		</g>
	</g>
	<g>
		<g>
			<path d="M426,543.2c-0.1,2.1,0.3,4.1,0.8,6.2c0.6,2.4,0.2,5-0.3,7.4c-1.1,4.7-3.2,9.1-4.9,13.5c-1.8,4.5-3.7,9-4.9,13.7
				c-0.6,2.3-0.8,4.7-1.2,7.1c-0.3,2.1-1.4,5.1-3.9,5.3c-3,0.2-3.6-3.6-3.5-5.8c0.2-2.7,0.9-5.3,0-7.9c-0.2-0.6-1.3-0.8-1.4,0
				c-0.7,3.1-0.6,6.2,0.2,9.3c0.8,3,2.4,5.5,4.3,8c1.7,2.3,3.7,4.9,3.9,7.9c0.1,1.5-0.7,4.1-2.7,3.6c-1.4-0.3-2-2.2-2.3-3.4
				c-0.5,0.1-1,0.3-1.4,0.4c0.4,1,0.9,2.5,0.3,3.6c-0.9,1.4-2.8,0.8-3.9,0c-2.1-1.4-3.8-3.7-5.1-5.8c-2.7-4.5-3.7-9.8-3.6-15
				c0.3-10.9,5.9-20.5,10.2-30.2c2.2-5,4.3-10.2,5-15.6c0.1-1-1.4-0.9-1.5,0c-0.7,5.7-3.1,11.2-5.5,16.4c-2.4,5.2-5,10.2-6.9,15.6
				c-3.9,10.8-4.4,24,3.7,33.2c1.7,1.9,4.1,4.3,6.8,3.6c2.9-0.8,2.7-3.9,1.9-6.2c-0.3-0.9-1.7-0.5-1.4,0.4c0.8,2.4,2.6,5.7,5.6,4.2
				c3.1-1.5,2.6-5.8,1.5-8.4c-1.4-3.3-4.1-5.8-5.8-9c-2-3.7-2.6-8.1-1.7-12.2c-0.5,0-1,0-1.4,0c1.6,4.4-2.3,10.5,2.2,13.9
				c1.6,1.2,3.6,1.1,5.2,0c1.9-1.3,2.6-3.5,2.9-5.7c0.4-2.8,0.8-5.5,1.5-8.2c0.7-2.6,1.7-5.2,2.7-7.7c2-5,4.3-10,6-15.2
				c0.9-2.7,1.5-5.6,1.5-8.4c0-1.5-0.4-2.8-0.7-4.2c-0.3-1.5-0.5-2.9-0.4-4.4C427.5,542.2,426,542.2,426,543.2L426,543.2z"/>
		</g>
	</g>
	<path d="M455,597.8c0,0,8.3,40.1,7.1,71.4l-9.4,20.3l13.9,20.3c0,0,9.4,26.9,7.3,69.3l-40-36.1c0,0-37.3-31.7-35-59.5
		c0,0-0.3-19.5,10.6-46.6c0,0,10.9-29,8.8-47.5C418.4,589.3,424.4,598.2,455,597.8z"/>
	<path d="M475.4,203.2l-5.4,0.1l-18.2,24.3c0,0-8.7,14.7-15.5,0.4c0,0-9.9-13.5-16.5-6.4c0,0-3.7,2.8,4.9,8.3
		c8.5,5.5,12.3,7.2,11.1,13.5s-8.5-3.1-8.5-3.1s-4.6-6.4-6.7,0.1c-2,6.5-2.2,7-2.2,7s-1.9,15.2,9.1,18.3c11,3.1,13.4-5.4,13.4-5.4
		s7.1-6.8,8.3,1.6l20.8-19.7c0,0,5.3-6.1-0.4-8.9s-1.3-16-1.3-16L475.4,203.2z"/>
	<path d="M484.6,200.1c0,0-5.5,4-20.8,1.3c-15.3-2.7-19.5-4.4-22.5-2.7l1,7.4c0,0,1.9,8-9.2,6.6c0,0-6.4-2.7-8.1-10.1
		c0,0-3.6,1.9-5.2,4.9c-1.6,3-4.3-1-4-4.6l1-7.4c0,0-0.7-2,13.9-3.1c14.6-1.1,32,3.1,32,3.1L484.6,200.1z"/>
	<path class="st5" d="M498.4,238.4c0,0-28.7,36.3-38,45.9"/>
	<g>
		<g>
			<path d="M524.4,541.5c-5.3,10.7-10.3,21.6-14.2,32.9c-0.9,2.8-1.8,5.6-2.6,8.4c-0.7,2.5-1.6,5.3-1.7,7.9
				c-0.1,2.1,1.1,3.8,3.3,3.8c2.1,0,3.7-1.5,4.5-3.4c0.7-1.5,0.9-3.2,1.3-4.8c0.4-1.8,0.8-3.6,1.2-5.3c0.9-3.7,1.7-7.4,2.6-11.1
				c-0.5,0-1,0-1.4,0c3,10,2.2,21.1-2.4,30.4c-1.7,3.3-4.8,9-0.3,11.7c2,1.2,4.4,0.3,6.3-0.5c2.1-0.9,4.1-2,6-3.2
				c4.3-2.9,7.9-6.7,10.6-11.1c-0.5-0.2-0.9-0.4-1.4-0.6c-1.5,4.1-3.1,8.1-4.6,12.2c-0.2,0.5,0.4,1.1,0.9,0.9
				c8-3.2,14.1-10.6,15.4-19.1c-0.5-0.1-1-0.1-1.5-0.2c0.2,2.1,0.5,4.1,0.7,6.2c0,0.4,0.3,0.7,0.8,0.8c3.8,0.1,5.9-3.5,6.4-6.9
				c0.6-4.1,0.3-8.4,0.2-12.5c-0.2-8.9-0.7-17.7-0.6-26.6c0-0.3-0.2-0.6-0.6-0.7c-8.2-2.7-16.5-5.4-24.7-8.2
				c-1.2-0.4-2.3-0.8-3.5-1.2c-0.9-0.3-1.3,1.1-0.4,1.4c8.2,2.7,16.5,5.4,24.7,8.2c1.2,0.4,2.3,0.8,3.5,1.2
				c-0.2-0.2-0.4-0.5-0.6-0.7c-0.1,7.9,0.4,15.9,0.6,23.8c0.1,3.9,0.2,7.7,0.1,11.6c-0.1,3.4-0.4,9.3-5.1,9.2
				c0.3,0.3,0.5,0.5,0.8,0.8c-0.2-2.1-0.5-4.1-0.7-6.2c-0.1-0.8-1.3-1.1-1.5-0.2c-1.3,8-6.8,15.1-14.4,18.1c0.3,0.3,0.6,0.6,0.9,0.9
				c1.5-4.1,3.1-8.1,4.6-12.2c0.3-0.8-0.9-1.3-1.4-0.6c-2.2,3.7-5.2,7-8.6,9.6c-1.7,1.3-3.5,2.4-5.3,3.3c-1.9,1-5.1,2.8-7.1,1.3
				c-2.3-1.6-1.3-4.7-0.3-6.8c0.9-2,2-3.9,2.8-6c1.6-4.2,2.6-8.6,2.9-13.1c0.3-5.1-0.3-10.3-1.8-15.2c-0.2-0.7-1.3-0.7-1.4,0
				c-1.3,5.7-2.6,11.5-4,17.2c-0.5,2.1-0.8,5.3-3.2,6.2c-1.1,0.4-2.3,0.2-2.7-1c-0.4-1.2,0.2-2.6,0.4-3.8c2.3-10.3,6-20.2,10.3-29.9
				c2.3-5.3,4.9-10.6,7.5-15.8C526.1,541.4,524.8,540.7,524.4,541.5z"/>
		</g>
	</g>
	<path d="M492.8,938.6l-0.1-10.8c0,0-49.6,6.8-82-2.9c-33.4-10-36-15.4-33.8-27.6c0,0-15,8.3,10.5,23.8
		C414.4,937.7,467.4,933.3,492.8,938.6z"/>
</g>
</svg>
