<?xml version="1.0" encoding="utf-8"?>
<!-- Generator: Adobe Illustrator 24.0.0, SVG Export Plug-In . SVG Version: 6.00 Build 0)  -->
<svg version="1.1" id="Layer_1" xmlns="http://www.w3.org/2000/svg" xmlns:xlink="http://www.w3.org/1999/xlink" x="0px" y="0px"
	 viewBox="0 0 960 1080" style="enable-background:new 0 0 960 1080;" xml:space="preserve">
<style type="text/css">
	.st0{fill:#E1F7FF;}
	.st1{stroke:#000000;stroke-miterlimit:10;}
	.st2{fill:#00AAFF;}
	.st3{fill:#FFFFFF;}
	.st4{fill:#FFC700;stroke:#000000;stroke-miterlimit:10;}
	.st5{fill:#1D1D1B;}
</style>
<rect class="st0" width="960" height="1080"/>
<g>
	<g>
		<path class="st1" d="M604.1,544.2c0,0-59.2-22.7-129.5,9.5l-8.3,99l2.3,66.8l3.1,52.3l11.9,80.8l11.8,60l50.1-3.8l-25.6-118.6
			c0,0-13.9-54.2,7.7-96.9c0,0-12.4,25.6-10.2,32c2.2,6.4,0.4,16.3,12.2,31.6l16.8,11.5l20.7,14.1l33.9,25.8l24.9,27.6l18.3,25.8
			c0,0,13.1-39.2,38.4-27.4L641,794.2l-39.5-37c0,0-30.3-21.4-17.6-61.5l9.8-42.9l7.7-46L604.1,544.2z"/>
		<path class="st2" d="M499.1,487.8c0,0-21.1-24.5-38.4-32.4l-23.3-11.9l-18.7-10.4c0,0-38.4-19.7-79.9-14.4l-9.4,3.7
			c0,0,5-32.6-33.2-58.6c0,0-12.3-9.9-29.7-14.2l27.4-37.2l17.9-33.6l38.7-14.7l48-10.9l38.7-4.8l33.1,9.3c0,0,80.8,23.4,80.4,23
			s16.5,4.8,21,23.4l7,17.3l11.9,20.5l9.4,12.5l12.5,13.9l-30.7,19.3l-40.7,38.5l-25.3,32.9L499.1,487.8z"/>
		<path class="st3" d="M523.2,363.1l5.3,13.5c0,0-10.8-4.8-30.3,1.8c-19.5,6.6-28.6,3.2-28.6,3.2s1.1-4.3-2.6-5.6c0,0-2-0.8,0.3-5.2
			c0,0-4.3-7.2-1.2-13.6l4.1-1.9c0,0-2.9-13.3,4.8-12.2c0,0,5-1.3,10.9,11.3c0,0,8,13.8,8.3,13.9
			C494.5,368.7,504.9,353.4,523.2,363.1z"/>
		<path class="st0" d="M474.7,547.4c0,0,10.1-33.6-3.8-65.3l-0.6-9l-3.6,3.9c0,0-9.2-23.2-32.5-20.2l-7.9,1l14.8-52.5l3.4-12
			c0,0,8.5-16,24.5-10.9c0,0,15.7,1.7,27.1-3.3c0,0,16.4-6.1,30.9-3c0,0,6.8-2.8,14.2,1.7l19.5,8.6l16,11.7l11.5,12.2l11.3,16.9
			l6.5,17.2l4.4,16.9l3,15.4l4,14.9c0,0-12.8-5.3-23.6-0.9l-1.3,1.3l1.1,18.5l1.3,13.4l5.8,16.8
			C600.4,540.9,546.4,523.9,474.7,547.4z"/>
		<g>
			<path class="st1" d="M441.5,249.1c-36.6,2.2-72.9,9.6-107.4,22c-9.8,3.5-19.5,7.5-29,11.8c-1.1,0.5-2-1.1-0.9-1.6
				c33.7-15.3,69.6-25.7,106.3-30.9c10.3-1.4,20.7-2.5,31.1-3.1C442.8,247.2,442.7,249,441.5,249.1L441.5,249.1z"/>
		</g>
		<g>
			<path class="st1" d="M313.1,279.3c-9.9,19.8-21.6,38.7-34.8,56.5c-3.7,4.9-7.5,9.7-11.4,14.5c-0.1-0.5-0.3-1.1-0.4-1.6
				c27.4,6.7,50.8,27.3,61.1,53.5c3.2,8.1,5.7,17.6,2.1,26.1c-0.5,1.1-2.3,0.6-1.8-0.5c3.3-7.6,1.2-16.1-1.5-23.5
				c-2.4-6.3-5.5-12.4-9.4-18c-7.7-11.3-18-20.7-29.9-27.3c-6.7-3.7-13.8-6.5-21.2-8.4c-0.8-0.2-0.8-1.1-0.4-1.6
				c13.9-16.9,26.4-35,37.1-54c3.1-5.4,6-11,8.8-16.5C312,277.2,313.6,278.2,313.1,279.3L313.1,279.3z"/>
		</g>
		<g>
			<path class="st1" d="M329.3,422.4c5-5.8,14.1-5.5,21.1-5.7c8.6-0.2,17.2,0.4,25.6,1.7c16.8,2.6,33.1,7.9,48.2,15.7
				c2.6,1.4,5.2,2.8,7.7,4.3c-0.2,0.6-0.4,1.2-0.5,1.8c0,0,0,0.1,0,0.1c-22.8-13.7-49.2-21.3-75.8-21.7c-4.5-0.1-8.9,0-13.4,0.4
				c-4.2,0.4-8.7,1.4-11.6,4.8C329.9,424.6,328.6,423.3,329.3,422.4z"/>
		</g>
		<g>
			<path class="st1" d="M571.1,395.7c3.3-2.7,6.6-5.4,9.9-8c8.8-6.7,18-13,27.6-18.6c1-0.6,2,1,0.9,1.6c-13,7.7-25.4,16.5-36.9,26.2
				C572.1,396.5,571.6,396.1,571.1,395.7z"/>
		</g>
		<g>
			<path class="st1" d="M617.2,373.9c-10.8-9.4-20.3-20.4-28.2-32.4c-3.9-6-7.4-12.2-10.4-18.7c-3-6.4-5.3-13-7.8-19.6
				c-2.6-6.9-6.1-13.5-12.3-17.8c-5.9-4-12.8-6.1-19.6-7.9c-16.5-4.6-33.1-9.2-49.7-13.7c-18.9-5.2-37.7-10.4-56.6-15.7
				c-1.2-0.3-0.6-2.1,0.5-1.8c33.8,9.4,67.7,18.7,101.5,28.1c6.9,1.9,14,3.6,20.5,6.9c6.2,3.2,11,7.9,14.2,14.2
				c3.3,6.4,5.2,13.4,7.9,20.1c2.8,6.7,6,13.2,9.7,19.4c8.4,14.2,19,27,31.4,37.8C619.4,373.4,618.1,374.7,617.2,373.9L617.2,373.9z
				"/>
		</g>
		<g>
			<path class="st1" d="M494.6,369.1c-3.4-6.6-7.2-12.9-11.4-19.1c-1.8-2.6-3.7-5.8-7-6.7c-1.5-0.4-3.1-0.3-4.3,0.7
				c-1.2,0.9-1.7,2.4-1.9,3.8c-0.2,1.9,0.1,3.8,0.3,5.7c0.1,0.9,0.3,2.1,0,3c-0.1,0.4-0.5,0.5-0.8,0.6c-0.5,0.2-1,0.5-1.5,0.7
				c-0.3,0.2-0.8,0-0.9-0.4c-0.9-5.8-6.7-9.1-8.9-14.3c-1.4-3.3-0.7-6.7,0.8-9.9c1.8-3.6,4.1-7,6.4-10.3c2.3-3.2,4.8-6.4,7.5-9.3
				c2.5-2.8,5.1-5.5,8.1-7.7c2.8-2,6.1-3.5,9.6-3.7c3.7-0.1,7.1,1.5,10.4,3c2,0.9,3.9,1.9,6,2.5c2.3,0.6,4.7,0.9,7.1,1.1
				c5.1,0.4,10.1,0.8,15.2,1.3c0,0.4,0,0.8,0,1.3c-3.2-0.3-6.3-0.6-9.5-0.9c0.1-0.4,0.1-0.8,0.2-1.2c6.9,3.1,11.6,10,12.1,17.5
				c0.3,4.4-1.2,8.4-2.7,12.4c-0.8,2.1-1.6,4.3-2.1,6.6c-0.5,2.3-0.4,4.7-0.1,7c0.6,4.9,1.9,10.2-0.2,15c-0.2,0.5-0.9,0.7-1.1,0.1
				c-2.1-4.3-6.6-6.9-11.2-7.5c-5.3-0.7-10.4,1.1-14.7,4c-2.6,1.8-2.6,2-4.7,4.3c-0.5,0.6-1.4-0.3-0.9-0.9c3.9-4.3,6.4-6.2,12-7.9
				c4.9-1.5,10.4-1.2,15,1.4c2.4,1.4,4.4,3.4,5.7,6c-0.4,0-0.8,0.1-1.1,0.1c1.8-4.1,0.9-8.6,0.3-13c-0.3-2.2-0.5-4.4-0.4-6.6
				c0.1-2.1,0.7-4.2,1.4-6.2c1.4-4,3.4-8,3.7-12.3c0.2-3.6-0.7-7.3-2.4-10.5c-2-3.6-5-6.6-8.8-8.3c-0.6-0.3-0.6-1.3,0.2-1.2
				c3.2,0.3,6.3,0.6,9.5,0.9c0.8,0.1,0.8,1.3,0,1.3c-4.3-0.4-8.7-0.7-13-1.1c-4-0.3-8-0.6-11.8-2.1c-3.4-1.3-6.5-3.3-10-4.3
				c-3.6-1-7.1-0.3-10.3,1.5c-3.1,1.7-5.8,4.2-8.2,6.7c-2.7,2.8-5.3,5.8-7.7,9c-2.4,3.1-4.6,6.4-6.6,9.8c-1.9,3.1-3.8,6.7-2.8,10.5
				c0.8,3,3.1,5.4,5.1,7.8c1.9,2.3,3.9,4.9,4.3,7.9c-0.3-0.1-0.6-0.3-0.9-0.4c0.7-0.3,1.3-0.6,2-0.9c-0.1,0.2-0.2,0.4-0.3,0.5
				c0.4-3.5-1-7,0.1-10.4c1-2.9,3.6-4.5,6.7-4c3.2,0.5,5.4,3,7.1,5.5c2.2,3.1,4.3,6.4,6.3,9.7c2.3,3.7,4.4,7.5,6.4,11.3
				C496,369.2,494.9,369.8,494.6,369.1L494.6,369.1z"/>
		</g>
		<g>
			<path class="st4" d="M466.8,354.3c-0.2,1.9-0.8,3.7-1.6,5.4c-0.9,1.8-2.1,3.1-3.3,4.7c-0.5,0.7-1.1,1.5-1.2,2.4
				c-0.1,1,0.4,2,0.9,2.9c1,1.6,2.9,3.4,4.8,2.3c0.7-0.4,1.3,0.7,0.6,1.1c-1.9,1.1-4.1,0.2-5.5-1.3c-1.3-1.5-2.5-3.6-2.1-5.7
				c0.5-2,2.3-3.5,3.4-5.1c1.4-2,2.2-4.3,2.5-6.7C465.7,353.5,466.9,353.5,466.8,354.3L466.8,354.3z"/>
		</g>
		<g>
			<path class="st4" d="M467.2,357.6c-1.2,2-1.8,4.4-1.5,6.8c0.1,1.2,0.4,2.4,0.9,3.5c0.5,1.1,1.3,2,1.4,3.2c0.1,0.5,0,1-0.2,1.5
				c-0.2,0.5-0.6,0.8-0.9,1.3c-0.6,1.3,1.4,2.1,2.2,2.8c1.6,1.3,2.2,3.6,1.5,5.5c-0.2,0.8-1.4,0.4-1.2-0.4c0.4-1.1,0.2-2.3-0.4-3.3
				c-0.7-1-1.8-1.4-2.6-2.3c-0.7-0.7-1-1.7-0.6-2.7c0.2-0.5,0.6-0.8,0.8-1.2c0.4-0.7,0.2-1.4-0.2-2c-0.5-1.1-1.1-2.1-1.5-3.2
				c-0.3-1.1-0.5-2.2-0.5-3.3c-0.1-2.3,0.6-4.7,1.8-6.7C466.5,356.3,467.6,356.9,467.2,357.6L467.2,357.6z"/>
		</g>
		<g>
			<path class="st4" d="M528.6,377.3c-15.2-5.9-30.7,2.9-45.7,5.4c-4.4,0.7-8.9,1-13.3,0.3c-0.8-0.1-0.8-1.4,0-1.3
				c16.2,2.5,31-7.2,46.9-7.5c4.2-0.1,8.4,0.5,12.3,2C529.7,376.4,529.4,377.6,528.6,377.3L528.6,377.3z"/>
		</g>
		<g>
			<path class="st1" d="M522.6,362.9c1.7,2.6,3.1,5.4,4.3,8.2c0.9,2.4,2.4,3.2,0.8,5.6c-0.4,0.7-1.7-0.6-1.2-1.3
				c0.8-1.1,0.7,0.6,0.4-0.7c-0.4-1.3-0.9-2.7-1.4-4c-1.1-2.6-2.4-5-3.9-7.3C521.1,362.9,522.2,362.3,522.6,362.9L522.6,362.9z"/>
		</g>
		<g>
			<path class="st4" d="M617.4,492.1c-8.1-3.1-17.1-3.4-25.3-0.7c-0.8,0.3-1.1-1-0.3-1.2c8.4-2.8,17.7-2.5,26,0.7
				C618.5,491.2,618.2,492.4,617.4,492.1L617.4,492.1z"/>
		</g>
		<g>
			<path class="st4" d="M616.2,492c-2.7-12.2-5.3-24.4-8.2-36.5c-2.6-10.7-5.8-21.2-11.1-30.9c-4.5-8.3-10.3-15.9-17-22.5
				c-6.7-6.6-14.3-12.3-22.5-16.9c-8.2-4.6-17.1-7.9-26.3-9.9c-1.1-0.2-2.3-0.5-3.4-0.7c-0.8-0.1-0.4-1.3,0.4-1.2
				c9.3,1.7,18.4,4.8,26.8,9.1c8.5,4.3,16.3,9.8,23.3,16.3c6.9,6.4,13,13.8,17.9,21.9c5.5,9.2,9.2,19.3,11.9,29.6
				c1.6,5.9,2.8,11.9,4.2,17.9c1.4,6.3,2.8,12.6,4.2,18.9c0.3,1.5,0.7,3.1,1,4.6C617.6,492.5,616.4,492.8,616.2,492L616.2,492z"/>
		</g>
		<g>
			<path class="st4" d="M468.4,382c0.4,0,0.9,0,1.3,0c-0.1,0.4-0.1,0.8-0.2,1.2c-4.8-1.8-10.2-1.5-14.8,0.6c-2.3,1.1-4.3,2.6-6,4.5
				c-2,2.3-3.3,5-4.4,7.8c-1,2.8-1.8,5.6-2.6,8.5c-0.9,3.4-1.9,6.8-2.8,10.3c-1.8,6.7-3.7,13.5-5.5,20.2c-2.1,7.6-4.2,15.3-6.2,22.9
				c-0.3-0.3-0.5-0.5-0.8-0.8c6.6-2.5,14-2.6,20.7-0.3c6.1,2,11.4,6.1,15.2,11.3c2.1,2.9,3.6,6.1,4.6,9.5c-0.3-0.1-0.7-0.2-1-0.3
				c7.3-8.7,13.1-18.7,17-29.4c1.1-3,2-6.1,2.8-9.1c0.2-0.8,1.4-0.4,1.2,0.4c-2.9,11.2-7.7,21.8-14.3,31.3c-1.8,2.7-3.8,5.3-5.9,7.7
				c-0.3,0.4-0.9,0.1-1-0.3c-1.7-5.8-5.1-11-9.7-14.8c-5.1-4.2-11.5-6.5-18-6.6c-3.8-0.1-7.6,0.6-11.2,1.9c-0.5,0.2-0.9-0.4-0.8-0.8
				c3.8-14,7.6-28,11.5-42.1c0.9-3.5,1.9-6.9,2.8-10.4c0.8-3.1,1.6-6.2,2.7-9.2c1.9-5.3,5-10,10.1-12.7c5.1-2.8,11.4-3.3,16.8-1.2
				c0.6,0.2,0.5,1.2-0.2,1.2c-0.4,0-0.9,0-1.3,0C467.6,383.3,467.6,382,468.4,382L468.4,382z"/>
		</g>
		<g>
			<path class="st4" d="M471.5,480.8c3.4,9,5.6,18.5,6.6,28.1c1,9.7,0.8,19.4-0.7,29c-0.8,5.4-2,10.7-3.6,16
				c-0.2,0.8-1.4,0.4-1.2-0.4c2.8-9.2,4.4-18.7,4.8-28.3c0.4-9.6-0.5-19.2-2.5-28.6c-1.2-5.3-2.7-10.5-4.6-15.5
				C470,480.3,471.2,480,471.5,480.8L471.5,480.8z"/>
		</g>
		<g>
			<path class="st4" d="M590.4,459.7c0.8,11.6,1.7,23.3,2.5,34.9c0.8,10.6,1.1,21.5,3.3,31.9c1.2,5.6,2.9,11.1,5.6,16.2
				c0.4,0.7-0.7,1.3-1.1,0.6c-4.9-9.1-6.7-19.4-7.6-29.6c-1.1-11.4-1.7-22.8-2.6-34.1c-0.5-6.6-1-13.3-1.4-19.9
				C589.1,458.9,590.3,458.9,590.4,459.7L590.4,459.7z"/>
		</g>
		<g>
			<path class="st4" d="M602.9,542.8c-16.6-4.4-33.8-6.5-51-6.3c-17.1,0.2-34.3,2.6-50.8,7.3c-9.3,2.6-18.5,5.9-27.3,9.9
				c-0.7,0.3-1.3-0.8-0.6-1.1c15.9-7.2,32.7-12.2,49.8-14.9c17.1-2.7,34.4-3.2,51.6-1.3c9.7,1,19.3,2.8,28.7,5.3
				C604,541.8,603.7,543,602.9,542.8L602.9,542.8z"/>
		</g>
		<g>
			<path class="st4" d="M682.1,835.3c-5.9-3.6-13.5-3.1-19.5,0.1c-6.1,3.2-10.5,8.7-13.7,14.5c-2,3.7-3.6,7.6-5.2,11.4
				c-0.3,0.7-1.5,0.4-1.2-0.3c2.8-7,5.8-14.1,10.9-19.8c4.5-5.1,10.7-9,17.8-9.5c4-0.3,8,0.6,11.4,2.6
				C683.4,834.7,682.8,835.7,682.1,835.3L682.1,835.3z"/>
		</g>
		<g>
			<path class="st1" d="M642.8,863.3c-7.8-12.4-16.5-24.1-26.2-35.1c-9.6-10.9-20.1-21.1-31.3-30.4c-11.1-9.3-23-17.4-35.4-25
				c-11.5-7-23.8-14.6-29.4-27.4c-6.5-14.8-3.4-31.4,0.7-46.4c0.5-2,1.1-3.9,1.6-5.9c0.2-0.8,1.4-0.4,1.2,0.4
				c-4.3,15.2-8.8,31.6-4,47.3c2.1,6.8,6.1,12.7,11.3,17.6c5,4.7,10.8,8.4,16.6,11.9c6,3.7,12,7.3,17.9,11.3
				c6,4.1,11.7,8.4,17.4,12.9c11.2,9.1,21.8,19,31.5,29.7c9.7,10.7,18.5,22.1,26.4,34.1c1,1.5,1.9,2.9,2.8,4.4
				C644.3,863.3,643.2,863.9,642.8,863.3L642.8,863.3z"/>
		</g>
		<g>
			<path class="st4" d="M534.2,910.1c-0.8,0-0.8-1.3,0-1.3C535.1,908.9,535,910.1,534.2,910.1L534.2,910.1z"/>
		</g>
		<g>
			<path class="st4" d="M535.3,908.5c4.7,3.6,4.9,10.4,5.6,15.9c0.5,3.6,1,7.3,1.5,10.9c0.3,2.6,1.1,5.6-0.2,8
				c-1.4,2.9-4.9,2.3-7.5,2.2c-3.7-0.1-7.5-0.3-11.2-0.4c-7.5-0.3-14.9-0.5-22.4-0.8c-14.8-0.5-29.6-1-44.4-1.6
				c-2.5-0.1-5.3-0.3-7.5-1.7c-2.3-1.5-3.2-4-2.7-6.7c1.2-6.3,9-8.3,14.4-9.1c6.9-1,13.8-0.3,20.7-1.5c5.8-1,11.7-3.6,14.8-8.8
				c0.7-1.2,1.2-2.5,1.5-3.9c0.2-0.8,1.4-0.4,1.2,0.4c-1.1,5.2-5.3,9.2-9.9,11.3c-5.8,2.7-12.4,2.9-18.7,3.1
				c-3.3,0.1-6.6,0.2-9.9,0.7c-3,0.5-6.2,1.2-8.8,2.8c-2.4,1.5-4.4,3.9-4.2,6.9c0.3,2.9,2.8,4.3,5.4,4.8c3,0.6,6.1,0.4,9.1,0.5
				c3.5,0.1,7,0.3,10.6,0.4c7.1,0.3,14.2,0.5,21.3,0.8c14.2,0.5,28.3,1,42.5,1.5c1.4,0.1,3.1,0.2,4.2-0.9c0.9-0.9,1-2.2,1-3.4
				c0-1.5-0.2-2.9-0.4-4.3c-0.2-1.7-0.5-3.5-0.7-5.2c-0.5-3.4-0.9-6.9-1.4-10.3c-0.4-2.6-0.8-5.3-2-7.6c-0.6-1.2-1.4-2.2-2.5-3
				C534,909.1,534.6,908,535.3,908.5L535.3,908.5z"/>
		</g>
		<g>
			<path class="st1" d="M640.9,921.8c1.3-4,3-7.9,4.3-11.9c5-14.6,8.1-31.6-0.1-45.7c-0.9-1.5-1.9-3-3.1-4.4
				c-0.5-0.6,0.4-1.5,0.9-0.9c9.7,11.5,9.8,27.5,6.4,41.4c-1,4-2.3,8-3.6,11.9c-1.4,3.8-3,7.6-4.1,11.4c-1.1,3.6-1.6,7.4-0.5,11
				c1,3.3,3.5,5.7,6.7,6.8c6.8,2.3,13.6-1.4,18.5-5.9c5.3-4.9,9.6-11.1,12.5-17.7c2.9-6.7,4.4-13.8,4.6-21.1
				c0.2-7.7-0.7-15.8,2.2-23.2c1.3-3.4,3.5-6.3,5.2-9.5c1.8-3.2,2.8-6.7,2.5-10.4c-0.5-6.2-4.4-11.5-10-14c0.1,0,0.1,0,0.2,0
				c0.1,0.1,0.3,0.1,0.4,0.1l0,0c0.1,0,0.1,0,0.2,0c0,0,0,0,0.1,0c0.2,0.1,0.3,0.1,0.5,0.1c0,0,0.1,0,0.1,0c0.2,0,0.4,0,0.6-0.2
				c0.1-0.1,0.2-0.1,0.3-0.2c0,0,0,0,0,0c3,1.7,5.5,4.3,7,7.4c1.5,3.1,2.1,6.7,1.7,10.2c-0.5,3.7-2.2,6.9-4.1,10.1
				c-1,1.7-2,3.3-2.9,5.1c-0.9,1.8-1.5,3.6-1.9,5.6c-0.9,4-0.9,8-0.9,12.1c0,4,0.1,8.1-0.3,12.1c-0.4,3.7-1.2,7.3-2.3,10.9
				c-2.2,7-5.8,13.5-10.6,19.1c-4.5,5.3-10.4,10.6-17.6,11.4c-3.2,0.3-6.6-0.3-9.3-2.1c-2.8-1.9-4.6-4.9-5.1-8.2
				C638.9,929.2,639.7,925.4,640.9,921.8z"/>
		</g>
		<g>
			<path class="st4" d="M685.2,836.1c-0.6-0.2-1.3-0.3-1.9-0.3c0,0,0,0,0,0c-0.2-0.1-0.5-0.2-0.8-0.2c-0.4-0.1-0.8-0.1-1.2-0.2
				c-0.2-0.3-0.1-0.8,0.3-1c2.2-0.6,3.9,1.5,5.1,3c1.4,1.7,2.6,3.5,3.7,5.4c2.2,4,3.5,8.3,3.9,12.8c0.1,0.8-1.2,0.8-1.3,0
				c-0.4-4-1.6-7.9-3.4-11.4c-0.9-1.8-2-3.5-3.2-5.1c-0.2-0.3-0.5-0.6-0.8-0.9C686.3,837.5,686.2,836.4,685.2,836.1z"/>
		</g>
		<g>
			<path class="st4" d="M686.2,841.2c-1.9-1.5-4.5-1.5-6.6-0.4c-2.4,1.1-3.9,3.4-5.1,5.7c-1.3,2.6-2.1,5.5-2.9,8.3
				c-0.9,3-1.7,6.1-2.5,9.2c-2.9,11.3-5.6,22.8-11.4,32.9c-2.9,5.1-6.6,9.8-11.2,13.5c-0.6,0.5-1.4-0.4-0.8-0.9
				c8.6-6.8,13.8-17.1,17.2-27.5c2-6.2,3.6-12.5,5.2-18.7c0.8-3.2,1.7-6.3,2.6-9.4c0.8-2.8,1.7-5.6,3-8.3c1.3-2.6,3.2-4.9,5.8-6
				c2.4-1,5.2-1,7.3,0.7C687.4,840.6,686.8,841.7,686.2,841.2L686.2,841.2z"/>
		</g>
		<g>
			<path class="st4" d="M541.6,936.3c-12.4-0.1-24.8-0.2-37.3-0.3c-6.2-0.1-12.4-0.1-18.6-0.2c-6.1-0.1-12.3,0.1-18.4-0.2
				c-5.5-0.3-11.6-1.8-14.6-6.9c-0.4-0.7,0.7-1.3,1.1-0.6c2.6,4.6,8.2,6,13.2,6.3c2.9,0.2,5.9,0.1,8.8,0.1c3,0,6.1,0.1,9.1,0.1
				c12.1,0.1,24.1,0.2,36.2,0.3c6.8,0.1,13.7,0.1,20.5,0.2C542.4,935.1,542.4,936.3,541.6,936.3L541.6,936.3z"/>
		</g>
		<g>
			<path class="st4" d="M612.7,490.7c3.7,16.5,8.5,32.7,14.6,48.5c1.7,4.5,3.6,9,5.5,13.5c0.2,0.4-0.2,1.1-0.7,0.9
				c-8.7-3.7-17.5-7.4-26.2-11.1c-0.7-0.3-0.4-1.5,0.4-1.2c8.7,3.7,17.5,7.4,26.2,11.1c-0.2,0.3-0.5,0.6-0.7,0.9
				c-6.8-15.6-12.5-31.8-16.9-48.2c-1.2-4.7-2.4-9.3-3.4-14C611.3,490.2,612.5,489.9,612.7,490.7L612.7,490.7z"/>
		</g>
		<g>
			<path class="st4" d="M607.5,542.6c-4.5-0.4-6.8-4.6-7.9-8.5c-1.4-5-2.5-10-3.8-15.1c-0.7-2.9-1.5-5.8-2.2-8.7
				c-0.2-0.8,1-1.1,1.2-0.3c1.5,6.1,3,12.1,4.6,18.2c0.7,2.8,1.2,5.8,2.4,8.4c1.1,2.3,3,4.5,5.7,4.7
				C608.3,541.5,608.3,542.7,607.5,542.6L607.5,542.6z"/>
		</g>
		<g>
			<path class="st4" d="M613.6,369.8c-8.7-8.5-17.9-16.4-27.6-23.8c-9.6-7.3-19.7-14.1-30.2-20.2c-10.4-6.1-21.3-11.6-32.4-16.5
				c-11.1-4.9-22.5-9-34.1-12.5c-11.6-3.5-23.4-6.3-35.4-8.4c-1.5-0.3-3-0.5-4.5-0.7c-0.8-0.1-0.8-1.4,0-1.3
				c12,1.9,23.9,4.5,35.7,7.8c11.7,3.3,23.3,7.4,34.5,12.1c11.2,4.7,22.2,10.1,32.8,16.1c10.6,6,20.9,12.7,30.7,19.9
				c9.8,7.2,19.2,15,28,23.4c1.1,1,2.2,2.1,3.3,3.2C615,369.5,614.1,370.3,613.6,369.8L613.6,369.8z"/>
		</g>
		<g>
			<path class="st4" d="M512.3,272.1c-15.6,2-30.9,5.8-45.6,11.2c-14.8,5.5-28.9,12.6-42.1,21.3c-13.2,8.6-25.4,18.8-36.2,30.2
				c-11.8,12.4-22,26.2-31.3,40.5c-9.3,14.4-17.7,29.3-25.9,44.3c-1,1.9-2.1,3.7-3.1,5.6c-0.4,0.7-1.5,0-1.1-0.7
				c8.3-15.2,16.7-30.4,25.9-45.1c9.1-14.5,19-28.4,30.5-41.2c10.7-11.9,22.7-22.5,35.9-31.6c13-9,27-16.6,41.6-22.4
				c14.6-5.9,29.8-10.1,45.3-12.5c1.9-0.3,3.9-0.6,5.8-0.8C512.8,270.8,513.1,272,512.3,272.1L512.3,272.1z"/>
		</g>
		<g>
			<path class="st4" d="M454.2,291.1c-14,1.4-28,2.8-42,4.3c-13.5,1.4-27,2.6-40.4,5.1c-12.5,2.4-24.7,6.3-36.2,11.8
				c-11,5.2-21.3,11.6-31.3,18.5c-10.1,7-19.8,14.7-29.5,22.4c-1.2,0.9-2.4,1.9-3.6,2.8c-0.6,0.5-1.5-0.4-0.9-0.9
				c9.6-7.7,19.3-15.4,29.3-22.6c10-7.2,20.4-13.9,31.3-19.4c11.2-5.7,23-10,35.3-12.8c13.2-2.9,26.7-4.3,40.2-5.6
				c14.1-1.4,28.3-2.9,42.4-4.3c1.7-0.2,3.5-0.4,5.2-0.5C455.1,289.8,455,291,454.2,291.1L454.2,291.1z"/>
		</g>
		<g>
			<path class="st4" d="M472.6,311.9c-11.5-9.8-23.9-18.4-37-25.8c-13.1-7.4-27-13.5-41.3-18.3c-8.1-2.7-16.3-4.9-24.6-6.7
				c-0.8-0.2-0.4-1.4,0.4-1.2c14.9,3.2,29.4,7.9,43.4,13.9c13.9,6,27.2,13.3,39.7,21.8c7,4.8,13.8,9.9,20.3,15.5
				C474.1,311.5,473.2,312.4,472.6,311.9L472.6,311.9z"/>
		</g>
		<g>
			<path class="st4" d="M464.9,322.5c-10.9-6.9-21.7-14-32.3-21.2c-10.6-7.3-21-14.7-31.3-22.4c-5.8-4.3-11.6-8.7-17.3-13.1
				c-0.6-0.5,0-1.6,0.7-1.1c10.2,7.9,20.5,15.6,31,23.1c10.4,7.5,21,14.8,31.7,21.8c6,4,12.1,7.9,18.2,11.8
				C466.2,321.9,465.6,323,464.9,322.5L464.9,322.5z"/>
		</g>
		<g>
			<path class="st4" d="M476.4,310.8c-13.1-0.9-26.2-2-39.3-3.3c-13.1-1.3-26.3-2.7-39.4-4.3c-7.3-0.9-14.7-1.9-22-2.9
				c-0.8-0.1-0.8-1.4,0-1.3c13,1.8,26.1,3.4,39.2,4.9c13.1,1.5,26.3,2.8,39.4,3.9c7.4,0.6,14.8,1.2,22.1,1.7
				C477.2,309.6,477.2,310.8,476.4,310.8L476.4,310.8z"/>
		</g>
		<g>
			<path class="st4" d="M514.6,271.3c-8.5,2.2-16.6,5.8-24.3,10.1c-7.7,4.3-15,9.2-22.4,14.1c-7.4,4.9-14.9,9.6-22.9,13.6
				c-8,4-16.4,6.7-24.9,9.5c-8.4,2.8-17,5.9-24.3,11.1c-0.9,0.7-1.8,1.3-2.7,2.1c-0.6,0.5-1.5-0.4-0.9-0.9
				c6.9-5.7,15.1-9.2,23.5-12.2c8.6-3,17.3-5.5,25.5-9.3c8.1-3.7,15.7-8.4,23.2-13.3c7.5-4.9,14.9-9.9,22.6-14.4
				c7.6-4.4,15.5-8.3,23.9-10.8c1.1-0.3,2.2-0.6,3.2-0.9C515.1,269.8,515.4,271.1,514.6,271.3L514.6,271.3z"/>
		</g>
		<g>
			<path class="st4" d="M447.3,252c0,18.3,0.1,36.5,0.1,54.8s0.1,36.5,0.1,54.8c0,10.2,0.1,20.4,0.1,30.7c0,0.8-1.3,0.8-1.3,0
				c0-18.3-0.1-36.5-0.1-54.8s-0.1-36.5-0.1-54.8c0-10.2-0.1-20.4-0.1-30.7C446.1,251.1,447.3,251.1,447.3,252L447.3,252z"/>
		</g>
		<g>
			<path class="st4" d="M446.7,289.6c-1.6,19.6-3.5,39.2-5.6,58.8c-2.1,19.5-4.4,38.9-7,58.3c-1.5,11-3,22-4.6,32.9
				c-0.1,0.8-1.4,0.8-1.3,0c2.9-19.5,5.5-39,7.8-58.5c2.4-19.4,4.5-38.9,6.4-58.4c1.1-11,2.1-22.1,3-33.1
				C445.5,288.8,446.7,288.8,446.7,289.6L446.7,289.6z"/>
		</g>
		<g>
			<path class="st4" d="M464,474.2c-3.5,8.7-7,17.3-10.4,26c-1.6,4.1-3.2,8.3-5,12.3c-0.7,1.6-1.6,3.1-3,4.2
				c-1.4,1.1-3.1,1.6-4.9,1.7c-3.7,0.2-7.6-1.1-10.9-2.6c-3.4-1.6-6.6-3.8-9-6.7c-2.3-2.9-4-6.3-4.4-10c-0.5-4.3,0.8-8.4,2.2-12.3
				c3.6-9.8,7.2-19.6,10.8-29.3c0.3-0.8,1.5-0.4,1.2,0.4c-3,8.2-6.1,16.5-9.1,24.7c-1.5,4-3.3,8.1-3.9,12.4
				c-0.5,3.7,0.3,7.3,2.1,10.6c3.6,6.5,11,10.5,18.2,11.6c1.7,0.3,3.6,0.3,5.3-0.4c1.7-0.7,2.9-2,3.7-3.6c0.9-1.7,1.5-3.5,2.3-5.3
				c0.8-2,1.6-4,2.4-6.1c3.7-9.2,7.4-18.5,11.1-27.7C463.1,473.1,464.3,473.5,464,474.2L464,474.2z"/>
		</g>
		<g>
			<path class="st4" d="M423.9,471.6c-2.5-2.1-6.3-1.3-7.9,1.5c-0.7,1.2-1.1,2.6-2.2,3.5c-0.7,0.6-2.5,1-2.7,2
				c-0.2,0.9,1.2,1.7,1.7,2.2c0.7,0.7,1.1,1.6,0.8,2.6c-0.3,1.2-1.5,1.7-2.1,2.7c-0.4,0.8-0.1,1.6,0.1,2.4c0.2,0.8,0.3,1.7,0.3,2.5
				c0,1.9,0.4,3.5,1.7,5c1.3,1.4,2.9,2.4,4.5,3.3c0.7,0.4,0,1.5-0.7,1.1c-2.9-1.7-6.1-3.8-6.7-7.3c-0.1-0.9-0.1-1.8-0.1-2.7
				c0-1-0.4-2-0.5-3c-0.2-1.6,0.8-2.4,1.8-3.5c1.1-1.2,0-2-0.9-2.8c-0.8-0.8-1.5-1.7-1.1-2.9c0.4-1.2,1.8-1.6,2.8-2.3
				c1.4-1,1.7-2.9,2.7-4.2c2.3-3,6.5-3.3,9.4-0.9C425.5,471.2,424.6,472.1,423.9,471.6L423.9,471.6z"/>
		</g>
		<g>
			<path class="st4" d="M425.4,512.6c-1.2,1.6-1.4,3.6-2.6,5.2c-1.2,1.6-3.1,2.1-5,1.6c-1.9-0.5-3.2-2.1-3.9-3.9
				c-0.8-2.2-0.5-4.5,0-6.7c0.7-2.9,1.9-5.8,1.5-8.9c-0.1-0.8,1.2-0.8,1.3,0c0.3,2.9-0.7,5.7-1.4,8.5c-0.6,2.5-1.1,5.3,0.2,7.6
				c1,1.9,3.8,3.3,5.7,1.7c1.7-1.4,1.7-4,3.1-5.7C424.9,511.3,425.9,512,425.4,512.6L425.4,512.6z"/>
		</g>
		<g>
			<path class="st4" d="M472.7,343.2c2,0.2,3.1,1.9,3.9,3.5c1,2.1,1.7,4.4,2.1,6.7c0.9,4.6,0.8,9.4-0.3,14c-0.2,0.8-1.4,0.4-1.2-0.4
				c1-4.1,1.1-8.4,0.4-12.5c-0.3-2-0.9-4-1.6-5.8c-0.6-1.5-1.5-4.1-3.4-4.3C471.8,344.4,471.9,343.1,472.7,343.2L472.7,343.2z"/>
		</g>
		<g>
			<path class="st4" d="M473.5,397c4.5,8.7,7,18.3,7.6,28.1c0.6,9.7-0.7,19.6-4,28.8c-1.8,5.2-4.3,10.2-7.3,14.8
				c-0.4,0.7-1.5,0-1.1-0.7c5.2-8,8.7-17.1,10.2-26.6c1.6-9.5,1.3-19.3-1-28.7c-1.3-5.3-3.1-10.3-5.6-15.1
				C472,396.9,473.1,396.3,473.5,397L473.5,397z"/>
		</g>
		<g>
			<path class="st4" d="M585.8,416.7c-4.2-5.7-9.8-10.2-16.2-13.1c-3.3-1.5-6.7-2.5-10.2-3.1c-4.3-0.7-8.6-0.7-12.9-0.9
				c-4.3-0.2-8.5-0.7-12.7-1.7c-4.1-1-8-2.3-12-3.6c-8-2.7-16.2-5.6-24.7-6c-8-0.4-16.5,1.6-22.4,7.3c-0.6,0.6-1.4-0.3-0.9-0.9
				c5.2-5.1,12.4-7.4,19.6-7.7c8.6-0.3,17,2.2,25,4.9c8.3,2.8,16.6,5.7,25.4,6.3c4.4,0.3,8.8,0.3,13.2,0.8c3.7,0.4,7.4,1.3,10.9,2.7
				c7.5,3,14.1,8,18.9,14.5C587.4,416.8,586.3,417.4,585.8,416.7L585.8,416.7z"/>
		</g>
		<g>
			<path class="st4" d="M591.5,431.6c-7.9,0.6-14.1-5.2-19.7-9.9c-2.9-2.4-6-4.9-9.6-6.2c-3.9-1.4-8-1.4-12.1-1.1
				c-4,0.3-8.1,0.8-12.2,0.4c-4.2-0.5-8.1-2.1-12-3.6c-6.9-2.6-14.3-3.8-21.7-3.2c-8.3,0.7-16.4,3.4-23.3,8
				c-0.7,0.4-1.3-0.7-0.6-1.1c12.2-8.1,28.1-10.5,42.1-6.3c4,1.2,7.7,3,11.7,4.1c4.1,1.1,8.3,1,12.5,0.6c4.1-0.3,8.2-0.8,12.2-0.1
				c3.8,0.6,7.2,2.4,10.2,4.6c6.7,4.9,13.2,13,22.3,12.3C592.3,430.2,592.3,431.5,591.5,431.6L591.5,431.6z"/>
		</g>
		<g>
			<path class="st4" d="M477.5,410.6c-9-5.1-19.5-7.3-29.8-6.5c-3,0.2-5.9,0.7-8.8,1.5c-0.8,0.2-1.1-1-0.3-1.2
				c10.3-2.6,21.3-2.1,31.3,1.5c2.8,1,5.5,2.3,8.1,3.7C478.9,409.9,478.2,411,477.5,410.6L477.5,410.6z"/>
		</g>
		<g>
			<path class="st4" d="M479.6,438.4c-9.3-8.7-21.7-13.8-34.3-14.5c-3.6-0.2-7.2,0-10.8,0.5c-0.8,0.1-1.1-1.1-0.3-1.2
				c12.9-2,26.4,0.9,37.6,7.7c3.1,1.9,6.1,4.2,8.8,6.7C481.1,438.1,480.2,438.9,479.6,438.4L479.6,438.4z"/>
		</g>
		<g>
			<path class="st4" d="M590.2,452.5c-12.8-8.5-27.1-14.6-42.1-17.8c-14.9-3.2-30.7-3.8-45.8-0.8c-8.5,1.7-16.8,4.6-24,9.4
				c-0.7,0.4-1.3-0.7-0.6-1.1c13.1-8.6,29.2-11.3,44.6-11.4c15.5-0.1,31.1,2.9,45.5,8.6c8.1,3.2,15.8,7.2,23.1,12.1
				C591.5,451.9,590.9,452.9,590.2,452.5L590.2,452.5z"/>
		</g>
		<g>
			<path class="st4" d="M589.7,473.5c-10.7-9.8-25.8-12.6-39.5-15.7c-8-1.8-16.1-3.4-24.4-3.5c-7.8-0.1-15.5,0.8-23.1,2.6
				c-8.6,2-16.9,5.1-24.8,9c-0.7,0.4-1.3-0.7-0.6-1.1c14.2-7,29.7-11.5,45.5-11.8c8.3-0.1,16.5,1.1,24.6,2.9
				c7.4,1.6,15,3.3,22.2,5.5c7.6,2.4,15,5.8,20.9,11.2C591.2,473.2,590.3,474,589.7,473.5L589.7,473.5z"/>
		</g>
		<g>
			<path class="st4" d="M590.4,495.6c-13.8-7.7-28.8-13.3-44.4-16.4c-8.1-1.6-16.3-2.8-24.6-2.3c-4.1,0.3-8.1,1-12,2.2
				c-3.9,1.2-7.7,2.8-11.5,4.3c-8.3,3.3-17.1,6.6-26.2,5.6c-0.8-0.1-0.8-1.3,0-1.3c8.4,1,16.5-1.8,24.2-4.9c7.5-3,15-6.1,23.2-7
				c8.2-0.9,16.4,0.1,24.5,1.6c7.9,1.5,15.6,3.5,23.1,6.2c8.4,3,16.5,6.6,24.3,11C591.8,495,591.1,496,590.4,495.6L590.4,495.6z"/>
		</g>
		<g>
			<path class="st4" d="M592.5,517.3c-4.4-5.8-11.2-9.5-18.5-9.9c-4.2-0.3-8.4,0.3-12.6,0.3c-4-0.1-7.6-0.9-11.2-2.6
				c-3.4-1.6-6.5-3.7-10-5c-4-1.5-8.2-1.5-12.5-0.9c-4.4,0.6-8.8,1.4-13.1,2.2c-4.4,0.8-8.8,1.6-13.2,2.4
				c-8.2,1.5-17.1,2.9-23.9,8.2c-0.6,0.5-1.5-0.4-0.9-0.9c6.1-4.8,13.7-6.5,21.1-7.9c8.9-1.6,17.7-3.3,26.6-4.7
				c4.2-0.7,8.6-1.3,12.9-0.5c3.7,0.7,7.1,2.6,10.4,4.4c3.6,1.9,7.2,3.6,11.3,4c4.3,0.4,8.7-0.2,13-0.2c8.4,0.1,16.3,3.7,21.4,10.4
				C593.9,517.1,593,517.9,592.5,517.3L592.5,517.3z"/>
		</g>
		<g>
			<path class="st4" d="M599,538.5c-16.4-4.9-33-9-49.8-12.4c-16-3.2-32.6-5.3-48.7-1.8c-8.2,1.7-16.1,4.9-22.9,9.7
				c-0.7,0.5-1.3-0.6-0.6-1.1c12.5-8.8,28.1-11.9,43.2-11.6c8.6,0.2,17.2,1.3,25.6,2.9c8.5,1.6,17,3.5,25.4,5.5
				c9.5,2.3,18.9,4.8,28.2,7.6C600.2,537.5,599.8,538.7,599,538.5L599,538.5z"/>
		</g>
		<path d="M494.8,368.3l-12.5-20.9c0,0-6.4-8.2-11.5-3.3c0,0-1.3,1.2-1.5,11.2l-1.5,1.6l-3.4-6.8l-4.9-5.1c0,0-4.9-6.4,2.9-16.2
			s15.5-19.7,15.5-19.7s8.9-7.3,15.2-5.9c6.2,1.4,9.9,4,9.9,4l13.7,2.8c0,0,5.1-2.4,9.9,4c4.9,6.4,5.9,13.9,4.6,16.4
			c-1.3,2.5-5.4,14.9-5.4,14.9l0.9,15.1l-0.4,6.4c0,0-7-9.1-18.4-6.8S494.8,368.3,494.8,368.3z"/>
		<g>
			<g>
				<path d="M607.7,541.5c-2.4,1.7-4.8,3.5-7.1,5.2c-0.6,0.5-1,1.3-0.5,2.1c0.4,0.6,1.4,1,2.1,0.5c2.4-1.7,4.8-3.5,7.1-5.2
					c0.6-0.5,1-1.3,0.5-2.1C609.4,541.4,608.4,541,607.7,541.5L607.7,541.5z"/>
			</g>
		</g>
		<g>
			<g>
				<path d="M628.8,553.7c1.6,2.7,0.1,5.9-1.9,8c-2.3,2.3-5.2,4-7.9,5.7c-5.9,3.7-12,7-18.3,9.8c-1.8,0.8-0.2,3.4,1.5,2.6
					c7.2-3.2,14.1-7,20.6-11.3c2.9-1.9,5.9-3.8,7.8-6.7c1.9-2.8,2.5-6.6,0.7-9.6C630.5,550.5,627.9,552,628.8,553.7L628.8,553.7z"/>
			</g>
		</g>
		<path d="M418.1,505.4l-0.6,5.2c0,0-0.6,7.3-3,2.1c0,0-0.6,5.8,4.8,7s5.4-7.2,5.4-7.2L418.1,505.4z"/>
		<path class="st1" d="M465.2,358.7c0,0-1.2,6.2,0.7,9.3c2,3,2.2,5.1-0.6,5.2"/>
	</g>
	<g>
		<g>
			<path class="st5" d="M467.6,200.2c1.6,7.6,3.2,15.1,4.8,22.7c0.4,1.9,3.3,1.1,2.9-0.8c-1.6-7.6-3.2-15.1-4.8-22.7
				C470.1,197.5,467.2,198.3,467.6,200.2L467.6,200.2z"/>
		</g>
	</g>
	<g>
		<g>
			<path class="st5" d="M509.3,214c1.1,9.3,2.2,18.6,3.4,27.9c0.2,1.9,3.2,1.9,3,0c-1.1-9.3-2.2-18.6-3.4-27.9
				C512.1,212.1,509.1,212,509.3,214L509.3,214z"/>
		</g>
	</g>
	<g>
		<g>
			<path class="st5" d="M395.4,183.8c1.5,7.6,3,15.2,4.4,22.7c0.4,1.9,3.3,1.1,2.9-0.8c-1.5-7.6-3-15.2-4.4-22.7
				C397.9,181.1,395,181.9,395.4,183.8L395.4,183.8z"/>
		</g>
	</g>
	<g>
		<g>
			<path class="st5" d="M334.9,199.7c1.5,9.3,3.1,18.7,4.6,28c0.3,1.9,3.2,1.1,2.9-0.8c-1.5-9.3-3.1-18.7-4.6-28
				C337.5,197,334.6,197.8,334.9,199.7L334.9,199.7z"/>
		</g>
	</g>
	<g>
		<g>
			<path class="st5" d="M360.6,135.7c2.3,8.9,4.6,17.9,7,26.8c0.5,1.9,3.4,1.1,2.9-0.8c-2.3-8.9-4.6-17.9-7-26.8
				C363,133,360.1,133.8,360.6,135.7L360.6,135.7z"/>
		</g>
	</g>
	<g>
		<g>
			<path class="st5" d="M490.7,178.3c1.9,7.1,3.8,14.2,5.7,21.4c0.5,1.9,3.4,1.1,2.9-0.8c-1.9-7.1-3.8-14.2-5.7-21.4
				C493.1,175.7,490.2,176.5,490.7,178.3L490.7,178.3z"/>
		</g>
	</g>
	<g>
		<g>
			<path class="st5" d="M428.1,223.2c0.8,3.3,1.6,6.5,2.4,9.8c0.2,0.8,1.1,1.3,1.8,1c0.8-0.2,1.2-1.1,1-1.8
				c-0.8-3.3-1.6-6.5-2.4-9.8c-0.2-0.8-1.1-1.3-1.8-1C428.4,221.5,427.9,222.4,428.1,223.2L428.1,223.2z"/>
		</g>
	</g>
	<g>
		<g>
			<path class="st5" d="M359.7,197.6c0.8,2.1,1.7,4.2,2.5,6.3c0.2,0.4,0.3,0.7,0.7,0.9c0.3,0.2,0.8,0.3,1.2,0.2
				c0.7-0.2,1.4-1.1,1-1.8c-0.8-2.1-1.7-4.2-2.5-6.3c-0.2-0.4-0.3-0.7-0.7-0.9c-0.3-0.2-0.8-0.3-1.2-0.2
				C360.1,196,359.4,196.9,359.7,197.6L359.7,197.6z"/>
		</g>
	</g>
	<g>
		<g>
			<path class="st5" d="M329.1,156.7c0.2,1.5,0.4,3,0.6,4.5c0.1,0.4,0.1,0.8,0.4,1.1c0.3,0.3,0.7,0.5,1.1,0.4c0.4,0,0.8-0.1,1.1-0.4
				c0.2-0.3,0.5-0.7,0.4-1.1c-0.2-1.5-0.4-3-0.6-4.5c-0.1-0.4-0.1-0.8-0.4-1.1c-0.3-0.3-0.7-0.5-1.1-0.4c-0.4,0-0.8,0.1-1.1,0.4
				C329.3,155.9,329.1,156.3,329.1,156.7L329.1,156.7z"/>
		</g>
	</g>
	<g>
		<g>
			<path class="st5" d="M438.3,177c0,2.4-0.1,4.7-0.1,7.1c0,0.8,0.7,1.5,1.5,1.5c0.8,0,1.5-0.7,1.5-1.5c0-2.4,0.1-4.7,0.1-7.1
				c0-0.8-0.7-1.5-1.5-1.5C439,175.5,438.3,176.2,438.3,177L438.3,177z"/>
		</g>
	</g>
	<g>
		<g>
			<path class="st5" d="M474.8,154.9c0.2,2.7,0.5,5.3,0.7,8c0.1,0.8,0.6,1.5,1.5,1.5c0.8,0,1.6-0.7,1.5-1.5c-0.2-2.7-0.5-5.3-0.7-8
				c-0.1-0.8-0.6-1.5-1.5-1.5C475.5,153.4,474.7,154,474.8,154.9L474.8,154.9z"/>
		</g>
	</g>
	<g>
		<g>
			<path class="st5" d="M379.4,217c1,6.5,2,13,3.1,19.5c0.1,0.8,1.1,1.2,1.8,1c0.9-0.2,1.2-1,1-1.8c-1-6.5-2-13-3.1-19.5
				c-0.1-0.8-1.1-1.2-1.8-1C379.6,215.4,379.3,216.2,379.4,217L379.4,217z"/>
		</g>
	</g>
</g>
</svg>
