<?xml version="1.0" encoding="utf-8"?>
<!-- Generator: Adobe Illustrator 24.0.0, SVG Export Plug-In . SVG Version: 6.00 Build 0)  -->
<svg version="1.1" id="Layer_1" xmlns="http://www.w3.org/2000/svg" xmlns:xlink="http://www.w3.org/1999/xlink" x="0px" y="0px"
	 viewBox="0 0 960 1080" style="enable-background:new 0 0 960 1080;" xml:space="preserve">
<style type="text/css">
	.st0{fill:#F2EEFF;}
	.st1{fill:#5700FF;}
	.st2{fill:none;stroke:#000000;stroke-width:0.2;stroke-miterlimit:10;}
	.st3{fill:#FFFFFF;}
</style>
<rect class="st0" width="960" height="1080"/>
<g>
	<path d="M605.3,512.7c0,0-0.9,12.5-3.3,17c-2.4,4.5-7.6,21.4-3.6,47.5s10.2,47.5,10.2,47.5l8.2,34.4l8.7,34.3l13.8,45.1l21.6,68.9
		l6.6,22.8c0,0,4.7,17.2-16.7,18c-21.4,0.8-25,1.7-25,1.7l-5.7,4.2l-6.2-15.4l-40-100.5l-41.1-103.7l-7.5-19.4
		c0,0-11.5-49.7-10.3-57.8c1.1-8,0.4-20.3,0.4-20.3l73.1-11.2C588.8,525.7,604.1,523.4,605.3,512.7z"/>
	<g>
		<path d="M481.4,199.8c4,5.6,6,12.4,6.7,19.3s0.3,13.7-0.1,20.6c-0.2,4.1-0.8,8.8-4,11.3c-3.9,3.1-9.6,1.6-14.4,3
			c-3.5,1.1-6.4,3.9-7.6,7.3s-0.7,7.4,1.3,10.5c14.2,1.1,28.7-5.9,36.7-17.6c1.6-2.3,2.9-4.9,2.9-7.7c0.1-6.7-7.2-11.3-8.4-17.8
			c-1-5.8,3-11.4,7.9-14.6c3.2-2.1,7.3-3.5,10.7-1.8c3.1,1.6,4.5,5.3,4.8,8.7c0.3,3.5-0.1,7,0.5,10.4c1.1,5.4,4.8,9.9,8.8,13.7
			c4,3.8,8.4,7.3,11.4,12c-4.2-4.7-5-11.6-3.6-17.8s4.5-11.7,7.6-17.2c3.1-5.5,6.1-11.1,7.1-17.3c2-12.4-5-25.1-15.2-32.4
			s-23.2-9.7-35.8-9.5c-14.2,0.2-28.5,3.7-40.7,10.9c-2.4,1.4-5,3.3-5.6,6c-0.6,2.6,0.7,5.3,2.7,7.1c2,1.8,4.5,2.8,7,3.9
			c2.2-3.6,6.3-6,10.5-6.2s8.5,2,10.9,5.5c1.2,1.7,2,3.9,1.5,5.9c-0.4,2.1-2.3,3.9-4.4,3.8"/>
	</g>
	<g>
		<g>
			<path d="M461,191.6c-0.6,5.6-1.1,11.1-1.7,16.7c-0.3,2.6-0.4,5.4-1.1,8c-0.7,2.5-2.1,4.4-3.9,6.3c-2.5,2.6-5.8,6.1-4.4,10.1
				c0.6,1.8,2.2,2.7,3.7,3.5c2.2,1.1,4.1,2.7,5.5,4.8c1.6,2.3,2.4,5.1,3.1,7.9c0.7,3,1.2,6,1.9,9c0.1,0.6,1.1,0.4,1-0.3
				c-1-4.8-1.6-10-3.6-14.5c-0.9-2.1-2.2-3.9-3.9-5.4c-1.6-1.4-3.5-2.1-5.2-3.3c-2.2-1.6-2-4.4-0.9-6.6c1-2,2.8-3.5,4.3-5.1
				c1.4-1.5,2.6-3.2,3.3-5.2c0.7-2.3,0.9-4.7,1.1-7.1c0.6-6.2,1.3-12.4,1.9-18.6C462,191,461,191,461,191.6L461,191.6z"/>
		</g>
	</g>
	<g>
		<g>
			<path d="M538.9,250.7c2.3-1.4,5-0.7,7.1,0.8c2.4,1.7,3.7,4.3,4.4,7.2c0.8,3,1,6.1,1.7,9.2c0.5,2.2,1.4,4.4,2.5,6.4
				c4.7,8.6,13,14.3,19.4,21.5c3.9,4.4,6.7,9.4,8.5,15c2,5.9,3,12,4.2,18c2.6,13.3,5.3,26.6,7.5,40c2.5,15.2,4.6,30.4,5.7,45.7
				c0,0.6,1,0.6,1,0c-2-28.1-7.3-55.7-12.7-83.3c-2.4-11.9-4.2-24.4-11.9-34.2c-6.3-7.9-15.3-13.7-20.5-22.6
				c-1.5-2.6-2.5-5.5-3.1-8.5c-0.7-3.5-0.9-7.1-2.3-10.3c-1.8-4.3-7.3-8.4-12-5.7C537.9,250.2,538.4,251.1,538.9,250.7L538.9,250.7z
				"/>
		</g>
	</g>
	<g>
		<g>
			<path d="M600.5,411c-5.5,13.5-8.1,28-7.7,42.6c0.2,7.3,1,14.5,2.7,21.7c1.7,7.3,4.3,14.1,7.1,21c2.6,6.4,4.8,14.2,1.1,20.7
				c-3.4,6-10.7,7.4-16.9,8.4c-16.4,2.7-32.7,5.2-49.1,7.9c-8.2,1.3-16.3,2.6-24.5,3.9c-4.1,0.7-8.2,1.3-12.2,2
				c-4,0.6-8.2,1.7-12.3,1.6c-6.6-0.1-10.3-5.3-12-11.1c-1.9-6.5-2.1-13.5-2.6-20.2c-1.3-16.3-2.1-32.6-2.5-49
				c-0.4-16.4-0.3-32.8,0.2-49.3c0.5-16.3,1.5-32.7,2.9-48.9c1.4-16.5,3.3-32.9,5.7-49.3c0.6-4,1.2-7.9,1.8-11.9
				c0.1-0.6-0.9-0.9-1-0.3c-2.6,16.4-4.7,32.9-6.4,49.5c-1.7,16.7-2.9,33.4-3.6,50.1c-0.7,16.8-1,33.7-0.8,50.5
				c0.2,16.7,0.9,33.5,2.1,50.2c0.5,7.6,0.9,15.3,2,22.9c0.8,5.2,2.2,11,6.2,14.7c5.3,4.8,12.8,2.6,19.1,1.6
				c8.4-1.3,16.8-2.7,25.2-4c16.7-2.7,33.5-5.4,50.2-8c4.1-0.7,8.3-1.3,12.4-2c3.1-0.5,6.3-1.2,9.3-2.4c2.7-1.1,5.2-2.8,6.9-5.3
				c1.8-2.5,2.6-5.7,2.8-8.8c0.3-7.6-3.4-14.4-6-21.3c-2.7-7-4.5-14.4-5.6-21.8c-2.2-15-1.2-30.5,3-45.1c1-3.5,2.2-7,3.6-10.4
				C601.7,410.7,600.7,410.4,600.5,411L600.5,411z"/>
		</g>
	</g>
	<g>
		<g>
			<path d="M480.7,301.6c3.2-4.2,6.4-8.5,10.3-12.1c4-3.7,8.7-6.1,13.6-8.4c4.9-2.2,9.6-4.5,14-7.6c4.3-3.1,8.3-6.6,12.2-10.1
				c1.9-1.7,3.9-3.5,5.3-5.7c0.7-1.1,1.2-2.3,1.4-3.6c0.3-1.5,0.3-4.2,2.5-4c0.6,0.1,0.6-0.9,0-1c-2.4-0.2-3.1,2.3-3.3,4.1
				c-0.4,2.8-1.9,5-3.8,6.9c-3.8,3.9-8.2,7.5-12.5,10.8c-4.5,3.5-9.4,6.1-14.6,8.5c-4.9,2.2-9.8,4.5-13.9,8
				c-4.6,3.9-8.3,8.8-11.9,13.6C479.5,301.6,480.3,302.1,480.7,301.6L480.7,301.6z"/>
		</g>
	</g>
	<g>
		<path class="st1" d="M528.4,291.8c9.2-8.2,22.9-8.6,32.8-1.3c9.9,7.3,15.4,19.2,18.3,31.2c5.8,23.9,2.9,49-2.1,73
			c-12.2,57.4-36.8,112.1-71.7,159.2c-8.7-4.4-17.4-8.7-26.1-13.1c14.7-26.9,21.7-57.3,28.5-87.3c5.8-25.6,11.6-51.3,14.3-77.4
			c1.7-17.1,2.1-34.4,1.1-51.6c-0.6-9.7-1.5-19.8,2.5-28.6c4-8.8,20.2-13.6,28.7-9"/>
	</g>
	<g>
		<g>
			<path d="M604.4,519c-3.2,10.2-6.5,20.5-7.8,31.2c-1.4,10.8-0.2,21.7,1.7,32.4c3.9,21.8,9,43.5,14.4,65.1
				c3.1,12.2,6.4,24.4,9.9,36.5c0.2,0.6,1.1,0.4,1-0.3c-6.1-21.2-11.6-42.6-16.5-64.1c-2.4-10.7-4.7-21.4-6.8-32.1
				c-2.1-10.7-3.9-21.6-3.1-32.6c0.8-12.2,4.6-24,8.3-35.7C605.6,518.6,604.6,518.4,604.4,519L604.4,519z"/>
		</g>
	</g>
	<g>
		<g>
			<path d="M622.5,683.7c9.3,30.1,18.5,60.1,27.8,90.2c4.6,14.9,9.2,29.9,13.8,44.8c2,6.5,5.8,14.8,2.5,21.5
				c-2.5,5-8.2,6.9-13.4,7.5c-10.8,1.3-25.6-3.8-33.4,6.4c0.3,0,0.6,0.1,0.9,0.1c-12.1-30.8-24.3-61.7-36.4-92.5
				c-12.1-30.8-24.3-61.6-36.4-92.4c-6.8-17.4-13.7-34.7-20.5-52.1c-0.2-0.4-0.6-0.5-0.9-0.1c-18.5,24.4-35.3,50.1-50.1,76.9
				c-14.8,26.7-27.7,54.4-38.5,82.9c-6.1,16.1-11.6,32.4-16.4,48.9c0.2-0.1,0.4-0.2,0.6-0.3c-16-5.6-32.1-11.2-48.1-16.8
				c0.1,0.2,0.2,0.4,0.3,0.6c5.3-15.3,8.2-31.3,10.8-47.2c2.5-15.3,5-30.7,8.7-45.8c7.2-29.3,18-57.7,32-84.4
				c7.8-14.9,16.7-29.3,26.5-43.1c0.4-0.5-0.5-1-0.9-0.5c-17.4,24.5-31.8,51-42.9,78.9c-5.6,14-10.3,28.3-14.1,42.9
				c-4,15.1-6.7,30.4-9.2,45.8c-2.9,17.9-5.8,36-11.8,53.2c-0.1,0.3,0.1,0.5,0.3,0.6c16,5.6,32.1,11.2,48.1,16.8
				c0.3,0.1,0.5-0.1,0.6-0.3c8.6-29.3,19.2-58.1,31.9-85.9c12.6-27.7,27.2-54.5,43.6-80.2c9.3-14.5,19.1-28.6,29.5-42.3
				c-0.3,0-0.6-0.1-0.9-0.1c12.2,30.9,24.3,61.8,36.5,92.8c12.1,30.8,24.2,61.5,36.3,92.3c6.8,17.3,13.6,34.7,20.5,52
				c0.2,0.4,0.6,0.5,0.9,0.1c3.7-4.8,9.9-6,15.7-6.1c5.6-0.1,11.1,0.8,16.6,0.2c4.7-0.5,9.7-1.9,12.9-5.7c4.1-4.9,3.1-11.4,1.5-17.1
				c-4.4-15.3-9.4-30.5-14-45.7c-4.7-15.1-9.3-30.3-14-45.4c-5.3-17.2-10.6-34.4-15.9-51.5C623.2,682.8,622.3,683.1,622.5,683.7
				L622.5,683.7z"/>
		</g>
	</g>
	<g>
		<g>
			<path d="M450.6,590.3c9.1-13.6,16.6-28.4,22-43.9c1.6-4.4,3-8.9,4.2-13.5c0.2-0.6-0.8-0.9-1-0.3c-4.4,15.8-10.7,31.1-18.9,45.3
				c-2.3,4-4.7,8-7.3,11.8C449.4,590.3,450.3,590.8,450.6,590.3L450.6,590.3z"/>
		</g>
	</g>
	<g>
		<g>
			<path d="M515.3,538.2c-1.2,24.3,1.7,48.7,8.6,72c2,6.7,4.3,13.2,6.9,19.7c0.2,0.6,1.2,0.3,1-0.3c-9.2-22.6-14.4-46.7-15.5-71.1
				c-0.3-6.8-0.3-13.6,0.1-20.4C516.3,537.5,515.3,537.5,515.3,538.2L515.3,538.2z"/>
		</g>
	</g>
	<g>
		<g>
			<path d="M410.7,821.4c-5.2,9.1-9.2,18.9-11.5,29.1c-2.3,9.9-2.8,20.1-5.5,29.8c-0.7,2.5-1.5,5-2.6,7.4c-1,2.2-2.1,4.5-3.7,6.3
				c-1.8,2-4.2,2.9-6.9,2.2c-2.7-0.7-5.2-2.3-7.7-3.6c-10.3-5.4-20.5-10.8-30.8-16.2c-10.2-5.4-20.4-10.7-30.5-16.1
				c-9.4-4.9-19-10-27.1-16.9c-1.8-1.5-3.6-3.4-4.4-5.7c-0.9-2.5,0.2-5.1,2.7-6.2c2.5-1.1,5.2-0.6,7.7,0.2c2.6,0.8,5.2,1.7,7.9,2.5
				c10.2,3.1,20.8,5.6,31.5,5.8c9.9,0.2,20-1.6,28.8-6.3c7.5-4,14-10.2,17.8-17.9c0.9-1.8,1.6-3.7,2.2-5.7c0.2-0.6-0.8-0.9-1-0.3
				c-2.6,9-8.9,16.5-16.7,21.4c-8.9,5.6-19.5,7.8-29.9,7.8c-11.3,0-22.3-2.6-33.1-5.9c-2.7-0.8-5.4-1.8-8.1-2.6
				c-2.2-0.6-4.6-0.9-6.8-0.1c-4,1.4-5.2,5.5-3.2,9.1c2.3,4.2,7,7.1,10.8,9.7c4.5,3.1,9.1,5.8,13.9,8.4c10.2,5.6,20.7,10.9,31,16.4
				c10.5,5.5,21.1,11.1,31.6,16.6c2.7,1.4,5.3,2.8,8,4.2c2.1,1.1,4.3,2.3,6.7,2.5c4.7,0.5,7.6-3.7,9.5-7.5
				c4.6-9.4,5.6-19.9,7.2-30.1c1.7-10.7,4.7-21,9.4-30.8c1.2-2.5,2.5-4.9,3.8-7.2C411.8,821.4,411,820.9,410.7,821.4L410.7,821.4z"
				/>
		</g>
	</g>
	<g>
		<g>
			<path d="M357.6,833.2c0.5,7.5,4,14.8,9.7,19.7c5.5,4.8,13,7.6,20.4,7.1c4.1-0.3,8-1.7,11.1-4.4c0.5-0.4-0.2-1.1-0.7-0.7
				c-5.4,4.7-13.3,5-19.8,3c-6.8-2.1-12.6-6.7-16.1-12.9c-2-3.6-3.2-7.6-3.5-11.8C358.5,832.6,357.5,832.6,357.6,833.2L357.6,833.2z
				"/>
		</g>
	</g>
	<g>
		<g>
			<path d="M660.5,845.1c0.1,9.5,5.4,17.7,10.4,25.5c4.9,7.6,10,15.9,9.3,25.3c-0.3,4.1-1.7,8.2-4.7,11.2c-3,3.1-7.1,4.6-11.3,5.4
				c-4.4,0.8-8.9,0.9-13.3,1.1c-5.4,0.2-10.8,0.4-16.2,0.5c-10.9,0.4-21.8,0.7-32.7,1.1c-5.4,0.2-10.8,0.4-16.2,0.5
				c-5.2,0.2-10.6,0.7-15.8,0.2c-4.4-0.4-9.2-2.3-11.3-6.5c-2-4.3,0.1-9.2,3.3-12.3c3.5-3.3,8.2-4.9,12.6-6.5
				c5.1-1.8,10.1-3.7,15.2-5.5c4.9-1.8,9.9-3.6,14.8-5.4c4.1-1.5,8.1-3.2,11.8-5.5c6.6-4.2,12-11.5,11-19.7c-0.2-1.8-0.8-3.4-1.6-5
				c-0.3-0.6-1.2-0.1-0.9,0.5c2.2,3.9,2,8.5,0.4,12.6c-1.7,4.3-4.9,7.7-8.7,10.3c-3.9,2.6-8.3,4.4-12.6,6c-5,1.9-10.1,3.7-15.1,5.5
				c-5.2,1.9-10.4,3.8-15.5,5.7c-4.2,1.5-8.6,3.2-11.9,6.3c-2.8,2.7-4.8,6.7-4.3,10.6c0.5,3.9,3.5,6.9,7,8.4c4.4,1.9,9.3,1.7,14,1.5
				c5.6-0.2,11.2-0.4,16.7-0.6c11.2-0.4,22.5-0.8,33.7-1.1c5.6-0.2,11.2-0.4,16.7-0.6c5-0.2,10-0.2,15-0.7c8-0.8,16.2-3.6,19.5-11.5
				c3.3-8,1-16.8-2.9-24.1c-4.6-8.7-11.5-16.4-14.2-26.1c-0.7-2.4-1.1-4.8-1.1-7.3C661.5,844.5,660.5,844.5,660.5,845.1L660.5,845.1
				z"/>
		</g>
	</g>
	<g>
		<path class="st1" d="M582.5,307.8c-1.9-6.8,14.2,0.6,19.6,5.2c5.4,4.5,9.1,10.7,12.4,16.9c22.4,42.2,31.5,91.4,25.6,138.9
			c-0.8,6.7-2.1,13.6-5.8,19.3c-6.6,10-21.1,13.8-31.8,8.2c0,0-7.9-18.3-8.6-32.6c-0.7-14.3-0.3-30.4,6.2-52.1
			C600.1,411.6,594,349.2,582.5,307.8z"/>
	</g>
	<g>
		<g>
			<path d="M641.1,453.1c-15.2,4.3-31.6,3.8-46.6-1.5c-0.6-0.2-0.9,0.8-0.3,1c15.1,5.3,31.7,5.8,47.1,1.5
				C642,453.9,641.8,452.9,641.1,453.1L641.1,453.1z"/>
		</g>
	</g>
	<g>
		<g>
			<path d="M486.3,267.8c3.8,0.7,7.1,3.2,8.6,6.8c1.6,3.8,0.8,8.5-1.8,11.6c-0.4,0.5,0.3,1.2,0.7,0.7c2.9-3.4,3.8-8.4,2.1-12.5
				c-1.6-3.9-5.2-6.8-9.3-7.5C486,266.7,485.7,267.7,486.3,267.8L486.3,267.8z"/>
		</g>
	</g>
	<path class="st2" d="M535.6,252.6l-9.7-8.7c0,0-8.4-8.1-8-20.6s-9.8-12.9-11.7-11.4c-1.9,1.4-12.8,6.4-11.9,16.9
		c0,0,3.2,6.6,5.7,10c2.4,3.4,5.6,9.8-1.6,17.9c-7.2,8-17.5,12.9-21,14"/>
	<path d="M527.8,616.9c0,0-24.6,32-33.7,48.2c-9.1,16.2-18.5,31-18.5,31l-22.1,44.1c0,0-19.4,47.2-20.6,51
		c-1.1,3.7-11.4,34.6-11.4,34.6l-32.8-11.8l-14.9-4.8c0,0,10.2-38.6,10.8-48.8s15.2-75.3,22.2-88c0,0,21.8-52.4,27.7-57
		c0,0,27.2-42.8,28.7-48.4l13.6-34.1c0,0,3.5,9.6,14.1,8.3c10.6-1.4,24.4-4,24.4-4s1.1,25.1,2.7,38.6S527.8,616.9,527.8,616.9z"/>
	<g>
		<path class="st3" d="M488.7,526.4c-4.6-3.3-8,7.9-13.2,10c-5.2,2.1-10.9,4-14.6,8.3c-3.5,4.1-4.8,9.6-5.8,14.9
			c-1.4,6.9-2.9,13.8-4.3,20.8c-0.3,1.3-0.5,2.9,0.2,4c0.7,1,1.9,1.4,3,1.8c7.2,2.3,14.4,4.6,21.5,6.9c3.3,1,6.6,2.1,10,1.8
			c3.2-0.2,6.3-1.7,9-3.6c6.6-4.8,10.8-12.7,11.1-20.9c0.1-3.7-0.5-7.3-0.1-10.9c0.8-7.7,6.1-14.1,11.2-20
			C516.7,539.5,489.1,526.7,488.7,526.4z"/>
		<g>
			<path d="M488.9,526c-3.2-2.1-5.9,1.7-7.6,3.9c-1.3,1.7-2.6,3.6-4.3,5c-2,1.6-4.9,2.3-7.3,3.3c-2.7,1.2-5.3,2.6-7.5,4.5
				c-2.2,1.9-3.8,4.3-4.9,7c-1.2,2.9-1.9,5.9-2.6,9c-0.8,3.6-1.5,7.3-2.3,10.9c-0.8,3.7-1.6,7.3-2.3,11c-0.5,2.6,0,4.7,2.6,5.7
				c3.4,1.3,7,2.2,10.4,3.3c3.6,1.1,7.2,2.3,10.8,3.4c3.3,1,6.7,2.3,10.2,2.3c3.1,0.1,6.1-0.9,8.8-2.5c4.9-2.9,8.7-7.5,10.9-12.7
				c1.3-3,2-6.2,2.2-9.4c0.2-4.1-0.7-8.3,0-12.4c1.2-7.3,6.3-13.1,10.9-18.5c0.2-0.2,0.2-0.6-0.1-0.8c-8.1-3.8-16.2-7.5-24.3-11.3
				C491.4,527.2,490.1,526.7,488.9,526c-0.5-0.3-1,0.5-0.5,0.9c0.9,0.6,2,1,3,1.4c2.2,1,4.5,2.1,6.7,3.1c5,2.3,9.9,4.6,14.9,6.9
				c1.2,0.5,2.3,1.1,3.5,1.6c0-0.3-0.1-0.5-0.1-0.8c-3.7,4.3-7.5,8.7-9.7,14c-1.1,2.7-1.8,5.5-1.8,8.5c-0.1,3.3,0.4,6.6,0.2,10
				c-0.9,11.3-10.8,24.6-23.3,22.6c-3.4-0.5-6.6-1.8-9.8-2.8c-3.3-1-6.6-2.1-9.8-3.1c-1.6-0.5-3.3-1-4.9-1.6
				c-1.6-0.5-3.5-0.8-4.9-1.7c-1.6-1-1.3-2.8-1-4.4c0.4-1.8,0.7-3.5,1.1-5.3c1.4-6.6,2.5-13.3,4.2-19.8c0.7-2.8,1.6-5.6,3.2-8.1
				c1.6-2.6,4-4.7,6.6-6.2c2.8-1.6,5.9-2.8,8.9-4c1.9-0.8,3.3-2.1,4.7-3.7c1.4-1.7,2.6-3.5,4-5.1c1.2-1.3,2.7-2.6,4.5-1.4
				C489,527.2,489.5,526.4,488.9,526z"/>
		</g>
	</g>
</g>
</svg>
