<svg width="30" height="29" viewBox="0 0 30 29" fill="none" xmlns="http://www.w3.org/2000/svg">
<path fill-rule="evenodd" clip-rule="evenodd" d="M17.9181 5.77238C20.4681 8.35476 20.7954 12.3319 18.8999 15.2871C19.0635 15.4252 19.1999 15.5771 19.3908 15.7152C19.6635 15.9362 20.0317 16.2124 20.4954 16.53C20.959 16.8614 21.259 17.0686 21.3954 17.179C21.9681 17.6071 22.3908 17.9662 22.6772 18.2562C23.1135 18.6981 23.4954 19.1538 23.8226 19.6371C24.1635 20.1205 24.4226 20.59 24.6272 21.0733C24.8181 21.5567 24.9135 22.0124 24.8726 22.4543C24.8454 22.8962 24.6817 23.269 24.3817 23.5729C24.0817 23.8767 23.7135 24.0424 23.2772 24.07C22.8545 24.0976 22.3908 24.0148 21.9272 23.8076C21.4499 23.6143 20.9726 23.3381 20.509 22.9929C20.0317 22.6614 19.5817 22.2748 19.1454 21.8329C18.859 21.5429 18.5045 21.1148 18.0954 20.5486C17.959 20.369 17.7545 20.0652 17.4545 19.6371C17.1545 19.1952 16.909 18.85 16.6908 18.56C16.4726 18.2838 16.2954 18.0767 16.0908 17.8695C13.2681 19.3748 9.69536 18.919 7.309 16.5162C4.39082 13.5471 4.39082 8.72762 7.309 5.77238C10.2408 2.80333 14.9863 2.80333 17.9181 5.77238ZM15.9954 14.5552C17.8499 12.6633 17.8499 9.61142 15.9954 7.71952C14.1272 5.82762 11.0999 5.82762 9.24538 7.71952C7.3772 9.61142 7.3772 12.6633 9.24538 14.5552C11.0999 16.4471 14.1272 16.4471 15.9954 14.5552Z" fill="#888888"/>
<mask id="mask0" mask-type="alpha" maskUnits="userSpaceOnUse" x="5" y="3" width="20" height="22">
<path fill-rule="evenodd" clip-rule="evenodd" d="M17.9181 5.77238C20.4681 8.35476 20.7954 12.3319 18.8999 15.2871C19.0635 15.4252 19.1999 15.5771 19.3908 15.7152C19.6635 15.9362 20.0317 16.2124 20.4954 16.53C20.959 16.8614 21.259 17.0686 21.3954 17.179C21.9681 17.6071 22.3908 17.9662 22.6772 18.2562C23.1135 18.6981 23.4954 19.1538 23.8226 19.6371C24.1635 20.1205 24.4226 20.59 24.6272 21.0733C24.8181 21.5567 24.9135 22.0124 24.8726 22.4543C24.8454 22.8962 24.6817 23.269 24.3817 23.5729C24.0817 23.8767 23.7135 24.0424 23.2772 24.07C22.8545 24.0976 22.3908 24.0148 21.9272 23.8076C21.4499 23.6143 20.9726 23.3381 20.509 22.9929C20.0317 22.6614 19.5817 22.2748 19.1454 21.8329C18.859 21.5429 18.5045 21.1148 18.0954 20.5486C17.959 20.369 17.7545 20.0652 17.4545 19.6371C17.1545 19.1952 16.909 18.85 16.6908 18.56C16.4726 18.2838 16.2954 18.0767 16.0908 17.8695C13.2681 19.3748 9.69536 18.919 7.309 16.5162C4.39082 13.5471 4.39082 8.72762 7.309 5.77238C10.2408 2.80333 14.9863 2.80333 17.9181 5.77238ZM15.9954 14.5552C17.8499 12.6633 17.8499 9.61142 15.9954 7.71952C14.1272 5.82762 11.0999 5.82762 9.24538 7.71952C7.3772 9.61142 7.3772 12.6633 9.24538 14.5552C11.0999 16.4471 14.1272 16.4471 15.9954 14.5552Z" fill="white"/>
</mask>
<g mask="url(#mask0)">
<rect width="30" height="29" fill="#7BAB48"/>
</g>
</svg>
