<?xml version="1.0" encoding="UTF-8" standalone="no"?>
<svg width="253px" height="27px" viewBox="0 0 253 27" version="1.1" xmlns="http://www.w3.org/2000/svg" xmlns:xlink="http://www.w3.org/1999/xlink" xmlns:sketch="http://www.bohemiancoding.com/sketch/ns">
    <!-- Generator: Sketch 3.3.3 (12081) - http://www.bohemiancoding.com/sketch -->
    <title>Envato elements black</title>
    <desc>Created with Sketch.</desc>
    <defs></defs>
    <g id="-Resources" stroke="none" stroke-width="1" fill="none" fill-rule="evenodd" sketch:type="MSPage">
        <g id="Desktop" sketch:type="MSArtboardGroup" transform="translate(-102.000000, -1229.000000)">
            <g id="Imported-Layers-Copy-8" sketch:type="MSLayerGroup" transform="translate(102.000000, 1229.435670)">
                <path d="M16.4495708,4.88314894 C15.8221839,4.53468743 14.0228411,4.75032729 11.8617547,5.41912336 C8.07946291,8.00445774 4.88705546,11.8133139 4.66438386,17.9293603 C4.62375607,18.0762454 4.25107414,17.9098277 4.17685027,17.8645121 C3.15568617,15.9065647 2.75097079,13.8454852 3.60415457,10.8718428 C3.76275925,10.6069808 3.2431922,10.2811771 3.14943574,10.3741523 C2.96270412,10.5616652 2.1821816,11.3929724 1.66417716,12.2922532 C-0.904749835,16.7488102 0.775053399,22.4593599 5.26989433,24.9579695 C9.76317266,27.461267 15.4377824,25.846312 17.9402985,21.3514711 C20.8342479,16.1636136 18.1465628,5.83165179 16.4495708,4.88314894" id="Fill-1" fill="#7AAC41" sketch:type="MSShapeGroup"></path>
                <path d="M32.5350541,7.37316424 C27.206562,7.37316424 23.339108,11.3343747 23.339108,16.7917819 C23.339108,22.2937235 27.196405,26.136957 32.7202231,26.136957 C35.5102591,26.136957 37.7197863,25.2642406 39.4761573,23.4680231 C40.0011935,22.9015779 40.0574474,22.3562278 40.0574474,22.1468384 C40.0574474,21.2569333 39.395683,20.610795 38.4839014,20.610795 C38.0244948,20.610795 37.6400933,20.7842445 37.199438,21.1920851 C36.2048382,22.1187114 34.8945917,23.066433 32.7202231,23.066433 C29.6965773,23.066433 27.2378141,20.795964 27.083116,17.8809195 L39.1167576,17.8809195 C40.4254415,17.8809195 41.0606415,17.2691586 41.0606415,16.0112594 C41.0606415,15.6409214 41.0606415,15.3729342 40.9864176,14.8455541 C40.3379354,10.1663254 37.1791241,7.37316424 32.5350541,7.37316424 L32.5350541,7.37316424 Z M32.5350541,10.2952406 C35.4243157,10.2952406 37.2775683,12.1359924 37.39242,15.1080722 L27.0870225,15.1080722 C27.3573536,12.3578827 29.6825138,10.2952406 32.5350541,10.2952406 L32.5350541,10.2952406 Z" id="Fill-2" fill="#131412" sketch:type="MSShapeGroup"></path>
                <path d="M52.5528395,7.37316424 C50.1323602,7.37316424 47.7353201,8.76466636 46.7993181,10.697612 L46.7993181,9.50377979 C46.7993181,7.65287101 45.3648443,7.55911455 45.0773245,7.55911455 C44.2280472,7.55911455 43.3193909,8.07008726 43.3193909,9.50377979 L43.3193909,23.9321176 C43.3193909,25.8533437 44.8460585,25.9502254 45.1523296,25.9502254 C45.4578194,25.9502254 46.9852684,25.8533437 46.9852684,23.9321176 L46.9852684,16.1972097 C46.9852684,12.8321341 48.8924311,10.4811909 51.623088,10.4811909 C54.2670201,10.4811909 55.5530462,12.2164667 55.5530462,15.7878065 L55.5530462,23.9321176 C55.5530462,25.8533437 57.0804952,25.9502254 57.3867663,25.9502254 C57.6922561,25.9502254 59.2189238,25.8533437 59.2189238,23.9321176 L59.2189238,14.6353833 C59.2189238,11.1242039 57.4680219,7.37316424 52.5528395,7.37316424" id="Fill-3" fill="#131412" sketch:type="MSShapeGroup"></path>
                <path d="M75.8052228,7.55911455 C74.9582894,7.55911455 74.3441846,8.05367988 73.9777531,9.02562184 L68.9625639,21.6374283 L63.9856585,9.02562184 C63.5957878,8.03883511 62.9863709,7.55911455 62.1206862,7.55911455 C61.1104604,7.55911455 60.2877474,8.34823142 60.2877474,9.31782948 C60.2877474,9.55768975 60.3150931,9.86864868 60.5182321,10.3546197 L66.2819104,23.9641511 C66.9686765,25.6064517 68.0984418,25.9502254 68.9250613,25.9502254 C69.7516807,25.9502254 70.8822274,25.6064517 71.570556,23.9649324 L77.371737,10.2796145 C77.5701882,9.79989394 77.600659,9.44752591 77.600659,9.28032689 C77.600659,8.29979059 76.8279495,7.55911455 75.8052228,7.55911455" id="Fill-4" fill="#131412" sketch:type="MSShapeGroup"></path>
                <path d="M86.464551,7.37316424 C84.1198582,7.37316424 81.936114,8.02633425 80.3164711,9.21079085 C79.7672145,9.58972321 79.5000086,10.062412 79.5000086,10.6569842 C79.5000086,11.4750094 80.1250517,12.1172411 80.9243255,12.1172411 C81.2696618,12.1172411 81.6571885,11.9789503 82.0119004,11.7304957 C83.4041838,10.8023068 84.7128678,10.3694644 86.1293716,10.3694644 C88.8397146,10.3694644 90.3952905,11.7476844 90.3952905,14.1517563 L90.3952905,14.5502212 C84.3112776,14.5564717 78.1233513,15.2916786 78.1233513,20.5842307 C78.1233513,24.3938682 81.3790443,26.0994544 84.6050478,26.0994544 C87.1747561,26.0994544 89.22646,25.0814155 90.5429569,23.153939 L90.5429569,24.0805653 C90.5429569,25.4611292 91.4703646,25.9502254 92.2657319,25.9502254 C92.4329309,25.9502254 93.9119391,25.8978781 93.9119391,24.0805653 L93.9119391,14.3752092 C93.9119391,9.99053207 91.1265909,7.37316424 86.464551,7.37316424 L86.464551,7.37316424 Z M89.6241436,17.2488447 L90.3952905,17.2488447 L90.3952905,18.0934341 C90.3952905,21.1819281 88.4287488,23.1773781 85.3855704,23.1773781 C84.5597322,23.1773781 81.864234,22.9851774 81.864234,20.5100068 C81.864234,17.5871492 86.2926641,17.2488447 89.6241436,17.2488447 L89.6241436,17.2488447 Z" id="Fill-5" fill="#131412" sketch:type="MSShapeGroup"></path>
                <path d="M103.457909,10.8898128 C105.061926,10.8898128 105.143182,9.64207057 105.143182,9.39205334 C105.143182,8.6498147 104.700182,7.85679131 103.457909,7.85679131 L100.160026,7.85679131 L100.160026,4.52062396 C100.160026,3.03067756 99.1927716,2.50173486 98.3645896,2.50173486 C98.0583185,2.50173486 96.5316508,2.59861654 96.5316508,4.52062396 L96.5316508,20.3623404 C96.5316508,24.018061 98.3349,25.9502254 101.747635,25.9502254 C102.630508,25.9502254 103.490724,25.7939646 104.053263,25.5322279 C104.69862,25.2103307 105.068176,24.681388 105.068176,24.0805653 C105.068176,23.233632 104.454072,22.6195272 103.606357,22.6195272 C103.443064,22.6195272 103.210236,22.6593737 102.953968,22.7335975 C102.639884,22.8117279 102.42737,22.8429801 102.194541,22.8429801 C100.806164,22.8429801 100.160026,21.9366676 100.160026,19.9896585 L100.160026,10.8898128 L103.457909,10.8898128" id="Fill-6" fill="#131412" sketch:type="MSShapeGroup"></path>
                <path d="M115.579838,7.37316424 C110.035706,7.37316424 106.012773,11.3031225 106.012773,16.7167767 C106.012773,19.3528959 106.987059,21.7554051 108.755931,23.4813053 C110.51152,25.1939233 112.934343,26.136957 115.579838,26.136957 C121.055215,26.136957 125.184406,22.0874593 125.184406,16.7167767 C125.184406,11.3031225 121.144284,7.37316424 115.579838,7.37316424 L115.579838,7.37316424 Z M115.579838,23.0289304 C111.777232,23.0289304 109.789595,19.8537116 109.789595,16.7167767 C109.789595,12.4071048 112.790584,10.4436883 115.579838,10.4436883 C118.368312,10.4436883 121.370081,12.4071048 121.370081,16.7167767 C121.370081,21.0537943 118.368312,23.0289304 115.579838,23.0289304 L115.579838,23.0289304 Z" id="Fill-7" fill="#131412" sketch:type="MSShapeGroup"></path>
                <path d="M136.306266,6.96454234 C134.878043,6.96454234 133.541232,7.37316424 132.333336,8.17868849 C131.134816,8.97796231 130.180844,10.1030398 129.500329,11.5218876 C128.826845,12.9251093 128.484634,14.4869356 128.484634,16.1643949 L128.484634,16.8855384 C128.484634,18.5669042 128.838564,20.1209175 129.53705,21.5053879 C130.240223,22.9015779 131.230135,24.0164984 132.477877,24.8196788 C133.731089,25.6275469 135.127279,26.0369501 136.626601,26.0369501 C139.347882,26.0369501 141.433963,25.0142234 142.829372,22.9968969 C142.998915,22.7507862 142.939536,22.413263 142.695769,22.2398135 L142.086352,21.8069712 C141.848054,21.6382096 141.519125,21.6858691 141.338644,21.9163537 C140.765167,22.6515606 140.100278,23.2008172 139.365071,23.5492787 C138.625957,23.9000842 137.7048,24.0774401 136.626601,24.0774401 C135.522618,24.0774401 134.484266,23.763356 133.538107,23.1437821 C132.583353,22.5179577 131.823145,21.6405535 131.277013,20.5357899 C130.72385,19.4177441 130.444144,18.183284 130.444144,16.8675684 L130.444144,16.4714473 L142.891876,16.4714473 C143.193459,16.4714473 143.438789,16.2261179 143.438789,15.9237534 L143.438789,15.0104092 C143.438789,12.6399334 142.771555,10.689799 141.457402,9.21469737 C140.126842,7.72240706 138.393129,6.96454234 136.306266,6.96454234 L136.306266,6.96454234 Z M130.570715,14.5119373 C130.830108,12.9649558 131.448119,11.6625223 132.411467,10.6335451 C133.488103,9.48346589 134.761629,8.92405235 136.306266,8.92405235 C137.27352,8.92405235 138.157956,9.17797609 138.934572,9.67801054 C139.716657,10.1819515 140.340919,10.900751 140.79095,11.8148765 C141.200353,12.6469651 141.428494,13.5524962 141.471466,14.5119373 L130.570715,14.5119373 L130.570715,14.5119373 Z" id="Fill-8" fill="#7AAC41" sketch:type="MSShapeGroup"></path>
                <path d="M147.134356,0.223452895 L146.268671,0.223452895 C145.967088,0.223452895 145.721759,0.468000994 145.721759,0.770365576 L145.721759,25.3814362 C145.721759,25.6838008 145.967088,25.9283489 146.268671,25.9283489 L147.134356,25.9283489 C147.436721,25.9283489 147.681269,25.6838008 147.681269,25.3814362 L147.681269,0.770365576 C147.681269,0.468000994 147.436721,0.223452895 147.134356,0.223452895" id="Fill-9" fill="#7AAC41" sketch:type="MSShapeGroup"></path>
                <path d="M157.764776,6.96454234 C156.336552,6.96454234 154.999742,7.37316424 153.791846,8.17868849 C152.593326,8.97796231 151.639354,10.1030398 150.958838,11.5218876 C150.285354,12.9251093 149.943143,14.4869356 149.943143,16.1643949 L149.943143,16.8855384 C149.943143,18.5669042 150.297074,20.1209175 150.995559,21.5053879 C151.698733,22.9023592 152.688645,24.0172797 153.934824,24.8196788 C155.188817,25.6275469 156.585007,26.0369501 158.08511,26.0369501 C160.80561,26.0369501 162.892473,25.0142234 164.2871,22.9968969 C164.457424,22.7507862 164.398045,22.413263 164.154279,22.2398135 L163.544862,21.8069712 C163.306564,21.6382096 162.977635,21.6858691 162.797154,21.9163537 C162.223677,22.6507793 161.558787,23.2000359 160.822799,23.5492787 C160.083686,23.9000842 159.162528,24.0774401 158.08511,24.0774401 C156.981128,24.0774401 155.941994,23.763356 154.995835,23.1437821 C154.041082,22.5179577 153.280092,21.6405535 152.734742,20.5357899 C152.18236,19.4185254 151.902653,18.1840653 151.902653,16.8675684 L151.902653,16.4714473 L164.350386,16.4714473 C164.651969,16.4714473 164.897299,16.2261179 164.897299,15.9237534 L164.897299,15.0104092 C164.897299,12.6399334 164.230065,10.689799 162.915912,9.21469737 C161.585352,7.72240706 159.851638,6.96454234 157.764776,6.96454234 L157.764776,6.96454234 Z M152.029224,14.5119373 C152.288617,12.9649558 152.906629,11.6625223 153.869976,10.6335451 C154.946613,9.48346589 156.220138,8.92405235 157.764776,8.92405235 C158.745312,8.92405235 159.603965,9.17094436 160.392301,9.67801054 C161.174386,10.1819515 161.798648,10.900751 162.248679,11.8148765 C162.6573,12.6469651 162.886222,13.5532775 162.929975,14.5119373 L152.029224,14.5119373 L152.029224,14.5119373 Z" id="Fill-10" fill="#7AAC41" sketch:type="MSShapeGroup"></path>
                <path d="M186.633952,7.12549093 C185.102597,7.12549093 183.698594,7.52942501 182.460227,8.32557361 C181.620326,8.86701717 180.931997,9.53971976 180.402273,10.3350871 C180.027247,9.40689811 179.474084,8.68731729 178.749034,8.18415762 C177.735683,7.48176548 176.430906,7.12549093 174.872986,7.12549093 C173.439293,7.12549093 172.114983,7.547395 170.936777,8.37948358 C170.308609,8.82248285 169.756227,9.36627031 169.282757,10.0069395 L169.282757,7.99273818 C169.282757,7.6903736 169.038209,7.4458255 168.735844,7.4458255 L167.855315,7.4458255 C167.55295,7.4458255 167.308402,7.6903736 167.308402,7.99273818 L167.308402,25.3290889 C167.308402,25.6314534 167.55295,25.8767828 167.855315,25.8767828 L168.735844,25.8767828 C169.038209,25.8767828 169.282757,25.6314534 169.282757,25.3290889 L169.282757,14.433807 C169.504647,13.3212303 169.950772,12.2899092 170.606286,11.3703146 C171.714174,9.8319274 173.093957,9.08421963 174.824545,9.08421963 C176.298865,9.08421963 177.371595,9.45065113 178.012265,10.1733572 C178.671685,10.9155958 179.00999,12.1000524 179.020147,13.6915683 L179.020147,25.3290889 C179.020147,25.6314534 179.264695,25.8767828 179.567059,25.8767828 L180.432744,25.8767828 C180.734327,25.8767828 180.979657,25.6314534 180.979657,25.3290889 L180.978094,13.8431413 C181.034348,13.0673066 181.385935,12.2375619 182.02426,11.3781277 C183.155588,9.86396085 184.650222,9.11390918 186.591762,9.08421963 C188.080927,9.0584366 189.104435,9.43815027 189.763074,10.2257045 C190.438121,11.0320101 190.781113,12.332881 190.781113,14.0923772 L190.781113,25.3290889 C190.781113,25.6314534 191.025661,25.8767828 191.328026,25.8767828 L192.192929,25.8767828 C192.495294,25.8767828 192.739842,25.6314534 192.739842,25.3290889 L192.739842,14.0150281 C192.728904,11.7758113 192.217931,10.0561616 191.220987,8.90139453 C190.202948,7.72240706 188.659873,7.12549093 186.633952,7.12549093" id="Fill-11" fill="#7AAC41" sketch:type="MSShapeGroup"></path>
                <path d="M202.936638,6.96454234 C201.508415,6.96454234 200.171604,7.37316424 198.963708,8.17868849 C197.765188,8.97796231 196.811216,10.1030398 196.1307,11.5218876 C195.457217,12.9251093 195.115005,14.4869356 195.115005,16.1643949 L195.115005,16.8855384 C195.115005,18.5669042 195.468936,20.1209175 196.167422,21.5053879 C196.870595,22.9015779 197.859726,24.0164984 199.107468,24.8204601 C200.362242,25.6275469 201.757651,26.0369501 203.256973,26.0369501 C205.977473,26.0369501 208.064335,25.0142234 209.459744,22.9968969 C209.629287,22.7507862 209.569908,22.413263 209.326141,22.2398135 L208.716724,21.8069712 C208.478426,21.6382096 208.149497,21.6858691 207.969016,21.9163537 C207.394758,22.6515606 206.730649,23.2008172 205.994661,23.55006 C205.256329,23.9000842 204.335172,24.0774401 203.256973,24.0774401 C202.15299,24.0774401 201.113856,23.763356 200.168479,23.1437821 C199.214507,22.518739 198.454298,21.6413348 197.906604,20.5357899 C197.354222,19.4177441 197.074515,18.1825027 197.074515,16.8675684 L197.074515,16.4714473 L209.522248,16.4714473 C209.823831,16.4714473 210.069161,16.2261179 210.069161,15.9237534 L210.069161,15.0104092 C210.069161,12.6399334 209.401927,10.689799 208.087774,9.21469737 C206.757214,7.72240706 205.023501,6.96454234 202.936638,6.96454234 L202.936638,6.96454234 Z M197.201087,14.5119373 C197.46048,12.9649558 198.078491,11.6625223 199.041839,10.6335451 C200.118475,9.48346589 201.392,8.92405235 202.936638,8.92405235 C203.917174,8.92405235 204.776609,9.17094436 205.564944,9.67801054 C206.346248,10.1819515 206.97051,10.900751 207.421322,11.8148765 C207.830725,12.6477464 208.058866,13.5532775 208.101838,14.5119373 L197.201087,14.5119373 L197.201087,14.5119373 Z" id="Fill-12" fill="#7AAC41" sketch:type="MSShapeGroup"></path>
                <path d="M220.080788,7.09502008 C218.636157,7.09502008 217.300128,7.52239327 216.110983,8.36542011 C215.487503,8.80763808 214.941371,9.33736207 214.474933,9.95146688 L214.474933,7.96226733 C214.474933,7.65990275 214.229604,7.41535465 213.92802,7.41535465 L213.062336,7.41535465 C212.760752,7.41535465 212.515423,7.65990275 212.515423,7.96226733 L212.515423,25.298618 C212.515423,25.6009826 212.760752,25.846312 213.062336,25.846312 L213.92802,25.846312 C214.229604,25.846312 214.474933,25.6009826 214.474933,25.298618 L214.474933,14.2689518 C214.837458,12.7321272 215.527349,11.4625085 216.527418,10.4921291 C217.525143,9.52487499 218.672097,9.05453009 220.032347,9.05453009 C221.479322,9.05453009 222.534863,9.43815027 223.170845,10.1952337 C223.830265,10.9820066 224.170132,12.2516254 224.180289,13.965806 L224.180289,25.298618 C224.180289,25.6009826 224.424837,25.846312 224.727202,25.846312 L225.592105,25.846312 C225.89447,25.846312 226.139799,25.6009826 226.139799,25.298618 L226.139799,13.9845573 C226.12808,11.7351835 225.622576,10.0131899 224.637352,8.86389195 C223.630251,7.6903736 222.097333,7.09502008 220.080788,7.09502008" id="Fill-13" fill="#7AAC41" sketch:type="MSShapeGroup"></path>
                <path d="M236.946794,23.9391494 C235.201361,24.1883853 234.216918,24.1204118 233.75048,23.4352084 C233.414519,22.9406431 233.244195,22.1273058 233.244195,21.0155104 L233.244195,9.24438692 L236.63896,9.24438692 C236.941325,9.24438692 237.185873,8.99983882 237.185873,8.69747424 L237.185873,7.8325709 C237.185873,7.53020631 236.941325,7.28565821 236.63896,7.28565821 L233.244195,7.28565821 L233.244195,3.15412356 C233.244195,2.85175898 232.999647,2.60642958 232.697282,2.60642958 L231.815972,2.60642958 C231.513607,2.60642958 231.269059,2.85175898 231.269059,3.15412356 L231.269059,7.28565821 L228.611845,7.28565821 C228.30948,7.28565821 228.064151,7.53020631 228.064151,7.8325709 L228.064151,8.69747424 C228.064151,8.99983882 228.30948,9.24438692 228.611845,9.24438692 L231.269059,9.24438692 L231.269059,21.1311434 C231.28156,22.7781319 231.590956,23.9696202 232.217562,24.7751444 C232.868388,25.6119209 233.924711,26.0369501 235.356841,26.0369501 C236.284248,26.0369501 236.938199,25.9627263 237.354634,25.8111533 C237.60387,25.7205221 237.752318,25.4634731 237.706221,25.2025176 L237.562461,24.3852738 C237.510895,24.0946288 237.235876,23.8993029 236.946794,23.9391494" id="Fill-14" fill="#7AAC41" sketch:type="MSShapeGroup"></path>
                <path d="M251.879073,18.4036117 C251.455606,17.7082513 250.775872,17.1058661 249.860184,16.612082 C248.988248,16.1425184 247.799885,15.7315526 246.327909,15.3909041 C244.941876,15.0705696 243.880084,14.7361715 243.171441,14.3970857 C242.508114,14.0798763 242.031519,13.7314148 241.755719,13.3618581 C241.497889,13.0173031 241.367411,12.5094556 241.367411,11.8539417 C241.367411,11.0359166 241.730717,10.3671205 242.477644,9.80926959 C243.263635,9.22172911 244.366055,8.92405235 245.755995,8.92405235 C247.202969,8.92405235 248.381957,9.27798298 249.260923,9.9756873 C250.114107,10.6515151 250.528198,11.4656337 250.528198,12.4633587 C250.528198,12.764942 250.772746,13.0102714 251.075111,13.0102714 L251.956422,13.0102714 C252.258786,13.0102714 252.503334,12.764942 252.503334,12.4633587 C252.503334,10.777305 251.861884,9.41705506 250.596953,8.42011138 C249.370306,7.45520115 247.742069,6.96454234 245.755995,6.96454234 C243.920712,6.96454234 242.398732,7.41847987 241.233808,8.31151014 C240.022787,9.23891779 239.408682,10.4413444 239.408682,11.8859752 C239.408682,13.3079481 239.89856,14.4478704 240.865814,15.2744899 C241.788534,16.0628254 243.340984,16.6808368 245.610672,17.1644638 C248.94137,17.8684186 250.560232,19.0974095 250.560232,20.9233166 C250.560232,21.7733751 250.15786,22.4867055 249.329678,23.1047169 C248.463994,23.7500738 247.304539,24.0774401 245.884128,24.0774401 C244.316833,24.0774401 243.069872,23.7672625 242.179186,23.1562829 C241.329127,22.5718676 240.879096,21.7765003 240.805653,20.7248654 C240.78534,20.4381269 240.547042,20.2162366 240.259522,20.2162366 L239.394619,20.2162366 C239.092254,20.2162366 238.847706,20.4607847 238.847706,20.7631493 C238.847706,22.3288822 239.523534,23.62194 240.855657,24.6071641 C242.136995,25.555667 243.828518,26.0369501 245.884128,26.0369501 C247.810824,26.0369501 249.403902,25.5798874 250.615704,24.6790441 C251.879854,23.7406982 252.519742,22.482799 252.519742,20.9389426 C252.519742,19.9544998 252.303321,19.1020973 251.879073,18.4036117" id="Fill-15" fill="#7AAC41" sketch:type="MSShapeGroup"></path>
            </g>
        </g>
    </g>
</svg>
