<?xml version="1.0" encoding="iso-8859-1"?>
<!-- Generator: Adobe Illustrator 21.0.0, SVG Export Plug-In . SVG Version: 6.00 Build 0)  -->
<svg version="1.1" id="Capa_1" xmlns="http://www.w3.org/2000/svg" xmlns:xlink="http://www.w3.org/1999/xlink" x="0px" y="0px"
	 viewBox="0 0 512.001 512.001" style="enable-background:new 0 0 512.001 512.001;" xml:space="preserve">
<linearGradient id="SVGID_1_" gradientUnits="userSpaceOnUse" x1="158.9884" y1="355.3633" x2="507.2383" y2="7.1133" gradientTransform="matrix(1.0039 0 0 -1.0039 0.1922 516.5613)">
	<stop  offset="0" style="stop-color:#62E1FB"/>
	<stop  offset="1" style="stop-color:#00A2F3"/>
</linearGradient>
<path style="fill:url(#SVGID_1_);" d="M252.012,0.031C393.625-2.131,509.21,109.327,511.952,250.929
	c0.403,20.789-1.677,41.026-5.957,60.436c-7.249,32.865-11.558,66.312-11.558,99.967v65.056c0,9.967-8.08,18.047-18.047,18.047
	h-65.056c-33.655,0-67.101,4.309-99.967,11.558c-19.41,4.281-39.646,6.36-60.434,5.957C109.33,509.21-2.129,393.631,0.031,252.02
	C2.138,113.798,113.791,2.143,252.012,0.031z"/>
<linearGradient id="SVGID_2_" gradientUnits="userSpaceOnUse" x1="402.0596" y1="161.8545" x2="110.6196" y2="453.2945" gradientTransform="matrix(1.0039 0 0 -1.0039 0.1922 516.5613)">
	<stop  offset="0" style="stop-color:#00A2F3;stop-opacity:0"/>
	<stop  offset="1" style="stop-color:#0075CD"/>
</linearGradient>
<path style="fill:url(#SVGID_2_);" d="M506.486,309.06c-0.161,0.767-0.321,1.534-0.495,2.302
	c-7.251,32.865-11.557,66.312-11.557,99.97v65.062c0,9.961-8.081,18.041-18.042,18.041h-65.062c-4.863,0-9.714,0.086-14.564,0.272
	L230.583,328.512c-2.846-2.883-4.269-8.068-4.269-15.567c0-32.877,8.39-56.537,25.193-70.952c1.683-1.559,5.098-4.306,10.209-8.229
	c-1.411-1.213-80.443-80.555-81.359-81.359c-3.75-3.218-5.605-7.623-5.605-13.203c0-10.01,7.04-19.81,21.147-29.401
	c14.094-9.589,31.987-14.391,53.654-14.391c27.185,0,48.605,6.991,64.246,20.937L506.486,309.06z"/>
<linearGradient id="SVGID_3_" gradientUnits="userSpaceOnUse" x1="305.4108" y1="62.5657" x2="227.8707" y2="140.1057" gradientTransform="matrix(1.0039 0 0 -1.0039 0.1922 516.5613)">
	<stop  offset="0" style="stop-color:#00A2F3;stop-opacity:0"/>
	<stop  offset="1" style="stop-color:#0075CD"/>
</linearGradient>
<path style="fill:url(#SVGID_3_);" d="M383.389,495.399c-20.763,1.41-41.403,4.331-61.833,8.451l-94.389-94.389
	c-4.888-4.752-7.338-10.283-7.338-16.618c0-6.596,2.45-12.201,7.338-16.816c4.888-4.616,10.927-6.929,18.116-6.929
	c7.375,0,13.76,2.314,19.143,6.929L383.389,495.399z"/>
<path style="fill:#FFFFFF;" d="M174.746,139.198c0-10.009,7.049-19.809,21.153-29.401c14.097-9.584,31.984-14.38,53.656-14.38
	c27.182,0,48.599,6.981,64.24,20.936c15.635,13.963,23.459,31.729,23.459,53.312c0,8.924-1.302,17.482-3.905,25.685
	c-2.603,8.201-6.354,15.688-11.264,22.447c-4.91,6.765-9.321,12.377-13.22,16.836c-3.899,4.465-8.816,9.356-14.738,14.677
	c-5.922,5.328-9.457,8.565-10.589,9.713c-8.552,7.77-13.82,15.687-15.817,23.742c-1.997,8.061-2.988,20.289-2.988,36.692
	c0,8.925-6.644,13.383-19.919,13.383c-6.644,0-11.385-1.439-14.232-4.323c-2.846-2.888-4.27-8.076-4.27-15.575
	c0-32.873,8.397-56.53,25.192-70.95c1.861-1.727,5.827-4.897,11.898-9.511c6.064-4.613,10.583-8.438,13.557-11.466
	c2.968-3.029,6.434-7.07,10.401-12.114c3.966-5.046,6.866-10.522,8.707-16.438c1.841-5.908,2.766-12.182,2.766-18.819
	c0-13.84-4.486-24.585-13.45-32.227c-8.964-7.642-21.382-11.467-37.253-11.467c-9.213,0-17.052,1.396-23.527,4.189
	c-6.475,2.792-11.007,5.942-13.598,9.463c-2.59,3.52-5.469,6.677-8.633,9.469c-3.17,2.793-6.475,4.182-9.929,4.182
	c-4.317,0-8.351-1.612-12.087-4.843C176.615,149.188,174.746,144.784,174.746,139.198z M219.836,392.843
	c0-6.595,2.442-12.201,7.332-16.814c4.883-4.613,10.927-6.928,18.117-6.928c7.38,0,13.76,2.314,19.143,6.928
	c5.382,4.613,8.074,10.22,8.074,16.814c0,6.335-2.692,11.871-8.074,16.62c-5.383,4.75-11.763,7.122-19.143,7.122
	c-7.19,0-13.234-2.372-18.117-7.122C222.278,404.713,219.836,399.178,219.836,392.843z"/>
<g>
</g>
<g>
</g>
<g>
</g>
<g>
</g>
<g>
</g>
<g>
</g>
<g>
</g>
<g>
</g>
<g>
</g>
<g>
</g>
<g>
</g>
<g>
</g>
<g>
</g>
<g>
</g>
<g>
</g>
</svg>
