<?xml version="1.0" encoding="utf-8"?>
<!-- Generator: Adobe Illustrator 23.0.3, SVG Export Plug-In . SVG Version: 6.00 Build 0)  -->
<svg version="1.1" xmlns="http://www.w3.org/2000/svg" xmlns:xlink="http://www.w3.org/1999/xlink" x="0px" y="0px"
	 viewBox="0 0 750 500" style="enable-background:new 0 0 750 500;" xml:space="preserve">
<style type="text/css">
	.st0{opacity:0.2;}
	.st1{fill:#00D2BC;}
	.st2{fill:#99EDE4;}
	.st3{fill:#734E4F;}
	.st4{fill:#FF9D2E;}
	.st5{fill:#F5B0B5;}
	.st6{fill:#491F06;}
	.st7{fill:#542C15;}
	.st8{fill:#F9CACC;}
	.st9{fill:#F07058;}
	.st10{fill:#004B45;}
	.st11{fill:#008DA2;}
	.st12{fill:#FFD01B;}
</style>
<g id="BACKGROUND">
	<g class="st0">
		<g>
			<path class="st1" d="M720.4,341.9c-0.8-14.7-6.7-29.1-18-40.6c-0.3-0.3-0.6-0.6-1-1c-11.5-11.5-25-19.8-38.9-27.5
				c-10.6-5.8-21.4-11.2-31.7-17.4c-2.6-1.5-5.2-3.1-7.7-4.7c-4.9-3.2-9.9-6.7-13.1-11.6c-0.8-1.2-1.5-2.5-2-4
				c-4.1-11.2,2.9-23.6,10.9-32.1c5.2-5.5,11.2-10.7,15.8-16.8c2.4-3.2,4.3-6.7,5.6-10.7c1.9-6.2,1.7-12.8,0.3-19.2
				c-0.7-3.1-1.7-6.2-2.9-9.2c-3.1-7.4-7.3-14.1-12.3-19.9c-10.7-12.3-25.1-21-40.4-26.3c-5.2-1.8-10.6-3.2-15.9-4.3
				c-17.1-3.3-35.9-2.9-50.2,7.7l-0.1,0.1l-1.8,1.4c-15,12.3-22.8,33.8-39.7,42.8c-6,3.2-12.8,4.3-19.4,3.6l0,0
				c-7-0.8-13.7-3.6-19.2-8.3c-4.1-7-8.9-13.7-14.3-19.7c-1.5-2.4-3.1-4.9-4.8-7.1c-0.2-0.2-0.3-0.4-0.5-0.6
				c-4.6-5.8-9.6-10.3-14.9-13.5c-9.1-5.6-19.1-7.7-29.1-6.9c-10-0.8-20,1.3-29.1,6.9c-5.3,3.3-10.4,7.8-14.9,13.5
				c-0.2,0.2-0.3,0.4-0.5,0.6c-1.7,2.3-3.3,4.7-4.8,7.1c-5.3,6-10.2,12.6-14.3,19.7c-5.4,4.7-12.2,7.6-19.2,8.3l0,0
				c-6.6,0.7-13.4-0.4-19.4-3.6c-16.9-9-24.7-30.6-39.7-42.8l-1.8-1.4l-0.1-0.1c-14.3-10.6-33.1-10.9-50.2-7.7
				c-5.3,1-10.7,2.4-15.9,4.3c-15.3,5.3-29.8,14.1-40.4,26.3c-5.1,5.9-9.3,12.5-12.3,19.9c-1.2,2.9-2.2,6-2.9,9.2
				c-1.4,6.4-1.6,13,0.3,19.2c1.2,4,3.2,7.5,5.6,10.7c4.5,6.1,10.5,11.2,15.8,16.8c8,8.4,15,20.8,10.9,32.1c-0.5,1.4-1.2,2.7-2,4
				c-3.2,4.9-8.2,8.5-13.1,11.6c-2.5,1.6-5.1,3.2-7.7,4.7c-10.3,6.1-21.1,11.5-31.7,17.4c-13.9,7.6-27.4,16-38.9,27.5
				c-0.3,0.3-0.7,0.6-1,1c-11.3,11.6-17.2,26-18,40.6c-1.1,18.8,6.2,38.1,20.8,52.6c18,17.8,43.9,25.1,68,24
				c13.3-0.6,499.8-0.6,513.1,0c24,1.1,50-6.2,68-24C714.2,380,721.4,360.7,720.4,341.9z"/>
		</g>
	</g>
</g>
<g id="OBJECTS">
	<ellipse class="st2" cx="375" cy="426.2" rx="322.9" ry="14.1"/>
	<g>
		<g>
			<g>
				<path class="st3" d="M597.2,168.1c-1,1.4-2,2.8-3,4.1C595.3,170.9,596.3,169.5,597.2,168.1z"/>
			</g>
			<g>
				<path class="st4" d="M650,149.2c-2.3-7.9-7.2-17.8-5.3-26.2l-21.3-7.9c-3.5,0.1-6.9,8.3-8.3,11.2c-6.4,13.2-9.8,29.2-17.9,41.7
					c2.4-3.3,5.1-6.6,8.7-7.5c0,2.4-1.6,4.8-2.2,7.2c-0.7,3-1,6-0.9,9.1c0.2,6.9,2,13.5,3.9,20.1c2.5,8.6,6.2,16.4,10.4,24.3
					c4,7.6,11.7,16.4,12.5,25.3c4.9-8.3,8.9-17.2,13.6-25.7c4.9-8.8,8.2-17.9,12.5-27c0.7,4.8,1,9.9,0.9,14.7c0,0.1,0.2,0.1,0.2,0
					c1.1-6.8,3.3-13.8,3.4-20.8C660.4,174.3,653.7,161.9,650,149.2z"/>
			</g>
		</g>
		<path class="st5" d="M605.9,147.8l-39.9,40.6c0,0,10.2,6.1,10.6,5.7c0.4-0.4,32.7-28.7,32.7-28.7L605.9,147.8z"/>
		<path class="st6" d="M588.5,321.5c0.1-6.2,7.7-86,7.7-86l24.5-1.4l-12.1,92.1c13.1,10.6,30,50,39.9,81.3l-5.7,4.6l-48.5-71.7
			C590.4,334.9,588.4,328.3,588.5,321.5z"/>
		<path class="st7" d="M609.6,342.2c0.7-4,1.9-37.6,3-59.6l2.7-55.5l22.5,0.4c0,0,9.1,24,4.8,35.5c-2.7,7.1-5,19.9-5,19.9L627,347.2
			c5.3,18.1-6,70.1-6,70.1l-8,0.4C616.2,391.5,608.5,348.2,609.6,342.2z"/>
		<path class="st4" d="M597.2,430.4c19.9-2,28.7-3.2,23.9-13c0,0,0-0.1,0-0.1c0,0-4.8,0-7.4,0.1l-16.9,8.5
			C592.2,427.9,594.4,430.7,597.2,430.4z"/>
		<path class="st4" d="M632.6,423.4l7.2-2.9l2.9-8.3c0,0,4.4-3.5,5.7-4.6c0,0,4.2,2.8,4.7,4.6c0.8,3.1-1.7,7.2-6.4,12.4
			c-0.6,0.7-1.4,1.1-2.2,1.3c-2.5,0.6-11.3,1.5-11.3,1.5l0,0C631,427.2,630.5,424.2,632.6,423.4z"/>
		<path class="st1" d="M641.6,238.9l-46.4,3.2l4.3-29.4c0.6-4,0.7-8.2,0.2-12.2l-1.3-12l-3.1-4.1c-3.7-4.3-4.3-10.4-1.5-15.3
			l12.1-21.1c0,0,1.8-0.3,4.7-0.6c0.4,0,0.9-0.1,1.4-0.1l0,0l0.4,0c0.2,0,0.4,0,0.6,0c0.6,0,1.1-0.1,1.7-0.1l1.1-0.1l-0.1-1
			c0-0.7,0.4-1.3,1-1.5c0.2-0.1,0.4-0.1,0.7-0.1l9.8,0.3c0,0,0.1,0,0.1,0c0.8,0,1.4,0.7,1.5,1.5l0.1,1.9l0.1,0
			c0.6,0.1,1.2,0.3,1.8,0.4c0.6,0.2,1.3,0.3,1.9,0.5c0,0,0,0,0,0c4.4,1.4,7.5,5.3,7.8,9.9c0.9,12.3-4.4,28.3-6.8,37.2
			c-1.2,4.4-1.2,8.9-0.1,13.3C635.6,217.2,638.9,230.1,641.6,238.9z"/>
		<path class="st5" d="M626.9,136.3l-10.5,0.6l0.4,7.5c0.2-0.1,0.4-0.1,0.7-0.1l9.8,0.3c0,0,0.1,0,0.1,0L626.9,136.3z"/>
		<path class="st8" d="M636.4,135.8c1.9-2.2,2.9-5.7,1-7c-0.6-0.4-1.4-0.5-2.3-0.5c2.2-7.8,1.2-18.3-3.7-21.5
			c-6.4-4.2-13.9-4-24.2,12.8c-4.1,6.6-3.3,16.3,2.6,21c4.5,3.5,13.1,1.3,18.8-2.9C631.2,138.2,634,138.5,636.4,135.8z"/>
		<g>
			<g>
				<g>
					<path class="st6" d="M611.4,127.5c0,0-0.1,0-0.1,0c-0.8-0.3-2-0.7-1.9-1.6c0-1.2,2.5-1.9,3.6-2.1c0.2-0.1,0.4,0.1,0.5,0.3
						c0.1,0.2-0.1,0.4-0.3,0.5c-1.5,0.4-2.9,1-2.9,1.4c0,0,0,0.3,1.4,0.8c0.2,0.1,0.3,0.3,0.3,0.5
						C611.8,127.4,611.6,127.6,611.4,127.5z"/>
				</g>
			</g>
			<g>
				<g>
					<path class="st6" d="M611.6,131.9c-0.4-0.1-0.6-0.2-0.6-0.3c-0.2-0.1-0.3-0.3-0.2-0.5c0.1-0.2,0.3-0.3,0.5-0.2
						c0.2,0.1,4.4,2.2,7.1-1.6c0.1-0.2,0.4-0.2,0.6-0.1c0.2,0.1,0.2,0.4,0.1,0.5C616.6,133.3,613,132.4,611.6,131.9z"/>
				</g>
			</g>
			<path class="st6" d="M621.9,125.3c-0.3,0.8-1.2,1.2-1.9,0.9c-0.7-0.3-1-1.2-0.7-1.9c0.3-0.8,1.2-1.2,1.9-0.9
				C621.9,123.7,622.2,124.5,621.9,125.3z"/>
			<path class="st6" d="M613.3,121.7c-0.3,0.8-1.2,1.2-1.9,0.9c-0.7-0.3-1-1.2-0.7-1.9c0.3-0.8,1.2-1.2,1.9-0.9
				C613.3,120.1,613.6,120.9,613.3,121.7z"/>
			<g>
				<g>
					<path class="st6" d="M626.9,123.8c-0.2-0.1-0.3-0.2-0.3-0.4c-0.2-3-2.9-3-3-3c-0.3,0-0.5-0.2-0.5-0.5c0-0.3,0.2-0.5,0.5-0.5
						c1.3,0,3.7,0.7,4,3.8c0,0.3-0.2,0.5-0.4,0.5C627.1,123.9,627,123.9,626.9,123.8z"/>
				</g>
			</g>
			<g>
				<g>
					<path class="st6" d="M616.4,116.9c-0.1,0.1-0.3,0-0.4-0.1c-1.8-1.8-3.5-0.3-3.5-0.2c-0.2,0.1-0.4,0.1-0.6,0
						c-0.1-0.2-0.1-0.4,0-0.6c0.8-0.7,2.8-1.6,4.6,0.3c0.2,0.2,0.2,0.4,0,0.6C616.5,116.9,616.4,116.9,616.4,116.9z"/>
				</g>
			</g>
		</g>
		<g>
			<path class="st4" d="M638.9,105.9c-4.8-5.3-12.1-7.6-19.1-6.1c-2.9,0.6-5.8,2.1-7.5,4.6c-4.6,6.4-1.7,10.3-1.7,10.3
				c-0.2,0.2,3.1-3.1,5.1-5.1c-0.2,2,0.3,6.2,1.3,7.9c0.7-2.3,1.8-4.4,3.1-6.4c1.2,3.2,1.7,6.6,1.3,10c1.2-2.6,2.4-5.2,3.6-7.8
				c2.8,3.3,5.7,6.8,6.5,11.1c0.5,2.9,0.1,5.8-0.9,8.6c-1,2.8-3.4,8.8-4.8,11.3c7.7-2.4,11.2-8,14.8-12c3-3.4,4.1-8.2,3.8-12.8
				c-0.3-4.4-1.8-8.8-4.5-12.3C639.6,106.7,639.2,106.3,638.9,105.9z"/>
		</g>
		<path class="st5" d="M606.8,131.2c-0.4-1.4-6.5,1.5-11.2,2.4c-2.4,0.4-4.7,1.3-6.7,2.7c-2.8,2-4.4,4.5-5.5,10.3l0,0l-17.5,42
			c-0.5,1.3-0.6,2.7-0.2,4l0,0c1.1,3.6,5.3,5.3,8.6,3.4h0c3.1-1.8,5.4-4.8,6.1-8.4l5.6-24.7l0,0l3.6-13.6c0.5,0,4.1,0.9,4.9-4
			c0,0,3.8,1.6,4.7-1.2c0,0,1.4-0.6,1.3-2c0,0,1.1-1.4,0.1-2.7l-3.6-3C597.1,136.2,607.2,134.4,606.8,131.2z"/>
		<g>
			<path class="st4" d="M546.8,149.3c0.4-7.5,2-13.5,4.8-17.8c2.8-4.4,6.6-8.6,11.4-12.8c4.3-3.5,7.5-6.5,9.6-9.1
				c2-2.5,3.2-5.8,3.4-9.8c0.2-3.4-0.9-6.3-3.2-8.7c-2.3-2.4-4.9-3.6-7.8-3.8c-4.5-0.3-8.1,1-10.9,3.7c-0.9,0.9-1.8,1.9-2.7,3
				c-3.3,4.3-9.3,5.6-14.1,3l0,0c-6-3.2-7.6-11-3.6-16.4c0.2-0.2,0.4-0.5,0.6-0.7c3.2-4.2,7.7-7.8,13.5-10.8
				c5.8-3,12.7-4.3,20.7-3.9c10.4,0.6,18.7,3.7,24.8,9.4c6.1,5.6,8.9,13.8,8.3,24.5c-0.4,7.4-1.9,13.2-4.5,17.3
				c-2.6,4.1-5.3,7.4-8.2,9.9c-2.9,2.5-4.8,4.2-5.6,4.9c-3.9,3.4-6.9,7-9,10.6c-2.2,3.7-3.4,8.5-3.8,14.4l-0.2,3.6l-24-1.4
				L546.8,149.3z M546.3,191.3c-2.5-2.4-3.6-5.4-3.4-9c0.2-3.5,1.7-6.4,4.5-8.7c2.8-2.2,6.2-3.2,10.2-3c4,0.2,7.2,1.6,9.6,4.2
				c2.4,2.5,3.5,5.6,3.3,9.1c-0.2,3.7-1.6,6.5-4.3,8.6c-2.6,2.1-6,3-10.1,2.8C552.1,194.9,548.8,193.6,546.3,191.3z"/>
		</g>
		<path class="st8" d="M632.3,149.6c-3.9-0.7-7.8,1.2-9.5,4.8l-15.5,31.5l-29.1-30.1l-0.1-0.1l-1.9-2c0,0,0.6-9.4-2.6-10.9
			c0,0-0.3,0.9-1.2,1.7c0,0,0,0,0,0c-3.4,2.4-7.4-6.2-7.4-6.2c-2.2-4.4-3.3-3.6-3.3-3.6c-1.1,0.6,1.8,6.1,3.6,9.4
			c-0.2-0.1-0.4-0.2-0.6-0.4l-5.1-7c-1.1-2.2-1.9-0.4-1.9-0.4c-0.7,2.6,6.3,12.8,6.3,12.8l-3.7-4.7c-4-6.5-4.6-4.5-4.6-4.5
			c-0.6,1.9,6.8,11.9,6.8,11.9l-5.4-6.7c-2.1-0.9-0.5,3.1-0.5,3.1c1.8,6.7,14.9,14.3,14.9,14.3l0,0c0.2,0.2,0.4,0.3,0.6,0.5
			l13.9,19.8l0.2,0.3l13.5,19.2c4.5,6.3,14,5.8,17.7-1l21-38.8C641.3,157.2,638.2,150.7,632.3,149.6z"/>
	</g>
	<g>
		<g>
			<path class="st6" d="M527.2,289.1c-1.1-1.4-2.4-2.6-4-3.2c-1.1-0.4-2.2-0.7-3-1.7c-2.5-3.2,3.7-5.5,5.2-6.3
				c1.6-0.8,3.3-2.5,3.2-4.6c0-1.6-1-2.9-2.1-4c-2.5-2.5-5.6-4.2-8.9-4.9c0-1.4-3.6-11.2-3.6-11.2l-27.2,0.6l-1.7,6.6
				c0,0-10.2,2.6-11.1,4.9c-0.5,1.3-0.3,2.9,0.2,4.2c0.6,1.3,1.5,2.3,2.4,3.2c-1,1.8-3,2.5-4.6,3.6c-1.6,1-3.3,3.1-2.7,5.2
				c0.7,2.7,4.1,2.9,5.3,5.4c-1.2,1-2.4,1.9-3.7,2.9c-0.4,0.3-0.8,0.6-1,1.1c-0.7,1.3,0.3,3,1.4,3.8c1.6,1.2,3.6,1.7,5.5,2
				c11.2,2,22.7,0.6,34,0.4c5.4-0.1,10.8,0,16-1.6c0.9-0.3,1.8-0.7,2.1-1.8c0.1-0.6,0-1.3-0.3-1.9
				C528.4,290.9,527.9,289.9,527.2,289.1z"/>
		</g>
		<g>
			<path class="st8" d="M519.3,300.5c-3.2-1.8-7.3,0.3-7.7,3.9c-0.5,4.7,2,13.5,15,30.3l8.3,10.9l11.2-6.4
				C546.1,339.1,530.7,306.8,519.3,300.5z"/>
		</g>
		<g>
			<path class="st8" d="M478.3,301.6c3.2-1.8,7.3,0.3,7.7,3.9c0.5,4.7-2,13.5-15,30.3L460.3,350l-8.9-9.8
				C451.5,340.2,466.9,307.9,478.3,301.6z"/>
		</g>
		<path class="st5" d="M510.7,300.1l0.9,1.8c4.7,9.7-2,21.2-12.9,21.8c-0.2,0-0.4,0-0.6,0c-10.8,0.6-18.7-9.9-15.3-20.1l0.9-2.8
			l5.5-0.2c2.7-0.6,4-1.6,4.6-4.3c0,0,0,0,0,0c0.4-2.6,0.1-4.6-0.7-6.1l12-2.8l0.6,6.5c0.1,1.2,0.2,2.3,0.2,3.5l0,0
			c0,1.3,1,2.3,2.2,2.4L510.7,300.1z"/>
		<path class="st8" d="M521.6,276.3c-0.9,3.8-3.8,5-6.5,5.7c-0.9,1.9-2.2,3.8-3.6,5.5c-0.5,0.5-0.9,1-1.4,1.5
			c-2.1,2.4-4.8,4.3-7.9,5c-0.1,0-0.2,0-0.3,0.1c-0.2,0-0.4,0.1-0.5,0.1c-0.1,0-0.3,0-0.4,0c-0.1,0-0.2,0-0.3,0c-0.2,0-0.5,0-0.7,0
			c-0.2,0-0.5,0-0.7,0c-0.1,0-0.2,0-0.3,0c-0.1,0-0.3,0-0.4,0c-0.2,0-0.4-0.1-0.5-0.1c-0.1,0-0.2,0-0.3-0.1c-3.1-0.7-5.8-2.6-7.9-5
			c-2-2-3.8-4.5-5-7c-2.7-0.8-5.6-1.9-6.4-5.7c-0.7-3,0.1-6.9,2.6-7.1c0.8-0.1,1.6,0.2,2.4,0.7c1.1-5,3.8-10.3,7-13.9
			c1.4-1.8,3-3,4.7-3.7c0.9-0.4,1.9-0.7,2.8-0.8c0.7-0.1,1.3-0.1,1.9-0.1c0.6,0,1.3,0,1.9,0.1c0.9,0.1,1.9,0.4,2.8,0.8
			c1.7,0.7,3.3,1.9,4.7,3.7c0.8,0.9,1.6,1.9,2.3,3c2.2,3.3,3.9,7.2,4.7,10.9c0.8-0.5,1.7-0.8,2.4-0.7
			C521.5,269.4,522.3,273.3,521.6,276.3z"/>
		<path class="st1" d="M551.3,374.1c0,0-34.9-6-35.7-7.3c-21.5,3.2-31.2,1.8-35.6,0.1l-34.3,3l17.2,27.4h72.1L551.3,374.1z"/>
		<g>
			<path class="st5" d="M535.7,414.9l-1.5,7.6c0,0-0.1,0-0.1-0.1c-10.2-2.3-37-9.7-47.6-11.9c-25.9-5.5-43-10.6-52.9-23.2
				c-1.7-2.2-2.4-5-2.1-7.6c0.3-2.6,1.6-5.1,3.8-6.9c4.8-3.9,11.4-4.6,16.9-1.7l38.3,23.1L535.7,414.9z"/>
			<path class="st6" d="M561.2,421.4c-7.9-5.5-13.1-6.7-23.8-6.9c0,0,0,0,0,0c-0.7,0-1.5,0-2.2,0l0,0.1l-0.1,0l-1.5,7.6
				c1,0.7,1.9,1.3,2.8,1.8c8.5,5.1,15.6,5.8,21,6.4C563.3,431,566,424.8,561.2,421.4z"/>
		</g>
		<g>
			<path class="st8" d="M557.9,392.3C547,404,529.6,407.7,503.3,411c-10.7,1.3-38,6.4-48.4,7.9c0,0-0.1,0-0.1,0l-1-7.7
				c0,0,0,0,0.1,0l0,0.1l46.7-16.9l40.2-19.8c5.7-2.4,12.3-1.2,16.7,3.1c2,2,3.1,4.6,3.2,7.2C560.7,387.5,559.8,390.2,557.9,392.3z"
				/>
			<path class="st6" d="M453.8,411.2c-1.4-0.1-2.7-0.2-3.9-0.3c-9.6-0.5-14.7,0.4-22.6,5c-5.1,2.9-0.1,9.4,5.8,9.2
				c5.2-0.1,9.2-0.3,17.5-4c1.4-0.6,2.8-1.4,4.2-2.2L453.8,411.2z"/>
		</g>
		<g>
			<g>
				<path class="st6" d="M501.9,285.4c1.9-0.6,3.9-1.9,4.8-5c0.1-0.3-0.1-0.5-0.3-0.6c-0.3-0.1-0.5,0.1-0.6,0.3
					c-1.5,5.5-7.2,4.7-7.5,4.7c-0.3,0-0.5,0.1-0.5,0.4c0,0.3,0.1,0.5,0.4,0.5C498.1,285.7,499.9,286,501.9,285.4z"/>
			</g>
			<g>
				<path class="st6" d="M507.1,275.4c-0.1,0.9-0.8,1.6-1.7,1.5c-0.9-0.1-1.6-0.8-1.5-1.7c0.1-0.9,0.8-1.6,1.7-1.5
					C506.5,273.7,507.1,274.5,507.1,275.4z"/>
			</g>
			<g>
				<path class="st6" d="M494.9,275.4c-0.1,0.9-0.8,1.6-1.7,1.5c-0.9-0.1-1.6-0.8-1.5-1.7c0.1-0.9,0.8-1.6,1.7-1.5
					C494.3,273.7,494.9,274.5,494.9,275.4z"/>
			</g>
			<g>
				<path class="st6" d="M508.9,272.2C508.9,272.2,508.9,272.2,508.9,272.2c0.3-0.1,0.4-0.4,0.3-0.6c-1.3-2.9-3.9-2.8-5.1-2.3
					c-0.2,0.1-0.4,0.4-0.3,0.6c0.1,0.2,0.3,0.4,0.6,0.3c0.1,0,2.7-0.9,3.9,1.8C508.4,272.2,508.6,272.3,508.9,272.2z"/>
			</g>
			<g>
				<path class="st6" d="M495.6,270.8C495.6,270.8,495.6,270.8,495.6,270.8c0.1-0.3,0.1-0.6-0.2-0.7c-2.8-1.4-4.8,0.3-5.4,1.4
					c-0.1,0.2-0.1,0.5,0.2,0.6c0.2,0.1,0.5,0.1,0.7-0.2c0-0.1,1.5-2.4,4.2-1C495.2,271.1,495.4,271,495.6,270.8z"/>
			</g>
			<g>
				<path class="st6" d="M498.5,282.1c0.3,0,0.5-0.2,0.5-0.5c0-0.3-0.2-0.5-0.5-0.5c0,0-0.9,0-1.1-0.5c-0.1-0.2-0.2-0.9,1.1-2.5
					c0.2-0.2,0.1-0.5-0.1-0.7c-0.2-0.2-0.5-0.1-0.7,0.1c-1.2,1.5-1.6,2.6-1.2,3.5C497,282.1,498.5,282.1,498.5,282.1L498.5,282.1z"
					/>
			</g>
		</g>
		<path class="st8" d="M526.8,288.2c0.4,1.4,1.1,2.5,2.1,3.4c1,0.9,2.2,1.6,3.5,2.1l0.1,15.1l-0.9,27.2c0,0.4,0,0.8,0,1.3
			c0.2,3.4,1.7,6.7,4.1,9.1c1.3,1.3,3.1,1.9,4.8,1.8c2-0.1,3.9-1.2,5.1-3c0.3-0.5,0.5-1,0.7-1.7c0.8-2.3,0.9-4.9,0.5-7.3l-7.3-43.6
			c0.2-2.5,0.2-4.5,0-6.2c0,0,0-0.1,0-0.1c0-0.1,0-0.2-0.1-0.3c0-0.3-0.1-0.5-0.1-0.8c0,0,0,0,0-0.1c-0.4-1.7-1-3.4-1.9-5.1
			c-0.1-0.1-0.1-0.2-0.2-0.3c-0.1-0.1-0.1-0.2-0.2-0.3c-0.1-0.2-0.2-0.3-0.3-0.5l-6.9-12.4c0,0-4.7-2.2,2.2,11.9
			c0.1,0.3,0.2,0.5,0.4,0.8c0,0-5.4,0.7-5.9,2.8C526.2,284.5,526.3,286.5,526.8,288.2z"/>
		<path class="st8" d="M460.3,350L460.3,350c2.6-2.5,3-6.5,0.9-9.4l-29.7-41.8l-5.3,9.4l22.8,40.2
			C451.4,352.4,456.9,353.2,460.3,350z"/>
		<g>
			<path class="st9" d="M422.4,310.4c0.4-7.5,2-13.5,4.8-17.8c2.8-4.4,6.6-8.6,11.4-12.8c4.3-3.5,7.5-6.5,9.6-9.1
				c2-2.5,3.2-5.8,3.4-9.8c0.2-3.4-0.9-6.3-3.2-8.7c-2.3-2.4-4.9-3.6-7.8-3.8c-4.5-0.3-8.1,1-10.9,3.7c-0.9,0.9-1.8,1.9-2.7,3
				c-3.3,4.3-9.3,5.6-14.1,3l0,0c-6-3.2-7.6-11-3.6-16.4c0.2-0.2,0.4-0.5,0.6-0.7c3.2-4.2,7.7-7.8,13.5-10.8
				c5.8-3,12.7-4.3,20.7-3.9c10.4,0.6,18.7,3.7,24.8,9.4c6.1,5.6,8.9,13.8,8.3,24.5c-0.4,7.4-1.9,13.2-4.5,17.3
				c-2.6,4.1-5.3,7.4-8.2,9.9c-2.9,2.5-4.8,4.2-5.6,4.9c-3.9,3.4-6.9,7-9,10.6c-2.2,3.7-3.4,8.5-3.8,14.4l-0.2,3.6l-24-1.4
				L422.4,310.4z M421.9,352.4c-2.5-2.4-3.6-5.4-3.4-9c0.2-3.5,1.7-6.4,4.5-8.7c2.8-2.2,6.2-3.2,10.2-3c4,0.2,7.2,1.6,9.6,4.2
				c2.4,2.5,3.5,5.6,3.3,9.1c-0.2,3.7-1.6,6.5-4.3,8.6c-2.6,2.1-6,3-10.1,2.8C427.7,356.1,424.4,354.8,421.9,352.4z"/>
		</g>
		<path class="st4" d="M522,319.4c-3.1-6.2-2.1-15.9-4.4-19.6l-8.7-1c-1.3-0.2-2.3-1.4-2.3-2.7v-0.8h-14.1v1.7
			c0,0.9-0.5,1.7-1.3,2.1c0,0-10,1.4-11.9,2l0.7,7.5c0.4,3.9-0.1,7.8-1.4,11.5c-0.8,2.4-1.3,4.9-1.3,7.5c0,3,0.6,6,1.7,8.8l3.6,8.6
			l0.5,1.3c0.7,1.8,1.1,3.6,1.2,5.4c0.2,2.6-0.3,5.2-1.4,7.6l-3.2,7.5c4.4,2.7,14.1,5,35.6-0.1c-1.6-4.4-2.8-7.6-2.8-8
			c-0.1-0.7-0.1-1.4-0.1-2c0-1.4,0.1-2.8,0.5-3.9l2.9-5.6l3.5-6.8C523,334.1,525.2,325.8,522,319.4z"/>
		<g>
			<path class="st6" d="M514.1,251.5c-1.7-3.1-8-6.4-11.3-6.7c-5.8-0.5-13.4,1.2-17.4,5.6c-8.1,8.9-2.7,20.1-2.5,20.1
				c0,0,1.4,3.5,3.9,3.3c2.3-0.2,2.1-4.6,2.2-6.3c2.8,5.1,8.4-2.7,8.7-6.2c-0.1,2.7,2.8,4.5,4.9,5.3c2.3,1,4.3-0.1,6.5,0
				c-0.9,2.2,0.2,6.2,1.7,7.8c2.3,2.3,4.5,0.4,4.9-2.3C516.7,267.1,519.8,261.6,514.1,251.5z"/>
		</g>
		<path class="st8" d="M419.6,300c-0.8-2.4,1.9-3.7,2.1-3.7c-0.1-0.1-1.2-0.9-0.8-2.3c0.4-1.4,1.7-1.1,1.8-1.1
			c-0.2-0.1-1.4-1.1-0.3-3c1.2-2.1,2.8-1.3,2.8-1.3s0.1-1.8,2.3-3c2.2-1.2,4.2,1,4.2,1l-2.2,2.7l5.4,1.4c0,0,2,0.5,1.2,1.9
			c-0.4,0.7-1.7,0.5-1.7,0.5l-4.4-0.6l4.6,1.8l0,0c0.7,0.5,1.4,1.2,1.2,2.1c-0.3,1.4-2,1-2.3,1c0.3,0.1,1.6,0.5,0.9,2.1
			c-0.7,1.7-3.4,0.6-3.7,0.5c0.2,0.1,1.5,0.9,0.6,2.3c-0.9,1.5-7.5-1.3-7.5-1.3l-0.6,2.7C423.2,303.7,420.4,302.6,419.6,300z"/>
	</g>
	<g>
		<path class="st10" d="M212.2,180.5l-3.7,19.3l-0.7,3.8c-0.4,1.9-2.9,2.6-4.1,1l-17.3-22l-0.1-24.2L212.2,180.5z"/>
		<path class="st5" d="M228.3,196.7l-1,9.7c-0.3,3.3-4.2,4.9-6.8,2.8l-12.1-9.4l3.7-19.3l14.8,12.6C228,194,228.5,195.4,228.3,196.7
			z"/>
		<path class="st5" d="M173.6,161.2l3-23.6l11.4,9.1c-1.3,5.8,0.3,15.7,0.3,15.7L173.6,161.2z"/>
		<g>
			<path class="st8" d="M180,149.1c2.7,2.7,6.5,5.4,10.5,4.8c6.4-0.9,11.6-6.4,13.5-12.8c0.1,0,0.1,0,0.2,0c0.8-0.1,1.9-0.3,2-1
				c0.1-0.4-0.2-1-0.3-1.4c-0.2-0.7-0.4-1.3-0.6-2c-0.5-1.5-0.5-3.2-0.6-4.7c-0.1-1.4-0.2-2.9-0.4-4.3c-0.5-3.9-1.3-8-3.2-11.5
				c-1.2-2.3-3-4.3-5.4-5.4c-2.1-1-4.5-1.3-6.8-1.2c-4.2,0.2-7.6,3.8-10,6.9c-2.6,3.5-4.6,7.3-5.7,11.5
				C171.3,135.9,174.5,143.6,180,149.1z"/>
			<g>
				<path class="st6" d="M199.7,134.9c-0.1,0.8,0.5,1.5,1.3,1.6c0.8,0.1,1.5-0.5,1.5-1.3c0.1-0.8-0.5-1.5-1.3-1.6
					C200.5,133.5,199.8,134.1,199.7,134.9z"/>
			</g>
			<g>
				<path class="st6" d="M198.3,132.1C198.3,132.1,198.2,132.1,198.3,132.1c-0.2-0.1-0.3-0.4-0.2-0.6c1.5-2.3,3.8-1.9,4.8-1.3
					c0.2,0.1,0.3,0.4,0.2,0.6c-0.1,0.2-0.3,0.3-0.6,0.2c-0.1,0-2.2-1.2-3.6,1C198.7,132.2,198.5,132.2,198.3,132.1z"/>
			</g>
			<g>
				<path class="st6" d="M200.9,143.8C200.9,143.8,200.9,143.8,200.9,143.8c0,0.3-0.2,0.4-0.5,0.4c-2.8-0.3-3.4-2.5-3.3-3.6
					c0-0.2,0.2-0.4,0.4-0.4c0.2,0,0.4,0.2,0.4,0.4c0,0.1-0.1,2.5,2.6,2.8C200.7,143.4,200.9,143.6,200.9,143.8z"/>
			</g>
		</g>
		<path class="st6" d="M241.5,412.1l-12.7-57.4L207,277.3l-8.4-41.3h-35.2l-18.4,97.3l-32.9,75.4l6.3,4.2l32-49.1
			c4.1-6.2,6.7-10,9.8-16.9c0,0,0,0,0,0l0.1-0.3c1.4-3.2,2.9-7,4.7-12.1l0,0l14.6-37.8l26.3,45.9c6,10.4,11,21.4,14.9,32.7
			l13.4,38.3L241.5,412.1z"/>
		<g>
			<path class="st1" d="M209.6,276.9c0,0-2,0.3-5.5,0.8c-11.6,1.5-31.7,3.8-48.3-1.4l0,0c4.4-28.6,5.5-57.7,3.7-86.6
				c-0.3-5-0.4-9.1-0.1-11.2c1.4-8.2,7.9-17.5,10.1-19.4c1.1-0.9,2.3-2.3,3.2-3.5c1-1.2,1.8-2.3,1.8-2.3s11.2,3.5,16.8,10
				c1.1,1.3,2.4,3.2,3.8,5.4c1.4,2.3,2.8,4.9,4.1,7.4c4.6,8.8,6.5,18.8,5.3,28.8l-0.2,1.7c-0.2,2-1.7,21.4-1.7,21.4L209.6,276.9z"/>
		</g>
		<path class="st11" d="M130.3,422.4l-7.6-2l-4-8.1l-1.2-0.6c-1.9-1.3-3.7-2.4-5.3-3.5l-0.1,0.2c-7.5,4.5-4.6,8.9,4.7,16.8
			c1.5,1.2,9.1,2.1,13.4,1.3c0,0,0.1,0,0.1,0C132.5,426.1,132.5,423,130.3,422.4z"/>
		<path class="st11" d="M234,413.4c-1.3,11.2,7.7,9.3,27.6,4.2c2.8-0.7,4-4.1-1.1-4.4l-19.3-2.3C238.5,411.7,234,413.4,234,413.4z"
			/>
		<g>
			<path class="st4" d="M212.2,117.2c2.1-2.4-0.4-10.6-4.4-7.8c0.1-2.7-3.6-4.1-6.1-4.6c-2.3-0.4-2.7,0.5-4.3,1.5
				c0.6-3.2-5.1-3.8-7.5-4c-2-0.1-4.2,0-5.9,1.1c-0.8,0.5-2.3,1.7-1.7,2.7c-4.2,0.5-8.2,1.6-10.9,5c-2,2.5-3.2,5.8-0.7,8.2
				c-2.1,1.3-4.2,2.9-5.1,5.1c-1.2,2.9,0.4,4.4,2.7,6.1c-2,1.7-3.1,4.1-2.3,6.7c0.4,1.5,3,4.5,5,3.8c-1.3,1.6,0.7,4.5,2,5.5
				c0.7,0.5,1.8,0.7,2.7,0.7c0.8,0,1.8-0.7,2.3-0.6c0.1,0,0.7,0.6,1.1,0.7c0.6,0.1,0.9,0,1.5-0.2c1-0.4,1.6-1.2,2.1-2
				c0.8-1.4,1.1-3.1,1.4-4.7c-3.4,0.5-3.6-5.9-2.4-7.6c2.2-3,6.7-2.3,7.2,1.4c1.8-0.4,3-2.4,4.2-3.7c0,0,0.1-0.1,0.1-0.1
				c0.1-0.1,0.3-0.3,0.4-0.4l-0.1,0c0.5-0.8,0.7-1.8,1-2.7c2.9,0.8,6.3,0.2,6.9-3.1c-0.3,2.2,2.5,2.5,4.2,2.1c1.5-0.4,2-1.4,2.1-2.6
				c0.7,1.2,3.6,1.2,4.7,0.5C215.5,122.6,214.7,118.8,212.2,117.2z"/>
		</g>
		<path class="st5" d="M192.1,148.8c0.3-1.4,6.4,1.5,11,2.3c2.3,0.4,4.6,1.2,6.5,2.6c2.7,1.9,4.3,4.4,5.3,10l0,0l17,41
			c0.5,1.2,0.6,2.6,0.2,3.9l0,0c-1.1,3.5-5.2,5.2-8.4,3.3h0c-3.1-1.8-5.2-4.7-6-8.2l-5.4-24.1l0,0l-3.5-13.3c-0.5,0-4,0.9-4.8-3.9
			c0,0-3.7,1.5-4.6-1.1c0,0-1.4-0.6-1.3-2c0,0-1.1-1.3-0.1-2.6l3.5-2.9C201.6,153.7,191.7,152,192.1,148.8z"/>
		<g>
			<path class="st11" d="M224,192.7c1.4-7.2,3.7-12.8,6.9-16.7c3.2-3.9,7.4-7.5,12.6-11c4.6-2.9,8.1-5.4,10.4-7.6
				c2.3-2.2,3.8-5.2,4.5-9c0.6-3.3,0-6.2-2-8.8c-2-2.6-4.3-4.1-7-4.7c-4.3-0.8-7.9-0.1-11,2.2c-1,0.8-2,1.6-3,2.6
				c-3.8,3.8-9.7,4.3-14,1.2l0,0c-5.4-3.9-6-11.6-1.4-16.4c0.2-0.2,0.4-0.4,0.6-0.6c3.6-3.6,8.4-6.6,14.4-8.8
				c6-2.2,12.8-2.6,20.5-1.2c10,1.9,17.6,5.9,22.9,12.1c5.2,6.2,6.9,14.5,5,24.8c-1.3,7.1-3.5,12.5-6.5,16.2c-3,3.6-6.1,6.5-9.2,8.6
				c-3.1,2.1-5.1,3.4-6,4.1c-4.2,2.9-7.5,5.9-10.1,9.2c-2.5,3.3-4.4,7.8-5.4,13.5l-0.7,3.5l-23-4.3L224,192.7z M218.2,233.3
				c-2.1-2.6-2.9-5.7-2.2-9.2c0.6-3.4,2.5-6,5.5-7.8c3-1.8,6.4-2.4,10.3-1.6c3.8,0.7,6.8,2.5,8.8,5.2c2,2.8,2.7,5.9,2.1,9.3
				c-0.7,3.5-2.4,6.1-5.2,7.8c-2.8,1.7-6.2,2.2-10.2,1.4C223.4,237.6,220.3,235.9,218.2,233.3z"/>
		</g>
		<path class="st8" d="M246.6,182.6c-0.4-0.3-1.6-0.1-5.3,2.3c-0.2,0.1-0.4,0.3-0.6,0.4l-4.7,2.5c0.8-0.5,6.3-3.9,8.9-6.6
			c0.8-0.8,1.4-1.5,1.5-2.1c0,0,0-1.9-1.8-0.4l-5.9,3.4h0l-4,2.3c0.3-0.2,1.2-0.9,2.5-1.8c2.9-2.2,7-5.6,6.3-6.5
			c0,0-0.6-1.2-4.3,1.9c0,0-7.4,6.1-9.5,2.7c-0.4-0.6-0.8-1.8-0.8-1.9c-2.8,2.9-5.2,8.5-5.4,9c0,0,0,0,0,0l-35.6,17.9l-3.7-31.1
			c-0.4-3.5-3.1-6.3-6.6-6.8c-5.3-0.8-9.8,3.7-9,9l6.2,38.8c1.1,6.8,9,10.1,14.6,6.1l34.9-24.8c0.2-0.1,0.4-0.2,0.7-0.2h0
			c3.2-0.4,14.2-2.2,17.8-6.6c0,0,1.3-1.7,1.3-2.5c0-0.3-0.1-0.8-0.6-0.5c-2.6,1.7-5,3.2-6.5,3.1c0.7-0.4,7.4-4,9.1-6.1c0,0,0,0,0,0
			c0.3-0.4,0.5-0.7,0.6-0.9c0,0,0,0,0,0c0,0,0-0.1,0-0.1C246.8,183,246.8,182.8,246.6,182.6z"/>
		<g>
			<path class="st10" d="M182.8,168l10.4,30.6c0.6,1.8-0.5,3.8-2.4,4.2l-0.5,0.1l-19.1,3.5l-0.8,0.2c-1.6,0.3-3.2-0.7-3.6-2.3
				c-5.3-19.2-3.5-31.8-3-34.1c0,0,0,0,0-0.1c0.3-3.5,3.8-8,6.3-9.1C175.8,158.4,180.8,160,182.8,168z"/>
		</g>
	</g>
	<g>
		<g>
			<path class="st8" d="M350.2,158.6c3.6,0,6.8,2.4,7.7,5.9l8.5,30.9l33.3-23.6c0,0,1.1-8.6,4.2-9.4c0,0,22.6,5.4-2.1,18.5l0.8-0.8
				l0,0l-32.3,31.3c-5.1,4.9-13.6,2.8-15.7-3.9l-12.2-38.3C340.8,163.9,344.7,158.5,350.2,158.6z"/>
			<path class="st12" d="M355.6,158l15.3,29.4c0.9,1.8,0,3.9-1.8,4.6l-0.5,0.2l-18.8,6.5l-0.8,0.3c-1.6,0.5-3.4-0.2-4-1.8
				c-8.3-18.7-8.4-31.7-8.3-34c0,0,0,0,0-0.1c-0.2-3.6,2.6-8.7,4.9-10.2C347,149.3,352.3,150.1,355.6,158z"/>
		</g>
		<path class="st1" d="M352.8,223.1l-41.5-1.1L301,251.6c-8.7,33.7,8.1,167,11.1,166l-1.2,1l0.1,0c2.6,0.1,7.1,0.5,7.1,0.5
			c0.1,0.3,0.2,0.5,0.3,0.8l11.5-147.5l4.2,0l17,145.8c0,0,0-0.1,0-0.1c0,0,4.5-0.6,7.1-0.8l-0.4-0.3c0,0,4.3-46.4,5.9-90.8
			C365.9,256.6,352.8,223.1,352.8,223.1z"/>
		<path class="st6" d="M375.4,428.2c-19.6,0.5-28.4,0.3-24.9-10.1c0,0,0-0.1,0-0.1c0,0,4.6-0.6,7.3-0.8l17.5,6.5
			C380,425.1,378.2,428.2,375.4,428.2z"/>
		<path class="st6" d="M294.3,430.4c-2.7,0-4.6-2.9-0.1-4.5l16.6-7.2l0,0l0.1,0c2.6,0.1,7.1,0.5,7.1,0.5c0.1,0.3,0.2,0.5,0.3,0.8
			C321.6,429.5,313,430,294.3,430.4z"/>
		<path class="st4" d="M362.6,264.7c0,0-3-20.7-5.7-35.2c-1.7-9.1-2.1-18.3-1.3-27.5c0.9-10,0.9-26.7,0.8-38.4
			c-0.1-7.7-5.8-14.1-13.4-15.1l-2.4-0.3c-0.9-0.2-1.9-0.3-2.8-0.5c-6.6-0.8-13.2,0.3-18.3,1.8c-5.9,1.7-9.8,3.8-9.8,3.8l-0.5,2
			c-3,11.1-3.8,22.6-2.3,34v0c2.3,17,1,34.3-3.9,50.7c-2.7,9.1-5.1,18.7-5.3,24.7H362.6z"/>
		<path class="st5" d="M320.5,135.1l1.9,13.7c0.2,1.3,1.3,2.3,2.7,2.3h6.5c1.7,0,3-1.6,2.6-3.3l-2-9.1L320.5,135.1z"/>
		<path class="st8" d="M310.1,134c-1.7-2.5-2.3-6.5-0.1-7.5c0.7-0.3,1.5-0.4,2.5-0.2c-1.3-8.5,1.2-19.5,6.8-22.2
			c7.3-3.5,15.2-2.3,23.8,16.8c3.4,7.5,1.3,17.7-5.6,21.8c-5.2,3.1-14-0.4-19.4-5.6C315.3,137.3,312.2,137.2,310.1,134z"/>
		<path class="st6" d="M326.4,124.5c0.3,0.9,1.1,1.3,1.9,1.1c0.8-0.2,1.2-1.1,0.9-2c-0.3-0.9-1.1-1.3-1.9-1.1
			C326.6,122.8,326.2,123.7,326.4,124.5z"/>
		<path class="st6" d="M336.1,121.3c0.3,0.9,1.1,1.3,1.9,1.1c0.8-0.2,1.2-1.1,0.9-2c-0.3-0.9-1.1-1.3-1.9-1.1
			C336.2,119.5,335.8,120.4,336.1,121.3z"/>
		<g>
			<path class="st6" d="M322.1,122.7c0.2,0,0.3-0.2,0.4-0.4c0.5-3.1,3.4-2.8,3.5-2.8c0.3,0,0.5-0.2,0.6-0.4c0-0.3-0.2-0.5-0.4-0.6
				c-1.3-0.2-4,0.4-4.6,3.7c0,0.3,0.1,0.5,0.4,0.6C322,122.7,322,122.7,322.1,122.7z"/>
		</g>
		<g>
			<path class="st6" d="M334.5,132.1c-0.1-0.1-0.3-0.2-0.5-0.1c-3,1-4.1-1.7-4.1-1.8c-0.1-0.3-0.4-0.4-0.6-0.3
				c-0.3,0.1-0.4,0.4-0.3,0.6c0.5,1.3,2.2,3.4,5.4,2.4c0.3-0.1,0.4-0.4,0.3-0.6C334.6,132.2,334.5,132.2,334.5,132.1z"/>
		</g>
		<g>
			<path class="st6" d="M334.3,116.3c0.1,0.1,0.3,0.1,0.5-0.1c2.1-1.7,3.7,0,3.8,0.1c0.2,0.2,0.4,0.2,0.6,0c0.2-0.2,0.2-0.4,0-0.6
				c-0.8-0.8-2.8-2-4.9-0.2c-0.2,0.1-0.2,0.4-0.1,0.6C334.2,116.2,334.2,116.2,334.3,116.3z"/>
		</g>
		<g>
			<path class="st6" d="M337.9,128.4c0.3-0.2,0.5-0.4,0.6-0.7c0.4-1-0.2-2.2-1.5-3.2l-4-3.8c-0.2-0.1-0.4-0.1-0.5,0
				c-0.1,0.2-0.1,0.4,0,0.5l4,3.8c1.3,1,1.5,1.9,1.3,2.3c-0.2,0.5-0.9,0.7-1.7,0.7c-0.2,0-0.4,0.1-0.5,0.3c0,0.2,0.1,0.4,0.3,0.4
				C336.8,128.9,337.5,128.8,337.9,128.4z"/>
		</g>
		<path class="st6" d="M339.4,106.6c-8.9-13.1-22.4-5.6-22.4-5.6c-13.9,9.8-7.2,23-7.2,23c5.2,9.4,10.7,9.1,10.7,9.1
			c-6.5-5.4-0.5-17.6-0.5-17.6c0.8,3.1-0.6,8.2-0.6,8.2c5.9-1.7,8.4-9.6,8.4-9.6l1.5,3.8c4.1-2.7,4.9-4.9,4.8-6.3l0.7,1.9
			c1.1-1.2,1.7-2.3,2-3.2l5.6,9.5C344,113,339.4,106.6,339.4,106.6z"/>
		<g>
			<path class="st1" d="M380.1,179.6c1.4-7.4,3.7-13.1,7.1-17.1c3.3-4,7.6-7.7,12.9-11.3c4.7-2.9,8.3-5.5,10.6-7.8
				c2.3-2.2,3.9-5.3,4.6-9.3c0.6-3.4-0.1-6.4-2.1-9c-2-2.6-4.4-4.2-7.2-4.8c-4.4-0.8-8.1-0.1-11.2,2.2c-1,0.8-2.1,1.7-3.1,2.7
				c-3.9,3.9-9.9,4.4-14.4,1.2l0,0c-5.5-4-6.2-11.9-1.4-16.8c0.2-0.2,0.4-0.4,0.6-0.7c3.7-3.7,8.7-6.7,14.8-9
				c6.1-2.3,13.1-2.7,21-1.2c10.2,1.9,18,6.1,23.4,12.4c5.4,6.4,7.1,14.8,5.1,25.4c-1.4,7.3-3.6,12.8-6.7,16.5
				c-3.1,3.7-6.2,6.7-9.4,8.8c-3.2,2.1-5.3,3.5-6.2,4.2c-4.3,2.9-7.7,6.1-10.3,9.4c-2.6,3.3-4.5,7.9-5.6,13.8l-0.7,3.5l-23.6-4.4
				L380.1,179.6z M374.2,221.2c-2.2-2.7-2.9-5.8-2.2-9.4c0.7-3.5,2.5-6.2,5.6-8c3.1-1.9,6.6-2.4,10.5-1.7c3.9,0.7,6.9,2.5,9,5.4
				c2.1,2.8,2.8,6,2.1,9.5c-0.7,3.6-2.5,6.3-5.3,8c-2.9,1.7-6.4,2.2-10.4,1.4C379.5,225.6,376.4,223.9,374.2,221.2z"/>
		</g>
		<path class="st8" d="M424.6,166.9c-0.2,2.5-2.4,1.9-2.6,1.8c0.1,0.1,0.8,1.3-0.1,2.5c-0.9,1.2-2,0.4-2.1,0.3
			c0.1,0.2,0.9,1.6-0.9,2.9c-1.9,1.4-3.1,0.1-3.1,0.1s-0.8,1.6-3.3,1.8c-2.5,0.3-3.2-1.8-3.2-1.8l2.2-2.4l-3.8-3.4
			c0,0-1.1-1,0.1-2.1c0.3-0.3,1.3,0,1.3,0l3.9,2.3l-3.6-3.5v0c-0.4-0.7-0.8-1.7-0.3-2.4c0.9-1.1,2.3-0.1,2.5,0
			c-0.2-0.2-1.2-1.1,0-2.3c1.3-1.3,3.4,0.8,3.6,1c-0.1-0.1-1-1.4,0.3-2.3c1.4-1,6.6,4.4,6.6,4.4l2.1-1.4
			C424.2,162.5,424.8,164.3,424.6,166.9z"/>
		<path class="st12" d="M325.1,185.6l-13.6,13.6l-2.7,2.7c-1.4,1.4-3.7,0.5-3.9-1.5l-4.9-24.8c-1.5-7.4,0.8-15,6-20.5l0,0
			c4.6-4.8,12.8-2.4,14.1,4.1L325.1,185.6z"/>
		<path class="st5" d="M326.7,208.7l-1.3,2.1c-2.5,2.1-6.3,1.7-8.3-0.9l-7.2-9.5l13.6-13.6l4.1,18.2
			C327.9,206.4,327.6,207.7,326.7,208.7z"/>
		<path class="st8" d="M329.5,138.2c-0.9-1.2-5.3,4.2-9.2,6.9c-2,1.4-3.7,3.1-4.9,5.2c-1.7,3-2.1,5.9-0.6,11.6l0,0l2,45.4
			c0.1,1.4,0.6,2.7,1.5,3.7l0,0c2.5,2.8,7,2.5,9.2-0.6h0c2.1-3,2.8-6.7,2-10.2l-5.4-24.7l0,0l-2.5-13.8c0.5-0.2,4.1-0.9,2.7-5.7
			c0,0,4.1-0.2,3.8-3c0,0,1-1.1,0.4-2.4c0,0,0.5-1.7-1.1-2.5l-4.6-1.2C322.8,146.9,331.2,141,329.5,138.2z"/>
	</g>
</g>
<g id="DESIGNED_BY_FREEPIK">
</g>
</svg>
