<?xml version="1.0" encoding="utf-8"?>
<!-- Generator: Adobe Illustrator 23.0.2, SVG Export Plug-In . SVG Version: 6.00 Build 0)  -->
<svg version="1.1" id="Layer_1" xmlns="http://www.w3.org/2000/svg" xmlns:xlink="http://www.w3.org/1999/xlink" x="0px" y="0px"
	 width="458.67px" height="402.26px" viewBox="0 0 458.67 402.26" style="enable-background:new 0 0 458.67 402.26;"
	 xml:space="preserve">
<style type="text/css">
	.st0{opacity:0.5;}
	.st1{fill:#E5E7EA;}
	.st2{fill:#D0D3D8;}
	.st3{opacity:0.2;fill:#2A3554;}
	.st4{opacity:0.5;fill:#2A3554;}
	.st5{fill:#2A3554;}
	.st6{fill:#16162F;}
	.st7{fill:#D9243A;}
	.st8{fill:#FF4E5A;}
	.st9{opacity:0.5;fill:#D9243A;}
	.st10{fill:#FFFFFF;}
	.st11{fill:#FBA691;}
	.st12{fill:#FB876B;}
	.st13{fill:#D45C48;}
	.st14{fill:#9A1529;}
	.st15{fill:#445279;}
	.st16{fill:#A91A21;}
</style>
<g class="st0">
	<g>
		<g>
			<path class="st1" d="M282.68,148.11c88.94-32.02,180.36,12.35,125.17,111.65c-53.69,96.59,25.36,122.19,25.36,122.19
				l-312.53-0.26c-57.58-21.3-67.25-80.38-46.36-132.28c8.72-21.65,14.96-44.22,17.9-67.37c0.04-0.33,0.08-0.66,0.13-0.99
				c3.52-27.95-12.07-50.88,13.07-68.45c25.14-17.57,67.41-12.74,106.58,21.5C242.17,160.46,282.68,148.11,282.68,148.11z"/>
		</g>
		<ellipse class="st1" cx="237.42" cy="388.26" rx="221.25" ry="14"/>
	</g>
	<g>
		<path class="st1" d="M433.27,66.03c0,1.2-0.49,2.29-1.28,3.08c-0.79,0.79-1.88,1.28-3.07,1.28h-93.24c-2.39,0-4.36-1.96-4.36-4.36
			c0-1.2,0.49-2.29,1.28-3.08c0.78-0.8,1.88-1.28,3.07-1.28h4.41c1.74-4.04,5.76-6.87,10.44-6.87c3.15,0,6,1.28,8.06,3.35
			c2.75-4.66,7.81-7.79,13.61-7.79c1.59,0,3.13,0.24,4.58,0.68c3.03-5.7,9.03-9.59,15.94-9.59c8.3,0,15.28,5.6,17.39,13.23
			c1.53-0.76,3.25-1.2,5.09-1.2c5.18,0,9.54,3.46,10.92,8.19h2.81C431.31,61.66,433.27,63.63,433.27,66.03z"/>
		<path class="st1" d="M141.08,59.53c0,1.2-0.49,2.29-1.28,3.08c-0.78,0.79-1.88,1.28-3.07,1.28H43.48c-2.39,0-4.36-1.96-4.36-4.36
			c0-1.2,0.49-2.29,1.28-3.08c0.78-0.8,1.88-1.28,3.07-1.28h4.41c1.74-4.04,5.76-6.87,10.44-6.87c3.15,0,6,1.28,8.06,3.35
			c2.75-4.66,7.81-7.79,13.61-7.79c1.59,0,3.13,0.24,4.58,0.68c3.03-5.7,9.03-9.59,15.94-9.59c8.3,0,15.28,5.6,17.39,13.23
			c1.53-0.76,3.25-1.2,5.09-1.2c5.18,0,9.54,3.46,10.92,8.19h2.81C139.12,55.16,141.08,57.13,141.08,59.53z"/>
		<path class="st1" d="M281.86,21.89c0,1.05-0.43,2-1.12,2.69c-0.69,0.69-1.64,1.12-2.68,1.12h-81.44c-2.09,0-3.81-1.71-3.81-3.81
			c0-1.05,0.43-2,1.12-2.69c0.69-0.69,1.64-1.12,2.68-1.12h3.85c1.52-3.53,5.03-6,9.12-6c2.75,0,5.24,1.12,7.04,2.93
			c2.4-4.07,6.82-6.8,11.89-6.8c1.39,0,2.73,0.21,4,0.59c2.65-4.98,7.89-8.38,13.93-8.38c7.25,0,13.35,4.9,15.19,11.56
			c1.34-0.67,2.84-1.05,4.44-1.05c4.52,0,8.34,3.02,9.54,7.15h2.45C280.15,18.08,281.86,19.79,281.86,21.89z"/>
	</g>
	<g>
		<g>
			<g>
				<path class="st2" d="M57.02,387.45H41.84c-2.06,0-3.89-2.34-4.53-5.79l-6.44-34.87c-0.26-1.43,0.3-2.91,1.15-3.02
					c11.72-1.6,23.33-1.6,34.82,0c0.85,0.12,1.41,1.6,1.15,3.02l-6.44,34.87C60.91,385.11,59.08,387.45,57.02,387.45z"/>
				<path class="st1" d="M78.28,299.17c-9.12-2.4-23.05,16.52-27.28,34.98v-26.89c2.13-3.77,6.18-9.45,13.54-15.44
					c11.45-9.33,21.99-21.29,12.85-23.7c-8.56-2.25-21.36,14.29-26.4,31.59v-34.53c1.48-2.29,3.89-5.29,7.76-8.44
					c7.22-5.88,13.86-13.42,8.1-14.94c-5-1.32-12.29,7.53-15.86,17.5v-11.19c0.59-3.46,1.42-8.41,3.72-13.46
					c5.31-11.71,8.17-23.78,1.18-22.88c-7,0.9-11.55,21.76-7.72,37.77v5.76c-2.59-11.72-11.46-23.85-17.26-22.33
					c-5.76,1.52,0.89,9.06,8.1,14.94c5.49,4.47,8.06,8.66,9.16,10.91v27.2c-4.15-18.55-18.18-37.69-27.35-35.27
					c-9.13,2.41,1.41,14.37,12.85,23.7c8.65,7.05,12.74,13.65,14.49,17.24v32.62c-4.43-18.21-18.11-36.58-27.1-34.21
					c-9.13,2.41-1.3,11.15,11.57,21.73c8.74,7.19,13.43,14.78,15.53,18.9v15.36c1.02,0.29,1.98,0.28,2.82,0v-6.11
					c1.79-3.62,5.88-10.15,14.43-17.11C76.88,313.55,87.42,301.58,78.28,299.17z"/>
			</g>
		</g>
		<g>
			<path class="st2" d="M443.98,387.45h-20.04c-2.73,0-5.14-1.76-5.98-4.35l-8.5-26.16c-0.35-1.07,0.4-2.18,1.52-2.27
				c15.48-1.2,30.8-1.2,45.97,0c1.12,0.09,1.87,1.2,1.52,2.27l-8.5,26.17C449.12,385.7,446.71,387.45,443.98,387.45z"/>
			<g>
				<g>
					<g>
						<path class="st2" d="M432.9,308.89v47.53c0.77,0.21,1.48,0.21,2.12,0v-47.53c0-0.59-0.47-1.06-1.06-1.06l0,0
							C433.38,307.83,432.9,308.3,432.9,308.89z"/>
					</g>
					<g>
						<path class="st1" d="M433.68,322.3c0,0,10.81,10.24,23.18-9.71C456.86,312.59,435.44,308.3,433.68,322.3z"/>
					</g>
					<g>
						<g>
							<path class="st1" d="M434.68,313.71c0,0,12.1-8.69-5.16-24.59C429.51,289.12,421.26,309.34,434.68,313.71z"/>
						</g>
					</g>
					<g>
						<path class="st1" d="M434.43,340.16c0,0,12.07,8.72,21.69-12.7C456.11,327.46,434.32,326.05,434.43,340.16z"/>
					</g>
					<g>
						<path class="st1" d="M433.96,347.83c0,0-0.43-14.89-23.27-9.49C410.69,338.34,422.83,356.5,433.96,347.83z"/>
					</g>
					<g>
						<path class="st1" d="M435.06,326.62c0,0-0.06-14.89-23.03-10.06C412.03,316.56,423.72,335.02,435.06,326.62z"/>
					</g>
				</g>
			</g>
		</g>
	</g>
	<g>
		<path class="st1" d="M432.95,156.46c0.7,0.65,1.49,1.22,2.36,1.67l-0.92,4.24l4.64,1.01l0.88-4.05c1.06,0.03,2.1-0.1,3.1-0.37
			l2.62,4.09l4-2.56l-2.42-3.77c1.01-0.87,1.86-1.94,2.49-3.15l4.24,0.92l1.01-4.64l-4.05-0.88c0.04-1.26-0.16-2.49-0.54-3.65
			l3.39-2.17l-2.57-4l-3.27,2.1c-0.98-1.02-2.17-1.84-3.51-2.41l0.89-4.05l-4.64-1.01l-0.92,4.24c-0.98,0.05-1.93,0.23-2.84,0.53
			l-2.48-3.86l-4,2.56l2.4,3.75c-1.02,0.98-1.84,2.17-2.41,3.51l-4.05-0.89l-1.01,4.64l4.24,0.92c0.06,1.17,0.3,2.32,0.72,3.39
			l-3.75,2.4l2.56,4L432.95,156.46z M435.97,147.71c0.51-2.35,2.84-3.84,5.18-3.32c2.35,0.51,3.84,2.84,3.32,5.18
			c-0.51,2.35-2.84,3.84-5.18,3.32C436.95,152.38,435.46,150.06,435.97,147.71z"/>
		<path class="st1" d="M443.96,180.97c0.31,0.29,0.67,0.55,1.06,0.75l-0.41,1.9l2.08,0.45l0.4-1.82c0.48,0.01,0.94-0.04,1.39-0.17
			l1.18,1.83l1.79-1.15l-1.08-1.69c0.45-0.39,0.83-0.87,1.12-1.41l1.9,0.41l0.45-2.08l-1.82-0.4c0.02-0.57-0.07-1.12-0.24-1.64
			l1.52-0.98l-1.15-1.79l-1.47,0.94c-0.44-0.46-0.97-0.83-1.58-1.08l0.4-1.82l-2.08-0.45l-0.41,1.9c-0.44,0.02-0.87,0.1-1.27,0.24
			l-1.11-1.73l-1.79,1.15l1.08,1.68c-0.46,0.44-0.83,0.97-1.08,1.58l-1.82-0.4l-0.45,2.08l1.9,0.41c0.03,0.53,0.13,1.04,0.32,1.52
			l-1.68,1.08l1.15,1.79L443.96,180.97z M445.31,177.05c0.23-1.05,1.27-1.72,2.32-1.49c1.05,0.23,1.72,1.27,1.49,2.32
			c-0.23,1.05-1.27,1.72-2.32,1.49C445.75,179.14,445.08,178.1,445.31,177.05z"/>
		<path class="st1" d="M0.49,220.34l0.66,4.7l4.41-0.62c0.38,1.08,0.94,2.11,1.66,3.04l-2.61,3.46l3.79,2.86l2.5-3.31
			c1.31,0.65,2.71,1.01,4.12,1.09l0.62,4.41l4.7-0.66l-0.64-4.54c0.89-0.36,1.73-0.85,2.5-1.45l3.46,2.61l2.86-3.79l-3.31-2.5
			c0.65-1.31,1.01-2.71,1.09-4.12l3.85-0.54l-0.66-4.7l-3.99,0.56c-0.46-1.13-1.12-2.19-1.97-3.13l2.5-3.31l-3.79-2.86l-2.61,3.46
			c-1.27-0.51-2.61-0.77-3.94-0.77l-0.62-4.43l-4.7,0.66l0.67,4.81c-0.93,0.44-1.81,1.02-2.59,1.74l-3.31-2.5l-2.86,3.79l3.46,2.61
			c-0.37,0.91-0.6,1.85-0.71,2.8L0.49,220.34z M12.16,218.28c1.45-1.92,4.18-2.3,6.1-0.85c1.92,1.45,2.3,4.18,0.85,6.1
			c-1.45,1.92-4.18,2.3-6.1,0.85C11.1,222.93,10.72,220.2,12.16,218.28z"/>
		<path class="st1" d="M25.15,199.1l0.3,2.11l1.98-0.28c0.17,0.49,0.42,0.95,0.74,1.36L27,203.85l1.7,1.28l1.12-1.49
			c0.59,0.29,1.22,0.45,1.85,0.49l0.28,1.98l2.11-0.3l-0.29-2.04c0.4-0.16,0.77-0.38,1.12-0.65l1.55,1.17l1.28-1.7l-1.49-1.12
			c0.29-0.59,0.45-1.22,0.49-1.85l1.73-0.24l-0.3-2.11l-1.79,0.25c-0.21-0.51-0.5-0.98-0.88-1.4l1.12-1.49l-1.7-1.28l-1.17,1.55
			c-0.57-0.23-1.17-0.34-1.77-0.35l-0.28-1.99l-2.11,0.3l0.3,2.16c-0.42,0.2-0.81,0.46-1.16,0.78l-1.49-1.12l-1.28,1.7l1.55,1.17
			c-0.16,0.41-0.27,0.83-0.32,1.26L25.15,199.1z M30.39,198.18c0.65-0.86,1.88-1.03,2.74-0.38c0.86,0.65,1.03,1.88,0.38,2.74
			c-0.65,0.86-1.88,1.03-2.74,0.38C29.91,200.27,29.74,199.04,30.39,198.18z"/>
	</g>
	<g>
		<g>
			<g>
				<path class="st3" d="M313.58,104.02c0,13.1-3.5,25.39-9.61,35.97c-10.87,18.83-21.25,37.93-30.69,57.51l-5.32,11.04H215.1
					l-7.78-16.07c-8.6-17.77-18.08-35.1-28.04-52.15c-6.23-10.66-9.8-23.06-9.8-36.3c0-39.11,31.43-71.09,70.29-72.03
					c0.69-0.02,1.38-0.02,2.08-0.02C281.49,32.14,313.58,64.33,313.58,104.02z"/>
				<g>
					<g>
						<g>
							<path class="st4" d="M265.93,154.97c-0.42,0-0.8-0.23-0.99-0.6l-2.37-4.55l-2.37,4.55c-0.19,0.37-0.57,0.6-0.99,0.6
								c-0.42,0-0.8-0.23-0.99-0.6l-2.37-4.55l-2.37,4.55c-0.19,0.37-0.57,0.6-0.99,0.6l0,0c-0.42,0-0.8-0.23-0.99-0.6l-2.37-4.55
								l-2.37,4.55c-0.19,0.37-0.57,0.6-0.99,0.6l0,0c-0.42,0-0.8-0.23-0.99-0.6l-2.37-4.55l-2.37,4.55
								c-0.19,0.37-0.57,0.6-0.99,0.6c-0.42,0-0.8-0.23-0.99-0.6l-2.37-4.55l-2.37,4.55c-0.19,0.37-0.57,0.6-0.99,0.6l0,0
								c-0.42,0-0.8-0.23-0.99-0.6l-2.37-4.55l-2.37,4.55c-0.19,0.37-0.57,0.6-0.99,0.6c-0.42,0-0.8-0.23-0.99-0.6l-2.37-4.55
								l-2.37,4.55c-0.19,0.37-0.57,0.6-0.99,0.6l0,0c-0.42,0-0.8-0.23-0.99-0.6l-3.36-6.45c-0.28-0.55-0.07-1.22,0.48-1.51
								c0.55-0.28,1.22-0.07,1.51,0.48l2.37,4.55l2.37-4.55c0.19-0.37,0.57-0.6,0.99-0.6c0.42,0,0.8,0.23,0.99,0.6l2.37,4.55
								l2.37-4.55c0.19-0.37,0.57-0.6,0.99-0.6c0.42,0,0.8,0.23,0.99,0.6l2.37,4.55l2.37-4.55c0.19-0.37,0.57-0.6,0.99-0.6
								c0.42,0,0.8,0.23,0.99,0.6l2.37,4.55l2.37-4.55c0.19-0.37,0.57-0.6,0.99-0.6c0.42,0,0.8,0.23,0.99,0.6l2.37,4.55l2.37-4.55
								c0.19-0.37,0.57-0.6,0.99-0.6l0,0c0.42,0,0.8,0.23,0.99,0.6l2.37,4.55l2.37-4.55c0.19-0.37,0.57-0.6,0.99-0.6
								c0.42,0,0.8,0.23,0.99,0.6l2.37,4.55l2.37-4.55c0.19-0.37,0.57-0.6,0.99-0.6c0.42,0,0.8,0.23,0.99,0.6l2.37,4.55l2.37-4.55
								c0.29-0.55,0.96-0.76,1.51-0.47c0.55,0.28,0.76,0.96,0.47,1.51l-3.36,6.45C266.73,154.74,266.35,154.97,265.93,154.97z"/>
						</g>
						<g>
							<g>
								<g>
									<path class="st5" d="M229.54,208.54l-2.28-0.03l-10.68-54.35v0l-1.8-9.15c0.29-0.16,0.61-0.29,0.93-0.38
										c0.27-0.08,0.56-0.14,0.85-0.17c0.13,0.01,0.26,0.03,0.39,0.06l1.75,8.9l0.09,0.46L229.54,208.54z"/>
								</g>
							</g>
							<g>
								<g>
									<path class="st5" d="M221.96,149.31c0,1.72-0.89,3.23-2.24,4.1c-0.29,0.19-0.59,0.34-0.92,0.46
										c-0.38,0.15-0.79,0.24-1.21,0.29c-0.17,0.02-0.34,0.03-0.52,0.03c-0.17,0-0.33-0.01-0.49-0.03
										c-2.46-0.25-4.39-2.33-4.39-4.85c0-1.87,1.05-3.49,2.59-4.31c0.29-0.16,0.61-0.29,0.93-0.38c0.27-0.08,0.56-0.14,0.85-0.17
										c0.16-0.02,0.33-0.03,0.5-0.03c0.31,0,0.61,0.03,0.9,0.08C220.24,144.93,221.96,146.92,221.96,149.31z"/>
								</g>
							</g>
							<g>
								<g>
									<path class="st5" d="M273.64,149.31c0,2.67-2.15,4.84-4.81,4.88c-0.02,0-0.04,0-0.07,0c-0.76,0-1.48-0.17-2.12-0.48
										c-1.64-0.79-2.76-2.46-2.76-4.4c0-2.6,2.03-4.72,4.58-4.87c0.1-0.01,0.2-0.01,0.3-0.01c0.68,0,1.32,0.14,1.9,0.39
										C272.42,145.56,273.64,147.29,273.64,149.31z"/>
								</g>
							</g>
						</g>
						<g>
							<g>
								<g>
									<path class="st5" d="M270.67,144.82l-1.84,9.37l-10.67,54.33h-2.28l10.77-54.81l1.82-9.27c0.1-0.01,0.2-0.01,0.3-0.01
										C269.44,144.43,270.08,144.57,270.67,144.82z"/>
								</g>
							</g>
						</g>
					</g>
				</g>
			</g>
			<g>
				<g>
					<path class="st5" d="M270.5,212.17v7.78c0,2-1.63,3.63-3.63,3.63h-51.65c-2,0-3.63-1.63-3.63-3.63v-7.78
						c0-2,1.63-3.63,3.63-3.63h51.65C268.87,208.54,270.5,210.17,270.5,212.17z"/>
					<path class="st6" d="M270.5,215.36v4.6c0,2-1.63,3.63-3.63,3.63h-51.65c-2,0-3.63-1.63-3.63-3.63v-4.6H270.5z"/>
				</g>
				<g>
					<path class="st5" d="M270.5,227.22V235c0,1.8-1.31,3.29-3.02,3.58c-0.2,0.03-0.4,0.05-0.61,0.05h-51.65
						c-0.21,0-0.41-0.02-0.61-0.05c-1.72-0.29-3.02-1.78-3.02-3.58v-7.78c0-2,1.63-3.63,3.63-3.63h51.65
						C268.87,223.59,270.5,225.21,270.5,227.22z"/>
					<path class="st6" d="M270.5,230.35V235c0,1.8-1.31,3.29-3.02,3.58h-52.87c-1.72-0.29-3.02-1.78-3.02-3.58v-4.65H270.5z"/>
				</g>
				<g>
					<path class="st5" d="M270.5,242.26v7.78c0,1.8-1.32,3.3-3.04,3.58c-0.19,0.03-0.39,0.05-0.6,0.05h-51.65
						c-0.2,0-0.4-0.02-0.6-0.05c-1.72-0.28-3.04-1.78-3.04-3.58v-7.78c0-2,1.63-3.63,3.63-3.63h51.65
						C268.87,238.63,270.5,240.26,270.5,242.26z"/>
					<path class="st6" d="M270.5,245.4v4.65c0,1.8-1.32,3.3-3.04,3.58h-52.84c-1.72-0.28-3.04-1.78-3.04-3.58v-4.65H270.5z"/>
				</g>
				<path class="st6" d="M226.96,253.68c0.06,7.94,6.51,14.36,14.46,14.36c7.95,0,14.4-6.42,14.46-14.36H226.96z"/>
			</g>
			<g>
				<g>
					<g>
						<path class="st7" d="M249.26,126.65c0,0-0.69,4.43,2.11,5.67s5.8,0.19,5.8,0.19s4.43,3.63,13.41,0.65
							c8.98-2.98,14.47-12.38,14.47-12.38l-7.31-0.49L249.26,126.65z"/>
					</g>
				</g>
				<g>
					<path class="st8" d="M301.89,97.05c0,1.87-0.13,3.8-0.44,5.78c-0.17,1.14-0.39,2.21-0.64,3.22c-0.18,0.72-0.37,1.4-0.58,2.05
						c-0.36,1.09-0.76,2.09-1.2,3.01c-0.3,0.61-0.61,1.19-0.93,1.73c-6.74,11.16-19.91,7.46-19.91,7.46l-12.01,2.68h0l-5.17,1.15h0
						l-28.65,6.39l-0.02,0c0,0-3.37,0.82-7.78,0.61h0c-3.54-0.17-7.76-1-11.46-3.46c-5.66-3.77-6.82-12.19-4.86-16.32
						c0.25-0.52,0.55-0.98,0.89-1.34h-3.77c-8.52,0-15.82-4.16-20.33-10.32c-0.63-0.86-1.2-1.75-1.72-2.68
						c-2.98-5.36-4.02-11.81-2.31-18.25c0.17-0.64,0.37-1.27,0.59-1.91c0.03-0.09,0.06-0.18,0.09-0.27
						c0.12-0.33,0.25-0.66,0.38-0.98c3.38-8.09,6.83-11.4,8.93-12.74c0.83-0.53,1.45-0.75,1.77-0.84c0.15-0.04,0.23-0.05,0.23-0.05
						s2.66-5.23,10.72-10.07c0,0,0,0,0,0c1.29-0.78,2.72-1.54,4.3-2.27c2.61-1.21,5.63-2.33,9.11-3.26c0.87-0.23,1.77-0.45,2.7-0.66
						c0.08-0.02,0.15-0.03,0.23-0.05c9.58-2.09,18.26-2.05,24.87-1.37c0.71,0.07,1.39,0.15,2.05,0.24c3.4,0.44,6.13,1.01,8,1.48
						c1.85,0.46,2.87,0.81,2.87,0.81s0.16,0,0.46,0.01h0c2.19,0.06,11.83,0.7,19.81,7.13c0.72,0.58,1.42,1.2,2.1,1.87
						c1.81,1.79,3.49,3.93,4.9,6.51c0.4,0.72,0.77,1.48,1.12,2.27c0,0,0.21,0.17,0.59,0.51c1.76,1.58,7.14,6.79,10.96,14.69
						c0.48,0.99,0.93,2.02,1.35,3.1c0.37,0.94,0.71,1.91,1.01,2.9c0,0,0,0,0,0c0.85,2.74,1.44,5.71,1.64,8.87
						C301.87,95.46,301.89,96.25,301.89,97.05z"/>
				</g>
				<g>
					<g>
						<path class="st7" d="M207.18,67.96c-0.18,0.16-0.41,0.23-0.63,0.23c-0.28,0-0.55-0.12-0.75-0.35
							c-0.47-0.55-0.92-0.96-1.35-1.26c-1.25-0.86-2.44-0.81-3.86-0.61c-0.19,0.02-0.39,0.05-0.59,0.08
							c-1.31,0.19-2.8,0.41-4.47,0.04c-0.23-0.05-0.45-0.11-0.65-0.17c0,0,0,0,0,0c-1.18-0.34-2.03-0.82-2.63-1.35
							c-0.64-0.56-1.01-1.17-1.23-1.7c0.83-0.53,1.45-0.75,1.77-0.84c0.23,0.63,0.94,1.67,3.16,2.15c1.14,0.25,2.18,0.16,3.25,0.01
							c0.17-0.03,0.34-0.05,0.52-0.07c0.52-0.07,1.05-0.15,1.6-0.19c1.17-0.08,2.39,0.02,3.65,0.7c0,0,0.01,0,0.01,0
							c0.06,0.03,0.12,0.06,0.17,0.1c0.7,0.41,1.42,1.01,2.14,1.86C207.64,66.99,207.59,67.61,207.18,67.96z"/>
					</g>
				</g>
				<g>
					<g>
						<path class="st7" d="M208.24,80.31c-0.46,0-0.87-0.33-0.96-0.8c-0.13-0.7-0.45-1.21-0.97-1.56c-1.39-0.93-3.87-0.61-5.23-0.33
							c-1.59,0.33-3.3-0.2-4.44-1.36c-1.26-1.28-1.72-3.18-1.26-5.21c0.95-4.23,8.16-6.25,8.97-6.46c0.52-0.14,1.06,0.17,1.19,0.7
							c0.14,0.52-0.17,1.06-0.7,1.19c-1.91,0.51-6.98,2.39-7.57,5c-0.31,1.39-0.04,2.6,0.75,3.41c0.69,0.7,1.71,1.01,2.66,0.82
							c2.02-0.41,4.82-0.64,6.71,0.62c0.97,0.65,1.57,1.6,1.81,2.82c0.1,0.53-0.25,1.04-0.78,1.14
							C208.36,80.3,208.3,80.31,208.24,80.31z"/>
					</g>
				</g>
				<g>
					<path class="st7" d="M195.96,64.86c0.05,0.53-0.34,0.99-0.87,1.04c-0.01,0-0.08,0.01-0.21,0.03c0,0,0,0,0,0
						c-1.03,0.15-5.48,0.96-6,4.18c-0.54,3.32-2.37,6.4-4.67,7.83c-0.91,0.57-1.86,0.85-2.8,0.85c-0.13,0-0.26-0.01-0.39-0.02
						c0.17-0.64,0.37-1.27,0.59-1.91c0.52-0.04,1.05-0.22,1.59-0.56c1.82-1.13,3.34-3.75,3.79-6.51c0.5-3.07,3.16-4.54,5.26-5.23
						c1.4-0.46,2.55-0.57,2.67-0.58C195.44,63.94,195.91,64.33,195.96,64.86z"/>
				</g>
				<g>
					<g>
						<path class="st7" d="M200.03,66.03c-0.04,0-0.08,0-0.12-0.01c-0.53-0.06-0.92-0.54-0.85-1.08c0.03-0.22,0.7-5.53,6.53-7.97
							c5.52-2.31,8.61-2.13,8.74-2.12c0.54,0.04,0.95,0.5,0.91,1.04c-0.04,0.54-0.51,0.94-1.04,0.91c-0.02,0-2.82-0.13-7.86,1.98
							c-4.75,1.98-5.32,6.21-5.34,6.39C200.93,65.67,200.51,66.03,200.03,66.03z"/>
					</g>
				</g>
				<g>
					<g>
						<path class="st7" d="M205.05,57.22c0.09,0.33,0.21,0.67,0.35,1.01c0.19,0.44,0.03,0.95-0.36,1.2
							c-0.02,0.02-0.05,0.03-0.08,0.05c-0.02,0.01-0.04,0.02-0.07,0.03c-0.13,0.06-0.26,0.08-0.39,0.08c-0.38,0-0.74-0.22-0.9-0.59
							c-0.11-0.26-0.21-0.52-0.29-0.78c-0.8-2.39-0.42-4.55,0.42-6.32c1.29-0.78,2.72-1.54,4.3-2.27
							C206.91,50.54,204,53.31,205.05,57.22z"/>
					</g>
				</g>
				<g>
					<g>
						<path class="st7" d="M246.3,49.21l-0.06,0.06c-1.53,1.54-2.35,2.17-7.45,2.27c-0.69,0.01-1.16,0.16-1.41,0.43
							c-0.5,0.55-0.39,1.9-0.29,3.22c0.13,1.67,0.28,3.55-0.61,5.05c-0.74,1.25-1.85,1.94-3.09,1.94c-0.18,0-0.37-0.02-0.56-0.05
							c-2.04-0.33-3.93-2.39-4.49-4.91c-0.58-2.63-4.84-2.67-5.08-2.67c-0.01,0-0.01,0-0.01,0c-0.54,0-0.98-0.43-0.99-0.96
							c-0.01-0.54,0.42-0.98,0.96-0.99c0.25-0.01,6.08-0.04,7.02,4.2c0.43,1.91,1.8,3.24,2.89,3.41c0.67,0.11,1.21-0.21,1.66-0.96
							c0.57-0.96,0.45-2.46,0.34-3.9c-0.14-1.72-0.28-3.51,0.78-4.68c0.63-0.7,1.55-1.05,2.82-1.07c4.51-0.09,4.91-0.49,6.1-1.69
							l0.06-0.06c0.49-0.5,0.36-2.14,0.03-3.53c0.71,0.07,1.39,0.15,2.05,0.24C247.28,46.05,247.4,48.1,246.3,49.21z"/>
					</g>
				</g>
				<g>
					<g>
						<path class="st7" d="M231.19,52.96c-0.16,0.1-0.34,0.15-0.52,0.15c-0.32,0-0.64-0.16-0.83-0.45
							c-1.79-2.82-6.21-2.61-9.14-2.46c-1.25,0.06-2.15,0.11-2.78-0.06c-0.61-0.16-1.05-0.56-1.24-1.12
							c-0.26-0.77,0.03-1.74,0.47-2.64c0.87-0.23,1.77-0.45,2.7-0.66c-0.69,0.95-1.26,2.06-1.31,2.54c0.42,0.06,1.26,0.02,2.07-0.02
							c3.18-0.16,8.49-0.42,10.89,3.37C231.78,52.07,231.64,52.67,231.19,52.96z"/>
					</g>
				</g>
				<g>
					<g>
						<path class="st7" d="M258.32,46.83c-0.11,0.09-0.24,0.15-0.38,0.19c-0.1,0.02-5.65,1.41-5.12,4.55
							c0.37,2.21,0.47,3.26,0.13,4.09c-0.41,1.02-1.33,1.31-2.5,1.69l-0.29,0.09c-0.14,0.05-0.31,0.1-0.51,0.16
							c-7.59,2.4-11.03,4.97-10.23,7.64c0.39,1.31,0.77,2.32,1.07,3.13c0.57,1.53,0.91,2.46,0.44,3.31
							c-0.45,0.79-1.39,1.03-2.41,1.22c-1.85,0.35-11.06,2.66-10.18,13.31c0.04,0.54-0.35,1.01-0.89,1.05c-0.03,0-0.05,0-0.08,0
							c-0.5,0-0.93-0.39-0.97-0.9c-0.4-4.87,1.1-8.95,4.34-11.8c2.93-2.57,6.43-3.4,7.43-3.59c0.65-0.12,0.93-0.22,1.05-0.28
							c-0.03-0.3-0.3-1.01-0.54-1.65c-0.31-0.84-0.7-1.88-1.11-3.25c-1.75-5.86,8.24-9.02,11.52-10.06c0.19-0.06,0.35-0.11,0.5-0.16
							l0.3-0.1c0.68-0.22,1.22-0.39,1.29-0.57c0.17-0.41-0.04-1.78-0.25-3.03c-0.51-3.06,2.02-4.9,4.1-5.88
							c1.85,0.46,2.87,0.81,2.87,0.81S258.02,46.82,258.32,46.83z"/>
					</g>
				</g>
				<g>
					<g>
						<path class="st7" d="M222.95,72.34c-1.02,0-2.02-0.41-2.97-1.22c-3.65-3.11-1.73-13.52-1.5-14.7c0.1-0.53,0.62-0.87,1.15-0.77
							c0.53,0.1,0.87,0.62,0.77,1.15c-0.79,4.01-1.25,11.05,0.85,12.84c0.7,0.6,1.36,0.84,2.02,0.73c1.36-0.22,2.36-1.8,2.37-1.82
							c0.28-0.46,0.88-0.61,1.34-0.32c0.46,0.28,0.61,0.88,0.32,1.34c-0.06,0.1-1.47,2.37-3.73,2.73
							C223.36,72.33,223.15,72.34,222.95,72.34z"/>
					</g>
				</g>
				<g>
					<g>
						<path class="st7" d="M215.53,75.19c-0.2,0-0.4-0.01-0.61-0.04c-3.62-0.45-5.57-5.62-5.78-6.21c-0.18-0.51,0.08-1.07,0.59-1.25
							c0.51-0.18,1.07,0.08,1.25,0.59c0.46,1.28,2.12,4.67,4.18,4.93c2.16,0.27,4.9-1.96,5.78-2.85c0.38-0.38,1-0.39,1.38-0.01
							c0.38,0.38,0.39,1,0.01,1.38C222.18,71.89,218.89,75.19,215.53,75.19z"/>
					</g>
				</g>
				<g>
					<g>
						<path class="st7" d="M218.89,84.09c-1.33,3.64-7.95,5.11-13.27,6.29c-1.77,0.39-3.44,0.76-4.52,1.14
							c-0.55,0.19-0.98,0.49-1.35,0.87c-0.7,0.72-1.15,1.73-1.65,2.84c-0.92,2.08-1.97,4.44-5.03,5.11
							c-0.83,0.18-1.69,0.26-2.54,0.26c-1.98,0-3.94-0.42-5.51-0.89c-0.63-0.86-1.2-1.75-1.72-2.68c1.76,0.72,5.9,2.16,9.35,1.4
							c2.09-0.46,2.82-2.1,3.66-4c0.19-0.43,0.39-0.87,0.61-1.31c0.41-0.81,0.89-1.59,1.56-2.24c0.52-0.51,1.16-0.93,1.96-1.21
							c1.18-0.41,2.83-0.78,4.74-1.2c4.34-0.96,10.89-2.41,11.85-5.05c0.18-0.51,0.74-0.77,1.25-0.58
							C218.81,83.02,219.07,83.58,218.89,84.09z"/>
					</g>
				</g>
				<g>
					<g>
						<path class="st7" d="M197.08,93.12c-1.2,0-2.49-0.33-3.59-0.99c-1.78-1.05-2.76-2.69-2.76-4.62c0-0.89-0.24-1.54-0.72-2
							c-0.87-0.83-2.29-0.78-2.3-0.78c-0.54,0.03-1-0.39-1.03-0.93c-0.03-0.54,0.39-1,0.93-1.03c0.09-0.01,2.26-0.1,3.75,1.31
							c0.88,0.84,1.33,1.99,1.33,3.42c0,1.56,0.98,2.46,1.79,2.94c1.31,0.77,3.12,0.94,4.12,0.38c0.47-0.26,1.07-0.09,1.33,0.38
							c0.26,0.47,0.09,1.07-0.38,1.33C198.84,92.93,197.99,93.12,197.08,93.12z"/>
					</g>
				</g>
				<g>
					<path class="st7" d="M183.8,93.4c-0.1,0-0.21-0.02-0.31-0.05c-0.5-0.17-0.77-0.72-0.6-1.22c0.09-0.28,2.38-6.77,8.24-7.54
						c0.52-0.07,1.01,0.3,1.08,0.82c0.07,0.53-0.3,1.01-0.82,1.08c-4.67,0.62-6.65,6.21-6.67,6.26
						C184.57,93.15,184.19,93.4,183.8,93.4z"/>
				</g>
				<g>
					<g>
						<path class="st7" d="M280.23,55.83C280.23,55.83,280.22,55.83,280.23,55.83c-0.07,0.01-0.69,0.09-1.71,0.09
							c-1.77,0-4.76-0.23-8.23-1.43c-3.03-1.04-5.27-1.62-6.38-1.03c-0.31,0.16-0.76,0.52-1.08,1.72c-0.14,0.52-0.67,0.83-1.19,0.69
							s-0.83-0.67-0.69-1.2c0.39-1.45,1.06-2.42,2.05-2.94c1.75-0.93,4.23-0.37,7.94,0.9c2.98,1.03,5.57,1.28,7.21,1.31
							C278.85,54.54,279.55,55.16,280.23,55.83z"/>
					</g>
				</g>
				<g>
					<g>
						<path class="st7" d="M287.57,85.73c-0.11,0.53-0.62,0.87-1.15,0.76c-0.36-0.07-0.83-0.13-1.03,0.02
							c-0.54,0.41-0.69,2.55-0.87,5.26l-0.05,0.73c-0.24,3.47-3.56,5.99-6.58,7.19c-1.67,0.66-3.35,0.99-4.91,0.99
							c-2.16,0-4.09-0.63-5.41-1.85c-1.04-0.96-1.6-2.04-1.85-3.22c-0.31-1.47-0.13-3.08,0.22-4.77c0.18-0.85,0.4-1.72,0.62-2.6
							c0.67-2.65,1.37-5.38,1.12-8.18c-0.04-0.44-0.08-0.86-0.12-1.27c-0.39-4.26-0.65-7.07,0.84-8.87c0.88-1.06,2.3-1.65,4.46-1.84
							c0.9-0.08,1.52-0.25,1.95-0.49c0.7-0.39,0.93-0.98,1.14-1.72c0.03-0.12,0.06-0.23,0.1-0.36c0.31-1.17,0.69-2.62,2.46-3.46
							c2.24-1.08,4.86-0.42,6.62,0.29c0.4,0.72,0.77,1.48,1.12,2.27c0,0,0.21,0.17,0.59,0.51c-0.25,0.06-0.52,0.02-0.75-0.12
							c-0.05-0.03-4.02-2.49-6.74-1.19c-0.91,0.44-1.12,1.09-1.42,2.2c-0.2,0.74-0.42,1.6-1.04,2.34c-0.03,0.04-0.06,0.07-0.09,0.11
							c-0.01,0.01-0.01,0.02-0.02,0.02c-0.68,0.76-1.81,1.37-3.75,1.54c-1.61,0.15-2.6,0.51-3.13,1.15
							c-0.97,1.17-0.74,3.66-0.39,7.44c0.04,0.41,0.08,0.84,0.12,1.28c0.28,3.13-0.49,6.16-1.17,8.83c-1.05,4.15-1.6,6.79,0.44,8.67
							c1.73,1.6,4.98,1.79,8.28,0.48c3.1-1.23,5.2-3.39,5.35-5.51l0.05-0.73c0.26-3.82,0.4-5.74,1.64-6.68
							c0.85-0.64,1.89-0.52,2.6-0.38C287.34,84.69,287.68,85.21,287.57,85.73z"/>
					</g>
				</g>
				<g>
					<g>
						<path class="st7" d="M299.15,82.9c-0.64,2.1-1.93,4.15-4.27,4.15c-0.09,0-0.17,0-0.26-0.01c-2.77-0.18-3.3-3.27-3.77-6
							c-0.11-0.64-0.22-1.29-0.36-1.91c-0.25-1.16-0.59-2.21-1.17-2.87c0,0-0.01-0.01-0.01-0.01c-3-3.42-6.98-4.12-11.83-2.08
							c-0.5,0.21-1.07-0.03-1.28-0.52c-0.21-0.5,0.02-1.07,0.52-1.28c5.63-2.37,10.5-1.47,14.07,2.6c1.25,1.42,1.62,3.62,1.99,5.74
							c0.44,2.6,0.82,4.3,1.96,4.38c0.04,0,0.08,0,0.12,0c2.37,0,2.82-4.86,2.83-4.91c0.01-0.14,0.05-0.27,0.11-0.38
							C298.28,80.8,298.73,81.83,299.15,82.9z"/>
					</g>
				</g>
				<g>
					<g>
						<path class="st7" d="M277.96,87.26c-1.72,0-2.65-0.76-3.14-1.4c-1.55-2.06-0.58-5.51-0.47-5.9c0.15-0.52,0.7-0.81,1.21-0.66
							c0.52,0.15,0.81,0.7,0.66,1.21c-0.22,0.74-0.66,3.09,0.16,4.17c0.33,0.43,0.85,0.64,1.63,0.62c2.19-0.03,3.08-1.78,4.18-4.45
							c0.54-1.31,1.05-2.55,1.88-3.35c2.26-2.17,5.16-2.05,7.94,0.34c0.41,0.35,0.46,0.97,0.1,1.38c-0.35,0.41-0.97,0.46-1.38,0.1
							c-3.03-2.6-4.75-0.95-5.31-0.41c-0.54,0.51-0.97,1.57-1.43,2.68c-0.98,2.37-2.32,5.61-5.96,5.66
							C278.01,87.26,277.98,87.26,277.96,87.26z"/>
					</g>
				</g>
				<g>
					<g>
						<path class="st7" d="M247.18,93c-1.26,0-2.53-0.16-3.68-0.35c-5.58-0.92-5.51-9.25-5.5-9.61c0.01-0.54,0.45-0.97,0.99-0.96
							c0.54,0.01,0.97,0.45,0.96,0.99c0,0.1-0.05,7,3.87,7.65c2.46,0.41,5.53,0.69,7.37-0.76c1.13-0.89,1.75-2.36,1.92-4.5
							c0.13-1.65,0.18-3.09,0.23-4.35c0.16-4.1,0.26-6.57,2.59-7.94c0.47-0.27,1.06-0.12,1.34,0.35c0.27,0.47,0.12,1.06-0.35,1.34
							c-1.36,0.8-1.47,2.42-1.63,6.33c-0.05,1.28-0.11,2.74-0.24,4.42c-0.2,2.68-1.1,4.66-2.66,5.89
							C250.93,92.64,249.06,93,247.18,93z"/>
					</g>
				</g>
				<g>
					<g>
						<path class="st7" d="M242.67,92.09c-0.2,0.04-0.4,0.07-0.59,0.12c-3.59,0.83-5.61,3.18-7.94,5.88
							c-1.21,1.41-2.47,2.87-4.04,4.22c-3.27,2.8-5.91,1.93-8.47,1.09c-1.55-0.51-3.16-1.04-5.1-0.86c-4.78,0.44-7.47,8.09-7.5,8.17
							c-0.12,0.36-0.44,0.6-0.79,0.65c0.25-0.52,0.55-0.98,0.89-1.34h-1.93c0.3-0.84,3.31-8.88,9.14-9.42
							c2.34-0.21,4.22,0.4,5.88,0.95c2.41,0.79,4.16,1.37,6.59-0.72c1.46-1.25,2.66-2.65,3.83-4.01c2.16-2.51,4.22-4.9,7.55-6.09
							c0.65-0.24,1.36-0.43,2.12-0.56c0.04-0.01,0.07-0.01,0.11-0.01c0.36-0.02,0.69,0.16,0.88,0.45c0.07,0.11,0.12,0.23,0.14,0.36
							C243.55,91.49,243.2,92,242.67,92.09z"/>
					</g>
				</g>
				<g>
					<g>
						<path class="st7" d="M244.56,84.73c-0.47,0-0.88-0.33-0.96-0.81c-0.48-2.75-1.5-4.62-3.05-5.55c-1.92-1.16-4.01-0.51-4.03-0.5
							c-0.51,0.16-1.06-0.12-1.23-0.63c-0.16-0.51,0.12-1.06,0.63-1.23c0.12-0.04,2.97-0.92,5.63,0.69
							c2.05,1.24,3.38,3.56,3.96,6.89c0.09,0.53-0.26,1.04-0.79,1.13C244.67,84.73,244.62,84.73,244.56,84.73z"/>
					</g>
				</g>
				<g>
					<g>
						<path class="st7" d="M243.13,80.04c-0.17,0-0.33-0.04-0.49-0.13c-0.47-0.27-0.63-0.87-0.36-1.33
							c0.41-0.71,10.13-17.36,20.02-18.35c10.03-1,14.47,6.76,14.65,7.09c0.26,0.47,0.09,1.07-0.38,1.33
							c-0.47,0.26-1.06,0.09-1.33-0.38l0,0c-0.16-0.28-4.03-6.97-12.75-6.1c-8.9,0.89-18.42,17.22-18.52,17.38
							C243.79,79.86,243.47,80.04,243.13,80.04z"/>
					</g>
				</g>
				<g>
					<g>
						<path class="st7" d="M238.31,108.5c-0.29,0-0.58-0.13-0.77-0.38c-0.33-0.43-0.25-1.04,0.17-1.37c2.76-2.15,5.82-2.5,9.36-2.9
							c2.47-0.28,5.27-0.6,8.38-1.61c7-2.28,10.47-11.36,10.5-11.45c0.19-0.5,0.75-0.76,1.26-0.57c0.51,0.19,0.76,0.75,0.57,1.25
							c-0.15,0.41-3.82,10.06-11.73,12.63c-3.3,1.07-6.2,1.41-8.76,1.7c-3.38,0.39-6.06,0.69-8.39,2.5
							C238.73,108.44,238.52,108.5,238.31,108.5z"/>
					</g>
				</g>
				<g>
					<g>
						<path class="st7" d="M251.85,111.64c-0.46,0-0.86-0.32-0.96-0.78c-0.11-0.53,0.24-1.04,0.76-1.15
							c0.06-0.01,5.98-1.23,8.21-3.58c1.38-1.46,3.97-1.04,6.97-0.55c3.84,0.63,8.2,1.34,11.2-1.28c0.41-0.36,1.02-0.31,1.38,0.09
							c0.35,0.41,0.31,1.02-0.09,1.38c-3.69,3.23-8.74,2.4-12.79,1.74c-2.24-0.37-4.56-0.74-5.24-0.04
							c-2.66,2.8-8.97,4.09-9.24,4.15C251.98,111.63,251.92,111.64,251.85,111.64z"/>
					</g>
				</g>
				<g>
					<g>
						<path class="st7" d="M260.58,107.78c-0.07,0-0.14-0.01-0.21-0.02c-0.53-0.11-0.86-0.63-0.75-1.16
							c0.56-2.56-0.83-4.94-0.84-4.97c-0.27-0.46-0.12-1.06,0.34-1.34c0.46-0.28,1.06-0.13,1.34,0.33c0.07,0.12,1.8,3.05,1.08,6.39
							C261.43,107.46,261.03,107.78,260.58,107.78z"/>
					</g>
				</g>
				<g>
					<g>
						<path class="st7" d="M301.89,97.05c-1.6,0.96-3.46,1.29-5.25,1.29c-3.73,0-7.18-1.42-7.41-1.52c-0.5-0.21-0.73-0.78-0.52-1.28
							c0.21-0.5,0.78-0.73,1.28-0.52c0.05,0.02,3.32,1.36,6.67,1.36c1.87,0,3.76-0.41,5.15-1.7
							C301.87,95.46,301.89,96.25,301.89,97.05z"/>
					</g>
				</g>
				<g>
					<g>
						<path class="st7" d="M232.36,130.53l-0.02,0c0,0-3.37,0.82-7.78,0.61c0,0,0,0,0,0c-1.71-0.68-3.27-1.66-4.65-2.93
							c-1.55-1.43-2.82-3.21-3.71-5.16c-0.02-0.05-0.04-0.09-0.07-0.14c0,0,0,0,0-0.01c-0.6-1.33-1.02-2.74-1.25-4.17
							c-1.06-6.79,4.24-11.07,4.47-11.25c0.42-0.33,1.04-0.26,1.37,0.16c0.33,0.42,0.26,1.04-0.16,1.37
							c-0.2,0.16-4.63,3.78-3.75,9.41c0.11,0.73,0.29,1.46,0.52,2.18c0.22,0.68,0.49,1.36,0.82,2.02c2.18,4.43,6.74,8.04,13.53,7.66
							C231.94,130.29,232.18,130.38,232.36,130.53z"/>
					</g>
				</g>
				<g>
					<g>
						<path class="st7" d="M266.18,122.99l-5.17,1.15h0c-0.59-0.23-1.06-0.57-1.62-1.01c-0.52-0.41-1.11-0.87-2.12-1.39
							c-3.35-1.73-7.26-0.45-9.8,1.32c-2.5,1.74-5.15,0.67-7.08-0.11c-0.78-0.31-1.57-0.64-2.02-0.62
							c-0.45,0.03-1.35,0.73-2.07,1.29c-1.56,1.22-3.69,2.89-5.71,1.46c-1.74-1.23-4.73,0.62-4.76,0.64
							c-0.16,0.1-0.35,0.15-0.53,0.15c-0.32,0-0.64-0.16-0.82-0.45c-0.29-0.45-0.16-1.06,0.29-1.35c0.16-0.11,4.09-2.6,6.94-0.59
							c0.78,0.55,1.84-0.2,3.38-1.4c1.08-0.85,2.1-1.65,3.17-1.7c0.88-0.05,1.8,0.32,2.86,0.76c1.77,0.72,3.6,1.46,5.23,0.32
							c3.83-2.67,8.36-3.23,11.81-1.45c1.17,0.61,1.87,1.15,2.43,1.59c1.06,0.83,1.45,1.14,4.55,0.75
							C265.61,122.28,266.04,122.56,266.18,122.99z"/>
					</g>
				</g>
				<g>
					<g>
						<path class="st7" d="M251.92,117.5c-6.66,0-11.81-5.42-12.05-5.68c-0.37-0.39-0.35-1.01,0.05-1.38
							c0.39-0.37,1.01-0.35,1.38,0.05l0,0c0.06,0.06,6.04,6.33,12.81,4.82c2.8-0.62,5.1-1.59,7.33-2.52
							c3.59-1.5,6.69-2.8,10.41-1.96c0.53,0.12,0.86,0.64,0.74,1.17c-0.12,0.53-0.64,0.86-1.17,0.74c-3.12-0.71-5.81,0.42-9.23,1.86
							c-2.2,0.92-4.69,1.97-7.66,2.63C253.65,117.41,252.77,117.5,251.92,117.5z"/>
					</g>
				</g>
				<g>
					<g>
						<path class="st7" d="M267.79,117.24c-0.27,0-0.55-0.11-0.74-0.34c-0.04-0.04-2.15-2.44-4.94-2.34
							c-0.54,0.02-0.99-0.4-1.01-0.94c-0.02-0.54,0.4-0.99,0.94-1.01c3.75-0.13,6.38,2.89,6.49,3.02c0.35,0.41,0.3,1.03-0.11,1.38
							C268.24,117.16,268.01,117.24,267.79,117.24z"/>
					</g>
				</g>
				<g>
					<g>
						<path class="st7" d="M278.02,114c-0.12,0-0.25-0.02-0.37-0.07c-3.01-1.23-4.04-6.23-4.15-6.79c-0.1-0.53,0.25-1.04,0.78-1.14
							c0.53-0.1,1.04,0.25,1.14,0.78c0.22,1.17,1.25,4.65,2.97,5.35c0.5,0.2,0.74,0.77,0.53,1.27
							C278.77,113.77,278.41,114,278.02,114z"/>
					</g>
				</g>
				<g>
					<g>
						<path class="st7" d="M299.04,111.12c-0.3,0.61-0.61,1.19-0.93,1.73c-0.79-0.28-3.98-1.23-6.88,0.86l-0.05,0.04
							c-0.77,0.56-1.47,1.07-2.15,1.52c0,0-0.01,0.01-0.01,0.01c-1.84,1.22-3.5,1.99-5.71,1.99c-1.02,0-2.15-0.16-3.46-0.52
							c-0.52-0.14-0.83-0.68-0.68-1.2c0.14-0.52,0.68-0.83,1.2-0.69c2.44,0.67,4.04,0.57,5.63-0.11c0.71-0.3,1.41-0.73,2.18-1.25
							c0.57-0.39,1.19-0.83,1.87-1.32l0.05-0.04C294.18,109.15,298.69,110.97,299.04,111.12z"/>
					</g>
				</g>
				<g>
					<g>
						<path class="st7" d="M288.13,115.44c-2.94,0-4.33-3.32-4.7-5.37c-0.09-0.53,0.26-1.04,0.79-1.13
							c0.53-0.09,1.04,0.26,1.13,0.79c0.01,0.05,0.76,4,3.01,3.74c0.54-0.06,1.02,0.33,1.08,0.86c0.06,0.54-0.33,1.02-0.86,1.08
							C288.43,115.44,288.28,115.44,288.13,115.44z"/>
					</g>
				</g>
				<g>
					<g>
						<path class="st7" d="M300.82,106.05c-0.18,0.72-0.37,1.4-0.58,2.05c-0.48,0.05-0.94,0.07-1.39,0.07
							c-6.26,0-10.04-4.55-10.22-4.77c-0.34-0.42-0.28-1.03,0.14-1.37c0.42-0.34,1.03-0.28,1.37,0.14
							C290.31,102.39,294.35,107.18,300.82,106.05z"/>
					</g>
				</g>
				<g>
					<g>
						<path class="st7" d="M217.05,123.55c-0.13,0-0.27-0.03-0.4-0.08c-0.49-0.22-0.71-0.8-0.49-1.29
							c0.08-0.17,1.99-4.26,10.94-5.98c0.53-0.1,1.04,0.25,1.14,0.78c0.1,0.53-0.25,1.04-0.77,1.14c-7.84,1.5-9.51,4.82-9.53,4.85
							C217.78,123.34,217.42,123.55,217.05,123.55z"/>
					</g>
				</g>
				<path class="st9" d="M301.89,97.05c0,1.87-0.13,3.8-0.44,5.78c-0.17,1.14-0.39,2.21-0.64,3.22c-0.18,0.72-0.37,1.4-0.58,2.05
					c-0.36,1.09-0.76,2.09-1.2,3.01c-0.3,0.61-0.61,1.19-0.93,1.73c-6.74,11.16-19.91,7.46-19.91,7.46l-12.01,2.68h0l-5.17,1.15h0
					l-28.65,6.39l-0.02,0c0,0-3.37,0.82-7.78,0.61h0c-3.54-0.17-7.76-1-11.46-3.46c-5.66-3.77-6.82-12.19-4.86-16.32
					c0.25-0.52,0.55-0.98,0.89-1.34h-3.77c-8.52,0-15.82-4.16-20.33-10.32c-0.63-0.86-1.2-1.75-1.72-2.68
					c-2.98-5.36-4.02-11.81-2.31-18.25c0.17-0.64,0.37-1.27,0.59-1.91c0.03-0.09,0.06-0.18,0.09-0.27c0.12-0.33,0.25-0.66,0.38-0.98
					c3.38-8.09,6.83-11.4,8.93-12.74c0.83-0.53,1.45-0.75,1.77-0.84c0.15-0.04,0.23-0.05,0.23-0.05s2.66-5.23,10.72-10.07
					c-0.19,0.26-16.5,22.51-4.69,37.08c11.88,14.65,28.39,8.2,28.39,8.2s-1.09,17.72,16.03,21.06c17.12,3.34,58.81-9.39,56.7-32.44
					c0.85,2.74,1.44,5.71,1.64,8.87C301.87,95.46,301.89,96.25,301.89,97.05z"/>
			</g>
			<path class="st3" d="M313.58,104.02c0,13.1-3.5,25.39-9.61,35.97c-10.87,18.83-21.25,37.93-30.69,57.51l-5.32,11.04h-47.65
				c30.7-3.08,65.21-58.92,60.29-112.03c-5.06-54.59-38.5-64-40.83-64.52c0.69-0.02,1.38-0.02,2.08-0.02
				C281.49,32.14,313.58,64.33,313.58,104.02z"/>
			<g class="st0">
				<g>
					<path class="st10" d="M183.71,130.13c-3.37,0.66-6.72-1.37-7.64-4.73c-0.27-0.99-6.52-24.46,5.98-52.29
						c12.8-28.49,42.1-36.76,43.34-37.09c3.54-0.98,7.17,1.12,8.13,4.65c0.96,3.53-1.12,7.17-4.65,8.13
						c-0.22,0.06-24.55,7.08-34.73,29.74c-10.46,23.28-5.34,43.16-5.28,43.36c0.94,3.52-1.14,7.16-4.66,8.11
						C184.03,130.06,183.87,130.1,183.71,130.13z"/>
				</g>
			</g>
		</g>
		<g>
			<g>
				<path class="st7" d="M324.96,57.97c-1.7-4.14-5.75-7.06-12.04-8.68c-5.7-1.47-13.1-1.84-21.98-1.1
					c-1.13,0.1-2.29,0.21-3.45,0.33c1.31,1.09,2.58,2.22,3.82,3.4c2.85-0.24,5.53-0.35,8.04-0.35c6.08,0,11.09,0.69,14.85,2.01
					c3.76,1.32,6.26,3.27,7.3,5.81c2.17,5.3-1.98,13.25-11.46,22.23c-1.49,1.41-3.11,2.85-4.85,4.3
					c-13.61,11.33-33.31,22.57-55.47,31.65c-22.16,9.08-44.08,14.89-61.73,16.35c-4.38,0.37-8.36,0.45-11.9,0.26
					c-9.99-0.53-16.48-3.2-18.33-7.72c-2.19-5.36,2.06-13.4,11.74-22.49c0-1.76,0.07-3.51,0.19-5.23
					c-5.84,5.09-10.17,9.96-12.91,14.51c-3.35,5.57-4.19,10.5-2.49,14.63c1.69,4.14,5.75,7.06,12.04,8.68
					c3.33,0.86,7.23,1.34,11.67,1.45c0.63,0.01,1.26,0.02,1.92,0.02c2.63,0,5.43-0.12,8.39-0.37c18.02-1.5,40.33-7.4,62.84-16.62
					c22.5-9.22,42.55-20.67,56.44-32.24c1.28-1.06,2.49-2.12,3.64-3.17c5.01-4.56,8.78-8.93,11.25-13.03
					c2.23-3.71,3.35-7.12,3.35-10.22C325.81,60.83,325.52,59.35,324.96,57.97z"/>
			</g>
			<g>
				<path class="st7" d="M326.32,113.24c-2.74-4.55-7.08-9.43-12.94-14.53c0.13,1.73,0.19,3.47,0.2,5.23
					c9.7,9.1,13.96,17.16,11.77,22.52c-1.86,4.54-8.36,7.2-18.36,7.73c-1.21,0.06-2.47,0.1-3.78,0.1c-2.52,0-5.22-0.12-8.09-0.36
					c-17.65-1.47-39.57-7.28-61.73-16.35c-20.01-8.2-38.02-18.16-51.35-28.36c-1.43-1.09-2.8-2.19-4.12-3.29
					c-1.75-1.46-3.37-2.89-4.86-4.31c-7.83-7.42-12.02-14.12-12.02-19.22c0-1.07,0.19-2.08,0.56-3c2.08-5.08,10-7.82,22.15-7.82
					c2.51,0,5.22,0.12,8.09,0.36c0.01-0.01,0.02-0.02,0.04-0.03c0.28-0.27,0.57-0.54,0.86-0.81c0.03-0.03,0.06-0.06,0.1-0.09
					c0.24-0.22,0.48-0.44,0.73-0.66c0.4-0.36,0.81-0.72,1.22-1.07c0.27-0.23,0.54-0.46,0.81-0.68c0.02-0.02,0.04-0.04,0.07-0.06
					c-1.18-0.13-2.35-0.24-3.5-0.34c-8.88-0.74-16.27-0.37-21.98,1.1c-6.29,1.62-10.35,4.54-12.04,8.68
					c-1.7,4.14-0.86,9.06,2.49,14.64c2.47,4.1,6.24,8.47,11.24,13.03c1.15,1.05,2.37,2.11,3.65,3.17c1.07,0.89,2.18,1.78,3.32,2.67
					c13.68,10.65,32.35,21.06,53.13,29.57c22.51,9.22,44.82,15.12,62.84,16.62c2.97,0.25,5.77,0.37,8.39,0.37
					c0.64,0,1.27-0.01,1.88-0.02c4.45-0.1,8.36-0.59,11.7-1.45c6.3-1.62,10.35-4.54,12.04-8.68
					C330.51,123.74,329.67,118.82,326.32,113.24z"/>
			</g>
			<path class="st8" d="M170.2,133.65c0,3.27-2.65,5.92-5.92,5.92c-3.27,0-5.92-2.65-5.92-5.92c0-3.27,2.65-5.92,5.92-5.92
				C167.55,127.73,170.2,130.38,170.2,133.65z"/>
			<circle class="st8" cx="307.81" cy="51.28" r="5.92"/>
			<circle class="st8" cx="318.54" cy="134.34" r="5.92"/>
			<path class="st8" d="M186.11,49.64c0,3.27-2.65,5.92-5.92,5.92s-5.92-2.65-5.92-5.92c0-3.27,2.65-5.92,5.92-5.92
				S186.11,46.37,186.11,49.64z"/>
		</g>
	</g>
	<g>
		<g>
			<g>
				<g>
					<polygon class="st11" points="61.03,367.94 60.57,377.5 68.32,377.6 69.19,367.57 					"/>
					<g>
						<path class="st8" d="M63.63,376.13c0,0,3.98-0.93,5.07-0.88c1.09,0.05,8.16,8.45,10.61,9.01c4.44,1.01,4.24,7.98,1.51,8.25
							c-7.89,0.77-21.24-2.96-21.24-2.96s-0.97-8.99-0.35-11.78C59.86,374.98,61.41,376.89,63.63,376.13z"/>
						<g>
							<g>
								<path class="st10" d="M69.91,383.97c-0.14,0.03-0.29,0-0.42-0.09c-0.24-0.18-0.3-0.52-0.13-0.76
									c0.06-0.08,1.45-2.01,3.13-2.65c2.23-0.85,3.75,0.52,3.82,0.58c0.22,0.2,0.24,0.55,0.03,0.77c-0.2,0.22-0.55,0.24-0.77,0.03
									c-0.04-0.04-1.11-0.96-2.69-0.36c-1.36,0.52-2.62,2.25-2.63,2.26C70.17,383.87,70.05,383.94,69.91,383.97z"/>
							</g>
							<g>
								<path class="st10" d="M68.46,382.27c-0.14,0.03-0.29,0-0.42-0.09c-0.24-0.18-0.3-0.52-0.13-0.76
									c0.06-0.08,1.45-2.01,3.13-2.65c2.23-0.85,3.75,0.52,3.82,0.58c0.22,0.2,0.24,0.55,0.03,0.77c-0.2,0.22-0.55,0.24-0.77,0.03
									c-0.04-0.04-1.11-0.96-2.69-0.36c-1.37,0.52-2.62,2.24-2.63,2.26C68.72,382.17,68.59,382.25,68.46,382.27z"/>
							</g>
							<g>
								<path class="st10" d="M71.98,385.43c-0.14,0.03-0.29,0-0.42-0.09c-0.24-0.18-0.3-0.52-0.13-0.76
									c0.06-0.08,1.45-2.01,3.13-2.65c2.23-0.85,3.75,0.52,3.82,0.58c0.22,0.2,0.24,0.55,0.03,0.77c-0.2,0.22-0.55,0.24-0.77,0.03
									c-0.04-0.04-1.11-0.96-2.69-0.36c-1.37,0.52-2.62,2.24-2.63,2.26C72.23,385.33,72.11,385.41,71.98,385.43z"/>
							</g>
						</g>
					</g>
				</g>
				<g>
					<path class="st5" d="M88.61,251.37c0,0-0.14,2.24-0.41,5.96c-0.07,0.98-0.14,2.07-0.23,3.26c-0.91,12.49-2.67,35.07-4.66,51.1
						c-2.8,22.47-11.87,59.42-11.87,59.42l-9.66-0.26l-0.96-0.03l-2.29-0.06c0,0,1.43-23.35,3.32-43.62
						c1.25-13.37,1.81-44.99,2.04-64.96c0.12-10.3,0.16-17.5,0.16-17.5L88.61,251.37z"/>
				</g>
				<path class="st6" d="M88.61,251.37c0,0-0.14,2.24-0.41,5.96c-0.07,0.98-0.14,2.07-0.23,3.26c-4.45,0.87-16.7,1.54-24.08,1.6
					c0.12-10.3,0.16-17.5,0.16-17.5L88.61,251.37z"/>
				<g>
					<path class="st6" d="M69.35,257.31c0,0.77-0.33,73.51-7.57,113.54l-0.96-0.03c7.26-39.9,7.58-112.75,7.58-113.51L69.35,257.31z
						"/>
				</g>
			</g>
			<g>
				<g>
					<polygon class="st11" points="118.46,369.33 118.21,377.95 110.33,377.59 110.08,368.44 					"/>
					<g>
						<g>
							<g>
								<path class="st8" d="M116.2,377.56c0,0,1.7-2.25,3.03-2.14c1.34,0.11,11.59,8.37,15.11,9.08c3.53,0.7,2.82,3.3,2.17,4.62
									c-0.66,1.32-28.17-0.7-28.17-0.7s-0.7-8.2,0.22-10.7C109.48,375.22,113.43,378.14,116.2,377.56z"/>
								<g>
									<g>
										<path class="st10" d="M121.86,383.32c-0.13,0.04-0.26,0.02-0.39-0.05c-0.24-0.14-0.32-0.44-0.18-0.68
											c0.05-0.08,1.14-1.95,2.59-2.67c1.94-0.96,3.44,0.14,3.5,0.19c0.22,0.16,0.26,0.47,0.1,0.69
											c-0.16,0.22-0.47,0.26-0.69,0.1c-0.04-0.03-1.08-0.77-2.46-0.09c-1.19,0.59-2.17,2.26-2.18,2.28
											C122.08,383.21,121.97,383.29,121.86,383.32z"/>
									</g>
									<g>
										<path class="st10" d="M120.39,381.92c-0.12,0.04-0.26,0.02-0.39-0.05c-0.24-0.14-0.32-0.44-0.18-0.68
											c0.05-0.08,1.14-1.95,2.59-2.67c1.94-0.96,3.44,0.14,3.5,0.19c0.22,0.16,0.26,0.47,0.1,0.69
											c-0.16,0.22-0.47,0.26-0.69,0.1c-0.04-0.03-1.09-0.77-2.46-0.09c-1.19,0.59-2.17,2.26-2.18,2.28
											C120.61,381.81,120.51,381.89,120.39,381.92z"/>
									</g>
									<g>
										<path class="st10" d="M123.85,384.47c-0.13,0.04-0.26,0.02-0.39-0.05c-0.24-0.14-0.32-0.44-0.18-0.68
											c0.05-0.08,1.14-1.94,2.59-2.67c1.94-0.96,3.44,0.14,3.5,0.19c0.22,0.16,0.26,0.47,0.1,0.69
											c-0.16,0.22-0.47,0.26-0.69,0.1c-0.04-0.03-1.09-0.77-2.47-0.09c-1.19,0.59-2.17,2.26-2.18,2.28
											C124.07,384.36,123.96,384.43,123.85,384.47z"/>
									</g>
								</g>
							</g>
						</g>
					</g>
				</g>
				<path class="st5" d="M119.91,371.56l-8.01-0.53l-0.95-0.06l-1.95-0.13c0,0-5.28-46.76-6.91-59.21
					c-1.41-10.82-7.81-35.1-11.96-50.21c-1.18-4.29-2.17-7.84-2.83-10.13c-0.5-1.8-0.8-2.83-0.8-2.83l26.74-2.8
					c0,0,0.08,0.59,0.21,1.64c0.28,2.16,0.81,6.31,1.45,11.52c1.78,14.18,4.5,36.24,5.57,47.48
					C123.23,335.23,119.91,371.56,119.91,371.56z"/>
				<path class="st6" d="M114.92,258.82l-24.78,2.6c-1.18-4.29-2.17-7.84-2.83-10.13l26.15-3.98
					C113.74,249.47,114.27,253.61,114.92,258.82z"/>
				<g>
					<path class="st6" d="M111.9,371.03l-0.95-0.06c-0.58-14.47-2.28-50.6-5.3-65.9c-3.79-19.28-12.39-47.34-12.48-47.63l0.91-0.28
						c0.09,0.28,8.7,28.39,12.5,47.72C109.62,320.29,111.33,356.59,111.9,371.03z"/>
				</g>
			</g>
			<path class="st7" d="M111.19,188.21c3.5,11.84,12.76,20.34,12.76,20.34c5.25,2.49,19.28,7.65,24.15,6.7
				c-0.28-3.33,0.03-5.65,0.59-9.75c-6.66-0.26-18.6-7.65-18.6-7.65c-10.52-19.46-12.15-41.32-12.15-41.32
				C111.01,163.78,111.19,188.21,111.19,188.21z"/>
			<g>
				<g>
					<g>
						<g>
							<path class="st8" d="M59.96,232.39c-0.03,0.38-0.05,0.76-0.07,1.13c-0.4,6.77-0.68,12.02-0.8,14.59
								c6.43,2.16,12.9,3.7,19.41,4.63c0.3,0.04,0.59,0.08,0.88,0.12c0.16,0.02,0.32,0.04,0.47,0.06c0.35,0.05,0.7,0.09,1.05,0.13
								c0.39,0.05,0.77,0.09,1.17,0.13c4.44,0.47,8.89,0.66,13.36,0.57c0.9-0.02,1.8-0.05,2.71-0.1c0.06,0,0.12,0,0.17-0.01
								c0.23-0.01,0.46-0.03,0.69-0.04c0.14-0.01,0.28-0.02,0.42-0.03c5.21-0.31,10.45-1,15.71-2.09c0.08-1.17,0.19-2.9,0.33-5.09
								c0.02-0.41,0.05-0.82,0.07-1.26l0,0c0.19-3.13,0.4-7.02,0.63-11.42c0.02-0.38,0.04-0.75,0.06-1.14
								c0.15-2.93,0.31-6.07,0.47-9.34c0.02-0.38,0.04-0.76,0.05-1.14c0.16-3.36,0.32-6.85,0.48-10.39
								c0.09-2.16,0.19-4.35,0.27-6.53c0.09-2.21,0.17-4.43,0.25-6.63c0.02-0.48,0.04-0.96,0.05-1.44c0.75-20.83,1.02-40-0.3-42.22
								c-0.92-1.54-3.11-3.41-5.72-5.32c-0.32-0.23-0.64-0.47-0.97-0.7c-1.11-0.79-10.34-4.56-11.5-5.34l-9.92-1.3
								c-0.06,0.03-9.78,2.67-9.84,2.7c-0.42,0.21-0.85,0.42-1.28,0.63c-3.65,1.82-7.26,3.76-9.38,5.48
								c-0.31,0.25-0.59,0.5-0.82,0.74c-0.19,0.19-0.36,0.38-0.5,0.57c-0.13,0.17-0.26,0.46-0.4,0.85
								c-1.47,4.31-3.14,21.48-4.58,40.19c-0.1,1.34-0.2,2.69-0.31,4.04c-0.04,0.59-0.09,1.19-0.13,1.78
								c-0.03,0.41-0.06,0.82-0.09,1.23c-0.02,0.21-0.03,0.41-0.05,0.61c-0.08,1.02-0.15,2.03-0.22,3.04
								c-0.05,0.75-0.11,1.49-0.16,2.24C60.99,215.77,60.41,224.93,59.96,232.39z"/>
						</g>
					</g>
				</g>
				<g>
					<g>
						<g>
							<path class="st7" d="M95.23,158.73c-5.3-0.32-9.86-6.25-10.05-6.51c-0.12-0.16-0.09-0.4,0.07-0.53
								c0.16-0.13,0.4-0.09,0.53,0.07c0.05,0.06,4.82,6.27,9.96,6.23c0.21,0,0.38,0.16,0.38,0.37c0,0.21-0.16,0.38-0.37,0.38
								C95.57,158.75,95.4,158.74,95.23,158.73z"/>
						</g>
					</g>
				</g>
				<g>
					<g>
						<g>
							<path class="st7" d="M86.81,221.85c-0.19-0.01-0.34-0.16-0.35-0.35c-0.01-0.21,0.15-0.38,0.35-0.39
								c13.79-0.75,20.9-24.12,20.97-24.36c0.06-0.2,0.27-0.31,0.47-0.25c0.2,0.06,0.31,0.27,0.25,0.47
								c-0.29,0.98-7.33,24.11-21.65,24.89C86.84,221.85,86.82,221.85,86.81,221.85z"/>
						</g>
					</g>
				</g>
				<g>
					<g>
						<g>
							<path class="st7" d="M92.69,215c-0.13-0.01-0.24-0.08-0.31-0.2c-0.1-0.18-0.03-0.41,0.15-0.51
								c7.56-4.05,9.04-10.61,9.05-10.67c0.04-0.2,0.24-0.33,0.44-0.29c0.2,0.04,0.33,0.24,0.29,0.44
								c-0.06,0.28-1.55,6.95-9.43,11.18C92.83,214.99,92.76,215,92.69,215z"/>
						</g>
					</g>
				</g>
			</g>
			<g>
				<path class="st5" d="M81.65,120.66c0,0-1.79-1.13-0.71-5.24c1.08-4.11-1.44-5.39,0.25-7.67c1.69-2.28,3.23-2.31,4.32-5.19
					c1.09-2.87,7.26-4.77,11.12-3.06c3.86,1.71,9.85-0.99,11.86,2.05c3.65,5.51,1.27,7.52,2.65,8.76c1.92,1.71,0.88,13.11-2.73,13.5
					C104.79,124.21,81.65,120.66,81.65,120.66z"/>
				<g>
					<path class="st12" d="M107.54,122.59c0,0,2.53-2.98,4.11-0.29c1.58,2.68-1.33,10.15-5.48,8.03L107.54,122.59z"/>
					<g>
						<path class="st13" d="M107.25,128.03c0.16,0.01,0.31-0.09,0.36-0.24c0.8-2.31,3.29-3.12,3.32-3.12
							c0.19-0.06,0.3-0.26,0.24-0.45c-0.06-0.19-0.26-0.3-0.45-0.24c-0.12,0.04-2.86,0.92-3.78,3.58c-0.07,0.19,0.03,0.39,0.22,0.46
							C107.18,128.02,107.21,128.03,107.25,128.03z"/>
					</g>
					<g>
						<path class="st13" d="M109.77,127c0.07,0,0.14-0.01,0.2-0.05c0.17-0.1,0.23-0.32,0.14-0.49c-0.02-0.03-0.41-0.71-1.28-1.17
							c-0.18-0.09-0.39-0.02-0.49,0.15c-0.09,0.18-0.02,0.39,0.15,0.49c0.68,0.35,0.99,0.88,0.99,0.88
							C109.54,126.92,109.66,126.99,109.77,127z"/>
					</g>
				</g>
				<g>
					<path class="st12" d="M83.45,121.14c0,0-2.15-3.26-4.04-0.79c-1.89,2.47,0.1,10.23,4.47,8.63L83.45,121.14z"/>
					<g>
						<path class="st13" d="M83.09,126.58c-0.16-0.01-0.3-0.12-0.33-0.28c-0.52-2.39-2.89-3.49-2.92-3.5
							c-0.18-0.08-0.26-0.3-0.18-0.48c0.08-0.18,0.29-0.26,0.48-0.18c0.11,0.05,2.73,1.25,3.33,4.01c0.04,0.19-0.08,0.39-0.28,0.43
							C83.16,126.58,83.13,126.58,83.09,126.58z"/>
					</g>
					<g>
						<g>
							<g>
								<path class="st13" d="M80.71,125.24c-0.07,0-0.13-0.03-0.19-0.07c-0.16-0.12-0.2-0.34-0.08-0.5
									c0.02-0.03,0.49-0.66,1.42-1.01c0.19-0.07,0.39,0.02,0.46,0.21c0.07,0.19-0.02,0.39-0.21,0.46
									c-0.72,0.27-1.08,0.75-1.09,0.76C80.95,125.2,80.83,125.25,80.71,125.24z"/>
							</g>
						</g>
					</g>
				</g>
				<path class="st11" d="M88.88,135.77l-0.46,7.57c0,0,2.03,3.99,5.06,4.44c3.03,0.45,5.96-2.97,5.96-2.97l0.47-7.84L88.88,135.77z
					"/>
				<path class="st12" d="M88.88,135.77l-0.2,3.36c1.91,2.4,5.52,3.18,10.95,2.71l0.29-4.87L88.88,135.77z"/>
				<path class="st11" d="M82.08,115.84c-0.04,2.95,0.02,6.65,0.4,9.62l0,0.01c0,0.01,0,0.02,0,0.03c0,0,0,0,0,0.01
					c0.1,0.73,0.21,1.41,0.34,2.03c0.08,0.36,0.17,0.74,0.27,1.13c1.46,5.74,5.12,14.14,15.79,11.04c4.49-1.3,7.06-5.71,8.52-10.57
					c0.09-0.29,0.17-0.58,0.24-0.85c0.05-0.18,0.1-0.36,0.14-0.54l0.07-0.26c0.01-0.04,0.02-0.08,0.02-0.1c0-0.01,0-0.02,0-0.02
					c0.92-3.75,1.25-7.57,1.37-10.32c0.11-2.8-1.26-5.44-3.6-6.96c-6.36-4.13-13.39-3.16-18.07-1.67
					C84.34,109.45,82.12,112.44,82.08,115.84z"/>
				<path class="st5" d="M89.5,121.79c-0.05,0.81,0.33,1.49,0.84,1.52c0.51,0.03,0.97-0.6,1.02-1.41c0.05-0.81-0.33-1.49-0.84-1.52
					C90,120.35,89.55,120.98,89.5,121.79z"/>
				<path class="st5" d="M100.8,122.47c-0.05,0.81,0.33,1.49,0.84,1.52c0.51,0.03,0.97-0.6,1.02-1.41c0.05-0.81-0.33-1.49-0.84-1.52
					C101.3,121.03,100.85,121.66,100.8,122.47z"/>
				<path class="st5" d="M86.79,117.04c0,0,3.77-1.72,6.79-0.6l-0.21,1.66c0,0-4.37-0.14-6.51,0.86
					C86.63,118.34,86.57,117.7,86.79,117.04z"/>
				<path class="st5" d="M105.17,117.99c0,0-3.67-1.99-6.79-1.07l0.1,1.69c0,0,4.4,0.16,6.48,1.31
					C105.24,119.31,105.35,118.67,105.17,117.99z"/>
				<g>
					<path class="st12" d="M95.03,128.68c-0.61-0.04-1.19-0.31-1.29-0.35c-0.18-0.09-0.25-0.3-0.17-0.48
						c0.09-0.18,0.3-0.25,0.48-0.17c0.32,0.15,1.08,0.41,1.43,0.22c0.07-0.04,0.16-0.11,0.2-0.32c0.21-1.25,0.12-5.48,0.11-5.52
						c0-0.2,0.15-0.36,0.35-0.37c0.2,0,0.36,0.15,0.37,0.35c0,0.18,0.09,4.34-0.12,5.65c-0.08,0.49-0.36,0.73-0.58,0.85
						C95.58,128.67,95.3,128.7,95.03,128.68z"/>
				</g>
				<path class="st10" d="M99.38,131.69c-0.36,1.36-1.42,3.83-4.47,3.65c-3.06-0.18-3.78-2.55-3.98-4.16L99.38,131.69z"/>
				<path class="st5" d="M82.08,115.84c-0.04,2.95,0.02,6.65,0.41,9.62l1.61-0.02c0,0-0.24-2.51-0.32-4.14
					c-0.08-1.63-0.21-4.67,1.2-4.97c1.4-0.29,0.8-3.79,2.81-5.17c2.01-1.38,6.32-1.54,9.04,0.37c2.72,1.91,6.02,0.23,7.3,0.61
					c1.29,0.38,2.95,2.28,2.37,3.93c-0.58,1.65,0.79,2.75,1.04,4.51c0.24,1.76-1.15,6.37-1.15,6.37l1.52,0.4
					c0.92-3.75,1.25-7.57,1.37-10.31c0.11-2.8-1.26-5.44-3.6-6.97c-6.36-4.13-13.39-3.16-18.07-1.67
					C84.34,109.45,82.12,112.44,82.08,115.84z"/>
			</g>
			<g>
				<g>
					<g>
						<g>
							
								<rect x="36.38" y="208.55" transform="matrix(0.8648 -0.5022 0.5022 0.8648 -93.6675 90.3893)" class="st7" width="169.22" height="21.09"/>
							<g>
								
									<rect x="33.26" y="213.02" transform="matrix(0.8648 -0.5022 0.5022 0.8648 -91.3916 88.096)" class="st14" width="169.22" height="1.41"/>
								
									<rect x="36.38" y="218.39" transform="matrix(0.8648 -0.5022 0.5022 0.8648 -93.6674 90.3891)" class="st14" width="169.22" height="1.41"/>
								
									<rect x="39.49" y="223.77" transform="matrix(0.8648 -0.5022 0.5022 0.8648 -95.9424 92.6815)" class="st14" width="169.22" height="1.41"/>
							</g>
						</g>
						<g>
							
								<rect x="47.22" y="248.82" transform="matrix(0.8648 -0.5022 0.5022 0.8648 -123.2638 61.0102)" class="st5" width="8.85" height="21.09"/>
						</g>
						<path class="st8" d="M42.52,252.47l-2.18,1.26c-5.04,2.93-6.75,9.38-3.82,14.42l0,0c2.93,5.04,9.38,6.75,14.42,3.82l2.18-1.26
							L42.52,252.47z"/>
						<g>
							<polygon class="st11" points="199.45,185.73 188.85,167.49 204.25,165.79 207.45,165.44 216.49,164.44 210.68,171.7 
								208.41,174.53 							"/>
							<path class="st5" d="M210.68,171.7c-0.71-0.65-1.44-1.51-2.11-2.66c-0.8-1.37-1.09-2.59-1.12-3.61l9.05-1L210.68,171.7z"/>
						</g>
					</g>
				</g>
			</g>
			<g>
				<g>
					<path class="st11" d="M96.75,227.65l1.59,0.67c1.42,0.6,2.86,0.22,4.04-0.78c0.52-0.44,1.34-1.31,1.75-1.55
						c1.16-0.68,3.9-1.49,4.68-1.22c0.78,0.27,0.04,1.63-0.76,2.02c-0.8,0.39-1.98,0.83-2.81,1.51c-0.83,0.69,2.6,4.23,4.13,5.36
						c1.52,1.13,4.89,1.48,4.58,3.01c-0.3,1.53-2.63,0.79-2.63,0.79s0.12,1.54-2.18,1.81c0,0-0.19,1.38-1.67,1.54
						c0,0-0.53,1.63-2.1,1.46c-1.57-0.17-6.45-0.75-12.79-9.52L96.75,227.65z"/>
				</g>
				<path class="st7" d="M97.23,226.78c0,0-22.91-17.64-30.35-27.08c0,0,0.93-11.53,2.06-20.76c0.73-5.98,0.85-12.03,0.29-18.03
					c-0.31-3.37-0.83-6.62-1.66-8.55c0,0-6.43,2.1-10.01,23.82c-1.95,11.82-2.59,21.18-2.8,26.06c-0.11,2.46,0.71,4.86,2.29,6.75
					c4.92,5.87,17.19,18.65,34.78,24.33C91.84,233.31,96.36,229.58,97.23,226.78z"/>
			</g>
			<path class="st11" d="M162.1,207.16c0,0-3.51-2.67-5.57-2.5c-2.06,0.17,2.1,4.52,2.1,4.52s-5.07-5.22-6.55-4.24
				c-1.48,0.97,3.3,6.18,3.3,6.18s-3.97-3.01-5.18-2.38c-1.21,0.63,2.13,4.58,2.13,4.58s-3.39-2.07-4.36-1.69
				c-0.97,0.38,1.45,4.04,3.3,5.4c1.85,1.36,3.11-1.45,3.11-1.45s2.49-1.09,2.62-2.36c0,0,2.45-0.71,3.04-2.06
				C160.05,211.17,163.7,209.58,162.1,207.16z"/>
		</g>
	</g>
	<g>
		<path class="st11" d="M358.86,268.57c0,0-1.18,33.47-1.18,51.92c0,25.73,1.58,55.25,1.58,55.25c2.41,2.46,4.82,2.04,7.67,1.13
			l9.36-90.51L358.86,268.57z"/>
		<path class="st11" d="M399.99,269.7c0,0,2.11,40.42,2.99,55.96c0.87,15.54-0.82,49.29-0.82,49.29l-6.96,0.99l-10.86-88.51
			L399.99,269.7z"/>
		<g>
			<path class="st5" d="M413.49,295.46c0,0-0.09,0.29-0.35,0.72c-0.91,1.51-3.85,4.66-11.82,2.22c-0.26-0.08-0.5-0.15-0.75-0.21
				c-1.66-0.43-3.04-0.52-4.28-0.43c-4.69,0.36-7.5,3.33-16.95,0.26c-8.52-2.77-10.82-0.64-14.86,0.43
				c-0.8,0.21-1.66,0.38-2.65,0.46c-0.48,0.04-0.95,0.04-1.42,0.02c-3.75-0.21-7.28-2.35-9.4-3.91c-1.25-0.93-2-1.65-2-1.65
				c0.21-0.71,0.42-1.46,0.63-2.26c0.82-3.09,1.68-6.84,2.54-10.93c0.26-1.23,0.52-2.49,0.77-3.78c0.62-3.11,1.24-6.35,1.84-9.59
				l0,0c0.01-0.02,0.01-0.03,0.01-0.05c0.25-1.34,0.49-2.68,0.73-4.02c0.01-0.06,0.02-0.13,0.03-0.19
				c0.76-4.28,1.48-8.45,2.11-12.24c0.24-1.44,0.47-2.83,0.69-4.14c1.18-7.21,1.93-12.18,1.93-12.18l22.87,1.61l22.85-0.12
				c0,0,0.22,2.53,0.6,6.61c0.12,1.28,0.26,2.71,0.41,4.27c0.4,4.09,0.9,9.01,1.48,14.23c0.15,1.36,0.31,2.74,0.46,4.13
				c1.12,9.75,2.44,19.96,3.79,27.19C413.01,293.18,413.25,294.37,413.49,295.46z"/>
			<g>
				<path class="st15" d="M365.34,241c-0.04,1.19-1.03,2.12-2.22,2.08c-1.19-0.04-2.12-1.03-2.08-2.22
					c0.04-1.19,1.03-2.12,2.22-2.08C364.44,238.82,365.38,239.81,365.34,241z"/>
				<path class="st15" d="M370.4,249.51c-0.04,1.19-1.03,2.12-2.22,2.08c-1.19-0.04-2.12-1.03-2.08-2.22
					c0.04-1.19,1.03-2.12,2.22-2.08C369.51,247.32,370.44,248.32,370.4,249.51z"/>
				<path class="st15" d="M381.05,245.54c-0.04,1.19-1.03,2.12-2.22,2.08c-1.19-0.04-2.12-1.03-2.08-2.22
					c0.04-1.19,1.03-2.12,2.22-2.08C380.15,243.36,381.08,244.36,381.05,245.54z"/>
				<path class="st15" d="M364.04,258.16c-0.04,1.19-1.03,2.12-2.22,2.08c-1.19-0.04-2.12-1.03-2.08-2.22
					c0.04-1.19,1.03-2.12,2.22-2.08C363.15,255.98,364.08,256.97,364.04,258.16z"/>
				<path class="st15" d="M377.2,257.67c-0.04,1.19-1.03,2.12-2.22,2.08c-1.19-0.04-2.12-1.03-2.08-2.22
					c0.04-1.19,1.03-2.12,2.22-2.08C376.3,255.48,377.23,256.48,377.2,257.67z"/>
				<path class="st15" d="M359.7,248.22c-0.04,1.12-0.92,2.01-2.02,2.08c0.24-1.44,0.47-2.83,0.69-4.14
					C359.17,246.49,359.73,247.29,359.7,248.22z"/>
				<path class="st15" d="M398.17,271c-0.04,1.19-1.03,2.12-2.22,2.08c-1.19-0.04-2.12-1.03-2.08-2.22
					c0.04-1.19,1.03-2.12,2.22-2.08C397.28,268.82,398.21,269.81,398.17,271z"/>
				<path class="st15" d="M397.54,259.25c-0.04,1.19-1.03,2.12-2.22,2.08c-1.19-0.04-2.12-1.03-2.08-2.22
					c0.04-1.19,1.03-2.12,2.22-2.08C396.64,257.07,397.58,258.06,397.54,259.25z"/>
				<path class="st15" d="M408.97,264.7c-0.26,0.1-0.55,0.15-0.85,0.14c-1.19-0.04-2.12-1.03-2.08-2.22
					c0.04-1.19,1.03-2.12,2.22-2.08c0.08,0,0.17,0.01,0.25,0.02C408.66,261.93,408.81,263.31,408.97,264.7z"/>
				<path class="st15" d="M399.03,279.62c-0.04,1.19-1.03,2.12-2.22,2.08c-1.19-0.04-2.12-1.03-2.08-2.22
					c0.04-1.19,1.03-2.12,2.22-2.08C398.13,277.44,399.07,278.44,399.03,279.62z"/>
				<path class="st15" d="M408.34,276.49c-0.04,1.19-1.03,2.12-2.22,2.08s-2.12-1.03-2.08-2.22c0.04-1.19,1.03-2.12,2.22-2.08
					S408.38,275.3,408.34,276.49z"/>
				<path class="st15" d="M389.32,283.73c-0.04,1.19-1.03,2.12-2.22,2.08c-1.19-0.04-2.12-1.03-2.08-2.22
					c0.04-1.19,1.03-2.12,2.22-2.08C388.42,281.55,389.36,282.54,389.32,283.73z"/>
				<path class="st15" d="M386.46,293.18c-0.04,1.19-1.03,2.12-2.22,2.08c-1.19-0.04-2.12-1.03-2.08-2.22
					c0.04-1.19,1.03-2.12,2.22-2.08C385.56,290.99,386.49,291.99,386.46,293.18z"/>
				<path class="st15" d="M364.52,298.1c0,0.12-0.02,0.23-0.04,0.34c-0.8,0.21-1.66,0.38-2.65,0.46c-0.48,0.04-0.95,0.04-1.42,0.02
					c-0.14-0.29-0.2-0.62-0.19-0.96c0.04-1.19,1.03-2.12,2.22-2.08C363.63,295.92,364.56,296.91,364.52,298.1z"/>
				<path class="st15" d="M400.58,298.07c0,0.04,0,0.07-0.01,0.1c-1.66-0.43-3.04-0.52-4.28-0.43c0.13-1.1,1.08-1.93,2.21-1.9
					C399.69,295.89,400.62,296.89,400.58,298.07z"/>
				<path class="st15" d="M408.39,287.56c-0.04,1.19-1.03,2.12-2.22,2.08c-1.19-0.04-2.12-1.03-2.08-2.22
					c0.04-1.19,1.03-2.12,2.22-2.08C407.5,285.38,408.43,286.38,408.39,287.56z"/>
				<path class="st15" d="M413.49,295.46c0,0-0.09,0.29-0.35,0.72c-0.1,0.01-0.21,0.02-0.32,0.01c-1.19-0.04-2.12-1.03-2.08-2.22
					c0.04-1.12,0.92-2.01,2.02-2.08C413.01,293.18,413.25,294.37,413.49,295.46z"/>
				<path class="st15" d="M362.19,271.7c-0.04,1.19-1.03,2.12-2.22,2.08c-1.19-0.04-2.12-1.03-2.08-2.22
					c0.04-1.19,1.03-2.12,2.22-2.08C361.29,269.52,362.22,270.51,362.19,271.7z"/>
				<path class="st15" d="M356.73,264.72c-0.04,1.09-0.88,1.97-1.94,2.07c0.01-0.02,0.01-0.03,0.01-0.05
					c0.25-1.34,0.49-2.68,0.73-4.02C356.27,263.09,356.76,263.85,356.73,264.72z"/>
				<path class="st15" d="M353.78,278.15c-0.03,0.97-0.7,1.77-1.6,2.01c0.26-1.23,0.52-2.49,0.77-3.78
					C353.47,276.8,353.8,277.44,353.78,278.15z"/>
				<path class="st15" d="M367.28,279.5c-0.04,1.19-1.03,2.12-2.22,2.08c-1.19-0.04-2.12-1.03-2.08-2.22
					c0.04-1.19,1.03-2.12,2.22-2.08C366.38,277.32,367.31,278.31,367.28,279.5z"/>
				<path class="st15" d="M378.68,278.19c-0.04,1.19-1.03,2.12-2.22,2.08c-1.19-0.04-2.12-1.03-2.08-2.22
					c0.04-1.19,1.03-2.12,2.22-2.08C377.79,276,378.72,277,378.68,278.19z"/>
				<path class="st15" d="M370.93,267.35c-0.04,1.19-1.03,2.12-2.22,2.08c-1.19-0.04-2.12-1.03-2.08-2.22
					c0.04-1.19,1.03-2.12,2.22-2.08C370.03,265.16,370.97,266.16,370.93,267.35z"/>
				<path class="st15" d="M382.55,265.57c-0.04,1.19-1.03,2.12-2.22,2.08c-1.19-0.04-2.12-1.03-2.08-2.22
					c0.04-1.19,1.03-2.12,2.22-2.08C381.66,263.39,382.59,264.38,382.55,265.57z"/>
				<path class="st15" d="M388.12,254.39c-0.04,1.19-1.03,2.12-2.22,2.08c-1.19-0.04-2.12-1.03-2.08-2.22
					c0.04-1.19,1.03-2.12,2.22-2.08C387.22,252.21,388.16,253.2,388.12,254.39z"/>
				<path class="st15" d="M407.03,246.34c-0.15,0.03-0.3,0.04-0.46,0.04c-1.19-0.04-2.12-1.03-2.08-2.22
					c0.04-1.16,0.98-2.07,2.13-2.08C406.75,243.35,406.88,244.78,407.03,246.34z"/>
				
					<ellipse transform="matrix(0.4835 -0.8754 0.8754 0.4835 -11.9638 471.6345)" class="st15" cx="393.66" cy="245.95" rx="2.15" ry="2.15"/>
				<path class="st15" d="M403.44,253.95c-0.04,1.19-1.03,2.12-2.22,2.08c-1.19-0.04-2.12-1.03-2.08-2.22
					c0.04-1.19,1.03-2.12,2.22-2.08C402.55,251.76,403.48,252.76,403.44,253.95z"/>
				<path class="st15" d="M389.68,272.6c-0.04,1.19-1.03,2.12-2.22,2.08c-1.19-0.04-2.12-1.03-2.08-2.22
					c0.04-1.19,1.03-2.12,2.22-2.08C388.79,270.41,389.72,271.41,389.68,272.6z"/>
				<path class="st15" d="M359.55,286.45c-0.04,1.19-1.03,2.12-2.22,2.08c-1.19-0.04-2.12-1.03-2.08-2.22
					c0.04-1.19,1.03-2.12,2.22-2.08C358.66,284.27,359.59,285.26,359.55,286.45z"/>
				<path class="st15" d="M374.04,288.6c-0.04,1.19-1.03,2.12-2.22,2.08c-1.19-0.04-2.12-1.03-2.08-2.22
					c0.04-1.19,1.03-2.12,2.22-2.08C373.14,286.42,374.08,287.41,374.04,288.6z"/>
				<path class="st15" d="M351.92,293.32c-0.02,0.7-0.38,1.32-0.91,1.69c-1.25-0.93-2-1.65-2-1.65c0.21-0.71,0.42-1.46,0.63-2.26
					c0.07,0,0.13-0.01,0.2,0C351.03,291.13,351.96,292.13,351.92,293.32z"/>
			</g>
			<path class="st8" d="M407.39,236.07c-12.3,7.47-34.38,6.14-48.04-1.56c1.6-8.22,3.61-16.44,3.59-27.46c0-1.21-0.02-2.41-0.04-3.6
				c-0.02-1.04-0.05-2.06-0.08-3.08c-0.6-18.34-3.24-33.41-1.64-35.29c0.7-0.83,1.84-1.7,3.25-2.59c0.55-0.35,1.14-0.71,1.77-1.06
				c1.47-0.83,3.1-1.67,4.74-2.48c3.88-1.91,7.82-3.68,9.81-4.91c1.9,0.9,3.42,1.41,5.07,1.46c0.04,0,0.09,0,0.14,0
				c0.04,0.01,0.09,0.01,0.14,0.01c1.65,0.06,3.2-0.35,5.16-1.12c1.76,1.26,5.1,3.04,8.51,4.98c2.5,1.42,5.04,2.93,7,4.38
				c1.29,0.95,2.33,1.87,2.96,2.72c0.73,0.98,0.27,5.18-0.58,11.38c-0.84,6.11-2.07,14.17-2.94,23.04
				c-0.24,2.46-0.46,4.99-0.63,7.56C404.85,219.43,406.33,227.76,407.39,236.07z"/>
			<g>
				<path class="st7" d="M399.21,227.18C399.21,227.18,399.21,227.18,399.21,227.18c-9.7-0.36-17.83-5.04-22.94-8.9
					c-5.53-4.18-8.83-8.34-8.86-8.38c-0.16-0.2-0.12-0.5,0.08-0.66c0.2-0.16,0.5-0.12,0.66,0.08c0.03,0.04,3.27,4.12,8.71,8.23
					c5,3.78,12.95,8.35,22.39,8.7c0.26,0.01,0.46,0.23,0.45,0.48C399.69,226.99,399.47,227.19,399.21,227.18z"/>
			</g>
			<g>
				<path class="st7" d="M389,230.15c-8.41-0.27-16.65-5.34-17.02-5.57c-0.22-0.14-0.29-0.42-0.15-0.64
					c0.14-0.22,0.42-0.29,0.64-0.15c0.1,0.06,9.79,6.02,18.57,5.4c0.26-0.02,0.48,0.18,0.5,0.43c0.02,0.26-0.18,0.48-0.43,0.5
					C390.41,230.16,389.71,230.17,389,230.15z"/>
			</g>
			<g>
				<g>
					<g>
						<path class="st7" d="M383.25,177.72c-0.22-0.01-0.41-0.17-0.45-0.39c-0.04-0.25,0.13-0.49,0.39-0.53
							c11.89-1.86,15.7-9.35,15.74-9.42c0.11-0.23,0.39-0.33,0.62-0.21c0.23,0.11,0.33,0.39,0.21,0.62c-0.16,0.33-4.07,8-16.43,9.93
							C383.31,177.72,383.28,177.73,383.25,177.72z"/>
					</g>
				</g>
			</g>
			<path class="st11" d="M399.77,159.36c-2.52,5.28-8.27,12.36-15.73,10.82c-7.22-1.49-10.74-7.17-13.1-11.23
				c3.89-1.92,7.82-3.68,9.81-4.91c1.9,0.9,3.42,1.41,5.07,1.46c0.04,0,0.09,0,0.14,0c0.04,0.01,0.09,0.01,0.14,0.01
				c1.65,0.06,3.2-0.35,5.16-1.12C393.02,155.64,396.36,157.42,399.77,159.36z"/>
			<g>
				<path class="st10" d="M385.55,163.14c7.66,0.25,9.25-7.01,9.27-7.08c0.05-0.24-0.1-0.47-0.34-0.52
					c-0.24-0.05-0.47,0.1-0.52,0.34c-0.06,0.27-1.47,6.61-8.38,6.39c-6.93-0.22-8.17-6.24-8.22-6.5c-0.05-0.24-0.28-0.39-0.51-0.35
					c-0.24,0.05-0.39,0.27-0.35,0.51C376.51,156,377.92,162.89,385.55,163.14z"/>
			</g>
		</g>
		<path class="st5" d="M386.09,155.69L386.09,155.69c-0.05,0.01-0.09,0-0.14,0C386,155.69,386.05,155.69,386.09,155.69z"/>
		<g>
			<path class="st5" d="M399.35,117.39c0,0,5.17,10.31,6.26,19.48c1.27,10.68-1.6,18.39-9.78,17.65
				c-8.18-0.73-22.95,1.24-27.33-4.74C363.48,142.92,399.35,117.39,399.35,117.39z"/>
			<g>
				<g>
					<path class="st12" d="M374.76,132.71c0,0-2.16-3.09-3.93-0.65c-1.76,2.44,0.38,9.88,4.55,8.22L374.76,132.71z"/>
					<g>
						<path class="st13" d="M374.56,137.98c-0.15-0.01-0.29-0.11-0.33-0.27c-0.56-2.29-2.89-3.29-2.91-3.3
							c-0.18-0.07-0.26-0.28-0.19-0.46c0.07-0.18,0.28-0.26,0.45-0.19c0.11,0.05,2.67,1.14,3.32,3.78c0.05,0.19-0.07,0.38-0.25,0.42
							C374.63,137.97,374.6,137.98,374.56,137.98z"/>
					</g>
					<g>
						<path class="st13" d="M372.22,136.75c-0.06,0-0.13-0.02-0.19-0.06c-0.16-0.11-0.2-0.33-0.09-0.48
							c0.02-0.03,0.46-0.65,1.34-1.01c0.18-0.07,0.38,0.01,0.45,0.19c0.07,0.18-0.01,0.38-0.19,0.45c-0.68,0.28-1.03,0.76-1.03,0.76
							C372.45,136.7,372.34,136.76,372.22,136.75z"/>
					</g>
				</g>
				<g>
					<path class="st12" d="M398.07,133.47c0,0,2.36-2.94,3.96-0.39c1.6,2.55-1.02,9.84-5.07,7.9L398.07,133.47z"/>
					<g>
						<path class="st13" d="M397.93,138.74c0.15,0,0.3-0.09,0.34-0.24c0.71-2.25,3.1-3.1,3.12-3.11c0.18-0.06,0.28-0.26,0.22-0.44
							c-0.06-0.18-0.26-0.28-0.44-0.22c-0.11,0.04-2.74,0.96-3.56,3.56c-0.06,0.18,0.04,0.38,0.23,0.44
							C397.87,138.73,397.9,138.73,397.93,138.74z"/>
					</g>
					<g>
						<g>
							<g>
								<path class="st13" d="M400.34,137.67c0.06,0,0.13-0.01,0.19-0.05c0.16-0.1,0.22-0.31,0.12-0.48
									c-0.02-0.03-0.41-0.68-1.27-1.1c-0.17-0.08-0.38-0.01-0.47,0.16c-0.08,0.17-0.01,0.38,0.16,0.47
									c0.66,0.32,0.98,0.82,0.98,0.83C400.12,137.6,400.23,137.66,400.34,137.67z"/>
							</g>
						</g>
					</g>
				</g>
				<path class="st11" d="M391.54,147.06l-0.24,7.32c0,0-2.31,3.66-5.27,3.82c-2.96,0.16-5.47-3.39-5.47-3.39l0.25-7.58
					L391.54,147.06z"/>
				<path class="st12" d="M391.54,147.06l-0.11,3.25c-2.05,2.13-5.6,2.8-10.78,1.86l0.16-4.94L391.54,147.06z"/>
				<path class="st11" d="M399.87,128.5c-0.23,2.84-0.62,6.39-1.25,9.22c-0.16,0.71-0.33,1.37-0.52,1.96
					c-1.72,5.35-5.87,14.48-16.54,10.27c-4.71-1.86-6.75-7.24-7.56-12.67c-0.55-3.69-0.53-7.4-0.39-10.04
					c0.14-2.7,1.7-5.12,4.09-6.38c6.49-3.4,13.17-1.84,17.54,0.01C398.26,122.15,400.13,125.23,399.87,128.5z"/>
				<path class="st5" d="M381.65,133.37c-0.03,0.78-0.45,1.4-0.95,1.39c-0.5-0.02-0.88-0.66-0.85-1.44c0.03-0.78,0.45-1.4,0.95-1.39
					C381.29,131.94,381.68,132.59,381.65,133.37z"/>
				<path class="st5" d="M392.76,133.73c-0.03,0.78-0.45,1.4-0.95,1.39c-0.5-0.02-0.88-0.66-0.85-1.44c0.03-0.78,0.45-1.4,0.95-1.39
					C392.41,132.3,392.79,132.95,392.76,133.73z"/>
				<path class="st5" d="M379.1,129.07c0.75-0.19,2.28-0.5,3.87-0.45c0.42,0.01,0.73,0.4,0.64,0.81l0,0.01
					c-0.07,0.33-0.37,0.55-0.71,0.52c-1.08-0.09-3.93-0.03-5.29,0.47c-0.02-0.23,0.13-0.49,0.33-0.71
					C378.25,129.39,378.66,129.18,379.1,129.07z"/>
				<path class="st5" d="M393.64,129.57c-0.74-0.24-2.24-0.65-3.83-0.7c-0.42-0.01-0.75,0.35-0.69,0.76l0,0.01
					c0.05,0.33,0.34,0.57,0.67,0.57c1.09-0.02,3.92,0.23,5.25,0.82c0.03-0.23-0.09-0.49-0.28-0.73
					C394.48,129.95,394.08,129.71,393.64,129.57z"/>
				<g>
					<g>
						<g>
							<path class="st12" d="M386.31,139.99c-0.27-0.01-0.53-0.06-0.75-0.2c-0.2-0.13-0.44-0.38-0.48-0.87
								c-0.09-1.28,0.37-5.28,0.39-5.45c0.02-0.19,0.19-0.33,0.39-0.31c0.19,0.02,0.33,0.19,0.31,0.39c0,0.04-0.47,4.1-0.38,5.32
								c0.01,0.21,0.1,0.29,0.16,0.33c0.32,0.21,1.08,0.03,1.4-0.09c0.18-0.07,0.38,0.03,0.45,0.21c0.07,0.18-0.02,0.38-0.2,0.45
								C387.49,139.8,386.9,140,386.31,139.99z"/>
						</g>
					</g>
				</g>
				<path class="st10" d="M381.82,142.04c0.22,1.33,1.02,3.8,3.96,3.89c2.95,0.1,3.85-2.1,4.19-3.63L381.82,142.04z"/>
				<g>
					<path class="st12" d="M385.68,147.96c-0.85-0.03-1.59-0.51-1.62-0.53c-0.16-0.11-0.2-0.32-0.1-0.48
						c0.11-0.16,0.32-0.2,0.48-0.1l0,0c0.01,0,0.61,0.39,1.25,0.41c0.7,0.02,1.34-0.33,1.35-0.33c0.17-0.09,0.38-0.03,0.47,0.13
						c0.09,0.17,0.03,0.38-0.13,0.47C387.36,147.56,386.58,147.99,385.68,147.96z"/>
				</g>
			</g>
			<path class="st5" d="M401.29,127.98c-0.12,0.31-0.44,0.51-0.86,0.61c0.01,0.77-0.11,1.69-0.21,2.57
				c-0.59,5.01-1.89,5.86-2.14,4.6c-0.16-0.83,0-5.57,0.14-7.11c-0.99-0.1-1.84-0.29-1.84-0.29l-1.01-4.92l-0.56,4.81
				c-1.77,0.55-5.82-0.56-5.82-0.56l-1.21-4.86l-1,4.6c-2.67,1.19-5.92,0.24-5.92,0.24l-0.59-5.02l-1.9,4.94
				c0,0-5.66,1.83-5.66-0.18c0-1.17,0.96-4.43,1.77-6.96c0.88-2.75,2.78-5.04,5.29-6.29c7.07-3.5,14.34-1.28,16.81,0.31
				C401.84,117.84,401.29,127.98,401.29,127.98z"/>
			<path class="st5" d="M376.31,117.02c0,0-4.95,5.33-6.78,15.07c-1.83,9.74-4.52,17.58,1.63,20.33c5.05,2.26,7.3-1.74,7.27-3.7
				c-0.03-1.95-6.63-9.21-2.52-24.1C377.23,119.81,376.31,117.02,376.31,117.02z"/>
			<path class="st10" d="M399.54,141.23c-0.01,0.45-0.39,0.8-0.84,0.79c-0.45-0.01-0.8-0.39-0.79-0.84c0.01-0.45,0.39-0.8,0.84-0.79
				C399.2,140.4,399.55,140.78,399.54,141.23z"/>
			<g>
				<g>
					<path class="st10" d="M387.75,134.5c0.08-2.4,2.09-4.29,4.49-4.21c2.4,0.08,4.29,2.09,4.21,4.49c-0.08,2.4-2.09,4.29-4.49,4.21
						C389.56,138.91,387.67,136.9,387.75,134.5z M388.43,134.52c-0.07,2.02,1.53,3.73,3.55,3.79c2.02,0.07,3.73-1.53,3.79-3.55
						c0.07-2.02-1.53-3.73-3.55-3.79C390.19,130.9,388.49,132.49,388.43,134.52z"/>
				</g>
				<g>
					<path class="st10" d="M375.86,134.11c0.08-2.4,2.09-4.29,4.49-4.21c2.4,0.08,4.29,2.09,4.21,4.49
						c-0.08,2.4-2.09,4.29-4.49,4.21C377.67,138.52,375.78,136.51,375.86,134.11z M376.54,134.13c-0.07,2.03,1.53,3.73,3.55,3.79
						c2.02,0.07,3.73-1.53,3.79-3.55c0.07-2.02-1.53-3.73-3.55-3.79C378.3,130.51,376.6,132.11,376.54,134.13z"/>
				</g>
				<g>
					<path class="st10" d="M398.08,131.41c-1.52,0.38-2.47,1.3-2.54,1.35c-0.14,0.13-0.14,0.34-0.02,0.48
						c0.06,0.07,0.15,0.1,0.24,0.11c0.09,0,0.17-0.03,0.24-0.09c0.01-0.01,0.79-0.75,2.05-1.12L398.08,131.41z"/>
				</g>
				<g>
					<path class="st10" d="M376.77,132.11c-0.08-0.05-0.68-0.73-2.06-1.26l-0.07,0.85c1.21,0.5,1.73,0.96,1.74,0.97
						c0.06,0.04,0.12,0.06,0.18,0.06c0.11,0,0.22-0.05,0.29-0.14C376.96,132.43,376.92,132.22,376.77,132.11z"/>
				</g>
				<g>
					<path class="st10" d="M384.35,133.41c0.01-0.01,0.85-1.07,1.91-1.04c1.05,0.03,1.74,1.15,1.75,1.16l0.58-0.35
						c-0.04-0.06-0.89-1.44-2.31-1.48c-1.41-0.05-2.42,1.25-2.47,1.3L384.35,133.41z"/>
				</g>
			</g>
		</g>
		<path class="st11" d="M362.82,200.37c-0.6-18.34-3.24-33.41-1.64-35.29c0.7-0.83,1.84-1.7,3.25-2.59
			C365.62,169.12,368.52,189.05,362.82,200.37z"/>
		<g>
			<path class="st11" d="M322.54,180.09c0,0,14.48,27.03,21.12,30.5c6.63,3.47,19.19-21.59,19.19-21.59l-1.87-23.19
				c0,0-9.05,19.94-15.24,29.33c-0.12,0.2-0.25,0.39-0.38,0.57c0,0-0.26-0.24-0.71-0.68c-1.22-1.15-3.88-3.7-7.09-6.83
				c-4.77-4.65-11.29-12.41-11.29-12.41L322.54,180.09z"/>
			<g>
				<path class="st12" d="M344.64,195.03c0.33,2.11,0.66,4.57,0.99,7.34c0.04,0.26,0.25,0.45,0.51,0.46c0.03,0,0.05,0,0.08-0.01
					c0.29-0.03,0.5-0.29,0.47-0.59c-0.32-2.67-0.64-5.03-0.95-7.1c-0.12,0.2-0.25,0.39-0.38,0.57
					C345.36,195.71,345.1,195.47,344.64,195.03z"/>
			</g>
			<path class="st11" d="M326.51,176.52c0,0,1.51-2.59,0.89-4.89c-0.62-2.3-1.33-6.46-3.32-7.94c-1.66-1.24,0.04,2.83-0.54,4.85
				c0,0-2.65-1.27-4.44-2.59c-1.57-1.16-4.81-3.03-6.32-3.89c-0.41-0.23-0.88,0.23-0.64,0.64c0.39,0.66,1.34,1.64,3.53,3.01
				c0,0-5.43-3.03-6.33-2.35c-0.9,0.69,5.96,4.35,5.96,4.35s-5.53-2.22-5.97-1.38c-0.27,0.51,5.16,3.7,5.16,3.7
				s-5.38-1.64-4.37-0.37c0.29,0.37,10.23,4.98,12.41,10.43C322.54,180.08,325.79,178.39,326.51,176.52z"/>
		</g>
		<path class="st11" d="M409.15,177.84c-0.84,6.11-2.07,14.17-2.94,23.04c-4.35-11.62-1.06-30.53,0.56-37.14
			c1.29,0.95,2.33,1.87,2.96,2.72C410.46,167.44,410.01,171.63,409.15,177.84z"/>
		<g>
			<path class="st11" d="M422.32,202.55c0,0,2.37,5.97,0.48,14.39c-1.52,6.73-5.94,13.13-9.22,17.15c-0.01,0.01-0.01,0.01-0.01,0.02
				c-2.15,2.64-3.81,4.25-3.81,4.25l-4.28-3.8c0,0,2.38-3.9,4.53-9.46c2.09-5.37,3.96-12.3,3.31-18.81l-7.85-20.82l4.41-18.71
				C409.88,166.76,419.29,190.6,422.32,202.55z"/>
			<path class="st12" d="M405.48,234.56l4.28,3.8c0,0,1.66-1.61,3.81-4.25c0.01-0.01,0.01-0.01,0.01-0.02
				c-0.16-3.54-1.55-8.28-3.57-8.99C407.86,230.66,405.48,234.56,405.48,234.56z"/>
			<path class="st11" d="M406.65,231.11c-0.67,0.12-4.26,0.72-4.01-0.56c0.27-1.41,3.59-3.38,3.59-3.38s0-0.04-0.02-0.19l-0.04-0.33
				l-0.29-2.69c0.68-0.07,0.84,0,1.19,0.06c1.61,0.3,2.47,3.64,2.47,3.64s2.04,0.47,2.13,1.92c0.09,1.44-1.46,1.84-1.46,1.84
				s2.28,0.83,1.91,2.1c-0.36,1.28-1.95,1.82-1.95,1.82s1.99,1.01,1.44,1.94c-0.55,0.93-2,1.54-2,1.54s1.49,1.6,0.29,2.7
				c-1.2,1.1-3.15,1.12-4.44,0.83s-1.25-1.89,1.05-3.31c0,0-2.12,0.46-3.4-1.21c-1.07-1.39,1.14-2.3,3.06-2.78
				c-1.52,0.28-4.17,0.54-4.79-0.87C400.57,232.32,405.83,231.26,406.65,231.11z"/>
		</g>
		<g>
			<g>
				<path class="st8" d="M398.09,374.74c0,0,3.79-1.01,4.84-0.99c1.05,0.02,8.06,7.88,10.43,8.35c4.29,0.84,4.29,7.54,1.68,7.87
					c-7.55,0.95-20.46-2.25-20.46-2.25s-1.18-8.59-0.66-11.29C394.44,373.74,395.98,375.53,398.09,374.74z"/>
				<g>
					<g>
						<path class="st10" d="M404.34,382.08c-0.13,0.03-0.28,0.01-0.4-0.08c-0.24-0.16-0.3-0.49-0.14-0.73
							c0.05-0.08,1.34-1.97,2.93-2.63c2.11-0.88,3.61,0.39,3.68,0.45c0.22,0.19,0.24,0.52,0.05,0.74c-0.19,0.22-0.52,0.24-0.74,0.05
							c-0.04-0.03-1.09-0.89-2.59-0.27c-1.29,0.53-2.45,2.23-2.46,2.24C404.58,381.98,404.46,382.05,404.34,382.08z"/>
					</g>
					<g>
						<path class="st10" d="M402.89,380.5c-0.13,0.03-0.28,0.01-0.4-0.08c-0.24-0.16-0.3-0.49-0.14-0.73
							c0.05-0.08,1.34-1.97,2.93-2.63c2.11-0.88,3.61,0.39,3.68,0.45c0.22,0.19,0.24,0.52,0.05,0.74c-0.19,0.22-0.52,0.24-0.74,0.05
							c-0.04-0.03-1.09-0.89-2.59-0.27c-1.3,0.54-2.45,2.23-2.46,2.24C403.13,380.39,403.02,380.47,402.89,380.5z"/>
					</g>
					<g>
						<g>
							<g>
								<path class="st10" d="M406.35,383.43c-0.13,0.03-0.28,0.01-0.4-0.08c-0.24-0.16-0.3-0.49-0.14-0.73
									c0.05-0.08,1.34-1.97,2.93-2.63c2.11-0.88,3.61,0.39,3.68,0.45c0.22,0.19,0.24,0.52,0.05,0.74
									c-0.19,0.22-0.52,0.24-0.74,0.05c-0.04-0.03-1.09-0.89-2.59-0.27c-1.3,0.54-2.45,2.23-2.46,2.24
									C406.6,383.33,406.48,383.4,406.35,383.43z"/>
							</g>
						</g>
					</g>
				</g>
			</g>
		</g>
		<g>
			<g>
				<path class="st8" d="M361.04,376.78c0,0-1.68-2.27-3.02-2.18c-1.34,0.09-11.71,8.27-15.25,8.93c-3.54,0.66-3.32,5.08-1.92,5.57
					c1.59,0.56,27.84-0.21,27.84-0.21s0.9-9.35,0.01-11.87C367.8,374.51,363.8,377.39,361.04,376.78z"/>
				<g>
					<g>
						<path class="st10" d="M355.3,382.5c0.13,0.04,0.27,0.03,0.39-0.04c0.24-0.13,0.32-0.44,0.19-0.68
							c-0.04-0.08-1.12-1.96-2.57-2.7c-1.93-0.99-3.45,0.1-3.51,0.15c-0.22,0.16-0.27,0.47-0.11,0.69c0.16,0.22,0.47,0.27,0.69,0.11
							c0.04-0.03,1.1-0.76,2.47-0.06c1.18,0.6,2.15,2.29,2.16,2.31C355.08,382.38,355.18,382.46,355.3,382.5z"/>
					</g>
					<g>
						<path class="st10" d="M356.78,381.1c0.13,0.04,0.26,0.03,0.39-0.04c0.24-0.13,0.32-0.44,0.19-0.68
							c-0.05-0.08-1.12-1.96-2.57-2.7c-1.93-0.99-3.45,0.1-3.51,0.15c-0.22,0.16-0.27,0.47-0.11,0.69c0.16,0.22,0.47,0.27,0.69,0.11
							c0.04-0.03,1.1-0.76,2.47-0.06c1.19,0.61,2.15,2.29,2.16,2.31C356.56,380.99,356.66,381.07,356.78,381.1z"/>
					</g>
					<g>
						<path class="st10" d="M353.29,383.62c0.13,0.04,0.26,0.03,0.39-0.04c0.24-0.13,0.32-0.44,0.19-0.68
							c-0.05-0.08-1.12-1.96-2.57-2.7c-1.93-0.99-3.45,0.1-3.51,0.15c-0.22,0.16-0.27,0.47-0.11,0.69c0.16,0.22,0.47,0.27,0.69,0.1
							c0.04-0.03,1.1-0.76,2.47-0.06c1.19,0.61,2.15,2.29,2.16,2.31C353.07,383.51,353.17,383.58,353.29,383.62z"/>
					</g>
				</g>
			</g>
		</g>
	</g>
	<g>
		<g>
			<g>
				<g>
					<path class="st7" d="M28.58,151.25c0,2.63-2.14,4.78-4.78,4.78s-4.78-2.14-4.78-4.78c0-2.63,2.14-4.78,4.78-4.78
						S28.58,148.61,28.58,151.25z M27.08,151.25c0-1.81-1.47-3.28-3.28-3.28c-1.81,0-3.28,1.47-3.28,3.28
						c0,1.81,1.47,3.28,3.28,3.28C25.61,154.52,27.08,153.05,27.08,151.25z"/>
				</g>
				<g>
					<g>
						<g>
							<g>
								<path class="st8" d="M48.07,144.8c0,2.63-2.14,4.78-4.78,4.78c-2.63,0-4.78-2.14-4.78-4.78c0-2.63,2.14-4.78,4.78-4.78
									C45.93,140.03,48.07,142.17,48.07,144.8z M46.57,144.8c0-1.81-1.47-3.28-3.28-3.28c-1.81,0-3.28,1.47-3.28,3.28
									c0,1.81,1.47,3.28,3.28,3.28C45.1,148.08,46.57,146.61,46.57,144.8z"/>
							</g>
						</g>
					</g>
				</g>
				<g>
					<g>
						<g>
							<path class="st16" d="M48.68,124.3c-0.41,0-0.75,0.34-0.75,0.75v3.3c0,0.41,0.34,0.75,0.75,0.75c0.41,0,0.75-0.34,0.75-0.75
								v-3.3C49.43,124.64,49.09,124.3,48.68,124.3z"/>
						</g>
						<g>
							<path class="st16" d="M48.68,118.52c-0.41,0-0.75,0.34-0.75,0.75v3.3c0,0.41,0.34,0.75,0.75,0.75c0.41,0,0.75-0.34,0.75-0.75
								v-3.3C49.43,118.86,49.09,118.52,48.68,118.52z"/>
						</g>
					</g>
					<g>
						<g>
							<path class="st16" d="M53.32,123.06h-2.97c-0.41,0-0.75,0.34-0.75,0.75c0,0.41,0.34,0.75,0.75,0.75h2.97
								c0.41,0,0.75-0.34,0.75-0.75C54.07,123.4,53.73,123.06,53.32,123.06z"/>
						</g>
						<g>
							<path class="st16" d="M47.01,123.06h-2.97c-0.41,0-0.75,0.34-0.75,0.75c0,0.41,0.34,0.75,0.75,0.75h2.97
								c0.41,0,0.75-0.34,0.75-0.75C47.76,123.4,47.43,123.06,47.01,123.06z"/>
						</g>
					</g>
				</g>
				<g>
					<g>
						<g>
							<g>
								<g>
									<path class="st8" d="M28.44,129.59c-0.41,0-0.75,0.34-0.75,0.75v3.3c0,0.41,0.34,0.75,0.75,0.75
										c0.41,0,0.75-0.34,0.75-0.75v-3.3C29.19,129.93,28.85,129.59,28.44,129.59z"/>
								</g>
							</g>
							<g>
								<g>
									<path class="st8" d="M28.44,123.81c-0.41,0-0.75,0.34-0.75,0.75v3.3c0,0.41,0.34,0.75,0.75,0.75
										c0.41,0,0.75-0.34,0.75-0.75v-3.3C29.19,124.15,28.85,123.81,28.44,123.81z"/>
								</g>
							</g>
						</g>
						<g>
							<g>
								<g>
									<path class="st8" d="M33.07,128.35h-2.97c-0.41,0-0.75,0.34-0.75,0.75c0,0.41,0.34,0.75,0.75,0.75h2.97
										c0.41,0,0.75-0.34,0.75-0.75C33.82,128.69,33.49,128.35,33.07,128.35z"/>
								</g>
							</g>
							<g>
								<g>
									<path class="st8" d="M26.77,128.35H23.8c-0.41,0-0.75,0.34-0.75,0.75c0,0.41,0.34,0.75,0.75,0.75h2.97
										c0.41,0,0.75-0.34,0.75-0.75C27.52,128.69,27.18,128.35,26.77,128.35z"/>
								</g>
							</g>
						</g>
					</g>
				</g>
			</g>
		</g>
		<g>
			<g>
				<g>
					<path class="st7" d="M425.86,107.08c2.63,0,4.78,2.14,4.78,4.78c0,2.63-2.14,4.78-4.78,4.78c-2.63,0-4.78-2.14-4.78-4.78
						C421.08,109.22,423.23,107.08,425.86,107.08z M425.86,115.13c1.81,0,3.28-1.47,3.28-3.28c0-1.81-1.47-3.28-3.28-3.28
						c-1.81,0-3.28,1.47-3.28,3.28C422.58,113.66,424.05,115.13,425.86,115.13z"/>
				</g>
				<g>
					<g>
						<g>
							<g>
								<path class="st8" d="M406.37,100.64c2.63,0,4.78,2.14,4.78,4.78c0,2.63-2.14,4.78-4.78,4.78c-2.63,0-4.78-2.14-4.78-4.78
									C401.59,102.78,403.73,100.64,406.37,100.64z M406.37,108.69c1.81,0,3.28-1.47,3.28-3.28c0-1.81-1.47-3.28-3.28-3.28
									c-1.81,0-3.28,1.47-3.28,3.28C403.09,107.22,404.56,108.69,406.37,108.69z"/>
							</g>
						</g>
					</g>
				</g>
				<g>
					<g>
						<g>
							<path class="st16" d="M400.98,84.91c0.41,0,0.75,0.34,0.75,0.75v3.3c0,0.41-0.34,0.75-0.75,0.75c-0.41,0-0.75-0.34-0.75-0.75
								v-3.3C400.23,85.25,400.57,84.91,400.98,84.91z"/>
						</g>
						<g>
							<path class="st16" d="M400.98,79.13c0.41,0,0.75,0.34,0.75,0.75v3.3c0,0.41-0.34,0.75-0.75,0.75c-0.41,0-0.75-0.34-0.75-0.75
								v-3.3C400.23,79.47,400.57,79.13,400.98,79.13z"/>
						</g>
					</g>
					<g>
						<g>
							<path class="st16" d="M396.34,83.67h2.97c0.41,0,0.75,0.34,0.75,0.75c0,0.41-0.34,0.75-0.75,0.75h-2.97
								c-0.41,0-0.75-0.34-0.75-0.75C395.59,84.01,395.93,83.67,396.34,83.67z"/>
						</g>
						<g>
							<path class="st16" d="M402.65,83.67h2.97c0.41,0,0.75,0.34,0.75,0.75c0,0.41-0.34,0.75-0.75,0.75h-2.97
								c-0.41,0-0.75-0.34-0.75-0.75C401.9,84.01,402.24,83.67,402.65,83.67z"/>
						</g>
					</g>
				</g>
				<g>
					<g>
						<g>
							<g>
								<g>
									<path class="st8" d="M421.22,90.2c0.41,0,0.75,0.34,0.75,0.75v3.3c0,0.41-0.34,0.75-0.75,0.75c-0.41,0-0.75-0.34-0.75-0.75
										v-3.3C420.47,90.54,420.81,90.2,421.22,90.2z"/>
								</g>
							</g>
							<g>
								<g>
									<path class="st8" d="M421.22,84.42c0.41,0,0.75,0.34,0.75,0.75v3.3c0,0.41-0.34,0.75-0.75,0.75
										c-0.41,0-0.75-0.34-0.75-0.75v-3.3C420.47,84.76,420.81,84.42,421.22,84.42z"/>
								</g>
							</g>
						</g>
						<g>
							<g>
								<g>
									<path class="st8" d="M416.59,88.96h2.97c0.41,0,0.75,0.34,0.75,0.75c0,0.41-0.34,0.75-0.75,0.75h-2.97
										c-0.41,0-0.75-0.34-0.75-0.75C415.84,89.3,416.17,88.96,416.59,88.96z"/>
								</g>
							</g>
							<g>
								<g>
									<path class="st8" d="M422.89,88.96h2.97c0.41,0,0.75,0.34,0.75,0.75c0,0.41-0.34,0.75-0.75,0.75h-2.97
										c-0.41,0-0.75-0.34-0.75-0.75C422.14,89.3,422.48,88.96,422.89,88.96z"/>
								</g>
							</g>
						</g>
					</g>
				</g>
			</g>
		</g>
		<g>
			<g>
				<path class="st7" d="M365.2,94.17v18.72c0,1.19-0.97,2.16-2.16,2.16h-18.72c-1.07,0-2.75-0.75-3.51-2.48
					c-0.04-0.07-0.07-0.15-0.1-0.22c-0.04-0.11-0.07-0.22-0.11-0.34c0-0.01-0.01-0.02-0.01-0.04c-0.01-0.01-0.01-0.01-0.01-0.01
					v-0.04l-0.04-14.77v-4.33c0-1.12,0.85-2.03,1.93-2.15c0.07,0,0.16-0.01,0.23-0.01l19.09,0.07c0.09,0,0.18,0.01,0.26,0.02
					c0,0,0,0,0.01,0C364,90.97,365.2,93.03,365.2,94.17z"/>
			</g>
			<g>
				<g>
					<g>
						<path class="st8" d="M363.6,92.82v18.71c0,1.2-0.97,2.16-2.16,2.16h-18.72c-0.82,0-1.53-0.45-1.9-1.12
							c-0.04-0.07-0.07-0.15-0.1-0.22c-0.04-0.11-0.07-0.22-0.11-0.34c0-0.01-0.01-0.02-0.01-0.04c0-0.01-0.01-0.04-0.01-0.05
							c-0.02-0.13-0.04-0.25-0.04-0.38V92.82c0-1.12,0.85-2.03,1.93-2.15c0.07,0,0.16-0.01,0.23-0.01h18.72
							c0.22,0,0.44,0.03,0.64,0.1c0,0,0,0,0.01,0C362.96,91.03,363.6,91.84,363.6,92.82z"/>
					</g>
				</g>
			</g>
			<g>
				<g>
					<g>
						<path class="st10" d="M352.1,93.84c-0.05,0-0.09,0-0.14,0c-2.57,0.06-4.64,2.17-4.64,4.76c0,0.87,0.24,1.69,0.65,2.4
							c0.66,1.13,1.28,2.27,1.85,3.44l0.51,1.06h0.34h3.15l0.35-0.73c0.62-1.29,1.31-2.55,2.03-3.8c0.4-0.7,0.63-1.51,0.63-2.38
							C356.84,95.98,354.72,93.85,352.1,93.84z"/>
					</g>
					<g>
						<path class="st10" d="M353.83,106.83h-3.51V108c0,0.97,0.79,1.75,1.75,1.75l0,0c0.97,0,1.75-0.79,1.75-1.75V106.83z"/>
					</g>
				</g>
			</g>
		</g>
		<g>
			<g>
				<path class="st7" d="M132.06,71.62v18.72c0,1.19-0.97,2.16-2.16,2.16h-18.72c-1.07,0-2.75-0.75-3.51-2.48
					c-0.04-0.07-0.07-0.15-0.1-0.22c-0.04-0.11-0.07-0.22-0.11-0.34c0-0.01-0.01-0.02-0.01-0.04c-0.01-0.01-0.01-0.01-0.01-0.01
					v-0.04l-0.04-14.77v-4.33c0-1.12,0.85-2.03,1.93-2.15c0.07,0,0.16-0.01,0.23-0.01l19.09,0.07c0.09,0,0.18,0.01,0.26,0.02
					c0,0,0,0,0.01,0C130.86,68.42,132.06,70.49,132.06,71.62z"/>
			</g>
			<g>
				<path class="st8" d="M130.45,70.27v18.71c0,1.2-0.97,2.16-2.16,2.16h-18.72c-0.82,0-1.53-0.45-1.9-1.12
					c-0.04-0.07-0.07-0.15-0.1-0.22c-0.04-0.11-0.07-0.22-0.11-0.34c0-0.01-0.01-0.02-0.01-0.04s-0.01-0.04-0.01-0.05
					c-0.02-0.13-0.04-0.25-0.04-0.38V70.27c0-1.12,0.85-2.03,1.93-2.15c0.07,0,0.16-0.01,0.23-0.01h18.72c0.22,0,0.44,0.03,0.64,0.1
					c0,0,0,0,0.01,0C129.81,68.48,130.45,69.29,130.45,70.27z"/>
			</g>
			<g>
				<path class="st8" d="M127.95,77.52c1.34,4.77-1.45,9.72-6.22,11.06c-4.77,1.34-9.72-1.44-11.06-6.22
					c-1.34-4.77,1.45-9.72,6.22-11.06C121.67,69.97,126.62,72.75,127.95,77.52z"/>
				<path class="st10" d="M121.23,86.77c-3.76,1.06-7.69-1.15-8.74-4.91c-1.06-3.76,1.15-7.69,4.91-8.74
					c3.76-1.06,7.69,1.15,8.74,4.91C127.2,81.8,125,85.72,121.23,86.77z"/>
				<path class="st8" d="M120.72,84.96c-2.77,0.78-5.65-0.84-6.42-3.61c-0.78-2.77,0.84-5.65,3.61-6.42
					c2.77-0.78,5.65,0.84,6.42,3.61C125.11,81.31,123.49,84.19,120.72,84.96z"/>
				<path class="st10" d="M120.22,83.15c-1.77,0.5-3.61-0.54-4.1-2.31c-0.5-1.77,0.54-3.61,2.31-4.1c1.77-0.5,3.61,0.54,4.1,2.31
					C123.02,80.81,121.98,82.66,120.22,83.15z"/>
				<path class="st8" d="M119.71,81.34c-0.77,0.22-1.57-0.23-1.79-1c-0.22-0.77,0.23-1.57,1-1.79c0.77-0.22,1.57,0.23,1.79,1
					C120.93,80.32,120.48,81.13,119.71,81.34z"/>
			</g>
		</g>
	</g>
	<g>
		<g>
			<g>
				<path class="st7" d="M317.35,390.91h-47.09c0-2.42,0.98-4.6,2.56-6.18c1.58-1.59,3.77-2.56,6.18-2.56h0.08
					c0,0,9.99-1.3,9.99-9.47v-48.7h9.45v48.7c0,8.16,9.99,9.47,9.99,9.47h0.08C313.44,382.16,317.35,386.08,317.35,390.91z"/>
				<path class="st8" d="M339.09,323.99h-90.56c1.5-8.26,8.7-14.27,17.1-14.24l28.18,0.07l28.18-0.07
					C330.39,309.73,337.6,315.73,339.09,323.99z"/>
			</g>
			<g>
				<g>
					<path class="st7" d="M274.56,218.17c-2.36,8.73-14.27,31.48-18.89,34.74c-6.02,4.24-24.89,12.21-34.7,16.27
						c-1.77,0.73,4.8,8.48,4.8,8.48s25.38-6.46,35.73-13.06c2.93-1.87,9.26-8.21,17.29-20.92c2.43-3.85,8.07-11.51,8.69-16.99
						C288.18,220.39,281.09,216.06,274.56,218.17z"/>
				</g>
				<g>
					<g>
						<g>
							<path class="st11" d="M199.87,371.77l-4.55,8.34c0,0-2.91,0.3-6.65-2.91l3.49-9.8L199.87,371.77z"/>
							<g>
								<path class="st8" d="M190.19,376.66c0,0-0.26-2.81-1.45-3.43s-14.3,1.01-17.67-0.26c-3.38-1.27-5.47,2.62-4.53,3.77
									c1.08,1.3,23.93,14.23,23.93,14.23s5.61-7.53,6.15-10.15C197.15,378.22,192.24,378.61,190.19,376.66z"/>
								<g>
									<g>
										<path class="st10" d="M182.32,378.58c0.09,0.1,0.21,0.16,0.35,0.16c0.27,0.01,0.5-0.21,0.51-0.48
											c0-0.09,0.06-2.26-0.8-3.64c-1.14-1.84-3-1.7-3.08-1.69c-0.27,0.02-0.47,0.27-0.45,0.54c0.02,0.27,0.27,0.47,0.54,0.45
											c0.05,0,1.33-0.09,2.15,1.23c0.7,1.13,0.65,3.07,0.65,3.09C182.19,378.36,182.24,378.49,182.32,378.58z"/>
									</g>
									<g>
										<path class="st10" d="M184.31,378.16c0.09,0.1,0.21,0.16,0.35,0.16c0.27,0.01,0.5-0.21,0.51-0.48
											c0-0.09,0.06-2.26-0.8-3.64c-1.14-1.85-3-1.7-3.08-1.69c-0.27,0.02-0.47,0.27-0.45,0.54c0.02,0.27,0.27,0.47,0.54,0.45
											c0.05,0,1.33-0.09,2.15,1.23c0.7,1.13,0.65,3.07,0.65,3.09C184.18,377.94,184.23,378.06,184.31,378.16z"/>
									</g>
									<g>
										<path class="st10" d="M180.02,378.5c0.09,0.1,0.21,0.16,0.35,0.16c0.27,0.01,0.5-0.21,0.51-0.48
											c0-0.09,0.06-2.26-0.8-3.64c-1.14-1.85-3-1.7-3.08-1.69c-0.27,0.02-0.47,0.27-0.45,0.54c0.02,0.27,0.27,0.47,0.54,0.45
											c0.05,0,1.33-0.09,2.15,1.23c0.7,1.13,0.65,3.07,0.65,3.09C179.89,378.29,179.94,378.41,180.02,378.5z"/>
									</g>
								</g>
							</g>
						</g>
						<path class="st6" d="M240.69,289.54c0,0-14.83,0.85-18.29,4.15c-3.46,3.3-33.27,74.76-33.27,74.76
							c3.41,2.53,7.09,4.25,10.99,5.32c0,0,21.39-36.72,27.82-46.34c6.63-9.93,7.46-15.46,7.46-15.46l15.22-2.22L240.69,289.54z"/>
					</g>
					<g>
						<path class="st8" d="M303.76,207.04c0,0,10.19,3.33,15.63,8.11c5.45,4.78,0.89,19.05,1.02,27.15
							c0.13,8.1-1.2,55.14-12.81,61.05c-8.77,4.46-45.67-2.31-42.97-14.34c1.79-8,5.2-22.7,7.56-42.59
							c1.56-13.12,0.9-22.81,2.36-28.26c1.46-5.45,18.52-11.69,18.52-11.69L303.76,207.04z"/>
						<g>
							<path class="st7" d="M296.16,216.73c5.31,0,10.21-5.65,10.43-5.89c0.13-0.16,0.12-0.39-0.04-0.53
								c-0.16-0.13-0.39-0.12-0.53,0.04c-0.05,0.06-5.18,5.97-10.31,5.62c-0.21-0.01-0.39,0.14-0.4,0.35
								c-0.01,0.21,0.14,0.39,0.35,0.4C295.82,216.72,295.99,216.73,296.16,216.73z"/>
						</g>
						<g>
							<path class="st7" d="M300.76,280.23c0.19,0,0.35-0.14,0.37-0.33c0.02-0.21-0.12-0.39-0.33-0.42
								c-13.72-1.58-19.41-25.33-19.46-25.57c-0.05-0.2-0.25-0.33-0.45-0.28c-0.2,0.05-0.33,0.25-0.28,0.45
								c0.23,1,5.87,24.51,20.11,26.15C300.73,280.23,300.75,280.23,300.76,280.23z"/>
						</g>
						<g>
							<path class="st7" d="M295.3,273.04c0.13,0,0.25-0.06,0.32-0.18c0.11-0.18,0.05-0.41-0.12-0.52c-7.3-4.5-8.38-11.13-8.39-11.2
								c-0.03-0.2-0.22-0.35-0.43-0.31c-0.2,0.03-0.35,0.22-0.31,0.43c0.04,0.29,1.13,7.04,8.74,11.73
								C295.16,273.02,295.23,273.04,295.3,273.04z"/>
						</g>
					</g>
					<g>
						<path class="st5" d="M280.04,184.95c1.45,8.18,9.24,13.63,17.42,12.19c8.18-1.45,12.84-9.15,11.39-17.33
							c-1.45-8.18-8.45-13.72-16.63-12.28C284.05,168.98,278.59,176.78,280.04,184.95z"/>
						<path class="st5" d="M280.79,179.54c0,0-5.33-1.58-3.48-5.62c1.85-4.04-1.62-4.49,0.53-7.58c1.94-2.78,5.78-0.08,7.46-2.36
							c1.68-2.27,6.01-3.81,8.2-1.35c2.01,2.27,4.61,1.01,7.29,1.01c4.46,0,2.95,4.38,4.04,6.82c1.09,2.44,4.51,5.14,0.84,7.24
							C302.01,179.8,280.79,179.54,280.79,179.54z"/>
						<g>
							<path class="st12" d="M283.26,188.65c0,0-2.9-2.71-4.18,0.18c-1.29,2.89,2.53,10.09,6.47,7.48L283.26,188.65z"/>
							<g>
								<path class="st13" d="M284.19,194.12c-0.16,0.03-0.32-0.05-0.39-0.2c-1.08-2.24-3.69-2.76-3.72-2.77
									c-0.2-0.04-0.33-0.23-0.29-0.43c0.04-0.2,0.23-0.33,0.43-0.29c0.12,0.02,3,0.59,4.24,3.17c0.09,0.18,0.01,0.4-0.17,0.49
									C284.25,194.1,284.22,194.11,284.19,194.12z"/>
							</g>
							<g>
								<g>
									<path class="st13" d="M281.51,193.36c-0.07,0.01-0.14,0.01-0.21-0.02c-0.19-0.08-0.27-0.29-0.2-0.48
										c0.01-0.03,0.33-0.77,1.16-1.33c0.17-0.11,0.4-0.07,0.51,0.1c0.11,0.17,0.07,0.4-0.1,0.51c-0.64,0.44-0.89,1-0.9,1.01
										C281.74,193.26,281.63,193.34,281.51,193.36z"/>
								</g>
							</g>
						</g>
						<path class="st11" d="M302.79,199.94l1.34,7.59c0,0-2.53,3.9-5.55,4.7c-3.01,0.81-5.52-2.5-5.52-2.5l-1.29-7.3L302.79,199.94z
							"/>
						<path class="st12" d="M302.79,199.94l0.6,3.37c-1.65,2.64-5.2,3.86-10.74,4.02l-0.86-4.89L302.79,199.94z"/>
						<path class="st11" d="M308.06,188.79c-0.01,0.76-0.05,1.48-0.11,2.13c-0.07,0.65-0.15,1.35-0.27,2.08
							c-0.96,5.92-3.95,13.88-14.53,12.08c-5.25-0.89-8.52-5.99-10.53-11.41c-0.48-1.3-0.89-2.62-1.24-3.9
							c-0.64-2.35-1.06-4.57-1.34-6.35c-0.44-2.81,0.64-5.65,2.83-7.46c5.94-4.91,13.16-4.75,18.06-3.8
							c3.4,0.66,5.99,3.43,6.43,6.86C307.73,182,308.1,185.74,308.06,188.79z"/>
						<g>
							<path class="st5" d="M306.6,186.13l-1.91,0.6c0,0,0.6,4-0.08,7.03c-2.57-2.38-9.79,1.38-9.79,1.38s-7.67-0.68-8.7,2.1
								c-1.15-1.51-2.39-4.95-3.22-7.31l-1.52-0.16c0.35,1.28,0.76,2.6,1.24,3.9c2.01,5.42,5.27,10.52,10.53,11.41
								c10.59,1.8,13.57-6.16,14.53-12.08C307.24,189.57,306.6,186.13,306.6,186.13z M301.92,196.55c0.74,1.1,0.39,2.58-0.67,3.37
								c-2.43,1.81-5.54,2.27-7.25,2.14c-1-0.07-1.93-0.27-2.92-0.66c-1.68-0.66-1.92-2.96-0.37-3.9c0.98-0.6,2.54-1.01,4.99-1.05
								C299.51,194.84,301.2,195.47,301.92,196.55z"/>
						</g>
						<path class="st5" d="M289.06,188.65c0.14,0.81-0.16,1.54-0.67,1.63c-0.52,0.09-1.05-0.49-1.19-1.3
							c-0.14-0.81,0.16-1.54,0.67-1.63C288.38,187.26,288.91,187.84,289.06,188.65z"/>
						<path class="st5" d="M299.98,186.72c0.14,0.81-0.16,1.54-0.67,1.63c-0.52,0.09-1.05-0.49-1.19-1.3
							c-0.14-0.81,0.16-1.54,0.67-1.63C299.31,185.33,299.84,185.91,299.98,186.72z"/>
						<path class="st5" d="M284.29,184.85c0,0,3.61-2.22,6.83-1.46l0,1.43c0,0-3.37-0.15-6.33,1.59
							C284.48,185.81,284.16,185.55,284.29,184.85z"/>
						<path class="st5" d="M302.07,181.7c0,0-4.16-0.85-6.92,0.97l0.5,1.34c0,0,3.11-1.3,6.49-0.67
							C302.22,182.67,302.43,182.32,302.07,181.7z"/>
						<g>
							<path class="st12" d="M295.25,193.51c0.61-0.11,1.17-0.45,1.26-0.51c0.17-0.11,0.22-0.33,0.11-0.51
								c-0.11-0.17-0.33-0.22-0.51-0.11c-0.3,0.19-1.05,0.54-1.42,0.39c-0.07-0.03-0.18-0.09-0.24-0.3
								c-0.35-1.24-0.75-5.52-0.76-5.56c-0.02-0.2-0.2-0.35-0.4-0.33c-0.2,0.02-0.35,0.2-0.33,0.4c0.02,0.18,0.41,4.4,0.78,5.7
								c0.14,0.49,0.45,0.7,0.68,0.79C294.68,193.56,294.97,193.56,295.25,193.51z"/>
						</g>
						<path class="st10" d="M291.1,197.84c0.56,1.43,2.02,3.99,5.32,3.4c3.31-0.58,3.8-3.24,3.81-5.02L291.1,197.84z"/>
						<path class="st5" d="M283.31,191.13c-0.54-1.44-1.14-3.31-1.12-4.33c0.04-1.8,1.3-3.08,0.53-4.68
							c-0.78-1.6,0.68-3.72,1.93-4.25c1.25-0.53,4.42-0.42,7.18-2.38c2.63-1.87,7.79-1.78,8.93-0.08c1.38,2.06,0.08,2.5,3.19,4.44
							c1.24,0.77,0.41,3.49,0.52,5.15c0.05,0.76,0.1,1.13,0.27,1.93l0.08,0.41l3.21-0.57c-0.09-2.58-0.38-5.39-0.68-7.73
							c-0.44-3.43-3.03-6.2-6.43-6.86c-4.9-0.95-12.12-1.12-18.06,3.8c-2.19,1.81-3.27,4.64-2.83,7.46
							c0.34,2.18,0.91,5.04,1.81,7.97L283.31,191.13z"/>
						<g>
							<path class="st11" d="M306.85,188.4c-0.16-0.84-0.25-1.69-0.25-2.54c0-1.17,0.15-2.25,1.22-2.93
								c0.86-0.54,1.86-0.73,2.75,0.2c2.2,2.28,1.68,10.67-2.92,9.56L306.85,188.4z"/>
							<g>
								<g>
									<g>
										<path class="st12" d="M308.07,190.19c0.15-0.06,0.25-0.21,0.23-0.38c-0.24-2.47,1.71-4.28,1.73-4.3
											c0.15-0.14,0.16-0.37,0.03-0.52c-0.14-0.15-0.37-0.16-0.52-0.03c-0.09,0.08-2.25,2.06-1.97,4.91
											c0.02,0.2,0.2,0.35,0.4,0.33C308.01,190.21,308.04,190.2,308.07,190.19z"/>
									</g>
								</g>
							</g>
							<g>
								<g>
									<path class="st12" d="M309.96,188.16c0.06-0.02,0.12-0.07,0.16-0.13c0.12-0.16,0.08-0.39-0.08-0.51
										c-0.03-0.02-0.68-0.48-1.68-0.53c-0.2-0.01-0.37,0.15-0.38,0.35c-0.01,0.2,0.15,0.37,0.35,0.38
										c0.78,0.04,1.29,0.39,1.29,0.39C309.72,188.19,309.85,188.2,309.96,188.16z"/>
								</g>
							</g>
						</g>
					</g>
					<g>
						<g>
							<path class="st11" d="M266.79,369.65l0.33,9.5c0,0-2.35,1.74-7.2,0.87l-1.98-10.22L266.79,369.65z"/>
							<g>
								<path class="st8" d="M260.94,378.78c0,0-1.65-2.29-3-2.21c-1.34,0.08-11.79,8.15-15.34,8.77c-3.55,0.63-3.37,5.04-1.98,5.55
									c1.59,0.57,27.84,0.08,27.84,0.08s1-9.34,0.13-11.86C267.73,376.58,263.7,379.42,260.94,378.78z"/>
								<g>
									<g>
										<path class="st10" d="M255.15,384.43c0.12,0.04,0.26,0.03,0.39-0.04c0.24-0.13,0.33-0.43,0.2-0.67
											c-0.04-0.08-1.1-1.97-2.54-2.73c-1.92-1.01-3.45,0.07-3.51,0.11c-0.22,0.16-0.27,0.47-0.11,0.69
											c0.16,0.22,0.47,0.27,0.69,0.11c0.04-0.03,1.1-0.75,2.47-0.04c1.18,0.61,2.12,2.31,2.13,2.33
											C254.93,384.32,255.03,384.4,255.15,384.43z"/>
									</g>
									<g>
										<path class="st10" d="M256.64,383.06c0.12,0.04,0.26,0.03,0.39-0.04c0.24-0.13,0.33-0.43,0.2-0.67
											c-0.04-0.08-1.1-1.97-2.54-2.73c-1.92-1.01-3.45,0.07-3.51,0.11c-0.22,0.16-0.27,0.47-0.11,0.69
											c0.16,0.22,0.47,0.27,0.69,0.11c0.04-0.03,1.1-0.75,2.47-0.04c1.18,0.62,2.12,2.31,2.13,2.33
											C256.42,382.94,256.53,383.02,256.64,383.06z"/>
									</g>
									<g>
										<path class="st10" d="M253.13,385.54c0.12,0.04,0.26,0.03,0.39-0.04c0.24-0.13,0.33-0.43,0.2-0.67
											c-0.04-0.08-1.1-1.97-2.54-2.73c-1.92-1.01-3.45,0.07-3.51,0.11c-0.22,0.16-0.27,0.47-0.11,0.69
											c0.16,0.22,0.47,0.27,0.69,0.11c0.04-0.03,1.1-0.75,2.47-0.04c1.18,0.62,2.12,2.31,2.13,2.33
											C252.9,385.42,253.01,385.5,253.13,385.54z"/>
									</g>
								</g>
							</g>
						</g>
						<g>
							<path class="st5" d="M313.57,305.82c-0.24,0.36-0.5,0.69-0.78,1c-1.79,2-4.4,3.19-7.98,3.19l-42.29-0.21
								c3.74,14.19,4.18,25.14,4.59,28.66c3.12,26.43,1.16,31.19,1.16,31.19c-0.34,0.34-0.77,0.67-1.26,0.97
								c-0.31,0.2-0.65,0.39-1.01,0.55c-2.55,1.25-6.17,1.91-8.99,1.03c0,0-25.74-79.68-16.32-82.66c10.94-3.47,74.7,0.03,74.7,0.03
								l0.4,3.79C316.31,298.25,315.69,302.74,313.57,305.82z"/>
							<g>
								<path class="st6" d="M258.62,307.36c-0.27,0.35-0.36,0.79-0.26,1.21c2.11,8.86,8.66,38.29,8.65,62.05
									c-0.31,0.2-0.65,0.39-1.01,0.55c0.13-23.75-6.49-53.47-8.62-62.36c-0.17-0.73,0-1.48,0.46-2.07
									c0.46-0.58,1.16-0.92,1.91-0.92h53.82c-0.24,0.36-0.5,0.69-0.78,1h-53.04C259.31,306.82,258.9,307.02,258.62,307.36z"/>
							</g>
						</g>
					</g>
				</g>
				<g>
					<path class="st11" d="M253.97,270.02c0,0-9.6,1.62-13.6,4.96c-4,3.34-9.37,6.22-8.57,7.95c0.8,1.73,6.45-1.94,6.45-1.94
						s1.35,3.11,5.97,4.47c4.63,1.35,14.52-6.6,14.52-6.6L253.97,270.02z"/>
					<g>
						<g>
							<g>
								<path class="st7" d="M317.23,213.47c-5.35,8.12-25.85,36.17-30.47,39.43c-6.02,4.24-22.86,13.06-32.67,17.12
									c-1.77,0.73,3.93,9.08,3.93,9.08s24.22-7.9,34.56-14.51c2.93-1.87,15.09-14.06,22.85-24.87c2.66-3.7,6.98-8.85,7.61-14.32
									C323.75,219.11,321.77,215.75,317.23,213.47z"/>
							</g>
						</g>
					</g>
				</g>
				<g>
					<path class="st7" d="M267.5,289.54h-48.65c-1.28,0-2.31-1.04-2.31-2.31v-2.32c0-1.28,1.04-2.31,2.31-2.31h48.65
						c1.28,0,2.31,1.04,2.31,2.31v2.32C269.81,288.5,268.78,289.54,267.5,289.54z"/>
					<path class="st8" d="M207.57,289.54l-10.84-40.6c-0.61-2.28,1.11-4.52,3.47-4.52h23.85c1.61,0,3.02,1.07,3.46,2.62l11.94,42.5
						H207.57z"/>
					<path class="st7" d="M227.52,247.04l11.84,42.15h2.73l-11.84-42.15c-0.44-1.55-1.85-2.62-3.46-2.62h-2.73
						C225.67,244.42,227.08,245.49,227.52,247.04z"/>
					<path class="st7" d="M221.38,268.79c0.62,2.68-1.05,4.85-3.73,4.85c-2.68,0-5.35-2.17-5.97-4.85
						c-0.62-2.68,1.05-4.85,3.73-4.85C218.09,263.95,220.76,266.12,221.38,268.79z"/>
				</g>
			</g>
		</g>
	</g>
</g>
</svg>
