<?xml version="1.0" encoding="utf-8"?>
<!-- Generator: Adobe Illustrator 23.0.2, SVG Export Plug-In . SVG Version: 6.00 Build 0)  -->
<svg version="1.1" id="Layer_1" xmlns="http://www.w3.org/2000/svg" xmlns:xlink="http://www.w3.org/1999/xlink" x="0px" y="0px"
	 width="2830.1px" height="1819.65px" viewBox="0 0 2830.1 1819.65" style="enable-background:new 0 0 2830.1 1819.65;"
	 xml:space="preserve">
<style type="text/css">
	.st0{opacity:0.23;}
	.st1{fill:url(#SVGID_1_);}
	.st2{fill:url(#SVGID_2_);}
	.st3{fill:url(#SVGID_3_);}
	.st4{fill:url(#SVGID_4_);}
	.st5{fill:url(#SVGID_5_);}
	.st6{fill:url(#SVGID_6_);}
	.st7{fill:url(#SVGID_7_);}
	.st8{fill:url(#SVGID_8_);}
	.st9{fill:url(#SVGID_9_);}
	.st10{fill:url(#SVGID_10_);}
	.st11{fill:#FFFFFF;}
	.st12{fill:url(#SVGID_11_);}
	.st13{fill:url(#SVGID_12_);}
	.st14{fill:url(#SVGID_13_);}
	.st15{fill:url(#SVGID_14_);}
	.st16{fill:url(#SVGID_15_);}
	.st17{fill:url(#SVGID_16_);}
	.st18{fill:url(#SVGID_17_);}
	.st19{fill:url(#SVGID_18_);}
	.st20{fill:url(#SVGID_19_);}
	.st21{fill:url(#SVGID_20_);}
	.st22{fill:url(#SVGID_21_);}
	.st23{fill:url(#SVGID_22_);}
	.st24{fill:url(#SVGID_23_);}
	.st25{fill:url(#SVGID_24_);}
	.st26{fill:url(#SVGID_25_);}
	.st27{fill:url(#SVGID_26_);}
	.st28{fill:url(#SVGID_27_);}
	.st29{fill:url(#SVGID_28_);}
	.st30{fill:url(#SVGID_29_);}
	.st31{fill:#FAFAFA;}
	.st32{fill:url(#SVGID_30_);}
	.st33{fill:#E7E7E7;}
	.st34{fill:#EBF3F7;}
	.st35{fill:url(#SVGID_31_);}
	.st36{fill:#B8D6FF;}
	.st37{opacity:0.44;}
	.st38{fill:url(#SVGID_32_);}
	.st39{fill:#D0E5F5;}
	.st40{fill:#78B0DE;}
	.st41{fill:#98C3E6;}
	.st42{fill:#B5D2EB;}
	.st43{fill:url(#SVGID_33_);}
	.st44{fill:url(#SVGID_34_);}
	.st45{fill:url(#SVGID_35_);}
	.st46{fill:url(#SVGID_36_);}
	.st47{fill:#FF9F55;}
	.st48{fill:#EFF7FE;}
	.st49{fill:url(#SVGID_37_);}
	.st50{fill:#5284FC;}
	.st51{fill:url(#SVGID_38_);}
	.st52{fill:url(#SVGID_39_);}
	.st53{fill:url(#SVGID_40_);}
	.st54{fill:#8DBDE3;}
	.st55{fill:#706865;}
	.st56{fill:#C9C9C9;}
	.st57{fill:#FFAA55;}
	.st58{fill:#CCBDB7;}
	.st59{fill:#B59074;}
	.st60{fill:#D44040;}
	.st61{fill:#EAD8CF;}
	.st62{fill:#DA9B5B;}
	.st63{fill:#424773;}
	.st64{fill:#292C47;}
	.st65{fill:#EEA886;}
	.st66{fill:#3A3F47;}
	.st67{fill:#E2D2CA;}
	.st68{fill:#323657;}
	.st69{fill:#918783;}
	.st70{fill:#5E5854;}
	.st71{fill:#BFB2AC;}
	.st72{fill:#254380;}
	.st73{fill:url(#SVGID_41_);}
	.st74{fill:#F5F7FF;}
	.st75{fill:#FFC655;}
	.st76{fill:#DFE1E8;}
	.st77{fill:#36572B;}
	.st78{fill:#45613C;}
	.st79{fill:#925E2E;}
	.st80{fill:#48753A;}
	.st81{fill:#538742;}
	.st82{fill:#877670;}
	.st83{fill:#876455;}
	.st84{fill:#715346;}
	.st85{fill:#9E633A;}
	.st86{fill:#97A43C;}
	.st87{fill:#82522F;}
	.st88{fill:#C67B47;}
	.st89{fill:#1A2F59;}
	.st90{fill:url(#SVGID_42_);}
	.st91{fill:url(#SVGID_43_);}
	.st92{fill:#F08533;}
	.st93{fill:#FAE6DE;}
	.st94{fill:url(#SVGID_44_);}
	.st95{fill:#495DA1;}
	.st96{fill:#DECCC5;}
	.st97{fill:url(#SVGID_45_);}
	.st98{fill:url(#SVGID_46_);}
	.st99{fill:url(#SVGID_47_);}
	.st100{fill:url(#SVGID_48_);}
	.st101{fill:url(#SVGID_49_);}
</style>
<g class="st0">
	
		<linearGradient id="SVGID_1_" gradientUnits="userSpaceOnUse" x1="1955.3899" y1="916.1087" x2="1955.3899" y2="2312.7385" gradientTransform="matrix(-1 0 0 1 2832.4722 0)">
		<stop  offset="0" style="stop-color:#F2F2F2"/>
		<stop  offset="1" style="stop-color:#FCFCFC"/>
	</linearGradient>
	<rect x="2.37" y="1197.17" class="st1" width="1749.43" height="614.87"/>
	
		<linearGradient id="SVGID_2_" gradientUnits="userSpaceOnUse" x1="1706.2478" y1="1452.2246" x2="2637.0203" y2="1452.2246" gradientTransform="matrix(-1 0 0 1 2832.4722 0)">
		<stop  offset="0" style="stop-color:#DBDBE6"/>
		<stop  offset="1" style="stop-color:#FFFFFF"/>
	</linearGradient>
	<polygon class="st2" points="1126.22,1243.38 1126.22,1398 1065.98,1398 1065.98,1501.42 995.7,1501.42 995.7,1415.07 
		941.48,1415.07 941.48,1538.58 952.52,1538.58 952.52,1558.66 828.02,1558.66 828.02,1537.57 840.07,1537.57 840.07,1419.09 
		810.95,1419.09 810.95,1390.98 757.73,1390.98 757.73,1607.86 704.52,1661.07 686.44,1643 668.76,1643 668.76,1341.78 
		608.12,1341.78 608.12,1365.87 561.94,1412.06 524.79,1412.06 524.79,1341.78 486.63,1341.78 486.63,1522.51 425.38,1522.51 
		425.38,1391.98 375.18,1391.98 375.18,1293.58 308.91,1293.58 308.91,1402.02 195.45,1402.02 195.45,1243.38 	"/>
	<g>
		
			<linearGradient id="SVGID_3_" gradientUnits="userSpaceOnUse" x1="1823.2219" y1="-12482.1953" x2="1823.2219" y2="-12120.8936" gradientTransform="matrix(-1 0 0 -1 2832.4722 -11094.6748)">
			<stop  offset="0" style="stop-color:#FCFCFC"/>
			<stop  offset="1" style="stop-color:#FDFDFD"/>
		</linearGradient>
		<rect x="995.7" y="1243.38" class="st3" width="27.11" height="258.05"/>
		
			<linearGradient id="SVGID_4_" gradientUnits="userSpaceOnUse" x1="1920.6169" y1="-12482.1953" x2="1920.6169" y2="-12120.8955" gradientTransform="matrix(-1 0 0 -1 2832.4722 -11094.6748)">
			<stop  offset="0" style="stop-color:#FCFCFC"/>
			<stop  offset="1" style="stop-color:#FDFDFD"/>
		</linearGradient>
		<polygon class="st4" points="883.91,1558.66 883.91,1332.41 943.48,1332.41 943.48,1278.19 995.7,1278.19 995.7,1243.38 
			840.07,1243.38 840.07,1537.57 828.02,1537.57 828.02,1558.66 		"/>
		
			<linearGradient id="SVGID_5_" gradientUnits="userSpaceOnUse" x1="2078.0593" y1="975.4673" x2="2078.0593" y2="1700.9756" gradientTransform="matrix(-1 0 0 1 2832.4722 0)">
			<stop  offset="0" style="stop-color:#FCFCFC"/>
			<stop  offset="1" style="stop-color:#FDFDFD"/>
		</linearGradient>
		<polygon class="st5" points="704.52,1661.07 704.52,1304.63 756.73,1304.63 756.73,1390.98 785.84,1390.98 785.84,1314.67 
			840.07,1314.67 840.07,1243.38 668.76,1243.38 668.76,1643 686.44,1643 		"/>
		
			<linearGradient id="SVGID_6_" gradientUnits="userSpaceOnUse" x1="2235.6985" y1="975.4662" x2="2235.6985" y2="1700.9771" gradientTransform="matrix(-1 0 0 1 2832.4722 0)">
			<stop  offset="0" style="stop-color:#FCFCFC"/>
			<stop  offset="1" style="stop-color:#FDFDFD"/>
		</linearGradient>
		<polygon class="st6" points="561.94,1412.06 561.94,1316.68 595.32,1283.29 621.18,1283.29 621.18,1265.97 668.76,1265.97 
			668.76,1243.38 524.79,1243.38 524.79,1412.06 		"/>
		
			<linearGradient id="SVGID_7_" gradientUnits="userSpaceOnUse" x1="2394.2864" y1="975.4659" x2="2394.2864" y2="1700.9769" gradientTransform="matrix(-1 0 0 1 2832.4722 0)">
			<stop  offset="0" style="stop-color:#FCFCFC"/>
			<stop  offset="1" style="stop-color:#FDFDFD"/>
		</linearGradient>
		<rect x="425.38" y="1243.38" class="st7" width="25.6" height="279.13"/>
		
			<linearGradient id="SVGID_8_" gradientUnits="userSpaceOnUse" x1="2522.0544" y1="975.4669" x2="2522.0544" y2="1700.9774" gradientTransform="matrix(-1 0 0 1 2832.4722 0)">
			<stop  offset="0" style="stop-color:#FCFCFC"/>
			<stop  offset="1" style="stop-color:#FDFDFD"/>
		</linearGradient>
		<polygon class="st8" points="195.45,1402.02 242.64,1402.02 242.64,1283.54 276.78,1283.54 276.78,1260.11 425.38,1260.11 
			425.38,1243.38 195.45,1243.38 		"/>
		
			<linearGradient id="SVGID_9_" gradientUnits="userSpaceOnUse" x1="2433.8215" y1="975.4688" x2="2433.8215" y2="1700.9755" gradientTransform="matrix(-1 0 0 1 2832.4722 0)">
			<stop  offset="0" style="stop-color:#FCFCFC"/>
			<stop  offset="1" style="stop-color:#FDFDFD"/>
		</linearGradient>
		<polygon class="st9" points="375.18,1391.98 394.76,1391.98 394.76,1280.03 422.12,1252.67 375.18,1252.67 		"/>
		
			<linearGradient id="SVGID_10_" gradientUnits="userSpaceOnUse" x1="1752.4348" y1="-12482.1943" x2="1752.4348" y2="-12120.8945" gradientTransform="matrix(-1 0 0 -1 2832.4722 -11094.6748)">
			<stop  offset="0" style="stop-color:#FCFCFC"/>
			<stop  offset="1" style="stop-color:#FDFDFD"/>
		</linearGradient>
		<rect x="1065.98" y="1243.38" class="st10" width="28.11" height="154.63"/>
	</g>
	<rect x="2.37" y="2.43" class="st11" width="2016.68" height="1240.52"/>
	
		<linearGradient id="SVGID_11_" gradientUnits="userSpaceOnUse" x1="1821.7688" y1="1855.9608" x2="1821.7688" y2="358.7893" gradientTransform="matrix(-1 0 0 1 2832.4722 0)">
		<stop  offset="0" style="stop-color:#EEEEFA"/>
		<stop  offset="1" style="stop-color:#FFFFFF"/>
	</linearGradient>
	<path class="st12" d="M2.37,1196.74v41.39c2.33,0.87,4.88,1.71,7.72,2.51c1.78,0.51,3.71,1.02,5.71,1.53
		c9.39,2.29,21.26,4.37,35.96,6c11.72,1.35,39.86,2.33,79.5,3.64c3.6,0.15,7.24,0.25,11.03,0.4c43.35,1.49,98.79,3.46,160.82,6.81
		c3.64,0.18,7.35,0.4,11.03,0.62c38.44,2.15,79.24,4.8,121.18,8.19c3.64,0.33,7.32,0.62,10.99,0.91
		c52.85,4.4,107.31,9.97,160.85,17.11c3.68,0.51,7.32,0.98,10.99,1.49c41.42,5.68,82.19,12.3,121.18,20.09
		c3.68,0.73,7.35,1.46,10.99,2.22c31.67,6.51,62.1,13.83,90.6,21.99c6.88,1.96,13.61,3.97,20.24,6.08
		c5.75,1.78,11.39,3.6,16.96,5.46c172.46,57.88,254.11,153.75,74.88,314.31c-51.36,46.01-124.09,97.33-222.22,154.55h1288.27
		v-621.82H13.69c0,0-1.42,0.69-3.6,1.89C8.05,1193.21,5.32,1194.81,2.37,1196.74z"/>
	
		<linearGradient id="SVGID_12_" gradientUnits="userSpaceOnUse" x1="1277.1179" y1="698.46" x2="1277.1179" y2="1442.2114" gradientTransform="matrix(-1 0 0 1 2832.4722 0)">
		<stop  offset="0" style="stop-color:#DBDBE6"/>
		<stop  offset="1" style="stop-color:#FFFFFF"/>
	</linearGradient>
	<polygon class="st13" points="2020.74,1230.08 2020.74,1075.45 1960.5,1075.45 1960.5,972.03 1890.21,972.03 1890.21,1058.38 
		1835.99,1058.38 1835.99,934.88 1847.04,934.88 1847.04,914.8 1722.53,914.8 1722.53,935.89 1734.58,935.89 1734.58,1054.37 
		1705.46,1054.37 1705.46,1082.48 1652.25,1082.48 1652.25,865.6 1599.03,812.38 1580.96,830.46 1563.28,830.46 1563.28,1131.68 
		1502.64,1131.68 1502.64,1107.58 1456.45,1061.39 1419.3,1061.39 1419.3,1131.68 1381.15,1131.68 1381.15,950.95 1319.9,950.95 
		1319.9,1081.47 1269.7,1081.47 1269.7,1179.87 1203.43,1179.87 1203.43,1071.43 1089.97,1071.43 1089.97,1230.08 	"/>
	<g>
		
			<linearGradient id="SVGID_13_" gradientUnits="userSpaceOnUse" x1="928.7062" y1="1402.7772" x2="928.7062" y2="636.6235" gradientTransform="matrix(-1 0 0 1 2832.4722 0)">
			<stop  offset="0" style="stop-color:#FCFCFC"/>
			<stop  offset="1" style="stop-color:#FDFDFD"/>
		</linearGradient>
		<rect x="1890.21" y="972.03" class="st14" width="27.11" height="258.05"/>
		
			<linearGradient id="SVGID_14_" gradientUnits="userSpaceOnUse" x1="1026.1013" y1="1653.1525" x2="1026.1013" y2="765.0699" gradientTransform="matrix(-1 0 0 1 2832.4722 0)">
			<stop  offset="0" style="stop-color:#FCFCFC"/>
			<stop  offset="1" style="stop-color:#FDFDFD"/>
		</linearGradient>
		<polygon class="st15" points="1778.42,914.8 1778.42,1141.05 1838,1141.05 1838,1195.27 1890.21,1195.27 1890.21,1230.08 
			1734.58,1230.08 1734.58,935.89 1722.53,935.89 1722.53,914.8 		"/>
		
			<linearGradient id="SVGID_15_" gradientUnits="userSpaceOnUse" x1="1183.5437" y1="1653.1495" x2="1183.5437" y2="765.0686" gradientTransform="matrix(-1 0 0 1 2832.4722 0)">
			<stop  offset="0" style="stop-color:#FCFCFC"/>
			<stop  offset="1" style="stop-color:#FDFDFD"/>
		</linearGradient>
		<polygon class="st16" points="1599.03,812.38 1599.03,1168.83 1651.24,1168.83 1651.24,1082.48 1680.36,1082.48 1680.36,1158.79 
			1734.58,1158.79 1734.58,1230.08 1563.28,1230.08 1563.28,830.46 1580.96,830.46 		"/>
		
			<linearGradient id="SVGID_16_" gradientUnits="userSpaceOnUse" x1="1341.1829" y1="1653.1509" x2="1341.1829" y2="765.0705" gradientTransform="matrix(-1 0 0 1 2832.4722 0)">
			<stop  offset="0" style="stop-color:#FCFCFC"/>
			<stop  offset="1" style="stop-color:#FDFDFD"/>
		</linearGradient>
		<polygon class="st17" points="1456.45,1061.39 1456.45,1156.78 1489.84,1190.17 1515.69,1190.17 1515.69,1207.49 1563.28,1207.49 
			1563.28,1230.08 1419.3,1230.08 1419.3,1061.39 		"/>
		
			<linearGradient id="SVGID_17_" gradientUnits="userSpaceOnUse" x1="1499.7712" y1="1653.1519" x2="1499.7712" y2="765.0686" gradientTransform="matrix(-1 0 0 1 2832.4722 0)">
			<stop  offset="0" style="stop-color:#FCFCFC"/>
			<stop  offset="1" style="stop-color:#FDFDFD"/>
		</linearGradient>
		<rect x="1319.9" y="950.95" class="st18" width="25.6" height="279.13"/>
		
			<linearGradient id="SVGID_18_" gradientUnits="userSpaceOnUse" x1="1627.5383" y1="1653.15" x2="1627.5383" y2="765.0704" gradientTransform="matrix(-1 0 0 1 2832.4722 0)">
			<stop  offset="0" style="stop-color:#FCFCFC"/>
			<stop  offset="1" style="stop-color:#FDFDFD"/>
		</linearGradient>
		<polygon class="st19" points="1089.97,1071.43 1153.15,1071.43 1153.15,1189.91 1171.3,1189.91 1171.3,1213.34 1319.9,1213.34 
			1319.9,1230.08 1089.97,1230.08 		"/>
		
			<linearGradient id="SVGID_19_" gradientUnits="userSpaceOnUse" x1="1539.3059" y1="1653.1544" x2="1539.3059" y2="765.0682" gradientTransform="matrix(-1 0 0 1 2832.4722 0)">
			<stop  offset="0" style="stop-color:#FCFCFC"/>
			<stop  offset="1" style="stop-color:#FDFDFD"/>
		</linearGradient>
		<polygon class="st20" points="1269.7,1081.47 1289.28,1081.47 1289.28,1193.43 1316.64,1220.79 1269.7,1220.79 		"/>
		
			<linearGradient id="SVGID_20_" gradientUnits="userSpaceOnUse" x1="857.9191" y1="1402.777" x2="857.9191" y2="636.6219" gradientTransform="matrix(-1 0 0 1 2832.4722 0)">
			<stop  offset="0" style="stop-color:#FCFCFC"/>
			<stop  offset="1" style="stop-color:#FDFDFD"/>
		</linearGradient>
		<rect x="1960.5" y="1075.45" class="st21" width="28.11" height="154.63"/>
	</g>
	
		<linearGradient id="SVGID_21_" gradientUnits="userSpaceOnUse" x1="2171.634" y1="698.46" x2="2171.634" y2="1442.2114" gradientTransform="matrix(-1 0 0 1 2832.4722 0)">
		<stop  offset="0" style="stop-color:#DBDBE6"/>
		<stop  offset="1" style="stop-color:#FFFFFF"/>
	</linearGradient>
	<polygon class="st22" points="1126.22,1230.08 1126.22,1075.45 1065.98,1075.45 1065.98,972.03 995.7,972.03 995.7,1058.38 
		941.48,1058.38 941.48,934.88 952.52,934.88 952.52,914.8 828.02,914.8 828.02,935.89 840.07,935.89 840.07,1054.37 
		810.95,1054.37 810.95,1082.48 757.73,1082.48 757.73,865.6 704.52,812.38 686.44,830.46 668.76,830.46 668.76,1131.68 
		608.12,1131.68 608.12,1107.58 561.94,1061.39 524.79,1061.39 524.79,1131.68 486.63,1131.68 486.63,950.95 425.38,950.95 
		425.38,1081.47 375.18,1081.47 375.18,1179.87 308.91,1179.87 308.91,1071.43 195.45,1071.43 195.45,1230.08 	"/>
	<g>
		
			<linearGradient id="SVGID_22_" gradientUnits="userSpaceOnUse" x1="1823.2219" y1="1653.1512" x2="1823.2219" y2="765.0707" gradientTransform="matrix(-1 0 0 1 2832.4722 0)">
			<stop  offset="0" style="stop-color:#FCFCFC"/>
			<stop  offset="1" style="stop-color:#FDFDFD"/>
		</linearGradient>
		<rect x="995.7" y="972.03" class="st23" width="27.11" height="258.05"/>
		
			<linearGradient id="SVGID_23_" gradientUnits="userSpaceOnUse" x1="1920.6169" y1="1653.1525" x2="1920.6169" y2="765.0699" gradientTransform="matrix(-1 0 0 1 2832.4722 0)">
			<stop  offset="0" style="stop-color:#FCFCFC"/>
			<stop  offset="1" style="stop-color:#FDFDFD"/>
		</linearGradient>
		<polygon class="st24" points="883.91,914.8 883.91,1141.05 943.48,1141.05 943.48,1195.27 995.7,1195.27 995.7,1230.08 
			840.07,1230.08 840.07,935.89 828.02,935.89 828.02,914.8 		"/>
		
			<linearGradient id="SVGID_24_" gradientUnits="userSpaceOnUse" x1="2078.0593" y1="1653.1495" x2="2078.0593" y2="765.0686" gradientTransform="matrix(-1 0 0 1 2832.4722 0)">
			<stop  offset="0" style="stop-color:#FCFCFC"/>
			<stop  offset="1" style="stop-color:#FDFDFD"/>
		</linearGradient>
		<polygon class="st25" points="704.52,812.38 704.52,1168.83 756.73,1168.83 756.73,1082.48 785.84,1082.48 785.84,1158.79 
			840.07,1158.79 840.07,1230.08 668.76,1230.08 668.76,830.46 686.44,830.46 		"/>
		
			<linearGradient id="SVGID_25_" gradientUnits="userSpaceOnUse" x1="2235.6985" y1="1653.1509" x2="2235.6985" y2="765.0705" gradientTransform="matrix(-1 0 0 1 2832.4722 0)">
			<stop  offset="0" style="stop-color:#FCFCFC"/>
			<stop  offset="1" style="stop-color:#FDFDFD"/>
		</linearGradient>
		<polygon class="st26" points="561.94,1061.39 561.94,1156.78 595.32,1190.17 621.18,1190.17 621.18,1207.49 668.76,1207.49 
			668.76,1230.08 524.79,1230.08 524.79,1061.39 		"/>
		
			<linearGradient id="SVGID_26_" gradientUnits="userSpaceOnUse" x1="2394.2864" y1="1653.1519" x2="2394.2864" y2="765.0686" gradientTransform="matrix(-1 0 0 1 2832.4722 0)">
			<stop  offset="0" style="stop-color:#FCFCFC"/>
			<stop  offset="1" style="stop-color:#FDFDFD"/>
		</linearGradient>
		<rect x="425.38" y="950.95" class="st27" width="25.6" height="279.13"/>
		
			<linearGradient id="SVGID_27_" gradientUnits="userSpaceOnUse" x1="2522.0544" y1="1653.15" x2="2522.0544" y2="765.0704" gradientTransform="matrix(-1 0 0 1 2832.4722 0)">
			<stop  offset="0" style="stop-color:#FCFCFC"/>
			<stop  offset="1" style="stop-color:#FDFDFD"/>
		</linearGradient>
		<polygon class="st28" points="195.45,1071.43 242.64,1071.43 242.64,1189.91 276.78,1189.91 276.78,1213.34 425.38,1213.34 
			425.38,1230.08 195.45,1230.08 		"/>
		
			<linearGradient id="SVGID_28_" gradientUnits="userSpaceOnUse" x1="2433.8215" y1="1653.1544" x2="2433.8215" y2="765.0682" gradientTransform="matrix(-1 0 0 1 2832.4722 0)">
			<stop  offset="0" style="stop-color:#FCFCFC"/>
			<stop  offset="1" style="stop-color:#FDFDFD"/>
		</linearGradient>
		<polygon class="st29" points="375.18,1081.47 394.76,1081.47 394.76,1193.43 422.12,1220.79 375.18,1220.79 		"/>
		
			<linearGradient id="SVGID_29_" gradientUnits="userSpaceOnUse" x1="1752.4348" y1="1653.1506" x2="1752.4348" y2="765.0674" gradientTransform="matrix(-1 0 0 1 2832.4722 0)">
			<stop  offset="0" style="stop-color:#FCFCFC"/>
			<stop  offset="1" style="stop-color:#FDFDFD"/>
		</linearGradient>
		<rect x="1065.98" y="1075.45" class="st30" width="28.11" height="154.63"/>
	</g>
	<path class="st31" d="M1755.44,1221.02c0,0-79.68-36.22-95.97-25.35c-16.3,10.87-90.54-13.12-143.06-2.03
		c-52.51,11.09-83.3,36.83-134,12.19c-50.7-24.64-110.46-15.19-119.51,0c-9.05,15.19-21.73,8.35-79.68,0
		c-57.95-8.35-54.33-4.72-130.38,15.19c-76.05,19.92-126.05,19.92-126.05,19.92h828.65V1221.02z"/>
	<path class="st31" d="M1865.87,1263.88c0,0-18.11-66.4-112.27-33.8c-94.16,32.6-114.69,72.43-251.1,67.6
		s-196.78,60.36-252.31,59.15c-55.53-1.21-58.5,25.35-58.5,25.35h698.33L1865.87,1263.88z"/>
	
		<linearGradient id="SVGID_30_" gradientUnits="userSpaceOnUse" x1="2008.0708" y1="1645.7443" x2="2008.0708" y2="973.2233" gradientTransform="matrix(-1 0 0 1 2832.4722 0)">
		<stop  offset="0" style="stop-color:#DBDBE6"/>
		<stop  offset="1" style="stop-color:#FFFFFF"/>
	</linearGradient>
	<path class="st32" d="M383.22,1240.96c8.01,0.24,103.49,3.39,223.93,16.59c3.64,0.4,7.3,0.81,11.01,1.24
		c93.52,10.61,200.6,27.28,293.04,53.24c3.69,1.02,7.35,2.07,10.99,3.13c28.6,8.39,55.65,17.68,80.27,28.01
		c89.15,37.42,146.53,88.26,130.77,157.33c-22.87,100.16-140.91,208.67-293.78,311.54h266.5
		c68.56-74.05,123.23-152.45,147.17-229.85c35.33-114.24-6.5-189.32-98.18-239.03c-59.23-32.16-139.27-53.73-232.74-68.45
		c-3.64-0.58-7.3-1.13-10.99-1.68c-88.21-13.27-187.89-20.68-293.04-25.3c-3.66-0.17-7.33-0.32-11.01-0.47
		C534.35,1244.2,459.04,1242.43,383.22,1240.96z"/>
	<path class="st31" d="M1275.39,1226.46c0,0-56.13,17.2-94.16-13.13c-38.03-30.33-132.19-27.62-173.84,0s-92.35,12.09-117.7-1.88
		c-25.35-13.97-74.24-9.95-135.81,4.34c-61.57,14.29-61.57-6.21-123.14-4.34c-61.57,1.88-248.08,29.49-248.08,29.49h918.09
		L1275.39,1226.46z"/>
	<path class="st31" d="M611.49,1240.94c0,0-69.96-55.64-106.28-40.25c-36.32,15.39-69.34,34.6-94.1,18.78
		c-24.76-15.82-64.39-17.21-75.94-3.2c-11.56,14.01-52.91,5.65-74.52,3.2c-58.17-6.61-81.49,21.47-81.49,21.47H611.49z"/>
	<path class="st33" d="M1133.18,1812.04h714.01v-78.84c0,0-34.16-62.21-90.17-75.69c-13.18-3.17-27.6-3.66-43.04,0
		c-10.27,2.43-21.02,6.71-32.2,13.25c-99.27,58.08-184.5-13.14-251.87,71.35c-67.41,84.53-138.35-26.9-257.68,42.38
		C1156.33,1793.7,1143.57,1802.92,1133.18,1812.04z"/>
	<circle class="st11" cx="811.26" cy="558.02" r="6.32"/>
	<path class="st11" d="M518.47,914.8c0,3.49,2.83,6.32,6.32,6.32c3.49,0,6.32-2.83,6.32-6.32c0-3.49-2.83-6.32-6.32-6.32
		C521.3,908.48,518.47,911.31,518.47,914.8z"/>
	<path class="st11" d="M941.74,404.57c0,3.49,2.83,6.32,6.32,6.32c3.49,0,6.32-2.83,6.32-6.32s-2.83-6.32-6.32-6.32
		C944.57,398.25,941.74,401.08,941.74,404.57z"/>
	<path class="st11" d="M896.25,714.83c0,6.59,5.35,11.94,11.94,11.94c6.59,0,11.94-5.35,11.94-11.94c0-6.6-5.35-11.94-11.94-11.94
		C901.59,702.89,896.25,708.24,896.25,714.83z"/>
	<path class="st11" d="M1491.9,216.81c0,5.46,4.42,9.88,9.88,9.88c5.46,0,9.88-4.42,9.88-9.88c0-5.46-4.42-9.88-9.88-9.88
		C1496.32,206.93,1491.9,211.35,1491.9,216.81z"/>
	<path class="st11" d="M846.54,332c0.58,2.44,3.04,3.94,5.47,3.35c2.44-0.58,3.94-3.04,3.35-5.47c-0.58-2.44-3.03-3.94-5.47-3.35
		C847.46,327.12,845.96,329.57,846.54,332z"/>
	<path class="st11" d="M991.73,514.7c1.25,5.19,6.46,8.38,11.65,7.14c5.19-1.25,8.38-6.46,7.14-11.65
		c-1.25-5.19-6.46-8.38-11.65-7.14C993.68,504.29,990.48,509.51,991.73,514.7z"/>
	<path class="st11" d="M901.87,216.81c0,3.49,2.83,6.32,6.32,6.32c3.49,0,6.32-2.83,6.32-6.32c0-3.49-2.83-6.32-6.32-6.32
		C904.7,210.49,901.87,213.32,901.87,216.81z"/>
	<path class="st11" d="M822.88,98.42c0.59,2.44,3.04,3.94,5.47,3.35c2.44-0.58,3.94-3.03,3.35-5.47c-0.58-2.44-3.03-3.94-5.47-3.35
		C823.8,93.54,822.29,95.99,822.88,98.42z"/>
	<path class="st11" d="M996.7,849.61c0.58,2.44,3.03,3.94,5.47,3.35c2.44-0.58,3.94-3.04,3.35-5.47c-0.58-2.44-3.04-3.94-5.47-3.35
		C997.62,844.72,996.12,847.17,996.7,849.61z"/>
	<path class="st11" d="M1064.06,99.62c1.25,5.19,6.46,8.38,11.65,7.14c5.19-1.25,8.38-6.46,7.14-11.65
		c-1.25-5.19-6.46-8.38-11.65-7.14C1066.01,89.22,1062.81,94.43,1064.06,99.62z"/>
	<path class="st11" d="M615.53,738.71c0,6.59,5.35,11.94,11.94,11.94c6.59,0,11.94-5.35,11.94-11.94c0-6.59-5.35-11.94-11.94-11.94
		C620.88,726.77,615.53,732.12,615.53,738.71z"/>
	<circle class="st11" cx="1183.2" cy="289.16" r="11.94"/>
	<path class="st11" d="M661.5,109.31c0,6.59,5.35,11.94,11.94,11.94c6.59,0,11.94-5.35,11.94-11.94c0-6.59-5.35-11.94-11.94-11.94
		C666.85,97.36,661.5,102.71,661.5,109.31z"/>
	<path class="st11" d="M696.47,399.31c0.58,2.44,3.04,3.94,5.47,3.35c2.44-0.59,3.94-3.04,3.35-5.47c-0.58-2.44-3.03-3.94-5.47-3.35
		C697.38,394.42,695.88,396.87,696.47,399.31z"/>
	<path class="st11" d="M394.24,849.61c0.59,2.44,3.04,3.94,5.47,3.35c2.44-0.58,3.94-3.04,3.35-5.47c-0.59-2.44-3.04-3.94-5.47-3.35
		C395.15,844.72,393.65,847.17,394.24,849.61z"/>
	<path class="st11" d="M1521.29,653.04c0.58,2.44,3.04,3.94,5.47,3.35c2.44-0.58,3.94-3.04,3.35-5.47
		c-0.59-2.44-3.04-3.94-5.47-3.35C1522.21,648.16,1520.71,650.61,1521.29,653.04z"/>
	<path class="st11" d="M170.2,807.12c0.59,2.44,3.04,3.94,5.47,3.35c2.44-0.59,3.94-3.04,3.35-5.47c-0.59-2.44-3.04-3.94-5.47-3.35
		C171.12,802.24,169.62,804.69,170.2,807.12z"/>
	<path class="st11" d="M1223.04,689.87c0,6.59,5.35,11.94,11.94,11.94c6.59,0,11.94-5.35,11.94-11.94c0-6.6-5.35-11.94-11.94-11.94
		C1228.39,677.93,1223.04,683.28,1223.04,689.87z"/>
	<path class="st11" d="M1218.63,467.04c0.58,2.44,3.04,3.94,5.47,3.35c2.44-0.59,3.94-3.04,3.35-5.47
		c-0.58-2.44-3.04-3.94-5.47-3.35C1219.55,462.16,1218.04,464.61,1218.63,467.04z"/>
	<polygon class="st31" points="2.37,2.41 2.37,1812.04 2830.1,1812.04 2830.1,2.41 1651.43,2.41 1651.43,1343.17 1358.41,1343.17 
		1358.41,2.41 1347.42,2.41 1347.42,1343.17 1054.36,1343.17 1054.36,2.41 1043.37,2.41 1043.37,1343.17 750.32,1343.17 
		750.32,2.41 739.32,2.41 739.32,1343.17 446.3,1343.17 446.3,2.41 435.31,2.41 435.31,1343.17 142.29,1343.17 142.29,2.41 
		131.26,2.41 131.26,1343.17 51.76,1343.17 51.76,2.41 	"/>
	<g>
		
			<rect x="1273.09" y="2.43" transform="matrix(-1 -4.479007e-11 4.479007e-11 -1 2550.6929 529.9112)" class="st34" width="4.51" height="525.05"/>
		<path class="st34" d="M1440.17,575.62c0,0-80.55-67.01-164.82-67.01s-164.82,67.01-164.82,67.01H1440.17z"/>
	</g>
	<g>
		
			<rect x="1819.62" y="2.43" transform="matrix(-1 -4.478075e-11 4.478075e-11 -1 3643.7583 529.9112)" class="st34" width="4.51" height="525.05"/>
		<path class="st34" d="M1986.7,575.62c0,0-80.55-67.01-164.82-67.01c-84.27,0-164.82,67.01-164.82,67.01H1986.7z"/>
	</g>
	<g>
		
			<linearGradient id="SVGID_31_" gradientUnits="userSpaceOnUse" x1="3105.3062" y1="-884.5303" x2="3430.5837" y2="-884.5303" gradientTransform="matrix(-0.9184 0.3957 0.3957 0.9184 5225.7158 229.3455)">
			<stop  offset="0" style="stop-color:#FF9F55"/>
			<stop  offset="1" style="stop-color:#FFD255"/>
		</linearGradient>
		<path class="st35" d="M1713.28,747.13l11.78,27.35l11.78,27.35l26.79-5.66c8.09,10.43,17.52,19.51,27.92,27.11l-4.91,26.97
			l27.67,11.01l27.67,11l14.96-22.97c12.78,1.62,25.87,1.49,38.91-0.53l15.59,22.52l27.35-11.78l27.35-11.78l-5.66-26.8
			c10.43-8.09,19.51-17.52,27.11-27.91l26.97,4.91l11-27.67l11-27.67l-22.97-14.96c1.62-12.78,1.49-25.87-0.53-38.91l22.52-15.59
			l-11.78-27.35l-11.78-27.35l-26.8,5.66c-8.09-10.43-17.52-19.51-27.92-27.11l4.91-26.97l-27.67-11l-27.67-11l-14.96,22.97
			c-12.78-1.62-25.87-1.49-38.91,0.53l-15.59-22.52l-27.35,11.78l-27.35,11.78l5.66,26.8c-10.43,8.09-19.51,17.52-27.11,27.91
			l-26.97-4.91l-11,27.67l-11,27.67l22.97,14.96c-1.62,12.78-1.49,25.87,0.53,38.91L1713.28,747.13z M1778.6,751.41
			c-22.8-52.92,1.61-114.31,54.53-137.11c52.92-22.8,114.31,1.61,137.11,54.53c22.8,52.92-1.61,114.31-54.53,137.11
			C1862.8,828.75,1801.41,804.33,1778.6,751.41z"/>
	</g>
	<g>
		<polygon class="st36" points="2515.12,759.94 2520.61,759.94 2503.87,726.1 2498.38,726.1 		"/>
		
			<rect x="2426.02" y="756.84" transform="matrix(-1 -4.489754e-11 4.489754e-11 -1 5117.646 1517.8936)" class="st36" width="265.61" height="4.21"/>
		
			<rect x="2549.74" y="770.49" transform="matrix(-1 -4.489576e-11 4.489576e-11 -1 5241.3711 1565.3438)" class="st36" width="141.89" height="24.36"/>
		
			<rect x="2446.68" y="712.71" transform="matrix(-1 -4.490287e-11 4.490287e-11 -1 4967.2905 1438.8116)" class="st36" width="73.93" height="13.39"/>
		
			<rect x="2446.68" y="706.46" transform="matrix(-1 -4.490287e-11 4.490287e-11 -1 4967.2905 1415.4385)" class="st36" width="73.93" height="2.52"/>
	</g>
	<g class="st37">
		
			<rect x="1107.51" y="872.91" transform="matrix(-1 -4.489443e-11 4.489443e-11 -1 2297.8823 1752.0117)" class="st36" width="82.86" height="6.19"/>
		
			<rect x="1107.51" y="881.8" transform="matrix(-1 -4.489443e-11 4.489443e-11 -1 2297.8823 1780.3615)" class="st36" width="82.86" height="16.75"/>
		<polygon class="st36" points="1176.58,743.02 1176.58,799.05 1313.94,799.05 1313.94,808.89 1176.58,808.89 1176.58,817.6 
			1313.94,817.6 1313.94,859 1176.58,859 1173.49,859 1170.4,859 1170.4,743.02 		"/>
	</g>
	<g>
		
			<linearGradient id="SVGID_32_" gradientUnits="userSpaceOnUse" x1="3307.3848" y1="-1144.4868" x2="3456.5063" y2="-1144.4868" gradientTransform="matrix(-0.9184 0.3957 0.3957 0.9184 5225.7158 229.3455)">
			<stop  offset="0" style="stop-color:#FF9F55"/>
			<stop  offset="1" style="stop-color:#FFD255"/>
		</linearGradient>
		<path class="st38" d="M1592.99,533.46l5.4,12.54l5.4,12.54l12.29-2.6c3.71,4.78,8.03,8.94,12.8,12.43l-2.25,12.36l12.68,5.05
			l12.69,5.04l6.86-10.53c5.86,0.74,11.86,0.69,17.84-0.24l7.15,10.32l12.54-5.4l12.54-5.4l-2.6-12.29
			c4.78-3.71,8.94-8.03,12.43-12.8l12.36,2.25l5.04-12.68l5.04-12.69l-10.53-6.86c0.74-5.86,0.68-11.86-0.24-17.84l10.32-7.15
			l-5.4-12.54l-5.4-12.54l-12.28,2.6c-3.71-4.78-8.03-8.94-12.8-12.43l2.25-12.36l-12.68-5.04l-12.68-5.05l-6.86,10.53
			c-5.86-0.74-11.86-0.68-17.84,0.24l-7.15-10.32l-12.54,5.4l-12.54,5.4l2.6,12.28c-4.78,3.71-8.94,8.03-12.43,12.8l-12.36-2.25
			l-5.05,12.68l-5.04,12.68l10.53,6.86c-0.74,5.86-0.68,11.86,0.24,17.84L1592.99,533.46z M1622.93,535.41
			c-10.45-24.26,0.74-52.4,25-62.86c24.26-10.45,52.4,0.74,62.86,25c10.45,24.26-0.74,52.4-25,62.86
			C1661.53,570.87,1633.39,559.68,1622.93,535.41z"/>
	</g>
	<g>
		<g>
			<path class="st39" d="M2026.82,466.62h126.26c5.34,0,9.66-4.33,9.66-9.66v-19.5c0-5.34-4.33-9.66-9.66-9.66h-126.26
				c-5.34,0-9.66,4.33-9.66,9.66v19.5C2017.16,462.29,2021.48,466.62,2026.82,466.62z"/>
		</g>
	</g>
	<g>
		<g>
			<path class="st39" d="M2026.82,539.31h126.26c5.34,0,9.66-4.33,9.66-9.66v-19.5c0-5.34-4.33-9.66-9.66-9.66h-126.26
				c-5.34,0-9.66,4.33-9.66,9.66v19.5C2017.16,534.98,2021.48,539.31,2026.82,539.31z"/>
		</g>
	</g>
	<g>
		<g>
			<path class="st39" d="M2026.82,611.99h126.26c5.34,0,9.66-4.33,9.66-9.66v-19.5c0-5.34-4.32-9.66-9.66-9.66h-126.26
				c-5.34,0-9.66,4.33-9.66,9.66v19.5C2017.16,607.66,2021.48,611.99,2026.82,611.99z"/>
		</g>
	</g>
	<g>
		<g>
			<g>
				<path class="st39" d="M2363.94,617.72c87.13,31.16,181.05,3.04,237.65-63.51c13.5-15.86,24.87-33.9,33.53-53.84
					c1.91-4.4,3.69-8.91,5.32-13.48c16.47-46.04,16.38-93.98,2.82-137.31c-19.57-62.52-67.21-115.43-133.64-139.19
					c-21.94-7.84-44.29-11.93-66.37-12.59c-91.21-2.74-177.74,52.87-210.13,143.42C2192.9,453.69,2251.46,577.48,2363.94,617.72z
					 M2284.09,359.43c24.28-67.89,89.17-109.59,157.54-107.53c16.56,0.5,33.32,3.56,49.76,9.45
					c49.81,17.81,85.52,57.48,100.19,104.36c10.17,32.48,10.24,68.42-2.11,102.94c-1.23,3.44-2.57,6.81-4,10.11
					c-6.49,14.96-15.02,28.48-25.13,40.37c-42.44,49.88-112.85,70.97-178.17,47.6C2297.84,536.58,2253.93,443.77,2284.09,359.43z"/>
			</g>
		</g>
		<g>
			<g>
				<path class="st40" d="M2591.58,365.71l51.68-16.14c-19.57-62.52-67.21-115.43-133.64-139.19
					c-21.94-7.84-44.29-11.93-66.37-12.59l-1.62,54.12c16.56,0.5,33.32,3.56,49.76,9.45
					C2541.2,279.16,2576.91,318.84,2591.58,365.71z"/>
			</g>
		</g>
		<g>
			<g>
				<path class="st41" d="M2585.47,478.76l49.64,21.61c1.91-4.4,3.69-8.91,5.32-13.48c16.47-46.04,16.38-93.98,2.82-137.31
					l-51.68,16.14c10.17,32.48,10.24,68.42-2.11,102.94C2588.24,472.09,2586.91,475.46,2585.47,478.76z"/>
			</g>
		</g>
		<g>
			<g>
				<path class="st42" d="M2601.59,554.21c13.5-15.86,24.87-33.9,33.53-53.84l-49.64-21.61c-6.49,14.96-15.02,28.48-25.13,40.37
					L2601.59,554.21z"/>
			</g>
		</g>
	</g>
	<g>
		<g>
			<g>
				
					<linearGradient id="SVGID_33_" gradientUnits="userSpaceOnUse" x1="1260.9188" y1="850.0443" x2="1282.4552" y2="916.4045" gradientTransform="matrix(-1 0 0 1 2832.4722 0)">
					<stop  offset="0" style="stop-color:#FF9F55"/>
					<stop  offset="1" style="stop-color:#FFD255"/>
				</linearGradient>
				<path class="st43" d="M1573.82,924.13l48.58-42.35c3.98-3.47,4.4-9.52,0.92-13.5c-3.47-3.98-9.52-4.4-13.5-0.93l-34.35,29.95
					l-48.99-54.64c-3.53-3.94-9.58-4.26-13.51-0.74c-3.93,3.53-4.26,9.58-0.74,13.51L1573.82,924.13z"/>
			</g>
		</g>
	</g>
	<g>
		<g>
			
				<linearGradient id="SVGID_34_" gradientUnits="userSpaceOnUse" x1="1375.5472" y1="622.3048" x2="1416.1521" y2="747.4206" gradientTransform="matrix(-1 0 0 1 2832.4722 0)">
				<stop  offset="0" style="stop-color:#FF9F55"/>
				<stop  offset="1" style="stop-color:#FFD255"/>
			</linearGradient>
			<path class="st44" d="M1436.62,753.56c4.79,0,8.68-3.89,8.68-8.68V624.84c0-4.79-3.88-8.68-8.68-8.68
				c-4.79,0-8.68,3.89-8.68,8.68v120.04C1427.94,749.68,1431.83,753.56,1436.62,753.56z"/>
		</g>
		<g>
			
				<linearGradient id="SVGID_35_" gradientUnits="userSpaceOnUse" x1="1387.4498" y1="658.9829" x2="1404.2482" y2="710.7437" gradientTransform="matrix(-1 0 0 1 2832.4722 0)">
				<stop  offset="0" style="stop-color:#FF9F55"/>
				<stop  offset="1" style="stop-color:#FFD255"/>
			</linearGradient>
			<path class="st45" d="M1376.6,693.54h120.04c4.79,0,8.68-3.89,8.68-8.68c0-4.79-3.89-8.68-8.68-8.68H1376.6
				c-4.79,0-8.68,3.89-8.68,8.68C1367.92,689.66,1371.81,693.54,1376.6,693.54z"/>
		</g>
	</g>
	<g>
		
			<linearGradient id="SVGID_36_" gradientUnits="userSpaceOnUse" x1="489.2009" y1="1708.577" x2="489.2009" y2="1552.3723" gradientTransform="matrix(-1 0 0 1 2832.4722 0)">
			<stop  offset="0" style="stop-color:#FF9F55"/>
			<stop  offset="1" style="stop-color:#FFD255"/>
		</linearGradient>
		<path class="st46" d="M2047.73,1721.5h550.89c22.2,0,40.2-18,40.2-40.2v-65.25c0-22.2-18-40.2-40.2-40.2h-550.89V1721.5z"/>
		<path class="st47" d="M1953.12,1590.85v115.67h-9.66v14.99h399.3c22.2,0,40.2-18,40.2-40.2v-65.25c0-22.2-18-40.2-40.2-40.2
			h-399.3v14.99H1953.12z"/>
		<path class="st48" d="M1953.13,1706.51h360.16c22.2,0,40.2-18,40.2-40.2v-35.27c0-22.2-18-40.2-40.2-40.2h-360.16V1706.51z"/>
		
			<linearGradient id="SVGID_37_" gradientUnits="userSpaceOnUse" x1="483.6886" y1="1356.3724" x2="483.6886" y2="1572.6104" gradientTransform="matrix(-1 0 0 1 2832.4722 0)">
			<stop  offset="0" style="stop-color:#40D5E6"/>
			<stop  offset="1" style="stop-color:#5577FF"/>
		</linearGradient>
		<path class="st49" d="M2021.99,1575.84h603.08c27.89,0,50.51-22.61,50.51-50.51v-68.37c0-27.89-22.61-50.51-50.51-50.51h-603.08
			V1575.84z"/>
		<path class="st50" d="M1915.02,1423.9v134.51h-8.32v17.44h328c27.89,0,50.51-22.61,50.51-50.51v-68.37
			c0-27.89-22.61-50.51-50.51-50.51h-328v17.44H1915.02z"/>
		<path class="st48" d="M1915.02,1558.41h294.29c27.89,0,50.51-22.61,50.51-50.51v-33.5c0-27.89-22.61-50.51-50.51-50.51h-294.29
			V1558.41z"/>
		
			<linearGradient id="SVGID_38_" gradientUnits="userSpaceOnUse" x1="632.5041" y1="1366.7471" x2="632.5041" y2="1205.0828" gradientTransform="matrix(-1 0 0 1 2832.4722 0)">
			<stop  offset="0" style="stop-color:#FF9F55"/>
			<stop  offset="1" style="stop-color:#FFD255"/>
		</linearGradient>
		<path class="st51" d="M2456.48,1406.43h-458.37c-30.19,0-54.66-24.47-54.66-54.66v-98.34c0-30.19,24.47-54.66,54.66-54.66h458.37
			V1406.43z"/>
		<path class="st47" d="M2538.6,1220.15v164.92h8.39v21.38h-326.8c-30.19,0-54.66-24.47-54.66-54.66v-98.35
			c0-30.19,24.47-54.66,54.66-54.66h326.8v21.38H2538.6z"/>
		<path class="st48" d="M2538.59,1385.06H2249.6c-30.01,0-54.33-24.32-54.33-54.33v-56.25c0-30.01,24.33-54.33,54.33-54.33h288.99
			V1385.06z"/>
		
			<linearGradient id="SVGID_39_" gradientUnits="userSpaceOnUse" x1="447.4826" y1="932.0887" x2="447.4826" y2="1113.7073" gradientTransform="matrix(-1 0 0 1 2832.4722 0)">
			<stop  offset="0" style="stop-color:#40D5E6"/>
			<stop  offset="1" style="stop-color:#5577FF"/>
		</linearGradient>
		<path class="st52" d="M2113.24,1198.72h486.03c31.74,0,57.46-25.73,57.46-57.46v-92.74c0-31.74-25.73-57.46-57.46-57.46h-486.03
			V1198.72z"/>
		<path class="st50" d="M2026.25,1012.44v164.92h-8.88v21.38h346.65c31.74,0,57.46-25.73,57.46-57.46v-92.74
			c0-31.74-25.73-57.46-57.46-57.46h-346.65v21.37H2026.25z"/>
		<path class="st48" d="M2026.26,1177.34h307.83c31.6,0,57.22-25.62,57.22-57.22v-50.47c0-31.6-25.62-57.22-57.22-57.22h-307.83
			V1177.34z"/>
		
			<linearGradient id="SVGID_40_" gradientUnits="userSpaceOnUse" x1="584.5656" y1="842.5356" x2="584.5656" y2="987.8026" gradientTransform="matrix(-1 0 0 1 2832.4722 0)">
			<stop  offset="0" style="stop-color:#40D5E6"/>
			<stop  offset="1" style="stop-color:#5577FF"/>
		</linearGradient>
		<path class="st53" d="M1976.16,991h507.83c19.7,0,35.67-15.97,35.67-35.67v-85.82c0-19.7-15.97-35.67-35.67-35.67h-507.83V991z"/>
		<path class="st50" d="M1889.17,850.03v124.8h-8.88v16.18h368.45c19.7,0,35.67-15.97,35.67-35.67v-85.82
			c0-19.7-15.97-35.67-35.67-35.67h-368.45v16.18H1889.17z"/>
		<path class="st48" d="M1889.17,974.82h332.45c19.7,0,35.67-15.97,35.67-35.67v-53.47c0-19.7-15.97-35.67-35.67-35.67h-332.45
			V974.82z"/>
	</g>
	<g>
		<g>
			<path class="st54" d="M1150.22,1159.54l511.54,2.63c21.29,0.11,38.64-17.06,38.75-38.35l1.73-336.71
				c0.11-21.29-17.06-38.64-38.35-38.75l-511.54-2.63c-21.29-0.11-38.64,17.06-38.75,38.35l-1.74,336.71
				C1111.76,1142.08,1128.93,1159.43,1150.22,1159.54z"/>
			
				<rect x="1335.29" y="741.11" transform="matrix(-1 -5.150412e-03 5.150412e-03 -1 2810.198 1521.8629)" class="st55" width="143.54" height="32.41"/>
			<g>
				<g>
					<path class="st11" d="M1550.46,828.73c0,0-0.16,94.06,10.05,131.75l22.12,14l78.23,0.4c-14.66-39.63-14.46-145.66-14.46-145.66
						L1550.46,828.73z"/>
					<polygon class="st56" points="1582.63,974.49 1582.7,960.28 1560.52,960.17 					"/>
				</g>
			</g>
			<g>
				<g>
					<path class="st11" d="M1455.87,805.57c0,0-0.11,65.07,6.96,91.15l15.3,9.69l54.12,0.28c-10.14-27.41-10-100.77-10-100.77
						L1455.87,805.57z"/>
					<polygon class="st56" points="1478.13,906.4 1478.18,896.57 1462.83,896.5 					"/>
				</g>
			</g>
			<g>
				<g>
					<path class="st11" d="M1323.13,822.21c0,0-0.15,89.13,9.53,124.86l20.96,13.27l74.13,0.38
						c-13.89-37.55-13.7-138.04-13.7-138.04L1323.13,822.21z"/>
					<polygon class="st56" points="1353.62,960.34 1353.69,946.87 1332.66,946.77 					"/>
				</g>
			</g>
			<g>
				<g>
					<path class="st11" d="M1228.57,935.69c0,0-0.1,60.21,6.43,84.34l14.16,8.96l50.07,0.26c-9.38-25.36-9.25-93.24-9.25-93.24
						L1228.57,935.69z"/>
					<polygon class="st56" points="1249.16,1028.99 1249.21,1019.9 1235.01,1019.82 					"/>
				</g>
			</g>
			<g>
				<g>
					<path class="st11" d="M1228.57,812.22c0,0-0.1,60.21,6.43,84.33l14.16,8.96l50.07,0.26c-9.38-25.37-9.25-93.24-9.25-93.24
						L1228.57,812.22z"/>
					<polygon class="st56" points="1249.16,905.52 1249.21,896.42 1235.01,896.35 					"/>
				</g>
			</g>
			<g>
				<g>
					<path class="st11" d="M1150.8,871.69c0,0-0.08,46.22,4.94,64.75l10.87,6.88l38.44,0.2c-7.2-19.47-7.1-71.59-7.1-71.59
						L1150.8,871.69z"/>
					<polygon class="st56" points="1166.61,943.32 1166.65,936.34 1155.74,936.29 					"/>
				</g>
			</g>
			<g>
				<g>
					<path class="st11" d="M1459.28,947.14c0,0-0.06,47.98,5.89,67.22l12.85,7.15l45.42,0.23c-8.53-20.22-8.45-74.31-8.45-74.31
						L1459.28,947.14z"/>
					<polygon class="st56" points="1478.01,1021.51 1478.05,1014.26 1465.17,1014.2 					"/>
				</g>
			</g>
			<g>
				<g>
					<rect x="1520.34" y="1058.65" class="st11" width="136.84" height="7.11"/>
				</g>
				<g>
					<rect x="1499.38" y="1108" class="st11" width="157.81" height="7.11"/>
				</g>
				<g>
					<rect x="1559.98" y="1083.33" class="st11" width="97.2" height="7.11"/>
				</g>
			</g>
		</g>
		<g>
			<g>
				
					<rect x="1617.33" y="1268.5" transform="matrix(-1 -4.489488e-11 4.489488e-11 -1 3392.1929 2546.3486)" class="st57" width="157.53" height="9.35"/>
			</g>
			<g>
				<rect x="1739.95" y="1302.19" class="st55" width="13.8" height="425.27"/>
			</g>
			<g>
				
					<rect x="1532.49" y="1265.85" transform="matrix(-1 -4.488644e-11 4.488644e-11 -1 3174.4751 2545.0498)" class="st58" width="109.5" height="13.35"/>
			</g>
			<g>
				
					<rect x="1566.5" y="1151.91" transform="matrix(-1 -4.492108e-11 4.492108e-11 -1 3174.4741 2429.7578)" class="st57" width="41.46" height="125.94"/>
			</g>
			<g>
				
					<rect x="1224.68" y="1278.01" transform="matrix(-1 -4.489887e-11 4.489887e-11 -1 3056.0542 2580.1934)" class="st59" width="606.69" height="24.18"/>
			</g>
			<g>
				<path class="st60" d="M1947.81,1131.65c0,0,6.64,93.05-11.54,104.19c-11.39,6.98-56.8,30.51-55.46,34.92
					c1.35,4.41,25.64,39.26,25.64,39.26s87.23-57.44,90.04-75.55c2.75-17.69-4.29-136.25-16.28-141.71
					c-8.98-4.09-13.72-0.71-25.04,7.69C1939.29,1112.25,1947.81,1131.65,1947.81,1131.65z"/>
			</g>
			<g>
				<g>
					<g>
						<path class="st61" d="M1788.83,1158.22l-7.69-2.84c0,0,9.59-22.51,13.77-21.96c4.82,0.63,10.84,2.22,10.84,2.22
							L1788.83,1158.22z"/>
					</g>
				</g>
			</g>
			<g>
				<g>
					<g>
						<path class="st62" d="M1787.07,1162.1c0.98-0.73,16.34-30.2,16.34-30.2l32.82,4.46l-17.73,34.9L1787.07,1162.1z"/>
					</g>
				</g>
			</g>
			<g>
				<g>
					<g>
						<path class="st63" d="M1840.48,1669.39c0,0,2.71,18.83,3.05,21.66c0.34,2.83,30.18-1.67,30.18-1.67l2.42-22.42
							C1876.13,1666.97,1844.21,1666.74,1840.48,1669.39z"/>
					</g>
				</g>
			</g>
			<g>
				<g>
					<g>
						<path class="st64" d="M1843.22,1688.66c0,0-9.45,11.35-18.6,16.29c-9.14,4.94-23.51,6.9-28.92,12.02
							c-3.9,3.7-14.21,19.6,23.76,19.28c37.97-0.32,56.28,2.25,60.35-3.85c4.07-6.1-5.89-45.02-5.89-45.02
							S1864.93,1690.62,1843.22,1688.66z"/>
					</g>
				</g>
			</g>
			<g>
				<g>
					<g>
						<path class="st63" d="M1649.33,1669.57c0,0,2.71,18.83,3.05,21.66s30.18-1.67,30.18-1.67l2.42-22.42
							C1684.97,1667.15,1653.06,1666.92,1649.33,1669.57z"/>
					</g>
				</g>
			</g>
			<g>
				<g>
					<g>
						<path class="st64" d="M1652.06,1688.83c0,0-9.45,11.34-18.6,16.29c-9.14,4.95-42.79,9.01-48.2,14.13
							c-3.9,3.69-10.39,18.57,43.04,17.18c37.96-0.99,56.28,2.25,60.35-3.85c4.07-6.1-5.89-45.02-5.89-45.02
							S1674.3,1691.01,1652.06,1688.83z"/>
					</g>
				</g>
			</g>
			<g>
				<g>
					<g>
						<path class="st64" d="M1936.72,1344.16c0,0-108.47,18.35-132.97,22.2c-24.5,3.85-157.34,36.9-173.95,46.98
							c-13.22,8.02,6.94,200.58,11.65,274.04h52.32l3.79-220.38c62.79,1.57,107.59-14.69,153.31-7.74
							c45.72,6.94,83.84,16.81,112.89-22.16C1963.76,1437.1,1964.84,1352.67,1936.72,1344.16z"/>
					</g>
				</g>
			</g>
			<g>
				<g>
					<g>
						<path class="st64" d="M1829.8,1687.56l50.99-3.15l4.97-217.4c27.03,0.67,36.29-1.04,58.17-3.69l41.17-95.69
							c-36.08,7.21-151.68,36.37-167.09,45.72C1804.78,1421.36,1825.09,1614.09,1829.8,1687.56z"/>
					</g>
				</g>
			</g>
			<g>
				<g>
					<g>
						<path class="st65" d="M1886.78,937.57c0,0-39.76-10.99-54.93,19.88c-15.17,30.87-8.29,89.39,11.75,94.89
							c20.04,5.51,48.86-0.83,57.18-20.05c8.32-19.21,14.96-46.51,12.96-64.19S1897.34,941.79,1886.78,937.57z"/>
					</g>
				</g>
			</g>
			<g>
				<g>
					<g>
						<path class="st65" d="M1853.99,1046.18c0,0,0.44,23.48-2.15,28.48c-2.59,5,55.37,3.75,55.37,3.75s-9.13-28.19-3.95-52.21
							C1908.38,1002.43,1853.99,1046.18,1853.99,1046.18z"/>
					</g>
				</g>
			</g>
			<g>
				<g>
					<g>
						<path class="st66" d="M1906.38,1017.31c0,0-3.1,6.3-18.1,5.28c-15-1.02-34.79-19.12-41.16-20.73
							c-6.37-1.62-6.75-5.24-6.75-5.24l-3.37,5.99l-6.53,0.99c0,0,1.32-14.97-5.23-24.53c-2.87-4.19,4.35-57.83,53.27-45.42
							c0,0,37.33,6.84,37.83,27.68C1916.85,982.19,1913.62,1006.27,1906.38,1017.31z"/>
					</g>
				</g>
			</g>
			<g>
				<g>
					<g>
						<path class="st67" d="M1848.79,1074.06c0,0,0.16-9.56,4.5-10.48c4.33-0.92,45.56-6.59,50.88-4.5l2.28,12.63
							C1906.45,1071.71,1896.2,1078.01,1848.79,1074.06z"/>
					</g>
				</g>
			</g>
			<g>
				<g>
					<g>
						<path class="st65" d="M1836.86,992.34c1.11-7.84,10.02-16.84,15.13-4.63c5.1,12.21-3.45,29.98-9.17,29.03
							C1837.09,1015.79,1835.35,1002.98,1836.86,992.34z"/>
					</g>
				</g>
			</g>
			<g>
				<g>
					<g>
						<path class="st68" d="M1676.12,1187.03c0.02-0.01,0.04-0.01,0.07,0C1675.89,1187.16,1675.85,1187.17,1676.12,1187.03z"/>
					</g>
				</g>
			</g>
			<g>
				<g>
					<g>
						<path class="st66" d="M1898.38,943.16c0,0,48.48-2.28,8.46,73.4L1898.38,943.16z"/>
					</g>
				</g>
			</g>
			<g>
				<g>
					<polygon class="st69" points="2006.41,1713.35 2002.8,1723.49 1850.41,1676.28 1857.71,1655.73 					"/>
				</g>
			</g>
			<g>
				<g>
					
						<rect x="1845.18" y="1503.37" transform="matrix(-1 -4.484114e-11 4.484114e-11 -1 3707.686 3172.415)" class="st69" width="17.32" height="165.68"/>
				</g>
			</g>
			<g>
				<g>
					
						<rect x="1802.76" y="1494.57" transform="matrix(-1 -4.488821e-11 4.488821e-11 -1 3707.687 2998.8926)" class="st70" width="102.16" height="9.76"/>
				</g>
			</g>
			<g>
				<g>
					<polygon class="st69" points="1699.94,1713.35 1703.55,1723.49 1855.94,1676.28 1849.24,1654.44 					"/>
				</g>
			</g>
			<g>
				<g>
					<polygon class="st69" points="1807.31,1722.41 1807.31,1734.21 1855.94,1676.28 1849.24,1654.44 					"/>
				</g>
			</g>
			<g>
				<g>
					<path class="st71" d="M1685.7,1727.46c0,7.87,6.38,14.24,14.24,14.24c7.86,0,14.24-6.38,14.24-14.24
						c0-7.87-6.38-14.24-14.24-14.24C1692.08,1713.22,1685.7,1719.59,1685.7,1727.46z"/>
				</g>
			</g>
			<g>
				<g>
					<path class="st71" d="M1806.1,1727.46c0,7.87,6.38,14.24,14.24,14.24s14.24-6.38,14.24-14.24c0-7.87-6.38-14.24-14.24-14.24
						S1806.1,1719.59,1806.1,1727.46z"/>
				</g>
			</g>
			<g>
				<g>
					<path class="st71" d="M1992.16,1727.46c0,7.87,6.38,14.24,14.24,14.24c7.86,0,14.24-6.38,14.24-14.24
						c0-7.87-6.38-14.24-14.24-14.24C1998.54,1713.22,1992.16,1719.59,1992.16,1727.46z"/>
				</g>
			</g>
			<g>
				<path class="st72" d="M1750.42,1494.57h205.51c10.08,0,18.25-8.17,18.25-18.26v-0.47c0-10.08-8.17-18.26-18.26-18.26h-205.51
					c-10.08,0-18.26,8.17-18.26,18.26v0.47C1732.16,1486.39,1740.34,1494.57,1750.42,1494.57z"/>
			</g>
			<g>
				
					<rect x="1302.31" y="1302.19" transform="matrix(-1 -4.493529e-11 4.493529e-11 -1 2618.4146 3029.6445)" class="st55" width="13.8" height="425.27"/>
			</g>
			<g>
				
					<linearGradient id="SVGID_41_" gradientUnits="userSpaceOnUse" x1="-6603.6929" y1="1086.2842" x2="-6245.6479" y2="1086.2842" gradientTransform="matrix(1 0 0 1 8011.9077 0)">
					<stop  offset="0" style="stop-color:#FF9F55"/>
					<stop  offset="1" style="stop-color:#FFD255"/>
				</linearGradient>
				<path class="st73" d="M1426.43,1212.58h321.62c10.06,0,18.21-8.15,18.21-18.21V978.2c0-10.06-8.15-18.21-18.21-18.21h-321.62
					c-10.06,0-18.21,8.15-18.21,18.21v216.16C1408.21,1204.42,1416.37,1212.58,1426.43,1212.58z"/>
			</g>
			<g>
				
					<rect x="1422.24" y="973.65" transform="matrix(-1 -4.489621e-11 4.489621e-11 -1 3174.4741 2146.6387)" class="st74" width="330" height="199.35"/>
			</g>
			<g>
				<path class="st75" d="M1513.12,1278.33v-4.49c0,0,6.32-27.96,51.01-27.96c44.7,0,43.79,32.45,43.79,32.45H1513.12z"/>
			</g>
			<g>
				<g>
					<path class="st65" d="M1608.47,1250.03c0,0-9.71-0.75-13.27-2.9c-3.56-2.15-24.84-16.46-29.84-14.17
						c-5,2.29-38.27,12.48-37.11,17.35c1.15,4.87,4.23,4.4,6.58,3.54s26.51-5.93,28.64-5.08c0,0-23.73,8.66-23.83,14.97
						c-0.1,6.32,4.97,7.86,7.22,10.25c2.25,2.39,4.95,8.32,11.07,8.78c6.12,0.46,35.96-9.93,42.1-10.4
						c6.14-0.47,17.51,0.38,18.28-0.62C1619.07,1270.74,1608.47,1250.03,1608.47,1250.03z"/>
				</g>
			</g>
			<g>
				<g>
					<g>
						<path class="st60" d="M1785.24,1087.31c30.96-5.44,63.55-13.25,63.55-13.25l57.66-2.35c0,0,52.92,11.65,73.76,21.06
							c1.98,0.89,1.99,47.21,7.41,59.35l-17.28,36.45c0,0-9.98,72.21-12.05,104.32c-0.95,14.74,2.69,142.48,2.69,142.48
							s-5.18,2.56-44.53,6.89c-39.35,4.34-137.68-1.57-138.29-6.21c-0.62-4.65,19.04-173.07,19.91-181.79
							c1.34-13.39-3.87-75.24-3.87-75.24c-7.41,9.96-26.32,54.94-46.02,76.33c-11.59,12.59-68.98,20.31-79.79,20.67
							c-23.55,0.79-66.5,5.47-67.76,3.18c-1-1.38-3.74-38.13-1.05-39.02c2.36-0.79,82.12-5.38,102.55-16.22
							c7.48-3.97,29.82-52.7,29.82-52.7S1768.16,1094.98,1785.24,1087.31z"/>
					</g>
				</g>
			</g>
			<g>
				<path class="st72" d="M1898.87,1431.69h96.8c19.36,0,35.05-15.69,35.05-35.05v-161.05c0-19.36-15.69-35.05-35.05-35.05h-96.8
					c-19.36,0-35.05,15.69-35.05,35.05v161.05C1863.82,1415.99,1879.51,1431.69,1898.87,1431.69z"/>
			</g>
			<g>
				<path class="st72" d="M1893.4,1485.36c24.6,0,44.56-8.26,59.32-24.56c33.36-36.83,27.37-101.59,27.1-104.33
					c-0.51-5.1-5.06-8.83-10.16-8.32c-5.1,0.51-8.83,5.05-8.33,10.15c0.07,0.74,5.39,59.43-22.42,90.07
					c-11.25,12.39-26.14,18.42-45.52,18.42c-5.13,0-9.29,4.16-9.29,9.29S1888.27,1485.36,1893.4,1485.36z"/>
			</g>
			<g>
				<g>
					<g>
						<path class="st76" d="M1634.79,1000.06h91.44c1.44,0,2.61-1.17,2.61-2.61v-5.31c0-1.44-1.17-2.61-2.61-2.61h-91.44
							c-1.44,0-2.61,1.17-2.61,2.61v5.31C1632.18,998.89,1633.34,1000.06,1634.79,1000.06z"/>
					</g>
				</g>
			</g>
			<g>
				<g>
					<g>
						<path class="st76" d="M1634.79,1022.65h91.44c1.44,0,2.61-1.17,2.61-2.61v-5.31c0-1.44-1.17-2.61-2.61-2.61h-91.45
							c-1.44,0-2.61,1.17-2.61,2.61v5.31C1632.18,1021.48,1633.34,1022.65,1634.79,1022.65z"/>
					</g>
				</g>
			</g>
			<g>
				<g>
					<g>
						<path class="st76" d="M1640.95,1157.12h79.11c4.85,0,8.78-3.93,8.78-8.78V1046.8c0-4.85-3.93-8.78-8.78-8.78h-79.11
							c-4.85,0-8.78,3.93-8.78,8.78v101.54C1632.18,1153.19,1636.11,1157.12,1640.95,1157.12z"/>
					</g>
				</g>
			</g>
			<g>
				<g>
					<g>
						<path class="st76" d="M1454.41,1157.12h144.35c7.67,0,13.9-6.22,13.9-13.9v-139.8c0-7.67-6.22-13.9-13.9-13.9h-144.35
							c-7.67,0-13.9,6.22-13.9,13.9v139.8C1440.52,1150.89,1446.74,1157.12,1454.41,1157.12z"/>
					</g>
				</g>
			</g>
		</g>
		<g>
			<path class="st77" d="M1299.14,1143.55c21.57,0,39.06-17.49,39.06-39.06c0-5.82-1.27-11.34-3.56-16.31
				c-6.18-13.43-19.75-22.75-35.5-22.75c-21.57,0-39.06,17.49-39.06,39.06c0,7.41,2.06,14.34,5.65,20.24
				C1272.57,1136.01,1284.98,1143.55,1299.14,1143.55z"/>
			<path class="st78" d="M1338.81,1140.05c15.09,0,27.33-12.24,27.33-27.33c0-0.87-0.04-1.73-0.12-2.58
				c-1.3-13.88-12.99-24.75-27.21-24.75c-15.09,0-27.33,12.24-27.33,27.33c0,9.57,4.92,17.99,12.37,22.88
				C1328.15,1138.41,1333.29,1140.05,1338.81,1140.05z"/>
			<path class="st79" d="M1298.5,1106.54c0,0-2.18,18.14-2.9,42.81c-0.72,24.67,18.87,24.67,18.87,24.67v90.38h13.6
				c0,0-0.32-92.18,6.45-99.6c6.77-7.42,6.77-42.57,6.77-42.57l-3.87-2.26c0,0,5.81,41.61-20.64,47.73
				c-26.45,6.13-16.45-59.35-16.45-59.35L1298.5,1106.54z"/>
			<path class="st80" d="M1289.47,1110.78c22.42-4.19,37.2-13.89,45.18-22.6c-6.18-13.43-19.75-22.75-35.5-22.75
				c-21.57,0-39.06,17.49-39.06,39.06c0,7.41,2.06,14.34,5.65,20.24C1266.8,1119.42,1272.61,1113.92,1289.47,1110.78z"/>
			<path class="st81" d="M1346.8,1120.21c9.06-2.61,15.2-6.2,19.23-10.08c-1.3-13.88-12.99-24.75-27.21-24.75
				c-15.09,0-27.33,12.24-27.33,27.33c0,9.57,4.92,17.99,12.37,22.88C1326.62,1130.35,1332.89,1124.22,1346.8,1120.21z"/>
			<polygon class="st82" points="1362.18,1222.39 1270.26,1222.39 1275,1239.45 1356.5,1239.45 			"/>
			<polygon class="st83" points="1350.7,1239.45 1282.48,1239.45 1291.96,1278.04 1344.07,1278.04 			"/>
			<path class="st81" d="M1341.29,1088.81l2.36,0.73c0,0,3.71-10.08,3.95-11.45C1347.84,1076.72,1341.29,1088.81,1341.29,1088.81z"
				/>
			<path class="st81" d="M1363.57,1089.54l-11.69,3.55c0,0,0.08,1.05,1.61,1.05C1355.02,1094.13,1363.57,1089.54,1363.57,1089.54z"
				/>
			<path class="st81" d="M1359.54,1114.05h-2.98c0,0,0.56,4.43,2.98,7.26C1361.96,1124.13,1359.54,1114.05,1359.54,1114.05z"/>
			<path class="st80" d="M1287.77,1058.09c-1.21,0.89,4.27,14.27,4.27,14.27h2.74C1294.79,1072.36,1288.98,1057.2,1287.77,1058.09z"
				/>
			<path class="st80" d="M1300.51,1069.06c0.48-3.63-2.34-9.76-2.34-9.76v9.19C1298.17,1068.49,1300.03,1072.68,1300.51,1069.06z"/>
			<path class="st80" d="M1278.9,1121.81c1.69-1.39,1.77-13.56,1.77-13.56l-2.66,0.97
				C1278.02,1109.21,1277.21,1123.19,1278.9,1121.81z"/>
			<path class="st84" d="M1328.1,1239.45h-45.62l9.47,38.59h14.94C1298.45,1246.99,1328.1,1239.45,1328.1,1239.45z"/>
		</g>
		<g>
			<path class="st85" d="M1294.35,1278.04c3.74-1.56,9.79-19.23,12.7-28.38c1.03-3.25,1.67-5.42,1.67-5.42h-34.23
				c2.96,21.13,10.14,33.81,10.14,33.81H1294.35z"/>
			<path class="st86" d="M1297.1,1233.71c0-1.23,5.49-6.38,8.24-9.74c2.75-3.36-1.06-9.74-1.06-9.74
				c-12.26,5.07-10.14,19.48-10.14,19.48S1297.1,1234.93,1297.1,1233.71z"/>
			<path class="st86" d="M1290.13,1234.25h1.48c0,0,1.06-24.88-8.03-28.26c-9.09-3.38-9.09-10.14-9.09-10.14s-2.75,9.3,1.69,14.16
				c4.44,4.86,9.51,10.56,8.66,15.21C1284,1229.86,1290.13,1234.25,1290.13,1234.25z"/>
			<path class="st87" d="M1307.05,1249.65c1.03-3.25,1.67-5.42,1.67-5.42h-34.23c2.96,21.13,10.14,33.81,10.14,33.81h2.23
				C1286.45,1258.25,1299.48,1251.76,1307.05,1249.65z"/>
			<polygon class="st88" points="1308.71,1233.71 1274.23,1233.71 1272.27,1244.23 1310.12,1244.23 			"/>
		</g>
		<path class="st72" d="M1823.61,974.26c0,0,9.92,29.74,83.23,42.31l7.25-9.88c0,0-64.81-7.09-88.79-44.1L1823.61,974.26z"/>
		<g>
			<path class="st72" d="M1952.92,1034.63c7.18,4.04,6.28,23.35,6.28,23.35h-6.28h-6.29
				C1946.63,1057.98,1945.73,1038.67,1952.92,1034.63z"/>
			<g>
				<rect x="1951.76" y="979.86" class="st72" width="2.32" height="60.5"/>
			</g>
			<polygon class="st89" points="1976.09,983.84 1875.85,1021.23 1785.46,939.96 1889.17,913.27 			"/>
		</g>
	</g>
	<g>
		
			<linearGradient id="SVGID_42_" gradientUnits="userSpaceOnUse" x1="-11520.9756" y1="1497.2134" x2="-11764.8428" y2="1497.2134" gradientTransform="matrix(1 0 0 1 12612.2705 0)">
			<stop  offset="0" style="stop-color:#FF9F55"/>
			<stop  offset="1" style="stop-color:#FFD255"/>
		</linearGradient>
		<path class="st90" d="M1175.74,1558.53H829.69c-12.49,0-22.62-10.13-22.62-22.62v-77.4c0-12.49,10.13-22.62,22.62-22.62h346.05
			V1558.53z"/>
		
			<linearGradient id="SVGID_43_" gradientUnits="userSpaceOnUse" x1="-11406.417" y1="1700.3027" x2="-11647.9229" y2="1700.3027" gradientTransform="matrix(1 0 0 1 12612.2705 0)">
			<stop  offset="0" style="stop-color:#FF9F55"/>
			<stop  offset="1" style="stop-color:#FFD255"/>
		</linearGradient>
		<path class="st91" d="M1284.91,1742.27H863.19c-8.98,0-16.25-7.28-16.25-16.25v-51.42c0-8.98,7.28-16.25,16.25-16.25h421.72
			V1742.27z"/>
		<path class="st92" d="M1329.83,1667.51v65.58h11.13v9.17H1143.1c-6.19,0-11.23-5.03-11.23-11.23v-61.46
			c0-6.2,5.04-11.23,11.23-11.23h197.86v9.17H1329.83z"/>
		<path class="st93" d="M1329.83,1733.09H1152.7c-5.96,0-10.79-4.83-10.79-10.79v-43.99c0-5.96,4.83-10.79,10.79-10.79h177.13
			V1733.09z"/>
		<path class="st92" d="M1234.74,1448.52v97.39h6.03v12.62H990.03c-12.91,0-23.38-10.46-23.38-23.38v-75.89
			c0-12.91,10.47-23.37,23.38-23.37h250.74v12.62H1234.74z"/>
		<path class="st93" d="M1234.74,1545.91h-231.88c-12.91,0-23.38-10.47-23.38-23.38v-50.64c0-12.91,10.47-23.38,23.38-23.38h231.88
			V1545.91z"/>
		
			<linearGradient id="SVGID_44_" gradientUnits="userSpaceOnUse" x1="-11942.333" y1="1608.4385" x2="-11481.7002" y2="1608.4385" gradientTransform="matrix(1 0 0 1 12612.2705 0)">
			<stop  offset="0" style="stop-color:#609FF0"/>
			<stop  offset="1" style="stop-color:#5A3F9E"/>
		</linearGradient>
		<path class="st94" d="M1101,1658.34H761.23c-15.96,0-28.89-12.94-28.89-28.89v-42.01c0-15.96,12.94-28.89,28.89-28.89H1101
			V1658.34z"/>
		<path class="st95" d="M1160.01,1568.81v79.26h6.03v10.27H920.81c-15.96,0-28.9-12.94-28.9-28.9v-42.01
			c0-15.96,12.94-28.9,28.9-28.9h245.22v10.27H1160.01z"/>
		<path class="st93" d="M1160,1648.07H932.85c-15.96,0-28.89-12.94-28.89-28.89v-21.47c0-15.96,12.94-28.89,28.89-28.89H1160
			V1648.07z"/>
		<rect x="1022.64" y="1594.08" class="st96" width="97.3" height="2.51"/>
		<rect x="977.03" y="1601.7" class="st96" width="103.9" height="2.51"/>
		<rect x="1209.13" y="1684.48" class="st96" width="97.3" height="2.5"/>
		<rect x="1163.52" y="1692.1" class="st96" width="103.9" height="2.51"/>
		<rect x="1153.13" y="1699.05" class="st96" width="42.98" height="2.51"/>
		<rect x="1017.09" y="1514.37" class="st96" width="103.9" height="2.51"/>
		<rect x="1086.56" y="1521.33" class="st96" width="42.98" height="2.51"/>
	</g>
	<g>
		
			<linearGradient id="SVGID_45_" gradientUnits="userSpaceOnUse" x1="1825.8787" y1="1431.8025" x2="1825.8787" y2="1382.2894" gradientTransform="matrix(-1 0 0 1 2832.4722 0)">
			<stop  offset="0" style="stop-color:#FF9F55"/>
			<stop  offset="1" style="stop-color:#FFD255"/>
		</linearGradient>
		<path class="st97" d="M912.91,1435.9h174.62c7.04,0,12.74-5.7,12.74-12.74v-20.68c0-7.04-5.7-12.74-12.74-12.74H912.91V1435.9z"/>
		<path class="st47" d="M882.93,1394.48v36.66h-3.06v4.75h126.57c7.04,0,12.74-5.7,12.74-12.74v-20.68
			c0-7.04-5.71-12.74-12.74-12.74H879.86v4.75H882.93z"/>
		<path class="st48" d="M882.93,1431.15h114.16c7.04,0,12.74-5.7,12.74-12.74v-11.18c0-7.04-5.7-12.74-12.74-12.74H882.93V1431.15z"
			/>
		
			<linearGradient id="SVGID_46_" gradientUnits="userSpaceOnUse" x1="1824.1311" y1="1320.1637" x2="1824.1311" y2="1388.7053" gradientTransform="matrix(-1 0 0 1 2832.4722 0)">
			<stop  offset="0" style="stop-color:#40D5E6"/>
			<stop  offset="1" style="stop-color:#5577FF"/>
		</linearGradient>
		<path class="st98" d="M904.76,1389.73h191.16c8.84,0,16.01-7.17,16.01-16.01v-21.67c0-8.84-7.17-16.01-16.01-16.01H904.76V1389.73
			z"/>
		<path class="st50" d="M870.85,1341.57v42.64h-2.64v5.53h103.97c8.84,0,16.01-7.17,16.01-16.01v-21.67
			c0-8.84-7.17-16.01-16.01-16.01H868.21v5.53H870.85z"/>
		<path class="st48" d="M870.85,1384.2h93.28c8.84,0,16.01-7.17,16.01-16.01v-10.62c0-8.84-7.17-16.01-16.01-16.01h-93.28V1384.2z"
			/>
		
			<linearGradient id="SVGID_47_" gradientUnits="userSpaceOnUse" x1="1871.3015" y1="1323.4519" x2="1871.3015" y2="1272.2084" gradientTransform="matrix(-1 0 0 1 2832.4722 0)">
			<stop  offset="0" style="stop-color:#FF9F55"/>
			<stop  offset="1" style="stop-color:#FFD255"/>
		</linearGradient>
		<path class="st99" d="M1042.48,1336.03H897.19c-9.57,0-17.33-7.76-17.33-17.33v-31.17c0-9.57,7.76-17.33,17.33-17.33h145.29
			V1336.03z"/>
		<path class="st47" d="M1068.51,1276.98v52.27h2.66v6.78H967.58c-9.57,0-17.33-7.76-17.33-17.33v-31.17
			c0-9.57,7.76-17.33,17.33-17.33h103.59v6.78H1068.51z"/>
		<path class="st48" d="M1068.5,1329.26h-91.6c-9.51,0-17.22-7.71-17.22-17.22v-17.83c0-9.51,7.71-17.22,17.22-17.22h91.6V1329.26z"
			/>
		
			<linearGradient id="SVGID_48_" gradientUnits="userSpaceOnUse" x1="1812.655" y1="1185.6782" x2="1812.655" y2="1243.2455" gradientTransform="matrix(-1 0 0 1 2832.4722 0)">
			<stop  offset="0" style="stop-color:#40D5E6"/>
			<stop  offset="1" style="stop-color:#5577FF"/>
		</linearGradient>
		<path class="st100" d="M933.68,1270.19h154.06c10.06,0,18.21-8.15,18.21-18.21v-29.39c0-10.06-8.15-18.21-18.21-18.21H933.68
			V1270.19z"/>
		<path class="st50" d="M906.11,1211.15v52.27h-2.81v6.78h109.88c10.06,0,18.21-8.16,18.21-18.21v-29.4
			c0-10.06-8.16-18.21-18.21-18.21H903.29v6.78H906.11z"/>
		<path class="st48" d="M906.11,1263.42h97.57c10.02,0,18.14-8.12,18.14-18.14v-16c0-10.02-8.12-18.14-18.14-18.14h-97.57V1263.42z"
			/>
		
			<linearGradient id="SVGID_49_" gradientUnits="userSpaceOnUse" x1="1856.1067" y1="1157.2922" x2="1856.1067" y2="1203.3368" gradientTransform="matrix(-1 0 0 1 2832.4722 0)">
			<stop  offset="0" style="stop-color:#40D5E6"/>
			<stop  offset="1" style="stop-color:#5577FF"/>
		</linearGradient>
		<path class="st101" d="M890.23,1204.35h160.97c6.24,0,11.31-5.06,11.31-11.31v-27.2c0-6.24-5.06-11.31-11.31-11.31H890.23V1204.35
			z"/>
		<path class="st50" d="M862.65,1159.67v39.56h-2.82v5.13h116.79c6.24,0,11.31-5.06,11.31-11.31v-27.2c0-6.24-5.06-11.3-11.31-11.3
			H859.84v5.13H862.65z"/>
		<path class="st48" d="M862.66,1199.22h105.38c6.24,0,11.31-5.06,11.31-11.31v-16.95c0-6.24-5.06-11.3-11.3-11.3H862.66V1199.22z"
			/>
	</g>
</g>
</svg>
