<?xml version="1.0" encoding="utf-8"?>
<!-- Generator: Adobe Illustrator 23.0.2, SVG Export Plug-In . SVG Version: 6.00 Build 0)  -->
<svg version="1.1" id="Layer_1" xmlns="http://www.w3.org/2000/svg" xmlns:xlink="http://www.w3.org/1999/xlink" x="0px" y="0px"
	 width="547.8px" height="364px" viewBox="0 0 547.8 364" style="enable-background:new 0 0 547.8 364;" xml:space="preserve">
<style type="text/css">
	.st0{fill:#C8E6DE;}
	.st1{fill:#42B093;}
	.st2{fill:#84CE9D;}
	.st3{fill:#2D9678;}
	.st4{fill:#5FBBA4;}
	.st5{fill:#38958C;}
	.st6{fill:#165260;}
	.st7{fill:#76A9B7;}
	.st8{fill:#F4F4F4;}
	.st9{fill:#FFFFFF;}
	.st10{fill:#E8605C;}
	.st11{fill:#FDD17A;}
	.st12{fill:#E4F3F7;}
	.st13{fill:#1C1C38;}
	.st14{fill:#0F0F23;}
	.st15{fill:#B94A5B;}
	.st16{fill:#F29D7E;}
	.st17{fill:#FFBDA9;}
	.st18{fill:#1B4E61;}
	.st19{fill:#1A5A6B;}
	.st20{fill:#F5B7A0;}
	.st21{fill:#F39E81;}
	.st22{fill:#EA5F5A;}
	.st23{fill:#164756;}
	.st24{fill:#082C35;}
	.st25{fill:none;stroke:#FFFFFF;stroke-width:2;stroke-linecap:round;stroke-miterlimit:10;}
</style>
<g id="BACKGROUND">
</g>
<g id="OBJECTS">
	<g>
		<g>
			<path class="st0" d="M416.79,297h-279.2c-41.9,0-75.9-34-75.9-75.9v-46.3c0-41.9,34-75.9,75.9-75.9h279.2
				c41.9,0,75.9,34,75.9,75.9v46.3C492.59,263,458.69,297,416.79,297z"/>
			<g>
				<path class="st0" d="M167.29,55.6c0.9-7-6.7-12.5-13.8-12.5c-1.3,0-2.8,0.1-3.8-0.8s-1.1-2.4-1.3-3.8
					c-0.9-9.6-8.2-18.3-17.5-20.8s-20,1.3-25.6,9.1c-2.1,2.9-4.2,6.7-7.8,6.6c-2.3,0-4.2-1.8-6.1-3.1c-7.6-5.1-19.3-2.2-23.8,5.8
					c-1.3,2.3-2.3,5.2-4.8,6.1c-1.2,0.4-2.4,0.3-3.7,0.4c-8.5,1-9.8,11.8-1.6,13.5c9.1,1.9,22.4-0.5,31.9-0.3
					C115.39,56.6,141.39,56.5,167.29,55.6z"/>
				<path class="st1" d="M502.79,75.6c0.9-6.9-6.7-12.4-13.7-12.4c-1.3,0-2.8,0.1-3.8-0.8s-1.1-2.4-1.2-3.8
					c-0.9-9.5-8.2-18.1-17.4-20.6c-9.3-2.5-19.9,1.3-25.5,9.1c-2.1,2.9-4.2,6.7-7.8,6.6c-2.3,0-4.2-1.8-6.1-3.1
					c-7.6-5-19.2-2.2-23.6,5.8c-1.3,2.3-2.3,5.2-4.8,6.1c-1.2,0.4-2.4,0.3-3.6,0.4c-8.4,1-9.8,11.7-1.6,13.5
					c9,1.9,22.3-0.5,31.8-0.3C451.19,76.6,476.99,76.4,502.79,75.6z"/>
			</g>
			<g>
				<path class="st1" d="M462.89,238.5v37.1c0,19.6-15.9,35.5-35.5,35.5h-224.8c-0.1-0.6-0.1-1.3-0.1-2c-0.5-12.4,0.8-25.6,8.2-35.5
					c6.6-8.8,17.2-13.7,27.8-16.3c10-2.5,21-3.5,28.6-10.3c10.8-9.5,10.7-25.9,12.6-40.2c1.9-14.3,7.7-29.6,20.4-36.1
					c0.3-0.2,0.7-0.3,1-0.5c3-1.4,6.3-2.3,9.2-3.8c13.8-7.2,15.7-25.8,23.9-39c11.9-19,40.2-25.3,59.1-13.1c4.2,2.7,8,6.3,9.9,11
					c4,9.6-0.8,21.4,4.2,30.4c7.1,12.8,28,10.8,36.8,22.5c5.3,7.1,4.4,16.9,4.1,25.8c-0.3,8.9,0.9,19.3,8.5,24c0,0,0,0,0.1,0
					C460.49,230.3,462.89,234.2,462.89,238.5z"/>
				<path class="st2" d="M370.89,311.1h-245.9c-25.3,0-45.8-20.5-45.8-45.8l0,0c0-8.8,4.1-17.2,11.1-22.6c2.6-2,5.5-3.7,8.4-5.2
					c7.8-3.8,16.7-5.7,23.3-11.3c8.6-7.3,11.5-19.3,14.2-30.3c4.3-17,9.8-34.3,21.1-47.8s29.5-22.4,46.6-18.1
					c8.4,2.1,16.5,7.3,25,5.6c4.9-1,9.1-4.2,13.6-6.3c13.5-6.1,30.2-1.4,40.9,8.9c8.9,8.6,14.1,20.2,16.6,32.4
					c0.5,2.4,0.9,4.9,1.2,7.3c0.4,2.9,0.6,5.8,1.4,8.5c2.5,8,9.8,13.6,17.2,17.5c7.4,4,15.4,7,21.7,12.6c5.3,4.8,9,11.2,10.5,18.2
					c2.9,13.8-2.8,29.1,3.3,41.8c2.5,5.2,6.8,9.3,9.9,14.2C369.09,296.9,371.09,304,370.89,311.1z"/>
			</g>
			<g>
				<g>
					<g>
						<path class="st2" d="M421.89,255.8c3.2-7.6-3.2-17.9,2.4-24c3.1-3.4,8.5-3.5,11.9-6.6c6.3-5.8,2-18.3,8.8-23.5
							c3-2.3,7.3-2.3,10.3-4.4c8-5.6,3-20.6,11.1-25.9c3.8-2.5,9.1-1.7,12.7-4.4c7.1-5.3,2.6-19.4,10.6-23.2
							c4.8-2.3,11.2,1.3,15.7-1.6c6.1-3.8,2.7-15,8.6-19.1c3.6-2.4,8.5-0.9,12.5-2.5c4.3-1.8,6.2-6.6,9-10.3s8.9-6.2,11.8-2.5
							c3,7.7-8,14.3-8.3,22.5c-0.1,2.6,1,5.2,1.1,7.8c0.4,10.4-13.4,18.3-11,28.4c0.6,2.6,2.2,4.9,2.5,7.5
							c0.6,7.5-9.3,10.9-13.6,17.1c-5.7,8.3-1.4,22.5-10.1,27.7c-3,1.8-7,2-9.2,4.7c-4.2,5.2,1.9,14.5-3,19
							c-2.3,2.1-5.9,1.8-8.9,2.7c-5,1.5-8.5,6.9-7.7,12.1c0.5,3.6,2.8,7.4,1.2,10.7c-2.5,5.2-11.1,2.8-15.6,6.4
							c-2.9,2.3-3.4,6.4-4.5,9.9s-4.2,7.3-7.7,6.4c-1.3-0.4-2.4-1.3-3.7-1.9c-10.7-5-21.5,15.4-30.6,1.8
							C410.39,278.9,417.69,266.1,421.89,255.8z"/>
						<path class="st3" d="M524.79,175.2c1.1-0.3,0.7-2-0.4-1.7c-9.4,2.8-18.8,5.7-28.2,8.5c10-13.7,20.1-27.4,30.1-41.1
							c0.7-0.9-0.8-1.8-1.5-0.9l-28.4,38.8c2.9-9.3,5-18.8,6.2-28.5c0.1-1.1-1.6-1.2-1.7-0.1c-1.4,11.3-4,22.4-7.8,33.2l0,0
							c-8.6,11.7-17.2,23.4-25.7,35.1c0-1.1,0.4-2.5,0.5-3.3c0.2-2.8,0.5-5.6,0.8-8.4c0.7-6.2,1.5-12.3,2.4-18.5
							c0.2-1.1-1.6-1.2-1.7-0.1c-1.1,7.3-2.1,14.6-2.8,21.9c-0.3,3-1.5,7.5-0.9,10.5c0,0.1,0,0.1,0,0.2
							c-8.6,11.8-17.2,23.5-25.9,35.3c0.8-8.1,1.9-16.1,3.5-24.1c0.2-1.1-1.5-1.6-1.7-0.5c-1.8,9-3,18.2-3.8,27.4l-17.2,23.4
							c-0.7,0.9,0.8,1.8,1.5,0.9c5.8-7.9,11.5-15.8,17.3-23.6c3.2-2.5,9-2.3,12.9-2.8c4.4-0.6,8.7-1.2,13.1-1.9
							c1.1-0.2,0.7-1.9-0.4-1.7c-5.5,0.8-10.9,1.5-16.4,2.3c-2.3,0.3-4.8,0.4-7,1.1c8.4-11.4,16.8-22.9,25.1-34.3
							c1,0.4,2.3-0.4,3.1-0.8c3.9-1.6,7.9-3.1,11.9-4.4c6.6-2.3,13.4-4.2,20.2-5.9c1.1-0.3,0.7-2-0.4-1.7c-10.6,2.6-20.8,6.2-31,9.9
							c-0.5,0.2-1,0.4-1.5,0.6c-0.4,0.2-0.7,0.4-0.9,0.4c8.8-12,17.6-24,26.4-36.1C504.59,181.3,514.69,178.2,524.79,175.2z"/>
					</g>
					<g>
						<path class="st4" d="M434.19,252.2c2.1-5,5.7-10.1,11.1-10.8c3.7-0.5,7.3,1.3,11,0.9c10.2-0.9,13-15.2,21.9-20.3
							c9.8-5.6,24.1,1.6,32.6-5.8c4.2-3.7,5.9-10.4,11.2-12.3c4.9-1.7,10.8,1.6,15.2-1.1c-3.1,6-6.1,12.1-9.2,18.1
							c-1.2,2.3-2.4,4.7-4.3,6.6c-3,3.1-7.4,4.6-10.1,8.1c-4,5.2-3,13.6-8.1,17.7c-4.2,3.4-10.5,2.2-15.3,4.6
							c-10,5.1-7.9,21.8-17.2,28.1c-7.1,4.7-17.9,1.3-24.1,7.2c-2.2,2-3.3,4.9-5.2,7.3c-8.7,11.2-28.2,5.4-30.5-8.1
							c-1-5.8,1.6-13.9,5-18.5C424.19,265.6,429.89,262.3,434.19,252.2z"/>
						<path class="st3" d="M509.99,224.7c-12.6,6-23.8,13.9-34.7,22.3c-0.1,0-0.1,0-0.2,0.1c2.3-6.5,5-12.8,8.3-18.9
							c0.5-1-0.9-1.9-1.5-0.9c-3.6,6.7-6.7,13.6-9.1,20.9c-0.1,0.3,0,0.5,0.1,0.7c-3.6,2.8-7.2,5.7-10.8,8.5
							c-5.7,4.5-11.3,9-16.9,13.7c3.5-6.5,6.6-13.2,9.3-20.1c0.4-1-1.3-1.6-1.7-0.5c-3,7.7-6.5,15.2-10.6,22.4
							c-0.2,0.3-0.2,0.6-0.1,0.8c-8,7-15.7,14.5-22.4,22.8c-0.7,0.9,0.8,1.8,1.5,0.9c6.9-8.6,14.8-16.2,23.1-23.3
							c8.4-0.9,16.9-1.4,25.3-1.6c1.1,0,1.2-1.8,0.1-1.7c-7.7,0.1-15.4,0.6-23.1,1.4c5.4-4.6,11-9.1,16.6-13.5
							c4.2-3.4,8.5-6.7,12.7-10c7.6-2,15.3-2.6,23.1-2c1.1,0.1,1.2-1.7,0.1-1.7c-6.7-0.5-13.3-0.1-19.8,1.2
							c9.8-7.5,20-14.4,31.3-19.8C511.89,225.8,510.99,224.2,509.99,224.7z"/>
					</g>
				</g>
				<g>
					<g>
						<path class="st4" d="M97.49,288.6c-6-5.6-17.9-3.4-21.6-10.7c-2-4.1-0.3-9.2-2-13.4c-3.2-8-16.4-8.3-18.9-16.6
							c-1.1-3.6,0.5-7.6-0.5-11.2c-2.4-9.4-18.2-10.1-20.3-19.6c-1-4.4,1.7-9.1,0.4-13.4c-2.4-8.5-17.2-9.3-17.9-18.1
							c-0.4-5.3,5.2-10,4.1-15.3c-1.4-7.1-13.1-7.8-14.8-14.8c-1-4.2,2.2-8.3,2.1-12.6c-0.1-4.6-4-8.2-6.4-12.1
							c-2.4-3.9-2.6-10.5,1.8-11.9c8.3-0.1,10.5,12.5,18.2,15.7c2.4,1,5.2,0.9,7.7,1.8c9.9,3.3,12.3,19,22.7,20.4
							c2.6,0.3,5.4-0.4,7.9,0.3c7.3,2.1,6.9,12.6,11.2,18.8c5.7,8.3,20.5,9.3,22.3,19.2c0.6,3.4-0.6,7.3,1.1,10.3
							c3.3,5.8,14.2,3.3,16.7,9.5c1.2,2.9-0.4,6.1-0.6,9.3c-0.4,5.2,3.5,10.4,8.6,11.5c3.6,0.8,7.9,0,10.4,2.7
							c4,4.2-1.3,11.3,0.5,16.9c1.1,3.5,4.8,5.4,7.7,7.7c2.9,2.3,5.3,6.5,3.2,9.5c-0.8,1.1-2.1,1.8-3.1,2.7
							c-8.5,8.3,6.8,25.6-9.2,29.3C115.09,307.6,105.69,296.3,97.49,288.6z"/>
						<path class="st3" d="M58.59,163.8c0.1-1.1-1.7-1.4-1.7-0.2c-0.7,9.8-1.4,19.6-2,29.4c-9.3-14.2-18.5-28.5-27.8-42.7
							c-0.6-0.9-2,0.1-1.4,1l26.2,40.3c-7.6-6-15.8-11.4-24.5-15.9c-1-0.5-1.7,1.1-0.7,1.6c10.1,5.3,19.5,11.7,28.2,19.1l0,0
							c7.9,12.2,15.8,24.3,23.7,36.5c-1-0.4-2.2-1.3-2.9-1.6c-2.5-1.2-5.1-2.5-7.6-3.8c-5.5-2.8-11-5.8-16.4-8.8
							c-1-0.6-1.6,1.1-0.7,1.6c6.4,3.6,12.9,7.1,19.5,10.3c2.7,1.4,6.5,4,9.5,4.5c0.1,0,0.1,0,0.2,0c8,12.2,15.9,24.5,23.9,36.7
							c-7.3-3.6-14.4-7.5-21.3-11.8c-0.9-0.6-2,0.8-1.1,1.4c7.8,4.9,15.9,9.3,24.2,13.3l15.8,24.4c0.6,0.9,2-0.1,1.4-1
							c-5.3-8.2-10.6-16.4-16-24.6c-1.2-3.9,1.1-9.2,1.9-13c1-4.3,1.9-8.6,2.9-12.9c0.2-1.1-1.5-1.3-1.7-0.2
							c-1.2,5.4-2.4,10.8-3.6,16.1c-0.5,2.3-1.3,4.6-1.5,7c-7.7-11.9-15.5-23.8-23.2-35.7c0.7-0.8,0.4-2.3,0.4-3.2
							c-0.1-4.2-0.1-8.5,0.1-12.7c0.2-7,0.8-14,1.7-21c0.1-1.1-1.6-1.3-1.7-0.2c-1.3,10.8-1.5,21.6-1.8,32.5c0,0.5,0,1.1,0,1.6
							c0.1,0.4,0.1,0.8,0.1,1c-8.1-12.5-16.2-25-24.4-37.5C57.19,184.9,57.89,174.3,58.59,163.8z"/>
					</g>
					<g>
						<path class="st5" d="M98.59,275.9c-3.9-3.7-7.4-8.9-6.2-14.2c0.8-3.6,3.8-6.4,4.8-10c2.8-9.8-9.6-17.5-11.3-27.6
							c-1.8-11.1,10-22,6.1-32.5c-2-5.3-7.7-9.2-7.5-14.8c0.1-5.2,5.3-9.6,4.4-14.6c4.5,5,9.1,10,13.6,15c1.8,2,3.6,3.9,4.7,6.3
							c1.8,3.9,1.7,8.6,4,12.3c3.4,5.6,11.6,7.6,13.7,13.9c1.7,5.1-1.7,10.6-1.1,16c1.2,11.2,17.6,15.1,20.1,26.1
							c1.9,8.3-5.1,17.2-1.8,25.1c1.2,2.7,3.4,4.9,5,7.4c7.4,12.1-4.9,28.3-18.4,25.7c-5.8-1.1-12.4-6.4-15.6-11.2
							C107.49,290,106.49,283.4,98.59,275.9z"/>
						<path class="st6" d="M99.69,195.2c1.1,13.9,4.6,27.1,8.6,40.3c0,0.1,0,0.1,0,0.2c-5.3-4.5-10.2-9.3-14.7-14.5
							c-0.7-0.8-2.1,0.2-1.4,1c5,5.8,10.4,11.1,16.3,15.9c0.2,0.2,0.5,0.2,0.7,0.2c1.4,4.4,2.8,8.7,4.2,13.1
							c2.2,6.9,4.4,13.8,6.9,20.6c-4.9-5.6-10-10.8-15.5-15.8c-0.8-0.8-1.9,0.6-1.1,1.4c6.1,5.5,11.9,11.5,17.2,17.8
							c0.2,0.2,0.5,0.3,0.7,0.3c3.7,10,8,19.8,13.4,29c0.6,1,2-0.1,1.4-1c-5.6-9.5-9.9-19.6-13.7-29.9c2.1-8.2,4.6-16.3,7.5-24.3
							c0.4-1.1-1.2-1.7-1.6-0.7c-2.6,7.3-4.9,14.6-6.9,22.1c-2.4-6.7-4.6-13.5-6.7-20.3c-1.6-5.2-3.3-10.3-4.9-15.4
							c0.8-7.8,2.9-15.2,6.3-22.3c0.5-1-1.1-1.7-1.6-0.7c-2.9,6.1-4.8,12.4-5.9,18.9c-3.5-11.8-6.4-23.8-7.4-36.3
							C101.29,193.9,99.59,194.1,99.69,195.2z"/>
					</g>
				</g>
			</g>
			<path class="st1" d="M490.69,310.2H63.59c-1.1,0-1.9-0.9-1.9-1.9l0,0c0-1.1,0.9-1.9,1.9-1.9h427.1c1.1,0,1.9,0.9,1.9,1.9l0,0
				C492.59,309.4,491.79,310.2,490.69,310.2z"/>
		</g>
		<g>
			<g>
				<polygon class="st7" points="213.99,171.3 278.29,135.1 342.49,171.3 342.49,207.8 213.99,207.8 				"/>
				<g>
					<rect x="226.29" y="165.1" class="st8" width="96" height="73.7"/>
					<rect x="230.39" y="161.6" class="st9" width="96" height="73.7"/>
					<rect x="239.79" y="176.5" class="st10" width="75.8" height="2.1"/>
					<rect x="239.79" y="183.3" class="st11" width="75.8" height="2.1"/>
					<rect x="239.79" y="190" class="st11" width="75.8" height="2.1"/>
				</g>
				<polygon class="st12" points="342.49,244.3 278.29,207.8 213.99,244.3 				"/>
				<polygon class="st0" points="213.99,171.3 278.29,207.8 213.99,244.3 				"/>
				<polygon class="st0" points="342.49,171.3 342.49,244.3 278.29,207.8 				"/>
			</g>
			<path class="st10" d="M274.19,126.7l-0.2-45.5c-4-0.1-68.5-0.1-68.5-0.1c0,0.7,0,45.6,0,45.6c7.1,0,50.7,0.3,50.7,0.3
				c0.1,0,22.2,22.2,22,21.9C278.19,148.9,274.19,126.8,274.19,126.7z"/>
		</g>
		<g>
			<g>
				<path class="st13" d="M429.39,331.7c0.1,3,0.2,6,0.3,9.1c0,1.6,0.1,3.2-0.4,4.8c-0.4,1.5-1.3,2.8-1.9,4.2
					c-1.7,4.1-0.4,9.3,3,12.2c0.2,0.2,0.4,0.3,0.6,0.3c0.6,0.1,1-0.5,1.3-1c1.3-2.5,2.6-5,3.8-7.6c1.1-2.3,2-4.7,3.1-7
					c3.5-7.1,8.7-13.5,10.9-21.1c-5.6-1.8-10.9-4.5-15.7-8c-0.2-0.1-0.4-0.3-0.6-0.3c-0.2,0-0.4,0.2-0.6,0.3c-1.5,1.2-6,4.5-6.1,6.6
					c0,1,1.4,2.3,1.7,3.3C429.29,328.9,429.39,330.3,429.39,331.7z"/>
				<path class="st14" d="M387.19,344c-0.4,1.3-0.9,2.6-0.9,3.9c0,1.6,0.4,3.1,0.8,4.6c0.7,2.7,1,5.6,2.6,7.8
					c1.6,2.3,5.1,3.5,7.2,1.7c1.4-1.2,1.7-3.2,2.6-4.8c1.2-2.1,3.6-3.6,3.9-6c0.2-1.4-0.4-2.7-0.9-4c-1.7-4.5-2.4-9.5-2.1-14.3
					c0-0.5-8.1-1.8-9.2-0.6c-1,1.1-1.4,3.9-1.9,5.3C388.59,339.9,387.89,341.9,387.19,344z"/>
				<path class="st15" d="M402.69,206.4c-1.4,6.2-3.8,12.2-5.4,18.3c-3.1,11.5-3.6,23.4-4,35.3c-0.9,22.4-1.8,44.8-2.7,67.1
					c-0.1,1.3-0.1,2.8,0.7,3.9c0.6,0.8,1.5,1.3,2.3,1.6c2.6,1.1,5.4,1.6,8.3,1.5c8.4-24.7,11.1-50.8,16.2-76.3
					c4.6-23.3,11.2-46.3,15.1-69.8c0.5-3,0.9-6.1-0.2-8.9c-1.7-4.3-6.7-6.5-11.3-6.3c-3.8,0.1-8.1,1.4-11.4,3.3
					c-2.8,1.6-3.1,4.2-3.9,7.3C404.59,191,404.39,198.8,402.69,206.4z"/>
				<path class="st16" d="M344.39,98.7c-0.3,0.1-0.7,0.3-1,0.5c-2.5,1.6-5.9,3.6-7.7,6c-1.4,1.9-2.3,5.3-3.2,7.6
					c-1.1,2.7-2.1,5.5-3.2,8.2c-0.6,1.5-3.6,4.4-3.8,6c8.6-3,19.5-7.8,27.9-11.6c-2.4-5.2-4.9-10.4-7.3-15.5c-0.2-0.5-0.5-1-1-1.2
					C344.79,98.6,344.59,98.6,344.39,98.7z"/>
				<path class="st10" d="M373.99,202.5c-3.2,17.6-6.4,35.2-9.6,52.7c-0.5,2.8-1,5.8,0.1,8.5c0.9,2.3,2.8,3.9,4.6,5.7
					c3.9,3.9,7,8.4,10.3,12.7c8.9,11.3,19.6,20.8,30.3,30.4c4.3,3.9,8.7,7.7,13,11.6c0.5,0.5,1,0.9,1.6,1.2c2.3,1,4.7-1,6.5-2.8
					c1.7-1.8,3.6-4,3.2-6.5c-0.2-1.2-0.8-2.2-1.5-3.1c-8-11.9-16.8-23.2-26.3-33.9c-3.6-4-7.3-8.1-9.3-13.1c-1.8-4.6-2-9.7-2-14.7
					c0-4.8,0.2-9.6,1-14.3c0.7-4,2-7.9,3.1-11.9c4.1-14.1,7.1-28.5,8.9-43.1c0.1-0.7,0.2-1.5-0.2-2.1c-0.7-1.1-2.3-1-3.6-0.7
					c-7.4,1.8-14.7,4.2-21.7,7.4C375.99,189.3,375.19,196,373.99,202.5z"/>
				<path class="st12" d="M346.49,95.7c-0.4,0.4-2.2,1.8-2.3,2.4c-0.2,0.8,1.2,1.9,1.5,2.7c1.6,3.7,3.5,6.7,5,10.4
					c0.3,0.6,1.2,4.2,1.7,4.6c1.3,1.3,4.2-2.1,6.5-3.3c5.8,11.7,6.6,25.2,8.5,38.1c1.8,12.4,3.6,18.3,6.5,30.5
					c0.1,0.6,1.3,9.5,1.6,10c0.4,0.6,8.2-1.5,12.2-2.9c2.7-0.9,6.5-2.6,9.4-2.7c6.4-0.3,12.2-5.3,18.6-5.4c3.2,0,6.3-0.5,9-2.2
					c1.3-0.8,2.6-0.8,3.9-1.8c2-1.6,4.8-2.3,6-4.5c1.3-2.3,0.3-5.1-0.8-7.5c-3-7-5.9-14.1-8.9-21.1c-0.6-1.4-1.2-2.9-1.5-4.4
					c-0.3-1.9-0.1-3.9,0.1-5.8c0.9-8.1,1.8-16.3,2.7-24.4c1.4,5.7,2.8,11.3,4.2,17c5.2-3.5,10.5-7,15.7-10.5
					c0.6-0.4,1.6-0.8,1.9-1.4c0.2-0.6-0.4-1.3-0.6-1.9c-1.5-4.9-3-9.9-4.4-14.8c-1.2-4.2-2.6-8.5-5.8-11.5
					c-2.8-2.6-6.5-3.8-10.2-4.9c-5.6-1.7-11.2-3.4-16.8-5.1c-1-0.3-2-0.6-3.1-0.5s-2.2,0.6-3.2,1c-4.1,1.8-8.6,2.6-13,2.5
					c-3.6-0.1-7.3-1.7-10.9-1.3c-7.9,0.9-16.3,5.6-22.6,10.1C353.19,89.6,349.69,92.1,346.49,95.7z"/>
				<path class="st17" d="M437.19,143.5c0.6,2,1.2,4.1,0.9,6.2c-0.2,1.4-0.7,2.7-1.3,4c-2.1,5-3.2,10.7-5.3,15.7
					c-1.8,4.4-3.6,9.4-5,13.8c-0.5,1.8,2.4,3.9,6.3,6.5c6.7-13.6,15-26.9,23-39.7c0.9-1.4,1.7-2.8,2-4.4c0.2-1.3,0-2.5-0.3-3.8
					c-1.6-7.3-8.1-23.7-10.2-28.5c0,0-15.7,10.2-15.7,11c0,2.1,2.4,8.4,2.8,9.8C435.39,137.2,436.09,140.4,437.19,143.5z"/>
				<path class="st17" d="M332.59,57.7c-0.7-1.1-1.8-1.9-2.7-2.9c-0.9-1-1.5-2.3-1.2-3.6c0.4-0.5,1.2-0.3,1.8,0
					c0.5,0.4,1,0.9,1.6,1.2c1.6,0.8,3.3-0.6,4.7-1.7c1.3-1.2,3.3-2.3,4.7-1.2c0.6,0.5,1,1.3,1.7,1.7c1.1,0.6,2.7,0,3.3,1.1
					c0.3,0.5,0.2,1.1,0.4,1.6c0.5,1,2.1,0.9,2.7,1.8c0.2,0.4,0.3,0.8,0.3,1.3c0.1,2.2,0.2,4.6-1,6.4c-0.8,1.1-1.9,1.8-2.8,2.8
					c-0.9,1.1-1.5,2.4-2,3.7c-3.8,9.5-7.6,19.1-8.6,29.3c-0.5,5-0.4,10.1-1.4,15s-3.4,9.8-7.7,12.4c-0.5,0.3-1,0.5-1.6,0.4
					c-0.4-0.1-0.8-0.5-1-0.9c-3.5-4.7-6-10.4-5.5-16.2c0.2-2,0.7-4,1.2-5.9c2.3-8.3,4.8-16.5,7.6-24.6c1.4-4.1,2.9-8.2,4.4-12.2
					C332.69,63.9,334.89,61.1,332.59,57.7z"/>
				<path class="st16" d="M378.59,78.5c-0.2,0.7-0.5,1.4-0.3,2.2s0.8,1.3,1.4,1.8c4.9,4,11.2,7.2,17.4,6c2.2-0.4,4.2-1.4,6.2-2.4
					c4-2.1,8.2-5.2,8.7-9.7c-4.3-4.5-8.2-9.4-11.6-14.6c-0.2-0.4-0.5-0.8-0.9-0.8c-0.3,0-0.5,0.1-0.8,0.2c-4.8,2-10.7,3.5-15.1,6.2
					c-1.5,0.9-1.8,2-2.3,3.6C380.59,73,378.59,76.3,378.59,78.5z"/>
				<path class="st17" d="M371.09,57.7c0.7,0.6,1.7,0.8,2.6,0.7c1.2,3.9,3.2,7.5,5.9,10.6c0.8,1,1.7,1.9,2.9,2.5
					c1.3,0.7,2.8,0.9,4.3,0.9c1.5,0.1,3,0.1,4.5-0.1c1.1-0.1,2.2-0.2,3.2-0.7c1.2-0.6,2.1-1.7,2.9-2.9c1.2-1.8,2.2-3.7,3.1-5.7
					c0.2-0.5,0.4-1.1,0.4-1.6c0-0.6-0.2-1.1-0.4-1.6c-1.1-3.2-2.3-6.5-3.4-9.7c-0.1-0.2-0.2-0.5-0.1-0.7c0.1-0.4,0.4-0.7,0.6-1
					c0.7-0.9,0.8-2.2,0.3-3.1c-0.5-1-1.6-1.6-2.7-1.6c-0.6-1.2-1.1-2.3-1.7-3.5c-0.3-0.7-0.7-1.4-1.2-1.9c-0.5-0.6-1.2-1-1.8-1.3
					c-2.3-1.1-5-1.1-7.3,0.1c-2,1-3.4,2.8-4.5,4.7c-1.1,1.9-2,3.9-3.3,5.7c-1.2,1.7-3,3-3.8,4.9
					C370.99,54.1,369.29,56.2,371.09,57.7z"/>
				<path class="st18" d="M377.09,24.7c-4.3,0.2-8.7,1.2-12.4,3.4c-3,1.8-5.8,4.5-6.2,8c-0.5,4,2,7.7,4.8,10.6
					c2.4,2.6,5.1,4.9,8.1,6.8c0.7,0.5,1.5,1,2.4,1.1c1.1,0.1,2.2-0.4,3.1-1c3.2-2.3,4.5-6.4,5.3-10.2c0.3-1.3,0.6-2.7,1.3-3.9
					c0.7-1.2,2.1-2,3.5-1.8s2.4,1.6,3.2,2.8c1,1.6,2.1,3.2,3.1,4.8c0.2,0.4,0.5,0.8,1,1c1.2,0.5,2.1-1.3,2.2-2.6
					c0.2-3.6-0.1-7.2-1.1-10.6c-1.1-3.8-3.6-3.9-6.6-5.5C384.59,25.8,381.39,24.6,377.09,24.7z"/>
			</g>
			<g>
				<path class="st6" d="M186.09,206.6c0.4,0.1,0.9,0.2,1.2,0.5c0.2,0.3,0.3,0.6,0.3,0.9c0.9,7.2-2.1,14.3-6.1,20.3
					s-8.9,11.4-12.5,17.7c-1.7,2.9-3.1,6-4.5,9c-2.2,4.9-4.5,9.9-6.7,14.8c-8.4,18.5-16.8,37.1-25.3,55.6c-0.8,1.8-1.8,3.7-3.5,4.8
					c-1.7,1.1-4.4,0.7-5.2-1.1c0.8-22.2,11.8-42.4,18.8-63.5c3.7-11.1,6.3-22.6,7.7-34.2c0.2-2,0.4-4,0.1-6c-0.4-2.1-1.4-4-1.8-6.1
					c-0.4-2.7,0.3-5.4,1-8c0.7-2.5,1.1-7.1,3.1-9.1c2.2-2.1,6.2-0.5,8.8,0C169.69,203.7,177.89,205.4,186.09,206.6z"/>
				<path class="st19" d="M129.29,215.5c-0.7,4.3-0.5,8.7-0.2,13.1c2.7,38.7,9.6,77.2,20.6,114.4c0.6,2,1.8,4.4,3.8,4.3
					c2.4-0.1,3-3.4,3-5.8c-0.4-11.4-0.7-22.8-2.4-34.1c-1-7-2.5-14-2.6-21.1c-0.1-8.2,1.7-16.4,2.9-24.5c0.8-5.6,1.3-11.3,1.8-17
					c1.1-13.2,2.3-26.5,3.4-39.7c0-0.6,0.1-1.2-0.2-1.7c-0.4-0.8-1.5-1.1-2.4-1.3c-4.6-1-16.1-5.7-20.4-3.4
					C132.59,200.8,129.99,211.3,129.29,215.5z"/>
				<polygon class="st20" points="183.49,206.2 180.09,190.9 141.29,199.7 				"/>
				<path class="st21" d="M160.19,108.3l10.7,11.6c0,0-10.7,20.9-30.1,8l3.2-18.9L160.19,108.3z"/>
				<path class="st20" d="M161.39,91.4l0.8,18.4l-3.5,2.3c-3.6,2.4-8.3,2.7-12.1,0.7l-4.3-2.2l-3.2-24.2l21.3-2.9L161.39,91.4z"/>
				<path class="st11" d="M165.99,116c0,0,5.1,13.5-10.3,13.5c0,0-12.2,1.6-15.4-6.3l-7.9-3l-22.9-4.2l-6.8,18l25.4,10.5l9.1,31.1
					l-4,17.7c-0.9,4,2.6,7.6,6.6,6.7l49.7-10.4c4-0.8,5.8-5.5,3.4-8.8l-5.7-8c-4-5.6-5.6-12.6-4.5-19.4l5.4-33.3l3.2-26.2l-21.3-2.9
					L165.99,116z"/>
				<polygon class="st20" points="187.49,93.4 167.49,29.4 161.89,33.1 174.59,91.7 				"/>
				<polygon class="st20" points="107.99,120.2 94.29,113.9 83.89,59.9 78.79,63.1 84.09,118.7 103.49,131.7 				"/>
				<g>
					<polygon class="st22" points="175.09,2.3 198.09,0 185.59,17.7 					"/>
					<polygon class="st23" points="175.09,2.3 60.49,74.6 71.39,91.8 185.59,17.7 					"/>
					<path class="st22" d="M60.49,74.6l-3.5,2.2c-4.7,3-6.1,9.3-3.1,14l0,0c3,4.8,9.3,6.2,14,3.2l3.5-2.2L60.49,74.6z"/>
					<polygon class="st24" points="71.39,91.8 185.59,17.7 182.69,13.5 69.19,88.3 					"/>
				</g>
				<polygon class="st21" points="82.49,60.8 85.79,64.7 79.29,68.5 74.99,65.5 				"/>
				<polygon class="st21" points="175.89,24 175.09,28.8 168.39,32 167.19,29.6 				"/>
				<path class="st13" d="M154.09,336.7l-3.7,0.7c-1.3,0.2-2.2,1.4-2.1,2.7l0.6,6.6c0,0.5-0.1,1-0.3,1.4l-5.5,10.3
					c-0.5,1-0.3,2.3,0.5,3l2.1,1.9c0.5,0.5,1.2,0.7,2,0.7l6.1-0.5c0.8-0.1,1.5-0.5,1.9-1.1l2.9-4.3c0.4-0.6,0.5-1.4,0.3-2.2
					l-2.7-8.6c-0.1-0.4-0.1-0.8-0.1-1.1l1-6.6C157.39,337.9,155.79,336.4,154.09,336.7z"/>
				<path class="st13" d="M130.39,325.8l-3.8-1.8c-0.7-0.3-1.6-0.1-2,0.6l-5.5,8.9l-0.1,0.1l-1.6,2l-2.9,3.8
					c-0.4,0.5-0.4,1.2-0.1,1.8l11,18.8c0.7,1.2,2.5,1,2.9-0.3l1.1-3.4c0.1-0.3,0.1-0.6,0-1l-3.8-12.2c-0.1-0.3-0.1-0.7,0-1l5.7-14.4
					C131.49,327.1,131.19,326.2,130.39,325.8z"/>
				<path class="st10" d="M132.59,82.4c-2.2,4.1,0.5,9.4-1.2,13.7c-1,2.5-3.3,4.4-3.7,7c-0.4,2.6,1.1,5.3,0.6,7.9
					c-0.5,2.9-3.3,4.7-5,7.1c-1.6,2.2-2.3,5.1-1.9,7.8c0.3,1.7,0.9,3.4,0.9,5.2c-0.1,4-3.8,7.5-3.1,11.4c0.3,1.8,1.6,3.3,2,5.1
					c0.7,2.7-0.4,5.5-0.8,8.2c-0.4,2.8,0.4,6.2,3.1,6.9c1,0.3,2.1,0.1,2.9,0.7c0.9,0.7,1,2,1.2,3.2c0.3,2,1.3,4,3,5.1
					s4.3,0.8,5.5-0.8c0.6-0.9,0.9-2.1,1.8-2.7c1.9-1.3,4.5,1.3,6.7,0.6c0.6-0.2,1.1-0.6,1.6-1.1c2-2.2,2.8-5.3,2.2-8.2
					c-0.3-1.3-0.8-2.6-0.5-3.8c0.2-0.7,0.7-1.3,1.1-2c1.4-2.2,1.6-5.2,0.6-7.6c-0.6-1.4-1.6-2.7-2-4.2c-1-3.4,1.3-7.3,0-10.6
					c-0.8-1.9-2.6-3.2-3.5-5.1c-2.2-4.4,1.3-9.9-0.2-14.6c-0.4-1.3-1.2-2.4-1.5-3.7c-1.2-4.1,1.7-8.2,1.8-12.4c0-1.5-0.3-3-0.1-4.5
					c0.1-1.3,0.6-2.5,0.7-3.8c0.1-2.4-2.3-6.9-4.5-8.1C137.79,77.9,133.89,80.1,132.59,82.4z"/>
				<path class="st10" d="M145.59,87.5c0.7,0.1,1.5,0.2,2.1,0.5c1.1,0.7,1.3,2.3,2.4,3c0.9,0.6,2,0.4,3,0.3c2.7-0.2,5.7,0.7,6.9,3.1
					c1,2.2,0.2,4.8,0.7,7.1c0.4,1.6,1,3,1.2,4.6c0.2,1.7-0.2,3.3-0.3,5c-0.1,1.7,0.6,3.4,0.7,5.1c0.2,4.3-3,8.5-1.6,12.5
					c0.3,0.8,0.8,1.6,1,2.4c1.2,3.2-0.5,7.2,1.4,10.1c0.9,1.4,2.6,2.3,3.2,4c0.3,0.8,0.3,1.6,0.5,2.5c0.5,2.1,2.4,3.8,4.5,4
					c1,0.1,2,0,2.9,0.2c1.5,0.4,2.5,1.8,3.9,2.5c1.9,0.9,4.4,0.4,5.7-1.2c0.5-0.6,0.9-1.4,1.6-1.7c1.2-0.6,2.8,0.4,3.9-0.4
					c0.4-0.3,0.6-0.7,0.8-1.2c1.2-2.7,2-6,0.2-8.4c-0.4-0.5-0.9-1-1.2-1.6c-1.1-2.2,1-5-0.1-7.2c-0.9-2-3.8-2.2-5.5-3.7
					c-2.2-2-1.8-5.9-3.9-8.1c-1.8-1.8-5.2-2.2-5.8-4.7c-0.2-0.8,0-1.7-0.1-2.6c-0.3-3-4.2-4.6-4.9-7.5c-0.3-1.3,0.1-2.7-0.3-4
					c-0.3-0.9-0.9-1.6-1.2-2.4c-0.9-2.2,0.6-4.9-0.3-7.1c-0.4-0.9-1.1-1.6-1.4-2.5c-0.3-1-0.2-2-0.4-3c-0.3-1.2-1.1-2.2-1.9-3.2
					c-2.1-2.7-4.4-5.4-7.6-6.7c-3-1.2-9.7-1.9-12.5,0.5C139.89,80.5,141.19,86.6,145.59,87.5z"/>
			</g>
		</g>
	</g>
	<line class="st25" x1="219.29" y1="93.4" x2="258.49" y2="93.4"/>
	<line class="st25" x1="219.29" y1="102.9" x2="258.49" y2="102.9"/>
	<line class="st25" x1="219.29" y1="112.8" x2="258.49" y2="112.8"/>
</g>
<g id="DESIGNED_BY_FREEPIK">
</g>
</svg>
