<?xml version="1.0" encoding="utf-8"?>
<!-- Generator: Adobe Illustrator 23.0.2, SVG Export Plug-In . SVG Version: 6.00 Build 0)  -->
<svg version="1.1" id="_x3C_Layer_x3E_" xmlns="http://www.w3.org/2000/svg" xmlns:xlink="http://www.w3.org/1999/xlink" x="0px"
	 y="0px" width="1803.1px" height="1426.4px" viewBox="0 0 1803.1 1426.4" style="enable-background:new 0 0 1803.1 1426.4;"
	 xml:space="preserve">
<style type="text/css">
	.st0{clip-path:url(#SVGID_5_);}
	.st1{clip-path:url(#SVGID_6_);fill:url(#SVGID_7_);}
	.st2{fill:#CAFFF0;}
	.st3{clip-path:url(#SVGID_12_);}
	.st4{clip-path:url(#SVGID_13_);fill:url(#SVGID_14_);}
	.st5{clip-path:url(#SVGID_19_);}
	.st6{clip-path:url(#SVGID_20_);fill:url(#SVGID_21_);}
	.st7{clip-path:url(#SVGID_26_);}
	.st8{clip-path:url(#SVGID_27_);fill:url(#SVGID_28_);}
	.st9{clip-path:url(#SVGID_33_);}
	.st10{clip-path:url(#SVGID_34_);fill:url(#SVGID_35_);}
	.st11{clip-path:url(#SVGID_40_);}
	.st12{clip-path:url(#SVGID_41_);fill:url(#SVGID_42_);}
	.st13{clip-path:url(#SVGID_47_);}
	.st14{clip-path:url(#SVGID_48_);fill:url(#SVGID_49_);}
	.st15{clip-path:url(#SVGID_54_);}
	.st16{clip-path:url(#SVGID_55_);fill:url(#SVGID_56_);}
	.st17{clip-path:url(#SVGID_61_);}
	.st18{clip-path:url(#SVGID_62_);fill:url(#SVGID_63_);}
	.st19{fill:url(#SVGID_64_);}
	.st20{fill:url(#SVGID_65_);}
	.st21{fill:url(#SVGID_66_);}
	.st22{fill:#A7EABB;}
	.st23{fill:#272A45;}
	.st24{fill:#202338;}
	.st25{fill:#2F6B8C;}
	.st26{fill:#2B4C63;}
	.st27{fill:#EEA886;}
	.st28{fill:#525252;}
	.st29{fill:#A77860;}
	.st30{fill:#C4B5AE;}
	.st31{fill:#EAD8CF;}
	.st32{fill:#181A2B;}
	.st33{fill:#8F8F8F;}
	.st34{fill:#F0F0F0;}
	.st35{fill:#CCCCCC;}
	.st36{fill:#43B093;}
	.st37{fill:#FFFFFF;}
	.st38{fill:#84CE9D;}
	.st39{fill:url(#SVGID_67_);}
	.st40{fill:#F5F7FF;}
	.st41{fill:#FAFAFA;}
	.st42{fill:#E8E8E8;}
	.st43{fill:#90C73E;}
	.st44{fill:#E6E6E6;}
	.st45{fill:#FF0000;}
	.st46{fill:#D6D6D6;}
	.st47{fill:url(#SVGID_68_);}
	.st48{fill:url(#SVGID_69_);}
	.st49{fill:url(#SVGID_70_);}
	.st50{fill:url(#SVGID_71_);}
	.st51{fill:url(#SVGID_72_);}
	.st52{fill:url(#SVGID_73_);}
	.st53{fill:#C5CCD1;}
	.st54{fill:#292C47;}
	.st55{fill:#3D416B;}
	.st56{fill:#CFBEB6;}
	.st57{fill:#23263D;}
	.st58{fill:#807066;}
	.st59{fill:#191B2B;}
	.st60{fill:#31997B;}
	.st61{fill:#282B45;}
	.st62{fill:#EDDAD3;}
	.st63{fill:#1D3B54;}
	.st64{fill:#434343;}
	.st65{fill:#EEA987;}
	.st66{fill:#323657;}
	.st67{fill:#CF8C6C;}
	.st68{fill:#DB9C7C;}
</style>
<g>
	<g>
		<g>
			<defs>
				<polygon id="SVGID_1_" points="-543.1,-289.6 -542.1,-289.6 -543.1,-288.6 				"/>
			</defs>
			<clipPath id="SVGID_2_">
				<use xlink:href="#SVGID_1_"  style="overflow:visible;"/>
			</clipPath>
		</g>
		<g>
			<defs>
				<polygon id="SVGID_3_" points="-543.1,-289.6 -542.1,-289.6 -543.1,-288.6 				"/>
			</defs>
			<defs>
				<polygon id="SVGID_4_" points="-545.1,-291.6 -546.1,-291.6 -545.1,-292.6 				"/>
			</defs>
			<clipPath id="SVGID_5_">
				<use xlink:href="#SVGID_3_"  style="overflow:visible;"/>
			</clipPath>
			<clipPath id="SVGID_6_" class="st0">
				<use xlink:href="#SVGID_4_"  style="overflow:visible;"/>
			</clipPath>
			
				<linearGradient id="SVGID_7_" gradientUnits="userSpaceOnUse" x1="323.9898" y1="-269.0923" x2="323.9898" y2="-1326.2039" gradientTransform="matrix(1 0 0 1 0 1280)">
				<stop  offset="0" style="stop-color:#FFFFFF"/>
				<stop  offset="1" style="stop-color:#000000"/>
			</linearGradient>
			<rect x="320.2" y="81.5" class="st1" width="7.5" height="988.4"/>
		</g>
	</g>
</g>
<path class="st2" d="M323.9,81.5L323.9,81.5c2.1,0,3.8,1.7,3.8,3.8V1070h-7.5V85.3C320.2,83.2,321.9,81.5,323.9,81.5z"/>
<g>
	<g>
		<g>
			<defs>
				<polygon id="SVGID_8_" points="-543.1,-289.6 -542.1,-289.6 -543.1,-288.6 				"/>
			</defs>
			<clipPath id="SVGID_9_">
				<use xlink:href="#SVGID_8_"  style="overflow:visible;"/>
			</clipPath>
		</g>
		<g>
			<defs>
				<polygon id="SVGID_10_" points="-543.1,-289.6 -542.1,-289.6 -543.1,-288.6 				"/>
			</defs>
			<defs>
				<polygon id="SVGID_11_" points="-545.1,-291.6 -546.1,-291.6 -545.1,-292.6 				"/>
			</defs>
			<clipPath id="SVGID_12_">
				<use xlink:href="#SVGID_10_"  style="overflow:visible;"/>
			</clipPath>
			<clipPath id="SVGID_13_" class="st3">
				<use xlink:href="#SVGID_11_"  style="overflow:visible;"/>
			</clipPath>
			
				<linearGradient id="SVGID_14_" gradientUnits="userSpaceOnUse" x1="860.2898" y1="-269.0923" x2="860.2898" y2="-1326.2039" gradientTransform="matrix(1 0 0 1 0 1280)">
				<stop  offset="0" style="stop-color:#FFFFFF"/>
				<stop  offset="1" style="stop-color:#000000"/>
			</linearGradient>
			<rect x="856.5" y="81.5" class="st4" width="7.5" height="988.4"/>
		</g>
	</g>
</g>
<path class="st2" d="M860.2,81.5L860.2,81.5c2.1,0,3.8,1.7,3.8,3.8V1070h-7.5V85.3C856.5,83.2,858.2,81.5,860.2,81.5z"/>
<g>
	<g>
		<g>
			<defs>
				<polygon id="SVGID_15_" points="-543.1,-289.6 -542.1,-289.6 -543.1,-288.6 				"/>
			</defs>
			<clipPath id="SVGID_16_">
				<use xlink:href="#SVGID_15_"  style="overflow:visible;"/>
			</clipPath>
		</g>
		<g>
			<defs>
				<polygon id="SVGID_17_" points="-543.1,-289.6 -542.1,-289.6 -543.1,-288.6 				"/>
			</defs>
			<defs>
				<polygon id="SVGID_18_" points="-545.1,-291.6 -546.1,-291.6 -545.1,-292.6 				"/>
			</defs>
			<clipPath id="SVGID_19_">
				<use xlink:href="#SVGID_17_"  style="overflow:visible;"/>
			</clipPath>
			<clipPath id="SVGID_20_" class="st5">
				<use xlink:href="#SVGID_18_"  style="overflow:visible;"/>
			</clipPath>
			
				<linearGradient id="SVGID_21_" gradientUnits="userSpaceOnUse" x1="1396.6898" y1="-269.0923" x2="1396.6898" y2="-1326.2039" gradientTransform="matrix(1 0 0 1 0 1280)">
				<stop  offset="0" style="stop-color:#FFFFFF"/>
				<stop  offset="1" style="stop-color:#000000"/>
			</linearGradient>
			<rect x="1392.9" y="81.5" class="st6" width="7.5" height="988.4"/>
		</g>
	</g>
</g>
<path class="st2" d="M1396.7,81.5L1396.7,81.5c2.1,0,3.8,1.7,3.8,3.8V1070h-7.5V85.3C1392.9,83.2,1394.6,81.5,1396.7,81.5z"/>
<g>
	<g>
		<g>
			<defs>
				<polygon id="SVGID_22_" points="-543.1,-289.6 -542.1,-289.6 -543.1,-288.6 				"/>
			</defs>
			<clipPath id="SVGID_23_">
				<use xlink:href="#SVGID_22_"  style="overflow:visible;"/>
			</clipPath>
		</g>
		<g>
			<defs>
				<polygon id="SVGID_24_" points="-543.1,-289.6 -542.1,-289.6 -543.1,-288.6 				"/>
			</defs>
			<defs>
				<polygon id="SVGID_25_" points="-545.1,-291.6 -546.1,-291.6 -545.1,-292.6 				"/>
			</defs>
			<clipPath id="SVGID_26_">
				<use xlink:href="#SVGID_24_"  style="overflow:visible;"/>
			</clipPath>
			<clipPath id="SVGID_27_" class="st7">
				<use xlink:href="#SVGID_25_"  style="overflow:visible;"/>
			</clipPath>
			
				<linearGradient id="SVGID_28_" gradientUnits="userSpaceOnUse" x1="393.6398" y1="-1469.202" x2="393.6398" y2="-1056.2804" gradientTransform="matrix(1 0 0 1 0 1280)">
				<stop  offset="0" style="stop-color:#FFFFFF"/>
				<stop  offset="1" style="stop-color:#000000"/>
			</linearGradient>
			<rect x="318.2" class="st8" width="150.8" height="20.6"/>
		</g>
	</g>
</g>
<path class="st2" d="M328.5,0h130.2c5.7,0,10.3,4.6,10.3,10.3l0,0c0,5.7-4.6,10.3-10.3,10.3H328.5c-5.7,0-10.3-4.6-10.3-10.3l0,0
	C318.2,4.6,322.8,0,328.5,0z"/>
<g>
	<g>
		<g>
			<defs>
				<polygon id="SVGID_29_" points="-543.1,-289.6 -542.1,-289.6 -543.1,-288.6 				"/>
			</defs>
			<clipPath id="SVGID_30_">
				<use xlink:href="#SVGID_29_"  style="overflow:visible;"/>
			</clipPath>
		</g>
		<g>
			<defs>
				<polygon id="SVGID_31_" points="-543.1,-289.6 -542.1,-289.6 -543.1,-288.6 				"/>
			</defs>
			<defs>
				<polygon id="SVGID_32_" points="-545.1,-291.6 -546.1,-291.6 -545.1,-292.6 				"/>
			</defs>
			<clipPath id="SVGID_33_">
				<use xlink:href="#SVGID_31_"  style="overflow:visible;"/>
			</clipPath>
			<clipPath id="SVGID_34_" class="st9">
				<use xlink:href="#SVGID_32_"  style="overflow:visible;"/>
			</clipPath>
			
				<linearGradient id="SVGID_35_" gradientUnits="userSpaceOnUse" x1="366.4398" y1="-1469.2042" x2="366.4398" y2="-1056.2806" gradientTransform="matrix(1 0 0 1 0 1280)">
				<stop  offset="0" style="stop-color:#FFFFFF"/>
				<stop  offset="1" style="stop-color:#000000"/>
			</linearGradient>
			<rect x="318.2" y="38.2" class="st10" width="96.4" height="20.6"/>
		</g>
	</g>
</g>
<path class="st2" d="M328.5,38.2h75.8c5.7,0,10.3,4.6,10.3,10.3l0,0c0,5.7-4.6,10.3-10.3,10.3h-75.8c-5.7,0-10.3-4.6-10.3-10.3l0,0
	C318.2,42.8,322.8,38.2,328.5,38.2z"/>
<g>
	<g>
		<g>
			<defs>
				<polygon id="SVGID_36_" points="-543.1,-289.6 -542.1,-289.6 -543.1,-288.6 				"/>
			</defs>
			<clipPath id="SVGID_37_">
				<use xlink:href="#SVGID_36_"  style="overflow:visible;"/>
			</clipPath>
		</g>
		<g>
			<defs>
				<polygon id="SVGID_38_" points="-543.1,-289.6 -542.1,-289.6 -543.1,-288.6 				"/>
			</defs>
			<defs>
				<polygon id="SVGID_39_" points="-545.1,-291.6 -546.1,-291.6 -545.1,-292.6 				"/>
			</defs>
			<clipPath id="SVGID_40_">
				<use xlink:href="#SVGID_38_"  style="overflow:visible;"/>
			</clipPath>
			<clipPath id="SVGID_41_" class="st11">
				<use xlink:href="#SVGID_39_"  style="overflow:visible;"/>
			</clipPath>
			
				<linearGradient id="SVGID_42_" gradientUnits="userSpaceOnUse" x1="910.8898" y1="-1469.202" x2="910.8898" y2="-1056.2804" gradientTransform="matrix(1 0 0 1 0 1280)">
				<stop  offset="0" style="stop-color:#FFFFFF"/>
				<stop  offset="1" style="stop-color:#000000"/>
			</linearGradient>
			<rect x="864.1" class="st12" width="93.5" height="20.6"/>
		</g>
	</g>
</g>
<path class="st2" d="M874.4,0h72.9c5.7,0,10.3,4.6,10.3,10.3l0,0c0,5.7-4.6,10.3-10.3,10.3h-72.9c-5.7,0-10.3-4.6-10.3-10.3l0,0
	C864.1,4.6,868.7,0,874.4,0z"/>
<g>
	<g>
		<g>
			<defs>
				<polygon id="SVGID_43_" points="-543.1,-289.6 -542.1,-289.6 -543.1,-288.6 				"/>
			</defs>
			<clipPath id="SVGID_44_">
				<use xlink:href="#SVGID_43_"  style="overflow:visible;"/>
			</clipPath>
		</g>
		<g>
			<defs>
				<polygon id="SVGID_45_" points="-543.1,-289.6 -542.1,-289.6 -543.1,-288.6 				"/>
			</defs>
			<defs>
				<polygon id="SVGID_46_" points="-545.1,-291.6 -546.1,-291.6 -545.1,-292.6 				"/>
			</defs>
			<clipPath id="SVGID_47_">
				<use xlink:href="#SVGID_45_"  style="overflow:visible;"/>
			</clipPath>
			<clipPath id="SVGID_48_" class="st13">
				<use xlink:href="#SVGID_46_"  style="overflow:visible;"/>
			</clipPath>
			
				<linearGradient id="SVGID_49_" gradientUnits="userSpaceOnUse" x1="918.5898" y1="-1469.2042" x2="918.5898" y2="-1056.2806" gradientTransform="matrix(1 0 0 1 0 1280)">
				<stop  offset="0" style="stop-color:#FFFFFF"/>
				<stop  offset="1" style="stop-color:#000000"/>
			</linearGradient>
			<rect x="864.1" y="38.2" class="st14" width="108.9" height="20.6"/>
		</g>
	</g>
</g>
<path class="st2" d="M874.4,38.2h88.3c5.7,0,10.3,4.6,10.3,10.3l0,0c0,5.7-4.6,10.3-10.3,10.3h-88.3c-5.7,0-10.3-4.6-10.3-10.3l0,0
	C864.1,42.8,868.7,38.2,874.4,38.2z"/>
<g>
	<g>
		<g>
			<defs>
				<polygon id="SVGID_50_" points="-543.1,-289.6 -542.1,-289.6 -543.1,-288.6 				"/>
			</defs>
			<clipPath id="SVGID_51_">
				<use xlink:href="#SVGID_50_"  style="overflow:visible;"/>
			</clipPath>
		</g>
		<g>
			<defs>
				<polygon id="SVGID_52_" points="-543.1,-289.6 -542.1,-289.6 -543.1,-288.6 				"/>
			</defs>
			<defs>
				<polygon id="SVGID_53_" points="-545.1,-291.6 -546.1,-291.6 -545.1,-292.6 				"/>
			</defs>
			<clipPath id="SVGID_54_">
				<use xlink:href="#SVGID_52_"  style="overflow:visible;"/>
			</clipPath>
			<clipPath id="SVGID_55_" class="st15">
				<use xlink:href="#SVGID_53_"  style="overflow:visible;"/>
			</clipPath>
			
				<linearGradient id="SVGID_56_" gradientUnits="userSpaceOnUse" x1="1468.4899" y1="-1469.202" x2="1468.4899" y2="-1056.2804" gradientTransform="matrix(1 0 0 1 0 1280)">
				<stop  offset="0" style="stop-color:#FFFFFF"/>
				<stop  offset="1" style="stop-color:#000000"/>
			</linearGradient>
			<rect x="1400.4" class="st16" width="136.1" height="20.6"/>
		</g>
	</g>
</g>
<path class="st2" d="M1410.7,0h115.5c5.7,0,10.3,4.6,10.3,10.3l0,0c0,5.7-4.6,10.3-10.3,10.3h-115.5c-5.7,0-10.3-4.6-10.3-10.3l0,0
	C1400.4,4.6,1405,0,1410.7,0z"/>
<g>
	<g>
		<g>
			<defs>
				<polygon id="SVGID_57_" points="-543.1,-289.6 -542.1,-289.6 -543.1,-288.6 				"/>
			</defs>
			<clipPath id="SVGID_58_">
				<use xlink:href="#SVGID_57_"  style="overflow:visible;"/>
			</clipPath>
		</g>
		<g>
			<defs>
				<polygon id="SVGID_59_" points="-543.1,-289.6 -542.1,-289.6 -543.1,-288.6 				"/>
			</defs>
			<defs>
				<polygon id="SVGID_60_" points="-545.1,-291.6 -546.1,-291.6 -545.1,-292.6 				"/>
			</defs>
			<clipPath id="SVGID_61_">
				<use xlink:href="#SVGID_59_"  style="overflow:visible;"/>
			</clipPath>
			<clipPath id="SVGID_62_" class="st17">
				<use xlink:href="#SVGID_60_"  style="overflow:visible;"/>
			</clipPath>
			
				<linearGradient id="SVGID_63_" gradientUnits="userSpaceOnUse" x1="1454.8898" y1="-1469.2042" x2="1454.8898" y2="-1056.2806" gradientTransform="matrix(1 0 0 1 0 1280)">
				<stop  offset="0" style="stop-color:#FFFFFF"/>
				<stop  offset="1" style="stop-color:#000000"/>
			</linearGradient>
			<rect x="1400.4" y="38.2" class="st18" width="108.9" height="20.6"/>
		</g>
	</g>
</g>
<path class="st2" d="M1410.7,38.2h88.3c5.7,0,10.3,4.6,10.3,10.3l0,0c0,5.7-4.6,10.3-10.3,10.3h-88.3c-5.7,0-10.3-4.6-10.3-10.3l0,0
	C1400.4,42.8,1405,38.2,1410.7,38.2z"/>
<linearGradient id="SVGID_64_" gradientUnits="userSpaceOnUse" x1="323.9398" y1="-172.95" x2="409.2398" y2="-172.95" gradientTransform="matrix(1 0 0 1 0 1280)">
	<stop  offset="0" style="stop-color:#D5E4FF"/>
	<stop  offset="1" style="stop-color:#EDFFFE"/>
</linearGradient>
<rect x="323.9" y="1093.3" class="st19" width="85.3" height="27.5"/>
<linearGradient id="SVGID_65_" gradientUnits="userSpaceOnUse" x1="864.1398" y1="-172.95" x2="949.4398" y2="-172.95" gradientTransform="matrix(1 0 0 1 0 1280)">
	<stop  offset="0" style="stop-color:#D5E4FF"/>
	<stop  offset="1" style="stop-color:#EDFFFE"/>
</linearGradient>
<rect x="864.1" y="1093.3" class="st20" width="85.3" height="27.5"/>
<linearGradient id="SVGID_66_" gradientUnits="userSpaceOnUse" x1="1400.4398" y1="-172.95" x2="1485.7399" y2="-172.95" gradientTransform="matrix(1 0 0 1 0 1280)">
	<stop  offset="0" style="stop-color:#D5E4FF"/>
	<stop  offset="1" style="stop-color:#EDFFFE"/>
</linearGradient>
<rect x="1400.4" y="1093.3" class="st21" width="85.3" height="27.5"/>
<g>
	<g>
		<path class="st22" d="M374,667.8c-0.2,0-16.7,0.2-39.7-4.2c-21.2-4-52.6-12.8-81.2-31.8c-28.3-18.8-65-25.4-90.9-27.6
			c-28-2.4-49.6-0.3-49.8-0.3l-0.2-1.8c0.2,0,21.9-2.1,50.1,0.3c26,2.2,63.1,8.9,91.7,27.9c28.3,18.8,59.4,27.5,80.5,31.5
			c22.9,4.3,39.2,4.2,39.4,4.2L374,667.8z"/>
	</g>
	<g>
		<g>
			<g>
				<g>
					<path class="st22" d="M394.6,678.3c-18.9,21.3-99,34.5-146.6,9.6c-26.3-13.7-47.1-29.8-65.5-44c-24-18.5-44.7-34.4-70.1-40.2
						l-2.2-0.5l2-1.1c0.4-0.2,37.6-21.5,90.7-25.1c31.2-2.1,61.7,2.3,90.7,12.9c36.2,13.3,70.1,36.6,100.8,69.2l-0.7,0.6l0.7-0.6
						c5.4,5.7,5.9,11.9,1.3,17.9C395.3,677.5,394.9,677.9,394.6,678.3z M115,602.6c24.7,6.2,45.1,21.9,68.5,39.9
						c18.3,14.1,39.1,30.1,65.3,43.8c21.5,11.2,52.4,15.6,84.7,12.1c27.4-3,51-11.5,59.8-21.4c0.3-0.4,0.7-0.8,1-1.2
						c4-5.2,3.6-10.5-1.2-15.6c-68.9-73.2-141.4-84.8-190-81.5C157.2,581.9,123.4,598.2,115,602.6z"/>
				</g>
			</g>
		</g>
	</g>
	<g>
		<polygon class="st22" points="197.5,607.8 196,608.8 177.4,581.5 178.9,580.5 		"/>
	</g>
	<g>
		<polygon class="st22" points="219.8,615.1 186.3,646 185.1,644.7 218.6,613.8 		"/>
	</g>
	<g>
		<polygon class="st22" points="254.6,630.9 252.8,631.1 249,579.9 250.8,579.7 		"/>
	</g>
</g>
<g>
	<g>
		<path class="st22" d="M365.3,594.1c-0.2-0.1-21.7-7.7-49.1-26.5c-25.3-17.3-60.9-48-87-95.5c-30.3-55.1-63.3-89.9-85.6-109.3
			c-24.2-21.1-41.4-29.2-41.6-29.3l0.7-1.6c0.2,0.1,17.6,8.3,41.9,29.5c22.5,19.5,55.6,54.5,86.1,109.8c26,47.2,61.4,77.7,86.5,95
			c27.2,18.7,48.5,26.3,48.7,26.3L365.3,594.1z"/>
	</g>
	<g>
		<g>
			<g>
				<g>
					<path class="st22" d="M430.9,589.7l-4.8,0.9c-0.2,0-16,2.9-40.5,2.4c-22.6-0.4-57.3-3.7-94.5-17.4
						c-41.8-15.4-78.2-40.4-108.2-74.4c-37.4-42.5-64.8-99.1-81.5-168.4l-0.2-0.8l0.8-0.2c0.3-0.1,28.4-8.7,65.1,0.2
						c21.6,5.2,41.8,15.2,60.3,29.9c23,18.3,43.2,43.9,60.1,76.1c37.9,72.5,73.7,109.7,97,128.1c25.2,19.9,41.5,22.8,41.7,22.8
						L430.9,589.7z M103.3,333.2C140.9,488.7,226.4,550,291.6,574c37,13.6,71.5,17,93.9,17.4c17.1,0.3,29.9-1,36.1-1.8
						c-6.4-2-20-7.6-38.3-22.1c-23.4-18.6-59.4-56-97.4-128.7c-37.8-72.3-85.7-97.1-119.2-105.1C133.8,325.7,108,331.9,103.3,333.2z
						"/>
				</g>
			</g>
		</g>
	</g>
	<g>
		<polygon class="st22" points="241.2,491.2 172.5,488.2 172.6,486.5 241.3,489.5 		"/>
	</g>
	<g>
		<rect x="218.5" y="356.9" class="st22" width="1.7" height="96.5"/>
	</g>
	<g>
		<polygon class="st22" points="175.3,394 119.6,391.1 119.7,389.4 175.4,392.3 		"/>
	</g>
</g>
<g>
	<g>
		<g>
			<path class="st23" d="M332.3,568.4c10.4-20.3,44.2-98.8,44.2-98.8l-43.3-6.7c0,0-17.3,39.5-25.5,66.8c-4,13.3-9.4,26.4-10.6,28.5
				c-1.2,2.1-56.5,44-62.5,47.1s-29.2,11.1-40.2,22.3c-11.1,11.2-5.7,26.6-5.7,26.6c23.5,30.2,66.8-9.1,66.8-9.1
				S317.7,596.9,332.3,568.4z"/>
		</g>
	</g>
	<g>
		<g>
			<path class="st24" d="M245.2,1335.6c0,0,14.9,15.6,30,18.9s25.7,7.5,25.8,16.4c0.1,9-43.5,14.9-60.8,5.8
				c-25.8-13.5-28.5-9.4-31.3-16.2c-2.9-6.8,3.4-24.8,3.3-27C211.9,1331,245.2,1335.6,245.2,1335.6z"/>
		</g>
	</g>
	<g>
		<g>
			<path class="st25" d="M243.5,1328.1c0,0,2,7.3,1.7,7.5s-34.1,3.9-33.1-1.9c0.8-4.8,2-10,2-10L243.5,1328.1z"/>
		</g>
	</g>
	<g>
		<g>
			<path class="st24" d="M76.9,1339.7c0,0,11,15.2,25.6,18.8c14.5,3.5,23.8,10.1,24.5,18.8c0.7,8.7-34.1,20.2-58.5,4.8
				c-16.1-10.1-22.1-9.5-25.3-15.9s1.7-24.3,1.4-26.4C44.2,1337.2,76.9,1339.7,76.9,1339.7z"/>
		</g>
	</g>
	<g>
		<g>
			<path class="st25" d="M76.4,1332.1c0,0,0.7,7.4,0.4,7.5c-0.3,0.2-32.5,5.9-32.3,0.1c0.2-4.6,2-10.4,2-10.4L76.4,1332.1z"/>
		</g>
	</g>
	<g>
		<g>
			<path class="st26" d="M209.4,887.8c0,0,15.7,113.7,22,152.1c7.5,44.9,10,82.1,12.1,105.3c2.6,29.3,2.6,179,4.4,187.5
				c1.8,8.6-39.9,4.3-39.9,4.3s-27.1-195.4-34.9-226.5c-7.3-29-28.4-154.3-35.1-146.4c-6.6,7.9-26.9,149.9-31.9,172.8
				c-4.9,22.9-25.2,203.3-25.2,203.3s-33.5,9.2-42.5,2c0,0,2.9-163,6.1-205.9c1.2-16.3-10.3-195.7,17.3-268
				C76.6,830.2,209.4,887.8,209.4,887.8z"/>
		</g>
	</g>
	<g>
		<path class="st23" d="M163.5,615.2c0,0,41.4,8.6,46.3,12.9c5.3,4.6,14.7,50,15.3,62.6s-5,65.4-10.3,85.1
			c-5.3,19.7-4.4,116.5-1,143.7c0,0-83.4,23.7-165.4,13c0,0,13.7-101.9,10.5-128.8c-4.2-34.5-14.3-114-14.3-114s7.3-55.4,14.6-61.6
			c7.3-6.2,57.6-13,57.6-13L163.5,615.2L163.5,615.2z"/>
	</g>
	<g>
		<path class="st27" d="M146.4,487.1c0,0,49.8-18.4,46.7,47.8c-3.1,66.2-14.8,72.9-47.6,63.7c-32.8-9.2-35.5-51-39.8-71.1
			C101.5,507.3,130.1,490,146.4,487.1z"/>
	</g>
	<g>
		<path class="st27" d="M170,624.1c0,0-10.3,6.8-49.1-10.3c0,0,1.1-26.7-6.5-51.5c-7.6-24.9,52.2,33.2,52.2,33.2
			c-0.6,0.4-0.7,2.9-0.4,6.4c0.3,2.9,0.9,6.6,1.9,10.3C170.3,620.4,170,616.9,170,624.1z"/>
	</g>
	<g>
		<path class="st28" d="M112.7,560.3c0,0-0.1-17.7,7.2-19.3c7.4-1.6,11.1,8.6,11.1,8.6l5.9-0.3c0,0-5.3-17.9,1.7-22s49-0.5,54.2-6.5
			c5.3-6,9.8-40.4-5.5-49.2c-10.4-6-51-6.8-70.8,10.9c0,0-17.3,0.3-18,14.4C97.9,510.7,106.7,550.7,112.7,560.3z"/>
	</g>
	<g>
		<path class="st29" d="M168.1,612.1c-38.6-6.5-44.4-28.5-44.5-28.8c15,19.4,42.6,18.5,42.6,18.5
			C166.5,604.8,167.1,608.4,168.1,612.1z"/>
	</g>
	<g>
		<path class="st27" d="M128.2,533.4c-2.2-5.8-14.6-5.1-13.4,4.1c1.3,9.2,11.5,23.5,15.7,20.8C134.7,555.7,131.3,541.5,128.2,533.4z
			"/>
	</g>
	<g>
		<path class="st23" d="M179.5,618.7c0,0,18.1,5.1,44.1-8.6s-24.9,37.2-24.9,37.2L179.5,618.7z"/>
	</g>
	<g>
		<path class="st23" d="M279.7,625.4c0,0-54.8,63.9-55,78.8c-0.2,14.8-10-45.5-10-45.5L279.7,625.4z"/>
	</g>
	<g>
		<path class="st30" d="M105.3,616.9c0,0,40,26.9,69.1,33.9c1.2,0.3,0-33.2,0-33.2S149.9,607.7,105.3,616.9z"/>
	</g>
	<g>
		<path class="st27" d="M133.2,612.7c0,0,15.8,7.6,28.2,8.7c0,0,6.4-2.4,6.7-9.3L133.2,612.7z"/>
	</g>
	<g>
		<path class="st31" d="M168.1,612.1c0,0-2.1,7-6.7,9.3l14.3,15.3l-1.2-19.2L168.1,612.1z"/>
	</g>
	<g>
		<path class="st23" d="M81.9,625.6c0,0,25.9,7.1,11.7,54.8c-11.2,37.3-12.7,45.3-12.7,45.3l-59.9-15c0,0,17.6-81.9,46.2-86.3
			C67.2,624.4,76.4,623.1,81.9,625.6z"/>
	</g>
	<g>
		<g>
			<g>
				<g>
					<g>
						<g>
							<path class="st27" d="M17.3,975.9c0,0-1.8-4-1.8-6.1c0,0,0.4-3.9,0.5-6.6c0-0.9,0-1.6,0-2.1c-0.2-2.1-1.3-6.5-0.4-11.6
								c0.9-5.1,10.4-26,10.4-26l12.8,1.9l12.2,0.1c0,0,11.3,29.5,11.1,34.4c0,0.5-0.1,0.9-0.2,1.4c-0.6,4.1-2.8,6.8-3.4,8.9
								c-0.2,0.8-2.9,8.3-5.1,9.1c-3.1,1.1-5.7,0.7-7.5-0.7c0,0-6.2,1.9-10.2,0.3c0,0-5.6,2-10.1-1.5
								C25.5,977.4,19.5,978.7,17.3,975.9z"/>
						</g>
					</g>
				</g>
			</g>
		</g>
	</g>
	<g>
		<path class="st23" d="M85,628.8c5.4,2.1,8.7,2.6,5.2,30.4c-1.4,11.2-7.3,45.7-10.9,52.2c-3.7,6.5-21.1,56.3-22.2,62.6
			c-1.7,9.1-2,77.8-2,81.2c0,7.8,0.2,73.6,0.2,73.6l-44,6.4c0,0-5-76.1-5.9-85.2c-2-20.9-2.3-64.3,1.6-87.6
			c4.3-26.6,20.6-78.7,22.9-82.8C32.2,675.4,49.1,614.9,85,628.8z"/>
	</g>
	<g>
		<path class="st32" d="M68.2,735.3c0,0-12.9,36.8-13.2,42.1c-0.3,5.3-1.5,136.1-1.5,136.1S67.3,778.5,68.2,735.3z"/>
	</g>
	<g>
		<path class="st31" d="M120.9,606.4c0,0,20.3,12.3,40.4,15l-7.4,20.3l-37.6-26.8L120.9,606.4z"/>
	</g>
</g>
<g>
	<rect x="763.5" y="895" class="st33" width="127.7" height="387.7"/>
</g>
<g>
	<path class="st34" d="M335.1,1081.7h984.6c32.5,0,58.8-26.3,58.8-58.8v-660c0-32.5-26.3-58.8-58.8-58.8H335.1
		c-32.5,0-58.8,26.3-58.8,58.8v659.9C276.2,1055.4,302.6,1081.7,335.1,1081.7z"/>
</g>
<path class="st35" d="M1099.9,1297.3h-545c-8.1,0-14.6-6.6-14.6-14.6l0,0c0-8.1,6.6-14.6,14.6-14.6h545c8.1,0,14.6,6.6,14.6,14.6
	l0,0C1114.5,1290.7,1108,1297.3,1099.9,1297.3z"/>
<g>
	<path class="st36" d="M1492,672.2c17.3-8.3,34.5,46.8,34.5,46.8c29.4,38.8,70.5-12.8,66.5,45.2c-7,101.6,117,32,59.8,138
		c-57.2,106.1,50.5,60,15,145.5s10.5,187.6-43,145.6c0,0-47.1-103.3-95.7-135.2c-48.6-32,29.1-69.9,13.9-113.3
		c-22.1-63-75.3-60.6-36.9-128.3C1544.4,748.8,1433.2,700.3,1492,672.2z"/>
	<g>
		<path class="st37" d="M1641.6,1154.5c-23.2-16.3-50.3-129.9-51.9-197.6c-0.8-34.7-11.1-49.1-20.1-61.9
			c-8.6-12.2-16.1-22.7-11.8-46.9c8.3-46.2-13.5-66.1-13.8-66.3l2.5-2.9c1,0.9,23.7,21.4,15,69.8c-4.1,22.6,2.6,32,11.1,44
			c8.9,12.5,20,28.1,20.8,64c1.7,72.6,29.5,179.9,50.3,194.6L1641.6,1154.5z"/>
	</g>
	<g>
		<path class="st38" d="M1650.3,1162.9c-3,0-6.2-0.3-9.8-1.1c-8.9-1.8-14.8-6.5-17.4-14c-6.2-17.9,8.2-46.9,20-60.9
			c0.2-0.2,19.9-24.3,17.8-57.6c-0.4-5.6-0.9-10.8-1.4-15.3c-1.5-13.2-2.5-22.7,3.1-29.1c5-5.6,14.6-8,32.2-8.1
			c30.9-0.1,43.1-12.9,52.9-23.2c4.2-4.4,8.1-8.5,12.9-11.1l0,0c15.4-8.4,31.7-9.6,38.7-2.9c3.4,3.2,6.2,9.4,0.6,21
			c-5.1,10.6-11.7,17.3-17,22.7c-7.1,7.3-11.8,12.1-9.4,21.6c0.6,2.2,1.2,4.5,1.9,6.8c4.8,16.3,10.1,34.7-17.7,47.2
			c-5.9,2.7-11.3,4.8-16,6.6c-19.4,7.6-31.2,12.2-44.4,40.2c-2.6,5.4-4.8,10.5-7,15.5C1679.8,1145,1671.9,1162.9,1650.3,1162.9z
			 M1762.3,945.9c-4.3,2.3-7.8,6-11.9,10.4c-10.3,10.8-23.1,24.2-55.6,24.4c-16.2,0.1-25.2,2.2-29.4,6.8c-4.5,5.1-3.5,13.9-2.2,26.1
			c0.5,4.6,1.1,9.8,1.5,15.5c2.2,34.9-17.8,59.3-18.7,60.3c-11.6,13.9-24.8,41.4-19.3,57.2c2.1,6.1,7,10,14.6,11.5
			c26.2,5.3,33.5-11.1,45.5-38.3c2.2-5,4.5-10.1,7.1-15.6c13.9-29.3,26.9-34.4,46.5-42.1c4.7-1.8,10-3.9,15.9-6.6
			c24.8-11.1,20.3-26.4,15.6-42.6c-0.7-2.3-1.4-4.6-1.9-6.9c-3-11.7,2.9-17.7,10.4-25.3c5.4-5.5,11.4-11.7,16.2-21.7
			c2.5-5.3,4.6-12.4,0.2-16.6C1790.8,936.9,1776,938.4,1762.3,945.9L1762.3,945.9z"/>
	</g>
	<g>
		<path class="st38" d="M1640.9,1185.1l-3.8-0.2c0.2-3.6,5-88.4,39.1-113.2c37.4-27.2,49.1-56.5,54.7-76.1
			c6.6-23.1,40.2-29.3,41.7-29.6l0.7,3.8c-0.3,0.1-32.7,6-38.7,26.9c-5.8,20.2-17.9,50.2-56.2,78.2
			C1645.8,1098.5,1641,1184.2,1640.9,1185.1z"/>
	</g>
	<path class="st38" d="M1718.8,757.7c-24.2-8.3-19.2,38.3-29.4,72.8s-113.8,15.1-70.3,101.5s-55,28.9-25.6,104.3
		s2.6,156.1,34.5,135.5c32-20.5,18-115.5,51.2-126.8s38.7-24.4,5.8-55.1s86.2-61.1,56.8-123.1C1712.4,805,1746.7,767.3,1718.8,757.7
		z"/>
	<g>
		<path class="st37" d="M1642.8,1168.3c-3-12.9-29-126.5-4.8-140.2c21.4-12.1,20.8-59.2,17.5-103.6c-3-39.4,47.6-57.7,49.7-58.5
			l1.3,3.6c-0.5,0.2-49.9,18.2-47.2,54.6c3.4,45.7,3.8,94.1-19.4,107.3c-18.4,10.4-1.5,101.7,6.6,136L1642.8,1168.3z"/>
	</g>
	<polygon class="st38" points="1697.8,1127.8 1663.3,1258.9 1586.1,1258.9 1551.5,1127.8 	"/>
	<path class="st36" d="M1697.8,1127.8c0,0-76.1,14.3-76.1,131.1H1586l-34.5-131.1H1697.8z"/>
</g>
<g>
	<rect x="319.5" y="221.3" class="st37" width="1015.9" height="738.5"/>
</g>
<g>
	
		<linearGradient id="SVGID_67_" gradientUnits="userSpaceOnUse" x1="319.4398" y1="-1014.05" x2="1335.4398" y2="-1014.05" gradientTransform="matrix(1 0 0 1 0 1280)">
		<stop  offset="0" style="stop-color:#FF9F55"/>
		<stop  offset="1" style="stop-color:#FFD255"/>
	</linearGradient>
	<polygon class="st39" points="319.4,310.5 1335.4,310.5 1335.4,221.4 319.4,221.4 	"/>
</g>
<path class="st40" d="M489.9,282.8H378.7c-9.3,0-16.9-7.5-16.9-16.9l0,0c0-9.3,7.5-16.9,16.9-16.9h111.2c9.3,0,16.9,7.5,16.9,16.9
	l0,0C506.7,275.3,499.2,282.8,489.9,282.8z"/>
<g>
	<g>
		<rect x="319.4" y="221.4" class="st37" width="1015.9" height="738.5"/>
	</g>
	<g>
		<g>
			<rect x="319.4" y="221.4" class="st38" width="1015.9" height="83"/>
		</g>
		<g>
			<path class="st22" d="M1335.4,312.6H468.7c-8.5,0-15.4-6.9-15.4-15.4V258h882.1V312.6z"/>
		</g>
		<g>
			<path class="st37" d="M1021.4,300.3H487.9c-9.2,0-16.7-7.5-16.7-16.7l0,0c0-9.2,7.5-16.7,16.7-16.7h533.5
				c9.2,0,16.7,7.5,16.7,16.7l0,0C1038.1,292.8,1030.6,300.3,1021.4,300.3z"/>
		</g>
		<g>
			<path class="st37" d="M1301,300.3h-217c-9.2,0-16.7-7.5-16.7-16.7l0,0c0-9.2,7.5-16.7,16.7-16.7h217c9.2,0,16.7,7.5,16.7,16.7
				l0,0C1317.8,292.8,1310.3,300.3,1301,300.3z"/>
		</g>
		<g>
			<g>
				<polygon class="st41" points="380.7,290.2 378.4,287.9 388.2,278.1 377.8,267.8 380.1,265.5 392.8,278.1 				"/>
			</g>
		</g>
		<g>
			<g>
				<polygon class="st41" points="353.2,290.2 340.5,277.5 352.6,265.5 354.9,267.8 345.1,277.5 355.5,287.9 				"/>
			</g>
		</g>
		<g>
			<path class="st41" d="M440.6,282l-5.2-8.3l-7,7.1l1.9,1.8l3.2-3.3c-0.9,6.2-6,10.8-12.2,10.8c-6.8,0-12.4-5.5-12.4-12.4
				c0-6.8,5.5-12.4,12.4-12.4v-2.6c-8.3,0-15,6.7-15,15s6.7,15,15,15c7.5,0,13.7-5.6,14.8-13.1l2.3,3.7L440.6,282z"/>
		</g>
		<g>
			<path class="st41" d="M1335.4,259.2h-79.1c-6.8,0-12.3-5.5-12.3-12.3v-5.5c0-6.8,5.5-12.3,12.3-12.3h79.1V259.2z"/>
		</g>
		<g>
			<g>
				<path class="st42" d="M1277.3,244.2c0,4.4-3.6,8-8,8s-8-3.6-8-8s3.6-8,8-8C1273.7,236.1,1277.3,239.7,1277.3,244.2z"/>
			</g>
			<g>
				<path class="st42" d="M1297.5,244.2c0,4.4-3.6,8-8,8s-8-3.6-8-8s3.6-8,8-8C1293.9,236.1,1297.5,239.7,1297.5,244.2z"/>
			</g>
			<g>
				<path class="st43" d="M1317.8,244.2c0,4.4-3.6,8-8,8s-8-3.6-8-8s3.6-8,8-8C1314.2,236.1,1317.8,239.7,1317.8,244.2z"/>
			</g>
		</g>
		<g>
			<path class="st22" d="M1208.4,252.2H342.1c-12.5,0-22.7-10.2-22.7-22.7v-8.1h911.7v8.2C1231.1,242,1221,252.2,1208.4,252.2z"/>
		</g>
	</g>
</g>
<g>
	<g>
		<path class="st44" d="M1059.8,404.9H867.7c-5.8,0-10.5-4.7-10.5-10.5l0,0c0-5.8,4.7-10.5,10.5-10.5h192.1
			c5.8,0,10.5,4.7,10.5,10.5l0,0C1070.3,400.2,1065.6,404.9,1059.8,404.9z"/>
		<path class="st44" d="M1229.6,442.9H867.7c-5.8,0-10.5-4.7-10.5-10.5l0,0c0-5.8,4.7-10.5,10.5-10.5h361.9
			c5.8,0,10.5,4.7,10.5,10.5l0,0C1240.1,438.2,1235.4,442.9,1229.6,442.9z"/>
		<path class="st45" d="M834.9,442.9L834.9,442.9c4.3,0,7.7-3.4,7.7-7.7v-43.6c0-4.3-3.4-7.7-7.7-7.7l0,0c-4.3,0-7.7,3.4-7.7,7.7
			v43.6C827.2,439.4,830.7,442.9,834.9,442.9z"/>
	</g>
	<g>
		<path class="st44" d="M1119.1,533.5H867.6c-5.8,0-10.5-4.7-10.5-10.5l0,0c0-5.8,4.7-10.5,10.5-10.5h251.5
			c5.8,0,10.5,4.7,10.5,10.5l0,0C1129.7,528.8,1124.9,533.5,1119.1,533.5z"/>
		<path class="st44" d="M1179.4,571.5H867.7c-5.8,0-10.5-4.7-10.5-10.5l0,0c0-5.8,4.7-10.5,10.5-10.5h311.7
			c5.8,0,10.5,4.7,10.5,10.5l0,0C1189.9,566.8,1185.2,571.5,1179.4,571.5z"/>
		<path class="st38" d="M834.9,571.5L834.9,571.5c4.3,0,7.7-3.4,7.7-7.7v-43.6c0-4.3-3.4-7.7-7.7-7.7l0,0c-4.3,0-7.7,3.4-7.7,7.7
			v43.6C827.2,568,830.7,571.5,834.9,571.5z"/>
	</g>
	<g>
		<path class="st44" d="M1005.8,653.8H867.6c-5.8,0-10.5-4.7-10.5-10.5l0,0c0-5.8,4.7-10.5,10.5-10.5h138.2
			c5.8,0,10.5,4.7,10.5,10.5l0,0C1016.4,649.1,1011.7,653.8,1005.8,653.8z"/>
		<path class="st44" d="M1217.5,691.8H867.7c-5.8,0-10.5-4.7-10.5-10.5l0,0c0-5.8,4.7-10.5,10.5-10.5h349.8
			c5.8,0,10.5,4.7,10.5,10.5l0,0C1228,687.1,1223.3,691.8,1217.5,691.8z"/>
		<path class="st38" d="M834.9,691.8L834.9,691.8c4.3,0,7.7-3.4,7.7-7.7v-43.6c0-4.3-3.4-7.7-7.7-7.7l0,0c-4.3,0-7.7,3.4-7.7,7.7
			v43.6C827.2,688.3,830.7,691.8,834.9,691.8z"/>
	</g>
</g>
<g>
	<rect x="422.2" y="880.6" class="st46" width="41.7" height="5.1"/>
	<rect x="412.1" y="871.5" class="st46" width="61.9" height="5.1"/>
	<path class="st36" d="M453.9,801c0,5.9-4.8,10.8-10.8,10.8c-5.9,0-10.8-4.8-10.8-10.8s4.8-10.8,10.8-10.8
		C449.1,790.2,453.9,795.1,453.9,801z"/>
	<path class="st36" d="M462.6,836.1v20.5c-5.9,2.7-12.6,4.2-19.5,4.2c-7,0-13.6-1.5-19.5-4.2v-20.5c0-10.8,8.7-19.5,19.5-19.5
		C453.8,816.6,462.6,825.3,462.6,836.1z"/>
	<g>
		
			<linearGradient id="SVGID_68_" gradientUnits="userSpaceOnUse" x1="443.1398" y1="-499.8821" x2="443.1398" y2="-399.0028" gradientTransform="matrix(1 0 0 1 0 1280)">
			<stop  offset="0" style="stop-color:#D3DAE0"/>
			<stop  offset="1" style="stop-color:#FFFFFF"/>
		</linearGradient>
		<path class="st47" d="M443,862c-7,0-13.7-1.5-20-4.3c-17.3-7.9-28.4-25.2-28.4-44.2c0-26.7,21.7-48.5,48.5-48.5
			c26.7,0,48.5,21.7,48.5,48.5c0,19-11.2,36.3-28.4,44.2C456.8,860.6,450,862,443,862z M443,767.6c-25.3,0-45.9,20.6-45.9,45.9
			c0,18,10.6,34.4,26.9,41.8c6,2.7,12.4,4.1,19,4.1s13-1.4,19-4.1c16.4-7.4,26.9-23.9,26.9-41.8C489,788.2,468.4,767.6,443,767.6z"
			/>
	</g>
</g>
<g>
	<rect x="561.8" y="880.6" class="st46" width="41.7" height="5.1"/>
	<rect x="551.7" y="871.5" class="st46" width="61.9" height="5.1"/>
	<path class="st36" d="M593.5,801c0,5.9-4.8,10.8-10.8,10.8s-10.8-4.8-10.8-10.8s4.8-10.8,10.8-10.8S593.5,795.1,593.5,801z"/>
	<path class="st36" d="M602.2,836.1v20.5c-5.9,2.7-12.6,4.2-19.5,4.2c-7,0-13.6-1.5-19.5-4.2v-20.5c0-10.8,8.7-19.5,19.5-19.5
		C593.4,816.6,602.2,825.3,602.2,836.1z"/>
	<g>
		
			<linearGradient id="SVGID_69_" gradientUnits="userSpaceOnUse" x1="582.8398" y1="-499.8821" x2="582.8398" y2="-399.0028" gradientTransform="matrix(1 0 0 1 0 1280)">
			<stop  offset="0" style="stop-color:#D3DAE0"/>
			<stop  offset="1" style="stop-color:#FFFFFF"/>
		</linearGradient>
		<path class="st48" d="M582.7,862c-7,0-13.7-1.5-20-4.3c-17.3-7.9-28.4-25.2-28.4-44.2c0-26.7,21.8-48.5,48.5-48.5
			s48.5,21.7,48.5,48.5c0,19-11.2,36.3-28.4,44.2C596.4,860.6,589.6,862,582.7,862z M582.7,767.6c-25.3,0-45.9,20.6-45.9,45.9
			c0,18,10.6,34.4,26.9,41.8c6,2.7,12.4,4.1,19,4.1s13-1.4,19-4.1c16.4-7.4,26.9-23.9,26.9-41.8C628.6,788.2,608,767.6,582.7,767.6z
			"/>
	</g>
</g>
<g>
	<rect x="701.4" y="880.6" class="st46" width="41.7" height="5.1"/>
	<rect x="691.3" y="871.5" class="st46" width="61.9" height="5.1"/>
	<path class="st36" d="M733.1,801c0,5.9-4.8,10.8-10.8,10.8c-5.9,0-10.8-4.8-10.8-10.8s4.8-10.8,10.8-10.8
		C728.3,790.2,733.1,795.1,733.1,801z"/>
	<path class="st36" d="M741.8,836.1v20.5c-5.9,2.7-12.6,4.2-19.5,4.2c-7,0-13.6-1.5-19.5-4.2v-20.5c0-10.8,8.7-19.5,19.5-19.5
		C733,816.6,741.8,825.3,741.8,836.1z"/>
	<g>
		
			<linearGradient id="SVGID_70_" gradientUnits="userSpaceOnUse" x1="722.4398" y1="-499.8821" x2="722.4398" y2="-399.0028" gradientTransform="matrix(1 0 0 1 0 1280)">
			<stop  offset="0" style="stop-color:#D3DAE0"/>
			<stop  offset="1" style="stop-color:#FFFFFF"/>
		</linearGradient>
		<path class="st49" d="M722.3,862c-7,0-13.7-1.5-20-4.3c-17.3-7.9-28.4-25.2-28.4-44.2c0-26.7,21.8-48.5,48.5-48.5
			s48.5,21.7,48.5,48.5c0,19-11.2,36.3-28.4,44.2C736,860.6,729.3,862,722.3,862z M722.3,767.6c-25.3,0-45.9,20.6-45.9,45.9
			c0,18,10.6,34.4,26.9,41.8c6,2.7,12.4,4.1,19,4.1s13-1.4,19-4.1c16.4-7.4,26.9-23.9,26.9-41.8
			C768.2,788.2,747.6,767.6,722.3,767.6z"/>
	</g>
</g>
<g>
	<rect x="841" y="880.6" class="st46" width="41.7" height="5.1"/>
	<rect x="830.9" y="871.5" class="st46" width="61.9" height="5.1"/>
	
		<linearGradient id="SVGID_71_" gradientUnits="userSpaceOnUse" x1="861.9398" y1="-507.3312" x2="861.9398" y2="-392.1372" gradientTransform="matrix(1 0 0 1 0 1280)">
		<stop  offset="0" style="stop-color:#40D5E6"/>
		<stop  offset="1" style="stop-color:#5577FF"/>
	</linearGradient>
	<path class="st50" d="M872.7,801c0,5.9-4.8,10.8-10.8,10.8c-5.9,0-10.8-4.8-10.8-10.8s4.8-10.8,10.8-10.8
		C867.9,790.2,872.7,795.1,872.7,801z"/>
	
		<linearGradient id="SVGID_72_" gradientUnits="userSpaceOnUse" x1="861.9398" y1="-507.3341" x2="861.9398" y2="-392.1328" gradientTransform="matrix(1 0 0 1 0 1280)">
		<stop  offset="0" style="stop-color:#40D5E6"/>
		<stop  offset="1" style="stop-color:#5577FF"/>
	</linearGradient>
	<path class="st51" d="M881.4,836.1v20.5c-5.9,2.7-12.6,4.2-19.5,4.2c-7,0-13.6-1.5-19.5-4.2v-20.5c0-10.8,8.7-19.5,19.5-19.5
		S881.4,825.3,881.4,836.1z"/>
	<g>
		
			<linearGradient id="SVGID_73_" gradientUnits="userSpaceOnUse" x1="862.0398" y1="-499.8821" x2="862.0398" y2="-399.0028" gradientTransform="matrix(1 0 0 1 0 1280)">
			<stop  offset="0" style="stop-color:#D3DAE0"/>
			<stop  offset="1" style="stop-color:#FFFFFF"/>
		</linearGradient>
		<path class="st52" d="M861.9,862c-7,0-13.7-1.5-20-4.3c-17.3-7.9-28.4-25.2-28.4-44.2c0-26.7,21.7-48.5,48.5-48.5
			s48.5,21.7,48.5,48.5c0,19-11.2,36.3-28.4,44.2C875.6,860.6,868.9,862,861.9,862z M861.9,767.6c-25.3,0-45.9,20.6-45.9,45.9
			c0,18,10.6,34.4,26.9,41.8c6,2.7,12.4,4.1,19,4.1s13-1.4,19-4.1c16.4-7.4,26.9-23.9,26.9-41.8
			C907.8,788.2,887.2,767.6,861.9,767.6z"/>
	</g>
</g>
<g>
	<rect x="441.1" y="902.4" class="st53" width="3.8" height="16.1"/>
	<rect x="435" y="908.5" class="st53" width="16.1" height="3.8"/>
</g>
<g>
	<rect x="580.8" y="902.4" class="st53" width="3.8" height="16.1"/>
	<rect x="574.7" y="908.5" class="st53" width="16.1" height="3.8"/>
</g>
<g>
	<rect x="720.5" y="902.4" class="st53" width="3.8" height="16.1"/>
	<rect x="714.4" y="908.5" class="st53" width="16.1" height="3.8"/>
</g>
<g>
	<rect x="860.2" y="902.4" class="st53" width="3.8" height="16.1"/>
	<rect x="854.1" y="908.5" class="st53" width="16.1" height="3.8"/>
</g>
<path class="st45" d="M611.4,533.2L500.3,469c-5.5-3.2-12.4,0.8-12.4,7.2v128.3c0,6.4,6.9,10.4,12.4,7.2l111.1-64.2
	C616.9,544.4,616.9,536.4,611.4,533.2z"/>
<g>
	<path class="st27" d="M1254.2,847.4c0,0-9.2-1-13.5-0.8s-23.5,11-29.9,10.7s-49.5-14.4-51.5-15.5s0.5-4.2,0.5-4.2l95.3-9.4
		L1254.2,847.4z"/>
	<g>
		<path class="st38" d="M1330.9,693.7l9.8,100.4c0,0,4.3,12.4-23.8,17c-28.7,4.7-73.6,14.4-73.6,14.4s0.7,33.5,4.5,33.7
			c10.9,0.6,92.4-13.2,124.7-20c25.6-5.4,9.6-142.3,9.6-142.3L1330.9,693.7z"/>
	</g>
	<path class="st27" d="M1252.9,813.6c0,0-8.9,2.4-13.2,2.8c-4.3,0.4-24.8-7.4-31.2-6.1c-6.3,1.3-46.9,21.6-48.7,23
		c-1.8,1.4,1.1,4.1,1.1,4.1l95.7-4.9L1252.9,813.6z"/>
	<g>
		<g>
			<g>
				<path class="st54" d="M1358.6,1344.6c0,0-19.8,12.1-28.8,16.5c-9,4.5-44.1,6.2-47.6,9.5c-3.4,3.3-2,13.8,3.8,14.8
					s48.6,4.4,62.8,0.8c14.2-3.5,40.9,1.8,46.8-0.3c5.9-2.1,1.7-33.9-0.7-41C1392.6,1338,1358.6,1344.6,1358.6,1344.6z"/>
			</g>
		</g>
	</g>
	<g>
		<g>
			<g>
				<path class="st55" d="M1356.8,1331.6l1.8,13c0,0,26.8,4.7,34.8,0.5l-2.2-13.5H1356.8z"/>
			</g>
		</g>
	</g>
	<path class="st54" d="M1304,876.3c-0.8,9-1.3,28.6-1.8,49.2c-0.1,4.6-0.2,9.2-0.3,13.8c-0.5,27.8-0.8,53.5-0.8,53.5
		c1.3,34.9,6.8,110.5,17.2,127.4c14,22.9,30.3,213.5,30.3,213.5l51.5,5.5c0,0,3.2-127.4-4.5-160.7c-8.6-37.2-25.1-87.8-15.7-121.6
		c5.9-21.2,18.3-89.5,18.3-89.5s13.2-76.8-0.5-135.7C1394.3,817,1304,876.3,1304,876.3z"/>
	<g>
		<g>
			<g>
				<path class="st54" d="M1270.1,1344.6c0,0-19.8,12.1-28.8,16.5c-9,4.5-44.1,6.2-47.6,9.5c-3.4,3.3-2,13.8,3.8,14.8
					s48.6,4.4,62.8,0.8c14.2-3.5,40.9,1.8,46.8-0.3c5.9-2.1,1.7-33.9-0.7-41C1304.1,1338,1270.1,1344.6,1270.1,1344.6z"/>
			</g>
		</g>
	</g>
	<g>
		<g>
			<g>
				<path class="st55" d="M1268.3,1331.6l1.8,13c0,0,26.8,4.7,34.8,0.5l-2.2-13.5H1268.3z"/>
			</g>
		</g>
	</g>
	<path class="st54" d="M1257.2,1337.5h52.8c0,0,17.7-102.2,19.2-147.2l0,0c0.2-4.9,0.1-9.1-0.1-12.4c-0.8-9.5-1.9-20-3-30.8
		c0-0.1,0-0.2,0-0.2c-3.1-32.2-5.4-67.6,5.3-91.5c9-20.1,31.2-85.9,31.2-85.9s24.3-74,19.4-134.3c-1.2-15.1-95.1,22.8-95.1,22.8
		c-2.1,8.8-8.3,36.4-10.6,56.9c-12.7,117.1-8,193.4-8,193.4C1275.5,1134.1,1257.2,1337.5,1257.2,1337.5z"/>
	<g>
		<path class="st56" d="M1295,608.3c0,0-18.3,43.6-22.1,66.9c-3.8,23.3,11.7,87.2,12.4,100.4c2.2,41,3.2,86.3,3.2,86.3l89.4,39.9
			c0,0,9.5-36.4,15.9-80.9s1.6-83-2.3-108.6c-12.5-80.3-62.7-119.2-62.7-119.2L1295,608.3z"/>
	</g>
	<g>
		<path class="st27" d="M1227.2,529.9c0,0-6.2,24,0.3,25.9c5.3,1.6,0.3,24.9-0.2,28.6s9.9,3.8,12.5,5.4c2.6,1.7,15.4,27,23.7,25.9
			c8.3-1.2,41.5-22.8,48.9-35.5c7.4-12.7,4-61.3-7.4-79.3C1293.5,482.8,1238.2,487.9,1227.2,529.9z"/>
	</g>
	<g>
		<path class="st27" d="M1277.6,589c0,0,0.6,2.4,1.6,6c0.4,1.5,0.8,3.3,1.3,5.2c0.4,1.4,0.7,3,1.1,4.6c0.1,0.6,0.3,1.1,0.4,1.7
			c0.6,2.7,1.2,5.4,1.8,8.2c1.4,7.1,2.5,13.9,2.3,17.8c-0.5,10.7,37.7-39.9,37.7-39.9s-8.9-33.5-12.8-72
			C1307.1,481.8,1277.6,589,1277.6,589z"/>
	</g>
	<g>
		<path class="st54" d="M1226,535c0,0-17.3-20-0.3-42.2c17-22.2,63.4-2,68.1-2c4.7,0.1,29.6-4.4,28.3,42.6c-1.2,41.8-3.2,40-3.2,40
			s-12.9-17.5-18.3-19.7c-8.4-3.4-23.8,1.7-23.8,1.7s2.6-21.7-9.8-21.6C1254.6,533.8,1236.7,527.7,1226,535z"/>
	</g>
	<g>
		<path class="st27" d="M1286.4,540.9c0.4-3,0.8-15.5,12.5-11.1s0.9,30.4-0.8,31.2C1296.4,561.7,1283.3,566,1286.4,540.9z"/>
	</g>
	<path class="st57" d="M1282.7,876.4c0,0,4.1-19.3,4.9-22.2l120.7,20.1l-1.2,15.6C1407,889.8,1320.1,884.6,1282.7,876.4z"/>
	<path class="st36" d="M1408.6,779.8c0,0-6.4,83.9,36.2,174.2c5.2,11-79.9,10.4-79.9,10.4L1408.6,779.8z"/>
	<g>
		<path class="st36" d="M1284.3,705.1c1.6,9.3,2.9,18.6,4.1,28l0,0c2.3,18.7,4,37.4,5,55.6c0.1,1.9,0.2,3.8,0.3,5.7
			c0.2,3.1,0.3,6.1,0.4,9.2c0.2,4,0.3,8.1,0.4,12c2.4,83,33.1,148.4,33.1,148.4s61,4.2,76.7-4.4c0,0,10.9-93.5,6-185.9
			c-0.4-7.1-0.9-14.3-1.4-21.3l0,0c-6.2-74.9-35.5-147.2-80.3-159.5C1327.6,594,1276,656.4,1284.3,705.1z"/>
	</g>
	
		<rect x="1086.9" y="835.2" transform="matrix(0.9992 -4.037631e-02 4.037631e-02 0.9992 -33.0665 47.7867)" class="st58" width="159.3" height="14.6"/>
	
		<rect x="1060" y="695.9" transform="matrix(0.9412 -0.338 0.338 0.9412 -199.3143 406.3853)" class="st58" width="14.6" height="159.3"/>
	<path class="st59" d="M1304.9,1099.3c4.5,29,23.9,89.7,24.3,91.1c0.2-4.9,0.1-9.1-0.1-12.4c-0.8-9.5-1.9-20-3-30.8
		c0-0.1,0-0.2,0-0.2c-1-9.4-7.8-26.8-12.2-38.6c-4.5-11.9-8.9-59.1-8.9-59.1S1300.4,1069.9,1304.9,1099.3z"/>
	<path class="st29" d="M1282,606.4c0.6,2.7,1.2,5.4,1.8,8.2c11.2-7.7,24.1-28.2,24.9-29.5C1304.1,591.7,1282.3,606.2,1282,606.4z"/>
	<path class="st60" d="M1293.7,784c0.1,1.9,0.2,3.7,0.3,5.6c0.2,3,0.3,6,0.4,8.9c13.7-2.8,39.7-9.8,47.5-23.6
		c10.7-18.9-15.9-63-16.5-64c0.2,1.2,11.4,55.5,0,60.9C1318.1,775.3,1302.8,780.1,1293.7,784z"/>
	<path class="st36" d="M1284.5,645.4c0,0-9.3,46.5-1.1,102c6.8,46.4,9.5,79.8,9.5,79.8l-3.4,13.1l-6.3-10.1c0,0-10.8-59.5-12.8-84.2
		c-2-24.9-4.2-58.4,10.3-100.8L1284.5,645.4z"/>
	<path class="st61" d="M1285.1,645.4c0,0-1.1,1.5-3,2c-1.9,0.6-5-2.1,2.7-16.3L1285.1,645.4z"/>
	<g>
		<path class="st62" d="M1322.4,587.1c0,0-23.6,30-39,38.1l0.6,25.2l44.7-57.5L1322.4,587.1z"/>
	</g>
	<path class="st38" d="M1373.6,669.4c-1.8-11.5-15.2-60.2-42.7-53c-27.5,7.2-19.8,40.3-13.8,65.3c6.3,26.1,28.8,89.3,24.9,93.2
		s-35.8,18.4-42.7,20.8c-6.9,2.4-51.1,16.4-54.5,17.9c-3.3,1.4,17.1,37.6,17.1,37.6s110.1-37.5,128.8-49.7
		C1409.2,789.3,1373.6,669.4,1373.6,669.4z"/>
</g>
<g>
	<g>
		<path class="st36" d="M1458.4,730.8h252.1c13,0,23.6-10.6,23.6-23.6V371.3c0-13-10.6-23.6-23.6-23.6h-252.1
			c-13,0-23.6,10.5-23.6,23.6v335.9C1434.8,720.2,1445.4,730.8,1458.4,730.8z"/>
	</g>
	<g>
		<g>
			<g>
				<rect x="1621.3" y="379.5" class="st37" width="77" height="8.8"/>
			</g>
		</g>
	</g>
	<g>
		<g>
			<g>
				<rect x="1641.8" y="398.9" class="st37" width="56.5" height="8.8"/>
			</g>
		</g>
	</g>
	<g>
		<g>
			<g>
				<rect x="1559.4" y="418.1" class="st37" width="138.9" height="8.8"/>
			</g>
		</g>
	</g>
	<g>
		<g>
			<g>
				<rect x="1470.1" y="473.6" class="st37" width="95.3" height="8.8"/>
			</g>
		</g>
	</g>
	<g>
		<g>
			<g>
				<rect x="1470.1" y="492.8" class="st37" width="129.1" height="8.8"/>
			</g>
		</g>
	</g>
	<g>
		<g>
			<g>
				<rect x="1470.1" y="512.1" class="st37" width="172.1" height="8.8"/>
			</g>
		</g>
	</g>
	<g>
		<g>
			<g>
				<rect x="1470.1" y="567.6" class="st37" width="105" height="8.8"/>
			</g>
		</g>
	</g>
	<g>
		<g>
			<g>
				<rect x="1470.1" y="586.9" class="st37" width="145.2" height="8.8"/>
			</g>
		</g>
	</g>
	<g>
		<g>
			<g>
				<rect x="1470.1" y="606.1" class="st37" width="139.5" height="8.8"/>
			</g>
		</g>
	</g>
</g>
<g>
	<g>
		<g>
			<path class="st63" d="M1016.8,987.2c0,0-1.3-21.7-7-25c-5.7-3.4-2.4,3.3-2.4,3.3s3.2,15.7,3.9,22.1
				C1011.4,987.9,1016.8,987.2,1016.8,987.2z"/>
		</g>
	</g>
	<path class="st64" d="M864.1,531.3c0,0,53.9-4.5,52.4,52.2c-1.5,56.7-10.5,65.2,0,105.3S864,666,864,666L864.1,531.3z"/>
	<path class="st65" d="M818.7,684.5c0,0-76.4,47.6-82.8,42.6c-9-7.1-33.6-67.5-33.6-67.5l-19.2,9.1c0,0,22.9,104.5,53.8,96.8
		S838.7,714,838.7,714L818.7,684.5z"/>
	<path class="st65" d="M922.8,881.7c0,0,19.8,25.3,26.9,42c7,16.7,18.7,53.4,17.1,81.8s-10.9,81.7-8.2,93.8
		c2.7,12.1,5.4,37,8.4,45.5c2.9,8.6,14.6,33.5,15.8,59.2c1.2,25.7-16.3,138.6-15.6,149.1c0.8,10.5-19.8,4.3-19.8,4.3
		s-7-102-10.9-119.5s-8.6-77.1-12.1-81.3c-3.5-4.3-13.1-48.6-11.6-55.7s-38.2-112.1-40.6-133.1c-2.3-21-60.9-86.1-60.9-86.1
		S862.5,862.1,922.8,881.7z"/>
	<path class="st65" d="M828.1,881.7c0,0-1,10.6-2.2,14.5s-28,103.1-30.7,141.3c-2.7,38.1-9.7,70.5-10.9,78.6
		c-1.2,8.1,1.2,35.4,3.5,42.4s-11.7,172.4-12.8,176.3c-1.2,3.9,9.3,5.1,16.7,3.9c7.4-1.2,44.8-121.4,42.4-141.7
		c-2.3-20.2-4.7-63.4,1.9-80.9s66.2-144.4,66.6-152.2C902.9,956.1,928.3,822,828.1,881.7z"/>
	<path class="st65" d="M947.7,1345c0,0-1.9,13.4-4,17.1s-7.9,22.3-10.5,25.8s-8.4,29.7,0,32.8s28.1,8.4,34.7-2.1s7.5-20.9,6.5-29
		c-1-8-9-44.9-8.9-48.5C965.6,1337.5,947.7,1345,947.7,1345z"/>
	<path class="st66" d="M936.5,1380.6c0,0-0.9,20.3,14.5,20.3s22.2-18.5,22.2-18.5s5.2,9.1,0,28.5s-27,15.4-31.9,14.7
		S913.2,1418.8,936.5,1380.6z"/>
	<path class="st66" d="M776.5,1326.7c0,0-10.9,19.4-17.3,23.3c-8,4.9-23.6,20.6-29.1,21.4c-5.4,0.7-25,4.2-21.2,15.3
		c3.1,9.1,49.8,7.8,55.1,3.2c5.3-4.5,21-20.8,27.4-20.5c6.4,0.4,4,23.5,4,23.5h6.9c0,0,2.4-22.5,2.7-26.4
		c0.9-11.5-7.3-19.9-7.7-26.4c-0.4-6.5-0.7-11.4-0.7-11.4L776.5,1326.7z"/>
	<path class="st65" d="M731.7,1370.9c0,0,15.4,5.3,27.2-1.5c11.8-6.8,34.6-17.1,42.6-17.2c0,0-4.4-13.4-4.5-14.9s-0.6-8.6-0.6-8.6
		l-19.9-3.2c0,0-12.9,18.9-18.6,23.4C752.4,1353.4,737.9,1364.5,731.7,1370.9z"/>
	<path class="st36" d="M811,879.9c0,0-5.5,23.1-7.6,29.8c-2,6.7-15.2,110.9-18.4,176c0,0,78.5,29.8,186.5,24.8
		c0,0,2.6-119.7-7.3-153.5c-9.9-33.9-27.9-65.5-41.4-75.3C910.7,873,811,879.9,811,879.9z"/>
	<g>
		<g>
			<path class="st65" d="M990.2,938.4c0,0-1.6,9.7-4.5,19.1s-5.7,12.4-4.5,17.7c0.9,4.1,5.5,7.1,6.6,5.8c1.2-1.3,1.7-17.1,8.2-17
				s-2,19.5,1.9,18.1s18.8-9.6,17.9-17.6c-0.9-7.9-6.9-13.7-6.5-25.5c0.3-10.8-3-15.3-3-15.3L990.2,938.4z"/>
		</g>
	</g>
	<g>
		<g>
			<path class="st27" d="M677.9,664.1c0,0,9.1,11.8,14.7,13.1c5.6,1.3,11.7-12.1,11.7-12.1l-3.3-12L677.9,664.1z"/>
		</g>
	</g>
	<g>
		<g>
			<path class="st27" d="M700.4,660.1c0,0,4.4-13.7,5-15.8s-1.5-8.3-5.4-14.2c-3.8-5.7-8.5-12-10.2-13.7c-0.9-0.9-1.3-1.8-4.2-0.5
				c-2.8,1.3-4.5,3.9-4.5,3.9s-4.2-0.1-6.1,3.4c0,0-4,0.1-5.5,4.3c0,0-3.9,0.2-4.7,3.4c0,0,1.9,5.8,2,8.2s4.8,14.2,11.1,24.9
				C677.9,664.1,687.3,672.1,700.4,660.1z"/>
		</g>
	</g>
	<g>
		<g>
			<path class="st67" d="M690.4,642.4c0,0-4.7,5.5-5.2,7.7c-0.5,2.2-14.3-6-14.3-6S683.6,636.8,690.4,642.4z"/>
		</g>
	</g>
	<g>
		<g>
			<path class="st68" d="M690.6,617.9c0,0,7.6,16.1,5,17.5c-2.5,1.4-4.3,0.4-4.3,0.4l-0.4,8.1c0,0-3.3,5.2-8,0.1
				c0,0-2.6,5.2-6.5-0.3c0,0-3.2,2.7-5.5,0.5c-2.3-2.2-6.1-13.1-6.1-13.1s0.2-2.8,4.6-3.6c0,0,1.1-4.2,5.4-4.4c0,0,2.8-4.2,7.4-4.4
				c0,0,2.5-3.5,7.5-2C689.8,616.5,690.3,617.2,690.6,617.9z"/>
		</g>
	</g>
	<g>
		<g>
			<path class="st27" d="M705.3,643.8c0,0-9.2-8.1-16.2-10.3c-1.6-0.5-3.2-0.7-4.3,0.6c-1.1,1.3-0.6,4.4,3.3,8.1
				c3.8,3.7,7,10.2,7,10.2S700.1,655.1,705.3,643.8z"/>
		</g>
	</g>
	<g>
		<path class="st27" d="M682.3,618.5c0,0,9.2,17,9.1,19s6.2-1.4,6.1-3.1c0-1.7-6.8-16.6-7.7-17.9C689,615.1,684,613.8,682.3,618.5z"
			/>
	</g>
	<g>
		<path class="st27" d="M691.8,619.7c0,0-15-27.9-17.2-26.9c-3.2,1.5-2.3,9.2,10.3,30.1C697.2,643.1,691.8,619.7,691.8,619.7z"/>
	</g>
	<path class="st66" d="M814.6,742.4l-30.8-40.9c0,0,55.1-42.7,72.1-15.5C855.9,686,857.1,730.7,814.6,742.4z"/>
	<path class="st66" d="M796.1,741c0.9,13.7,7.9,25.1,9,30.1c1.2,5,0,16.3,1.5,27.7c1.5,11.4,5.8,65.7,4.4,81.1
		c-1.5,15.5,106.2,8.5,114.4,3.8c0,0-18.1-32.4-18.6-45.8c-0.2-4.6-2.9-19,4.7-29.5c4-5.5,11.4-23.2,18.9-36.1c0,0-1.4-2.7,0,0
		c2.9-5,5.9-10,8-13.7l0,0c2.7-4.9,4.3-10.6,4.3-10.6s4.8-59.5-8.3-66.3c-13.1-6.7-20.1-7.9-33-8.5c-12.8-0.6-21.3-3.2-21.3-3.2
		l-30.1,3.2c0,0-19.3,6.7-26.9,7.3s-17.2,16.9-16.3,27.4C807.5,718.5,795.2,727.3,796.1,741z"/>
	<g>
		<g>
			<path class="st63" d="M995.5,963.3c0,0-8.7,2.2-8.2,31.6l9.8-1.6c0,0-0.2-16.3,2.8-25.1C999.9,968.2,999.4,962.5,995.5,963.3z"/>
		</g>
	</g>
	<g>
		<g>
			<polygon class="st63" points="959.4,1001.6 1036,979.9 1035.8,1074.3 959.5,1120 			"/>
		</g>
	</g>
	<g>
		<polygon class="st63" points="959.5,1120 969.1,1121.8 1043.3,1075.6 1042.4,980.3 1036,979.9 		"/>
	</g>
	<path class="st27" d="M921.4,676.3c0,0,23.9-0.1,34.7,20.9c10.8,21,12,43.2,14.6,51.1s9.5,54.3,12.1,61s18.2,52.3,22,78
		s4.6,51.7,4.6,51.7l-19.2-0.6c0,0-19-69.9-25.6-86.5c-5.6-14.2-7.7-39.1-11-47.8c-3.2-8.8-23.1-70.3-27.1-74.7
		C922.5,724.9,901,680.2,921.4,676.3z"/>
	<path class="st66" d="M929.2,761.4l48.7-15.3c0,0-14.9-71.8-56.5-69.8C888,677.8,929.2,761.4,929.2,761.4z"/>
	<path class="st27" d="M869.3,537c-13.4-2.2-43.9,1.2-52.6,36.2c0,0,0,9.7,1.4,17.5c1.5,7.8-7.8,29.3-6.2,30.6
		c1.6,1.3,8.8,3.5,8.8,3.5s5.1,25.2,13.6,26c8.6,0.8,41.6-2.2,60.3-30.7C913.3,591.7,923.3,545.9,869.3,537z"/>
	<path class="st27" d="M847.1,641.1c0,0,0.7,3.5,1.3,8.7c0.3,2.7,0.6,5.7,0.8,9c0.5,9,0.3,19.5-2.8,26.1c0,0,16.7,10.4,34.7-14.6
		c0,0-1.8-31.1,8.6-47.6C899.9,606.4,847.1,641.1,847.1,641.1z"/>
	<path class="st64" d="M816.7,573.3c0,0,20.1,17.4,41.4,22.8c21.3,5.5,32.6,29.4,32.6,29.4s37.7-37.6,14.9-74.1
		C882.9,515,816.8,531.3,816.7,573.3z"/>
	<path class="st29" d="M848.4,649.8c0.3,2.7,0.6,5.7,0.8,9c18.8-9.1,29.1-21.6,29.1-21.6C867.3,645.1,848.4,649.8,848.4,649.8z"/>
	<path class="st64" d="M862.1,597.4c0,0,21.8,58.6,19.2,72.7c0,0,11.5-2,32.1,4.3C913.3,674.4,903.4,569.8,862.1,597.4z"/>
	<path class="st27" d="M888.5,672c0,0-7.2,43.9-33.7,39c-26.6-5-6.4-37.2-6.4-37.2S858.7,664.5,888.5,672z"/>
</g>
</svg>
