<?xml version="1.0" encoding="utf-8"?>
<!-- Generator: Adobe Illustrator 23.0.2, SVG Export Plug-In . SVG Version: 6.00 Build 0)  -->
<svg version="1.1" xmlns="http://www.w3.org/2000/svg" xmlns:xlink="http://www.w3.org/1999/xlink" x="0px" y="0px"
	 width="403.08px" height="334.12px" viewBox="0 0 403.08 334.12" style="enable-background:new 0 0 403.08 334.12;"
	 xml:space="preserve">
<style type="text/css">
	.st0{opacity:0.1;fill:#00A4D6;}
	.st1{fill:#72D3DD;}
	.st2{opacity:0.5;}
	.st3{fill:none;stroke:#FFFFFF;stroke-width:0.7496;stroke-linecap:round;stroke-linejoin:round;stroke-miterlimit:10;}
	.st4{opacity:0.2;fill:#00A4D6;}
	.st5{opacity:0.15;fill:#00A4D6;}
	.st6{opacity:0.1;fill:none;stroke:#00A4D6;stroke-width:2;stroke-miterlimit:10;}
	.st7{opacity:0.1;fill:none;stroke:#00A4D6;stroke-width:3.1274;stroke-miterlimit:10;}
	.st8{fill:none;stroke:#FFFFFF;stroke-width:1.0564;stroke-linecap:round;stroke-linejoin:round;stroke-miterlimit:10;}
	.st9{fill:#4BB1CA;}
	.st10{opacity:0.2;}
	.st11{fill:#00A4D6;}
	.st12{opacity:0.3;fill:#ACE2F9;}
	.st13{opacity:0.7;fill:#ACE2F9;}
	.st14{opacity:0.2;fill:#ACE2F9;}
	.st15{opacity:0.3;}
	.st16{fill:#E1ECF8;}
	.st17{fill:#FFFFFF;}
	.st18{fill:#FDAEB3;}
	.st19{fill:#3396A0;}
	.st20{fill:#E58099;}
	.st21{fill:none;stroke:#FFFFFF;stroke-width:0.25;stroke-linecap:round;stroke-miterlimit:10;}
	.st22{fill:#491E53;}
	.st23{fill:#FCAE24;}
	.st24{fill:#FECB22;}
	.st25{fill:#423D73;}
	.st26{fill:#9E9DBA;}
	.st27{fill:#FFD664;}
	.st28{fill:#FFD4D8;}
	.st29{fill:#FCB9C1;}
	.st30{fill:#F9A7B9;}
	.st31{fill:#332F62;}
	.st32{fill:#DE7385;}
	.st33{fill:#FAC12A;}
	.st34{fill:#1D9F9D;}
	.st35{fill:none;stroke:#0E7C74;stroke-width:0.5;stroke-linecap:round;stroke-miterlimit:10;}
	.st36{fill:#0E7C74;}
	.st37{fill:#F49A38;}
	.st38{fill:none;stroke:#47687A;stroke-linecap:round;stroke-miterlimit:10;}
</style>
<g id="OBJECTS">
	<path class="st0" d="M404.08,25.79c0,0-66.77-59.78-136.28,6.33c-77.1,73.33-34.77,202.85-99.39,206.5s-87.6-13.81-128.94,12.02
		c-48,29.98-37.5,84.48-37.5,84.48h402.11V25.79z"/>
	<g>
		<g>
			<path class="st1" d="M358.32,186.11c1.45-3.04,2.94-6.23,2.85-9.6c-0.08-3.12,0.04-6.59-0.77-9.61c-0.81-3.02-0.96-6.19-0.62-9.3
				c1.06-9.74,5.17-9.14,6.7-8.57c1.51,0.55,2.35,2.04,2.7,4.54c0.28,2.01-0.11,11.62,2.82,9.89c3.39-2,2.22-11.86,2.43-15.21
				c0.32-5.01,1.77-10.48,5.18-14.3c1.68-1.88,4.28-3.41,6.64-2.54c1.42,0.52,2.43,1.8,3.07,3.17c1.91,4.13,0.9,8.73-0.36,12.88
				c-0.53,1.74-5.43,10.02-0.79,8.78c1.11-0.3,9.73-8.65,11.45-1.12c0.61,2.65-2.11,5.73-6.51,9.68
				c-2.75,2.47-13.18,9.25-12.31,12.16c0.87,2.91,6.48-2.48,6.34,3.13c-0.08,3.14-3.91,5.8-6.55,7.26
				c-1.26,0.69-2.64,1.14-3.85,1.91c-1.43,0.92-3.09,2.96-1.75,4.63c0.59,0.73,1.6,1.02,2.17,1.77c0.57,0.76,0.53,1.85,0.12,2.71
				c-0.41,0.86-1.14,1.52-1.9,2.1c-4.83,3.72-11.26,4.91-17.33,4.36c-6.07-0.55-11.88-2.71-17.47-5.15"/>
		</g>
		<g class="st2">
			<path class="st3" d="M383.87,136.89c0,0-2.84,33.05-20.37,55.31"/>
			<path class="st3" d="M395.08,157.3c0,0-10.08,9.72-18.98,11.91"/>
			<path class="st3" d="M365.24,153.25c-0.04,5.15,1.01,19.42,6.55,25.77"/>
			<path class="st3" d="M383.19,181.58c0,0-3.92,4.18-17.11,7.1"/>
			<path class="st3" d="M374.62,196.84c0,0-6.76,1.94-13.27-1.02"/>
		</g>
	</g>
	<g>
		<g>
			<path class="st4" d="M127.33,122.78l1.95-1.45c-0.95-1.5-2.23-2.77-3.73-3.73l-1.45,1.95c-0.83-0.51-1.75-0.89-2.72-1.13
				l0.35-2.41c-0.85-0.19-1.73-0.3-2.64-0.3c-0.91,0-1.79,0.11-2.64,0.3l0.35,2.41c-0.97,0.24-1.89,0.62-2.72,1.13l-1.45-1.95
				c-1.5,0.95-2.77,2.23-3.73,3.73l1.95,1.45c-0.51,0.83-0.89,1.75-1.13,2.72l-2.41-0.35c-0.19,0.85-0.3,1.73-0.3,2.64
				c0,0.91,0.11,1.79,0.3,2.64l2.41-0.35c0.24,0.97,0.62,1.89,1.13,2.72l-1.95,1.45c0.95,1.5,2.23,2.77,3.73,3.73l1.45-1.95
				c0.83,0.51,1.75,0.89,2.72,1.13l-0.35,2.41c0.85,0.19,1.73,0.3,2.64,0.3c0.91,0,1.79-0.11,2.64-0.3l-0.35-2.41
				c0.97-0.24,1.89-0.62,2.72-1.13l1.45,1.95c1.5-0.95,2.77-2.23,3.73-3.73l-1.95-1.45c0.51-0.83,0.89-1.75,1.13-2.72l2.41,0.35
				c0.19-0.85,0.3-1.73,0.3-2.64c0-0.91-0.11-1.79-0.3-2.64l-2.41,0.35C128.22,124.52,127.84,123.61,127.33,122.78z M119.1,134.19
				c-3.54,0-6.41-2.87-6.41-6.41c0-3.54,2.87-6.41,6.41-6.41c3.54,0,6.41,2.87,6.41,6.41C125.51,131.32,122.64,134.19,119.1,134.19z
				"/>
			<path class="st5" d="M335.55,28.49l3.42-2.55c-1.67-2.63-3.9-4.86-6.54-6.54l-2.55,3.42c-1.46-0.89-3.06-1.56-4.77-1.98
				l0.62-4.23c-1.49-0.33-3.03-0.52-4.62-0.52c-1.59,0-3.13,0.19-4.62,0.52l0.62,4.23c-1.71,0.42-3.31,1.09-4.77,1.98l-2.55-3.42
				c-2.63,1.67-4.86,3.9-6.54,6.54l3.42,2.55c-0.89,1.46-1.56,3.06-1.98,4.77l-4.23-0.62c-0.33,1.49-0.52,3.03-0.52,4.62
				c0,1.59,0.19,3.13,0.52,4.62l4.23-0.62c0.42,1.71,1.09,3.31,1.98,4.77l-3.42,2.55c1.67,2.63,3.9,4.86,6.54,6.54l2.55-3.42
				c1.46,0.89,3.06,1.56,4.77,1.98l-0.62,4.23c1.49,0.33,3.03,0.52,4.62,0.52c1.59,0,3.13-0.19,4.62-0.52l-0.62-4.23
				c1.71-0.42,3.31-1.09,4.77-1.98l2.55,3.42c2.63-1.67,4.86-3.9,6.54-6.54l-3.42-2.55c0.89-1.46,1.56-3.06,1.98-4.77l4.23,0.62
				c0.33-1.49,0.52-3.03,0.52-4.62c0-1.59-0.19-3.13-0.52-4.62l-4.23,0.62C337.11,31.55,336.44,29.95,335.55,28.49z M323.31,48.29
				c-7.91,1.5-14.72-5.31-13.22-13.22c0.84-4.42,4.4-7.99,8.82-8.82c7.91-1.5,14.72,5.31,13.22,13.22
				C331.3,43.88,327.74,47.45,323.31,48.29z"/>
			<path class="st6" d="M203.03,29.18c0,2.3-1.87,4.17-4.17,4.17c-2.3,0-4.17-1.87-4.17-4.17s1.87-4.17,4.17-4.17
				C201.17,25.01,203.03,26.88,203.03,29.18z"/>
			<circle class="st7" cx="98.23" cy="88.97" r="6.52"/>
			<path class="st7" d="M384.43,97.04c0,3.6-2.92,6.52-6.52,6.52s-6.52-2.92-6.52-6.52c0-3.6,2.92-6.52,6.52-6.52
				S384.43,93.44,384.43,97.04z"/>
		</g>
		<g>
			<g>
				<path class="st4" d="M130.12,26.85c-1.02,2.55-3.91,3.79-6.46,2.78c-2.55-1.02-3.79-3.91-2.78-6.46
					c1.02-2.55,3.91-3.79,6.46-2.78C129.9,21.41,131.14,24.3,130.12,26.85z"/>
				<polyline class="st8" points="123.39,24.42 124.5,26.9 128.24,24.59 				"/>
			</g>
			<g>
				<path class="st9" d="M382.88,51.03c0.16,2.74-1.94,5.09-4.68,5.25c-2.74,0.16-5.09-1.94-5.25-4.68
					c-0.16-2.74,1.94-5.09,4.68-5.25C380.37,46.2,382.72,48.29,382.88,51.03z"/>
				<polyline class="st8" points="375.74,51.67 377.81,53.46 380.22,49.78 				"/>
			</g>
			<path class="st9" d="M121.92,153.37c0,1.01-0.82,1.83-1.83,1.83c-1.01,0-1.83-0.82-1.83-1.83c0-1.01,0.82-1.83,1.83-1.83
				C121.1,151.54,121.92,152.36,121.92,153.37z"/>
			<path class="st4" d="M103.67,173.82c0,0.62-0.5,1.12-1.12,1.12c-0.62,0-1.12-0.5-1.12-1.12s0.5-1.12,1.12-1.12
				C103.16,172.7,103.67,173.2,103.67,173.82z"/>
			<path class="st4" d="M112.65,195.74c0,0.62-0.5,1.12-1.12,1.12c-0.62,0-1.12-0.5-1.12-1.12c0-0.62,0.5-1.12,1.12-1.12
				C112.15,194.62,112.65,195.12,112.65,195.74z"/>
			<path class="st4" d="M221.18,231.05c0,0.93-0.76,1.69-1.69,1.69c-0.93,0-1.69-0.76-1.69-1.69c0-0.93,0.76-1.69,1.69-1.69
				C220.42,229.36,221.18,230.12,221.18,231.05z"/>
			<path class="st9" d="M373.75,119.48c0,1.01-0.82,1.83-1.83,1.83c-1.01,0-1.83-0.82-1.83-1.83c0-1.01,0.82-1.83,1.83-1.83
				C372.93,117.65,373.75,118.47,373.75,119.48z"/>
			<path class="st9" d="M283.82,12.67c0,1.01-0.82,1.83-1.83,1.83c-1.01,0-1.83-0.82-1.83-1.83c0-1.01,0.82-1.83,1.83-1.83
				C283,10.84,283.82,11.66,283.82,12.67z"/>
			<g>
				<g>
					<g>
						<path class="st9" d="M111.25,104.97c-0.32,0-0.58-0.26-0.58-0.58v-4.11c0-0.32,0.26-0.58,0.58-0.58
							c0.32,0,0.58,0.26,0.58,0.58v4.11C111.83,104.71,111.57,104.97,111.25,104.97z"/>
					</g>
					<g>
						<path class="st9" d="M113.3,102.91h-4.11c-0.32,0-0.58-0.26-0.58-0.58c0-0.32,0.26-0.58,0.58-0.58h4.11
							c0.32,0,0.58,0.26,0.58,0.58C113.89,102.65,113.62,102.91,113.3,102.91z"/>
					</g>
				</g>
			</g>
			<g class="st10">
				<g>
					<path class="st11" d="M354.14,100.17c-0.32,0-0.58-0.26-0.58-0.58v-4.11c0-0.32,0.26-0.58,0.58-0.58
						c0.32,0,0.58,0.26,0.58,0.58v4.11C354.72,99.91,354.46,100.17,354.14,100.17z"/>
				</g>
				<g>
					<path class="st11" d="M356.2,98.11h-4.11c-0.32,0-0.58-0.26-0.58-0.58c0-0.32,0.26-0.58,0.58-0.58h4.11
						c0.32,0,0.58,0.26,0.58,0.58C356.78,97.85,356.52,98.11,356.2,98.11z"/>
				</g>
			</g>
			<path class="st4" d="M118.03,143.78h-1.47v-1.47c0-0.32-0.26-0.58-0.58-0.58c-0.32,0-0.58,0.26-0.58,0.58v1.47h-1.47
				c-0.32,0-0.58,0.26-0.58,0.58c0,0.32,0.26,0.58,0.58,0.58h1.47v1.47c0,0.32,0.26,0.58,0.58,0.58c0.32,0,0.58-0.26,0.58-0.58
				v-1.47h1.47c0.32,0,0.58-0.26,0.58-0.58C118.62,144.04,118.36,143.78,118.03,143.78z"/>
			<g class="st10">
				<g>
					<path class="st11" d="M190.97,24.26c-0.32,0-0.58-0.26-0.58-0.58v-4.11c0-0.32,0.26-0.58,0.58-0.58c0.32,0,0.58,0.26,0.58,0.58
						v4.11C191.55,24,191.29,24.26,190.97,24.26z"/>
				</g>
				<g>
					<path class="st11" d="M193.03,22.2h-4.11c-0.32,0-0.58-0.26-0.58-0.58c0-0.32,0.26-0.58,0.58-0.58h4.11
						c0.32,0,0.58,0.26,0.58,0.58C193.61,21.94,193.35,22.2,193.03,22.2z"/>
				</g>
			</g>
			<g class="st10">
				<g>
					<path class="st11" d="M373.75,213.71c-0.32,0-0.58-0.26-0.58-0.58v-4.11c0-0.32,0.26-0.58,0.58-0.58
						c0.32,0,0.58,0.26,0.58,0.58v4.11C374.33,213.45,374.07,213.71,373.75,213.71z"/>
				</g>
				<g>
					<path class="st11" d="M375.8,211.65h-4.11c-0.32,0-0.58-0.26-0.58-0.58c0-0.32,0.26-0.58,0.58-0.58h4.11
						c0.32,0,0.58,0.26,0.58,0.58C376.39,211.39,376.13,211.65,375.8,211.65z"/>
				</g>
			</g>
		</g>
		<g>
			<g>
				<path class="st12" d="M259.22,22.06c0,1.11-0.15,2.18-0.45,3.2c-1.39,4.91-5.9,8.49-11.25,8.49c-4,0-7.53-2.01-9.64-5.08
					c-1.29-1.88-2.05-4.15-2.05-6.61c0-6.45,5.23-11.69,11.69-11.69v11.69l10.08-5.9C258.63,17.9,259.22,19.91,259.22,22.06z"/>
				<path class="st13" d="M258.67,14.11c-2.03-3.46-5.78-5.79-10.08-5.79v11.69L258.67,14.11z"/>
				<path class="st12" d="M259.22,22.06c0,1.11-0.15,2.18-0.45,3.2l-11.25-3.2l10.08-5.9C258.63,17.9,259.22,19.91,259.22,22.06z"/>
				<path class="st14" d="M247.53,10.38v11.69l-9.64,6.61c-1.29-1.88-2.05-4.15-2.05-6.61C235.84,15.61,241.07,10.38,247.53,10.38z"
					/>
			</g>
		</g>
		<g class="st15">
			<g>
				<g>
					<path class="st11" d="M360.39,233.12c-3.46,0-6.26,2.81-6.26,6.26c0,3.47,2.81,6.28,6.26,6.28c3.47,0,6.28-2.81,6.28-6.28
						C366.67,235.93,363.86,233.12,360.39,233.12z M360.39,242.22c-1.56,0-2.83-1.26-2.83-2.83c0-1.56,1.27-2.83,2.83-2.83
						c1.56,0,2.83,1.27,2.83,2.83C363.22,240.96,361.95,242.22,360.39,242.22z"/>
					<path class="st11" d="M360.39,226.46c-7.13,0-12.93,5.79-12.93,12.93c0,7.15,5.79,12.93,12.93,12.93
						c7.15,0,12.93-5.78,12.93-12.93C373.32,232.25,367.54,226.46,360.39,226.46z M360.39,248.99c-5.3,0-9.59-4.3-9.59-9.6
						s4.29-9.59,9.59-9.59c5.3,0,9.6,4.29,9.6,9.59S365.69,248.99,360.39,248.99z"/>
				</g>
				<g>
					<path class="st11" d="M360.39,233.12c-3.46,0-6.26,2.81-6.26,6.26c0,3.47,2.81,6.28,6.26,6.28c3.47,0,6.28-2.81,6.28-6.28
						C366.67,235.93,363.86,233.12,360.39,233.12z M360.39,242.22c-1.56,0-2.83-1.26-2.83-2.83c0-1.56,1.27-2.83,2.83-2.83
						c1.56,0,2.83,1.27,2.83,2.83C363.22,240.96,361.95,242.22,360.39,242.22z"/>
				</g>
				<g>
					<path class="st11" d="M360.39,233.12c-3.46,0-6.26,2.81-6.26,6.26c0,3.47,2.81,6.28,6.26,6.28c3.47,0,6.28-2.81,6.28-6.28
						C366.67,235.93,363.86,233.12,360.39,233.12z M360.39,242.22c-1.56,0-2.83-1.26-2.83-2.83c0-1.56,1.27-2.83,2.83-2.83
						c1.56,0,2.83,1.27,2.83,2.83C363.22,240.96,361.95,242.22,360.39,242.22z"/>
				</g>
			</g>
			<g>
				
					<rect x="357.59" y="232.53" transform="matrix(0.6914 -0.7225 0.7225 0.6914 -55.0508 336.7767)" class="st11" width="18.17" height="0.59"/>
			</g>
			<g>
				<g>
					
						<rect x="360.23" y="238.52" transform="matrix(0.6713 -0.7412 0.7412 0.6713 -58.9756 345.8117)" class="st11" width="0.29" height="1.75"/>
				</g>
				<g>
					
						<rect x="359.5" y="239.25" transform="matrix(0.671 -0.7414 0.7414 0.671 -58.9419 345.9445)" class="st11" width="1.75" height="0.29"/>
				</g>
			</g>
			<g>
				<path class="st11" d="M374.95,226.57h-1.98c-0.08,0-0.16-0.03-0.22-0.1c-0.06-0.06-0.08-0.14-0.08-0.22l0.18-2.17
					c0.01-0.16,0.14-0.28,0.32-0.27c0.16,0.01,0.28,0.16,0.27,0.32l-0.16,1.85h1.66c0.16,0,0.29,0.13,0.29,0.29
					S375.11,226.57,374.95,226.57z"/>
			</g>
			<g>
				<path class="st11" d="M373.83,227.68h-1.98c-0.08,0-0.16-0.03-0.22-0.1c-0.06-0.06-0.08-0.14-0.08-0.22l0.18-2.17
					c0.01-0.16,0.14-0.27,0.32-0.27c0.16,0.01,0.28,0.16,0.27,0.32l-0.16,1.85h1.66c0.16,0,0.29,0.13,0.29,0.29
					C374.13,227.55,374,227.68,373.83,227.68z"/>
			</g>
		</g>
		<path class="st12" d="M118.66,169.72c-0.03-0.14-0.06-0.3-0.1-0.44c-0.12-0.6-0.29-1.18-0.48-1.74c-0.44-1.29-1.05-2.5-1.8-3.61
			l1.76-1.75l-4.22-4.22l-0.08,0.08l-1.67,1.68c-1.72-1.17-3.68-1.99-5.8-2.4v-2.49h-5.96v2.49c-2.11,0.41-4.07,1.24-5.8,2.4
			l-1.75-1.76l-4.22,4.22l1.76,1.75c-1.17,1.72-1.99,3.68-2.4,5.8h-2.49v5.96h2.5c0.4,2.11,1.23,4.07,2.39,5.8l-1.76,1.75l4.22,4.22
			l1.75-1.76c1.72,1.17,3.68,1.99,5.8,2.39v2.5h5.96v-2.5c2.11-0.4,4.07-1.23,5.8-2.39l1.67,1.68l0.08,0.08l2.54-2.54l1.68-1.68
			l-1.68-1.67l-0.08-0.08c0.03-0.04,0.05-0.08,0.08-0.12c1.12-1.69,1.92-3.61,2.31-5.67h2.5v-5.96H118.66z M103.29,182.65
			c-5.5,0-9.95-4.45-9.95-9.95c0-5.5,4.45-9.95,9.95-9.95c5.5,0,9.95,4.45,9.95,9.95C113.24,178.19,108.78,182.65,103.29,182.65z"/>
	</g>
	<g>
		<g>
			<g>
				<g>
					<rect x="120.09" y="37.26" class="st16" width="245.83" height="184.28"/>
				</g>
			</g>
		</g>
		<g>
			<g>
				<g>
					<rect x="128.49" y="43.52" class="st17" width="229.03" height="171.77"/>
				</g>
			</g>
		</g>
		<rect x="143.29" y="54.11" class="st16" width="198.54" height="13.21"/>
		<g>
			<g>
				<g>
					<g>
						<rect x="151.98" y="160.62" class="st16" width="13.16" height="33.04"/>
					</g>
				</g>
			</g>
			<g>
				<g>
					<g>
						<rect x="181.64" y="131.62" class="st16" width="13.16" height="62.05"/>
					</g>
				</g>
			</g>
			<g>
				<g>
					<g>
						<rect x="211.29" y="138.03" class="st16" width="13.16" height="55.63"/>
					</g>
				</g>
			</g>
			<g>
				<g>
					<g>
						<rect x="240.95" y="106.62" class="st16" width="13.16" height="87.04"/>
					</g>
				</g>
			</g>
			<g>
				<g>
					<g>
						<polygon class="st16" points="305.25,202.76 143.29,202.76 143.29,83.02 145.09,83.02 145.09,200.96 305.25,200.96 						"/>
					</g>
				</g>
			</g>
			<g>
				<g>
					<g>
						<polygon class="st16" points="157.81,142.73 156.61,141.39 187.42,113.72 215.96,119.92 246.86,85.52 248.2,86.72 
							216.6,121.9 187.93,115.68 						"/>
					</g>
				</g>
			</g>
			<g>
				<g>
					<g>
						<polygon class="st16" points="250.62,91.8 241.91,83.45 253.15,80.44 						"/>
					</g>
				</g>
			</g>
			<g>
				<g>
					<g>
						<g>
							<rect x="281.65" y="84.92" class="st16" width="60.17" height="2.36"/>
						</g>
					</g>
				</g>
				<g>
					<g>
						<g>
							<rect x="273.53" y="90.62" class="st16" width="68.3" height="2.36"/>
						</g>
					</g>
				</g>
				<g>
					<g>
						<g>
							<rect x="273.53" y="96.33" class="st16" width="68.3" height="2.36"/>
						</g>
					</g>
				</g>
				<g>
					<g>
						<g>
							<rect x="273.53" y="102.04" class="st16" width="68.3" height="2.36"/>
						</g>
					</g>
				</g>
				<g>
					<g>
						<g>
							<rect x="273.53" y="107.75" class="st16" width="68.3" height="2.36"/>
						</g>
					</g>
				</g>
				<g>
					<g>
						<g>
							<rect x="273.53" y="113.46" class="st16" width="68.3" height="2.36"/>
						</g>
					</g>
				</g>
				<g>
					<g>
						<g>
							<rect x="273.53" y="119.17" class="st16" width="68.3" height="2.36"/>
						</g>
					</g>
				</g>
				<g>
					<g>
						<g>
							<rect x="273.53" y="124.88" class="st16" width="68.3" height="2.36"/>
						</g>
					</g>
				</g>
				<g>
					<g>
						<g>
							<rect x="273.53" y="130.59" class="st16" width="68.3" height="2.36"/>
						</g>
					</g>
				</g>
				<g>
					<g>
						<g>
							<rect x="273.53" y="136.3" class="st16" width="68.3" height="2.36"/>
						</g>
					</g>
				</g>
				<g>
					<g>
						<g>
							<rect x="273.53" y="142.01" class="st16" width="68.3" height="2.36"/>
						</g>
					</g>
				</g>
				<g>
					<g>
						<g>
							<rect x="273.53" y="147.72" class="st16" width="68.3" height="2.36"/>
						</g>
					</g>
				</g>
				<g>
					<g>
						<g>
							<rect x="273.53" y="153.43" class="st16" width="68.3" height="2.36"/>
						</g>
					</g>
				</g>
				<g>
					<g>
						<g>
							<rect x="273.53" y="159.14" class="st16" width="68.3" height="2.36"/>
						</g>
					</g>
				</g>
				<g>
					<g>
						<g>
							<rect x="273.53" y="164.85" class="st16" width="68.3" height="2.36"/>
						</g>
					</g>
				</g>
				<g>
					<g>
						<g>
							<rect x="273.53" y="170.56" class="st16" width="68.3" height="2.36"/>
						</g>
					</g>
				</g>
				<g>
					<g>
						<g>
							<rect x="273.53" y="176.27" class="st16" width="68.3" height="2.36"/>
						</g>
					</g>
				</g>
				<g>
					<g>
						<g>
							<rect x="273.53" y="181.98" class="st16" width="68.3" height="2.36"/>
						</g>
					</g>
				</g>
				<g>
					<g>
						<g>
							<rect x="311.74" y="187.69" class="st16" width="30.09" height="2.36"/>
						</g>
					</g>
				</g>
			</g>
		</g>
	</g>
	<g>
		<g>
			<polyline class="st18" points="308.01,278.69 309.59,284.94 313.38,284.27 313.13,278.37 			"/>
			<path class="st19" d="M305.67,220.34c-10.2-16.67-13.62-1.51-13.62-1.51l16.67,63.36c0,0,2.3,0.97,4.61-0.67
				C313.32,281.51,315.87,237.01,305.67,220.34z"/>
			<path class="st19" d="M303.79,176.64c0,0,2.3,3.2,2.69,7.78c0.35,4.12,0.04,7.71,0.37,11.47c0.33,3.75,0,26.51,0,26.51
				s-10.95,5.6-12.41,2.31c-2.95-6.67-12.13-43.95-12.13-43.95S293.87,181.09,303.79,176.64z"/>
			<path class="st9" d="M307.97,174.78c0,0,2.73,5.14,1.44,12.78c-0.69,4.07-2.92,6.32-4.3,11.2c-1.02,3.63-6.74,26.8-6.74,26.8
				s-13.28-1.64-13.91-5.19c-1.27-7.18-2.93-45.97-2.93-45.97S297.28,176.73,307.97,174.78z"/>
			<polyline class="st18" points="287.96,279.1 288.2,285.54 292.05,285.68 293.04,279.85 			"/>
			<path class="st9" d="M297.15,221.08c-6.78-18.33-13.07-4.12-13.07-4.12l3.75,65.22c0,0,2.22,1.22,5,0.39
				C292.82,282.58,303.93,239.41,297.15,221.08z"/>
			<path class="st18" d="M300.42,110.61c-4.33,3.19-12.67,2.61-12.67,2.61l1.14-9l0.49-3.84c0,0,0.69-0.84,1.72-2.03
				c3.17-3.65,9.58-10.45,8.61-4.77C298.43,101.08,300.42,110.61,300.42,110.61z"/>
			<path class="st20" d="M293.78,99.03c0,0-1.55,3.19-4.89,5.19l0.49-3.84c0,0,0.69-0.84,1.72-2.03l0.38-0.14L293.78,99.03z"/>
			<path class="st18" d="M280.73,84.98c0,0-0.31,16.03,2.61,18.17c2.91,2.15,13.5-4.68,13.5-4.68s7.44-9.97,5.44-17.41
				c-1.68-6.28-16.02-9.19-20.59-1.57C280.84,80.91,280.8,82.82,280.73,84.98z"/>
			<path class="st21" d="M289.26,176.77c0,0,2.25,11.35,3.25,12.26c1,0.92,1.56,1.22,1.56,1.22"/>
			<path class="st21" d="M295.37,178.62c0,0-4.31,37.25-4.45,46.08c-0.14,8.83-0.42,56-0.42,56"/>
			<path class="st22" d="M277.64,74.81c0,0-1.09,8.41,5.39,10.21c4.3,1.2,8.9,0.81,9.24,2.76c0.35,1.96,0.93,0.39,1.74-0.13
				c1.71-1.1,3.09,1.3,2.38,3.9c-0.54,1.99,0.08,4.85,2.98,5.04c0,0,2.39-4.65,3.46-7.75c0.85-2.44,2.66-10.84-2.86-11.61
				c-0.65-1.69-2.58-3.13-4.56-3.64c-5.41-1.39-9.97,0.13-13.52,0.93C280.25,74.9,277.84,71.78,277.64,74.81z"/>
			<path class="st18" d="M287.13,139.75c-1.25,1.62-3.2,3.92-5.3,6.32c-1.65,1.88-3.39,3.82-4.95,5.54
				c-2.88,3.2-5.17,5.66-5.17,5.66s-6.73-4.5-6.61-6.14c0.07-0.97,3.29-7.53,5.88-12.68c0.55-1.1,1.08-2.14,1.55-3.03
				c0.99-1.99,1.68-3.32,1.68-3.32L287.13,139.75z"/>
			<path class="st20" d="M281.83,146.07c-1.65,1.88-3.39,3.82-4.95,5.54c-0.68-3.45-1.23-8.97-1.23-8.97
				c-2.19-2.38-3.76-4.86-3.76-4.86l4.23-2.85l4.77,2.38C280.89,137.31,281.41,142.04,281.83,146.07z"/>
			<path class="st18" d="M265.1,151.12c0,0-4.87,1.04-7.87,2.43c-1.87,0.87-8.26,4.77-12.96,7.34c-2.82,1.54-5.18,2.38-5.18,2.38
				l0.95,2.61c0,0,9.72-1.38,17.98-3.11c8.27-1.72,10.95-2.53,13.69-5.51C274.46,154.28,268.12,150.37,265.1,151.12z"/>
			<path class="st23" d="M279.47,121.91l-8.9,14.53c0,0,5.84,6.45,12.06,8.08c4.25-2.65,8.59-12.2,8.59-12.2"/>
			<path class="st24" d="M309.81,146.71c-0.1,0.37-0.2,0.75-0.31,1.12c-0.54,1.82-1.05,3.66-1.48,5.49
				c-3.41,14.61-0.05,21.47-0.05,21.47c-9.4,3-26.37,1.07-26.37,1.07s-0.21-1.37-0.43-2.45c-1.46-7.16-6.88-35.38-3.86-45.88
				c3.48-12.07,10.44-14.31,10.44-14.31c6.77-0.41,12.67-2.61,12.67-2.61C313.09,115.13,313.35,133.75,309.81,146.71z"/>
			<path class="st23" d="M309.81,146.71c-0.1,0.37-0.2,0.75-0.31,1.12c-0.54,1.82-1.03,3.67-1.48,5.49l-0.01,0.02
				c-9.94-14.11-14.18-24.35-14.18-24.35l4.72,0.92l5.76,2.9L309.81,146.71z"/>
			<path class="st18" d="M321.12,151.94c0,0-7.22,3.65-8.59,2.74c-0.81-0.54-4.95-6.56-8.15-11.35c-0.69-1.02-1.34-2-1.89-2.84
				c-1.24-1.83-2.06-3.09-2.06-3.09l13.01-7.49C316.01,135.98,321.12,151.94,321.12,151.94z"/>
			<path class="st20" d="M313.07,136.26c-1.96,2.93-7.24,6.21-8.7,7.08c-0.69-1.02-1.34-2-1.89-2.84
				C305.75,138.61,314.96,133.43,313.07,136.26z"/>
			<g>
				<path class="st25" d="M328.1,189.78l-34.12-4.56c-0.33-0.04-0.56-0.34-0.51-0.67l3.1-23.2c0.04-0.33,0.34-0.56,0.67-0.51
					l34.12,4.56c0.33,0.04,0.56,0.34,0.51,0.67l-3.1,23.2C328.73,189.6,328.43,189.83,328.1,189.78z"/>
				
					<rect x="296.69" y="164.27" transform="matrix(0.9912 0.1324 -0.1324 0.9912 25.9686 -39.8605)" class="st17" width="31.96" height="22.08"/>
				
					<rect x="292.73" y="171.64" transform="matrix(0.1303 -0.9915 0.9915 0.1303 87.2832 444.4207)" class="st26" width="8.48" height="1.64"/>
			</g>
			<path class="st18" d="M312.52,154.69c0,0-1.49,4.76-1.75,8.05c-0.16,2.06,0.1,9.54,0.03,14.89c-0.05,3.21-0.47,5.68-0.47,5.68
				l2.74,0.46c0,0,3.57-9.14,6.13-17.19c2.56-8.05,3.17-10.78,1.92-14.63C319.87,148.09,313.35,151.69,312.52,154.69z"/>
			<path class="st24" d="M305.62,113.81c7,6.99,10.65,20.67,10.65,20.67c-5.62,4.94-13.44,7.86-13.44,7.86
				c-3.06-2.47-8.75-12.89-8.75-12.89s-5.84-10.2,0.79-14.81C301.71,109.87,305.62,113.81,305.62,113.81z"/>
			<path class="st18" d="M313.47,182.73c0,0-0.55,1.31-0.07,2.37c0.47,1.04,0.14,2.71-0.33,3.03c-0.47,0.33-3.66-0.15-3.96-0.36
				c-0.29-0.21,0.17-2.07,0.14-2.61c-0.03-0.53,0.91-0.84,1.2-2.76"/>
			<path class="st18" d="M310.03,184.04c0,0-0.7,0.24-1.51,1.19c-0.22,0.25-1.05,1.01-0.98,1.18c0.07,0.17,0.38,0.3,0.67,0.26
				c0.28-0.04,1.18-0.54,1.18-0.54"/>
			<path class="st23" d="M287.74,113.22l1.14-2.22c0,0,6.16,0.26,11.26-1.89l0.27,1.5l-4.54,1.83
				C295.88,112.44,292.19,114,287.74,113.22z"/>
			<path class="st27" d="M288.89,111l1.18,4.41c0,0,7.48-1.65,11.3-4.43l-1.31-2.41C300.06,108.57,296.15,110.43,288.89,111z"/>
			<path class="st25" d="M292.14,285.17c0,0-1.41,0.57-2.99,0.33c0,0-0.4-0.84-1.03-0.84c-0.63,0-1.4,0.89-1.83,1.1
				c-0.43,0.2-8.57,2.81-5.82,3.33c0.1,0.12,9.69,0.03,11.8,0c0.25,0,0.46-0.17,0.51-0.42C292.93,287.94,293.1,286.37,292.14,285.17
				z"/>
			<path class="st25" d="M313.38,283.9c0,0-0.91,0.7-2.69,0.67c0,0-0.96-0.29-1.26-0.22c-0.3,0.07-0.83,0.91-1.06,1.15
				c-0.22,0.24-1.34,0.99-2.02,1.3c-0.53,0.24-2.55,0.9-2.93,1.67c-0.16,0.32,0.09,0.7,0.45,0.7c0.61,0,2.27-0.01,3.43,0
				c0.73,0,1.45-0.08,2.15-0.28c2.2-0.62,4.93-1.5,5.07-1.65C314.71,287.07,314.51,284.76,313.38,283.9z"/>
			<path class="st21" d="M293.17,126.18c0,0-0.93-3.42,1.31-6.75c2.56-3.81,6.6-5.99,12.19-3.65"/>
			<line class="st21" x1="297.3" y1="113.62" x2="299.08" y2="115.19"/>
			<path class="st18" d="M240.04,165.88c0,0-0.62,0.07-1.28,0.36c-0.66,0.29-2.89-0.18-2.89-0.18l-1.29-1.91c0,0,0.47-0.6,0.53-0.7
				c0.06-0.09,1.68-0.28,1.68-0.28s2.69,0.84,2.98,0.77c0.29-0.07,1.25,0.44,1.23,0.63C240.98,164.76,240.04,165.88,240.04,165.88z"
				/>
		</g>
		<g>
			<path class="st28" d="M181.3,135.43c0,0-1.58,14.48-1.58,19.13c1.47,6.91,6.37,25.06,6.37,25.06l6.37-15.54l-2.4-19.28"/>
			<g>
				<path class="st29" d="M186.7,208.23c0,0-0.88,16.77-0.98,19.96c-0.1,3.2-3.45,5.93-5.55,12.93s-4.93,36.7-4.93,36.7l3.86,0.54
					c0,0,12.57-35.72,15.15-44.99c2.59-9.27,7.12-22.92,7.12-22.92"/>
				<path class="st29" d="M179.1,278.36c0,0-0.25,0.93,0.06,1.7c0.3,0.77,1.07,4.12,3.29,6.51l0.19,0.88l-2.29-0.13
					c0,0-2.98-2.4-3.14-2.8c-0.17-0.4-0.77-2.15-0.95-2.68c-0.18-0.54-1.1-1.61-1.04-2.04c0.06-0.43-0.16-2-0.16-2
					s1.45-0.88,1.67-0.92c0.23-0.03,1.2,0.01,1.2,0.01L179.1,278.36z"/>
				<path class="st25" d="M175.27,276.94c0,0-1.97,2.06-2.06,4.41c-0.06,1.45,0.18,4.3-0.12,6.35l0.53,0.07l1.51-4.52
					c0,0,3.24,4.75,4.08,5.08c0.84,0.33,4.34,0.82,4.52,0.84c0.19,0.03,2.99-0.21-1.28-2.6c0,0-0.09,0.9-1.76-0.28
					c-1.67-1.18-3.08-3.27-4.02-4.94C176.19,280.47,175.32,278.61,175.27,276.94z"/>
			</g>
			<path class="st28" d="M201.37,209.09c0,0-0.97,7.47-1.99,15.21c-0.02,0.1-0.03,0.2-0.04,0.3c-0.38,2.82-0.76,5.67-1.1,8.2
				c-1.28,9.53-6.44,46.3-6.44,46.3h-3.9c0,0-3.31-30.24-2.2-37.45c1.12-7.22,1.89-9.48,1.55-12.66c-0.06-0.6-0.17-1.67-0.29-3.03
				c-0.07-0.71-0.14-1.5-0.21-2.34c-0.55-6.03-1.28-14.53-1.28-14.53H201.37z"/>
			<path class="st30" d="M199.34,224.6c-0.1,0.06-0.27,0.13-0.49,0.2c-3.37,1.09-9.87,1.16-11.89,1.16
				c-0.07-0.71-0.14-1.5-0.21-2.34c2.48-0.01,11.57,0.01,12.63,0.68C199.52,224.38,199.51,224.48,199.34,224.6z"/>
			<path class="st31" d="M202.5,89.15c0,0,3.2-0.49,4.36,1.96c1.16,2.46-0.18,5.63-2.19,7.21c-2.01,1.58-3.51-7.29-3.51-7.29"/>
			<path class="st28" d="M191.8,279.1c0,0-0.12,0.96,0.29,1.68c0.41,0.72,1.63,3.94,4.16,6l0.31,0.84l-2.28,0.19
				c0,0-3.28-1.97-3.5-2.34c-0.22-0.38-1.06-2.02-1.31-2.53c-0.25-0.51-1.31-1.44-1.31-1.88s-0.44-1.96-0.44-1.96
				s1.31-1.07,1.53-1.14c0.22-0.06,1.19-0.16,1.19-0.16L191.8,279.1z"/>
			<path class="st28" d="M198.63,109.7c0,0-0.16,0.94-0.33,2.22c-0.08,0.49-0.15,1.03-0.21,1.6c-0.04,0.34-0.08,0.69-0.11,1.04
				c-0.16,1.81-0.1,3.24-0.36,5.66l-8.61-1.89c0,0,1.87-3.15,0.84-11.42L198.63,109.7z"/>
			<path class="st29" d="M198.3,111.92c-0.08,0.49-0.15,1.03-0.21,1.6c-2-1.02-3.79-2.92-3.79-2.92L198.3,111.92z"/>
			<path class="st28" d="M203.61,112.16c-0.29,0.66-1,1.05-1.72,0.96c-2.11-0.25-6.58-1.08-10.36-3.79
				c-4.67-3.35-2.38-19.73,10.22-19.15C204.2,90.29,208.78,100.49,203.61,112.16z"/>
			<path class="st32" d="M180.63,172.9c0,0-5.2,8.68,0.05,19.8c2.78,13.34,3.83,24.71,4.8,31.83c0,0,8.82,1.24,14.36,0.08
				c0,0,5.88-33.81,5.11-51.72"/>
			<path class="st33" d="M204.32,166.64c0.52,5.36,0.66,6.52,0.66,6.52s-8.09,3.67-24.76,0.32c0,0,1.05-1.67,2.14-9.23
				c1.29-8.98-1.85-23.3-1.52-31.03c0.33-7.71,5.25-14.77,8.73-16.37c0,0,3.72,2.52,8.22,1.94c0,0,5.96,10.84,8.37,16.08
				c2.14,4.68-1.12,8.88-2.39,12.78c-0.15,0.47-0.28,0.93-0.36,1.39c-0.14,0.75-0.17,2.09-0.12,3.77
				C203.38,156.52,203.85,161.93,204.32,166.64z"/>
			<path class="st23" d="M203.4,149.04c-0.14,0.75-0.17,2.09-0.12,3.77c-14.76-12.51-16.07-20.37-16.07-20.37l6.27,3.12l7.88,8.06
				l2.4,4.03C203.61,148.12,203.48,148.58,203.4,149.04z"/>
			<path class="st31" d="M185.48,92.99c0,0-1.97-0.5-2.97,0.31c0,0,2.63,0.16,3.16,1.41"/>
			<path class="st31" d="M186.88,94.26c0,0-4.31-1.03-5.28-4.86c-1.34-5.28,8.7-9.64,10.09-0.03"/>
			<path class="st33" d="M185.14,94.97c0,0-0.53-0.56-0.34-1.44c0.28-1.26,1.86-4.76,6.42-6.19c0,0,1.15-0.3,1.48,0.4"/>
			<path class="st31" d="M190.12,109.99c0,0-7.12-6.68-4.95-15.73s18.37-10.69,19.51-0.41c0,0-4.01-1.1-6.38,1.06
				c-2.38,2.17-3.76,6.38-4.47,5.17c-0.73-1.25-2.74-1.17-3.3,0.48c-0.46,1.35,0.7,3.86,0.82,6.06
				C191.42,107.94,190.81,109.43,190.12,109.99z"/>
			<path class="st31" d="M205.44,92.43c0,0,1.84,6-8.41,5.69c1.22-1.34,0.97-6.31,0.97-6.31"/>
			<path class="st25" d="M187.81,278.22c0,0-1.66,2.31-1.44,4.65c0.14,1.44,0.77,4.24,0.76,6.31h0.53l0.88-4.68
				c0,0,3.86,4.26,4.74,4.47c0.88,0.21,4.41,0.21,4.59,0.21c0.19,0,2.94-0.62-1.63-2.4c0,0,0.03,0.91-1.78-0.03s-3.5-2.81-4.66-4.34
				C189.2,281.59,188.09,279.87,187.81,278.22z"/>
			<path class="st28" d="M213.23,150.04c0,0-3.33,3.58-5.25,3.33c-1.46-0.19-8.64-7.64-11.97-11.17c-1.04-1.11-1.71-1.83-1.71-1.83
				l3.76-3.02l3.5-2.81L213.23,150.04z"/>
			<path class="st29" d="M201.36,136.81c0,0-1.97,3.12-5.35,5.39c-1.04-1.11-1.71-1.83-1.71-1.83l3.76-3.02L201.36,136.81z"/>
			<path class="st33" d="M194.3,124.87c-4.93-2.58-7.51,1.42-7.46,5.42c0.06,5.28,7.22,11.62,7.22,11.62s6.36-3.35,8.49-6.49
				C202.54,135.41,199.08,127.37,194.3,124.87z"/>
			<path class="st28" d="M211.25,149.12c0,0,3.73,1.5,6.15,3.58c2.42,2.08,14.17,10.58,14.17,10.58l-1.42,2.6
				c0,0-14.65-4.75-23.91-13.62L211.25,149.12z"/>
			<path class="st21" d="M186.86,130.75c0,0-1.05-7.68,4.97-8.19c3.66-0.31,6.67,4.22,7.44,6.56"/>
			<path class="st21" d="M191.2,122.6c0,0,0.44-1.6,1.26-3.2"/>
			<path class="st28" d="M230.15,165.88c0,0,2.57,1.61,3.69,2.11s4.46-0.72,4.93-1.75c0,0-0.59,0-1.03-0.06s-2.28-2.08-3.56-2.54
				c-0.69-0.25-1.54,0-1.77,0c-0.23,0-0.84-0.35-0.84-0.35"/>
		</g>
		<g>
			<path class="st18" d="M239.09,163.27c0,0-0.67,0.14-1.71-0.28c-1.04-0.42-1.58-0.54-2.15-0.46c-0.56,0.08-1.04,0.54-0.58,0.73
				c0.46,0.19,0.95,0.41,0.95,0.41s2.09,1.03,4.53,0.65C240.89,164.21,239.09,163.27,239.09,163.27z"/>
			<path class="st18" d="M234.65,162.77c0,0-1.54,0.93-1.5,1.11c0.04,0.19,0.44,0.54,1.1,0.38c0.67-0.17,1.77-0.83,1.77-0.83"/>
			<path class="st18" d="M230.67,166.21c0,0,0.48,0.74,0.99,0.96c0,0,0.16,0.36,0.66,0.41c0,0,0.13,0.37,0.9,0.36
				c0,0,0.22,0.2,0.7,0.08c0,0-0.89-0.47-1.14-0.6C232.33,167.18,230.67,166.21,230.67,166.21z"/>
		</g>
	</g>
	<g>
		<g>
			<path class="st34" d="M101.11,265.55c0,0-35.32-47.71-24.24-57.9C87.96,197.46,104.16,233.35,101.11,265.55z"/>
			<path class="st35" d="M80.41,213.17c18.59,27.41,22.58,58.45,23.4,76.12"/>
			<path class="st35" d="M99.29,242.3c-0.01,4.49-0.35,8.74-0.6,12.26"/>
			<path class="st35" d="M93.79,225.95c-0.01,4.49-0.2,8.55-0.44,12.08"/>
			<path class="st35" d="M85.73,211.23c0.47,3.33,0.5,7.49,0.25,11.01"/>
			<path class="st35" d="M79.38,219.64c2.91,1.69,5.95,4.13,8.57,6.5"/>
			<path class="st35" d="M80.48,222.5c2.91,1.69,6.48,4.37,9.1,6.73"/>
			<path class="st35" d="M86.54,236.9c2.91,1.69,6.2,4.22,8.83,6.59"/>
		</g>
		<g>
			<path class="st1" d="M110.18,255.65c0,0,34.05-48.62,22.7-58.52C121.53,187.24,106.29,223.54,110.18,255.65z"/>
			<path class="st35" d="M129.5,202.74c-17.86,27.89-21.04,59.02-21.39,76.71"/>
			<g>
				<g>
					<path class="st36" d="M111.2,232.36c-0.11,3.95,0.03,8.22,0.79,12.11c0.04,0.18,0.32,0.14,0.32-0.04
						c0.02-3.98-0.37-8.1-0.73-12.06C111.55,232.13,111.2,232.12,111.2,232.36L111.2,232.36z"/>
				</g>
			</g>
			<path class="st35" d="M116.45,215.88c0.13,4.49,0.42,8.55,0.76,12.06"/>
			<path class="st35" d="M124.13,200.94c-0.38,3.34-0.3,7.5,0.04,11.01"/>
			<path class="st35" d="M130.69,209.19c-2.87,1.76-5.99,4.39-8.55,6.82"/>
			<path class="st35" d="M129.67,212.07c-2.87,1.76-6.3,4.39-8.86,6.82"/>
			<path class="st35" d="M123.99,226.63c-2.87,1.76-6.09,4.39-8.65,6.82"/>
		</g>
		<g>
			<path class="st1" d="M106.74,242.85c0,0-34.27-48.47-22.97-58.41C95.07,174.48,110.48,210.72,106.74,242.85z"/>
			<path class="st35" d="M87.18,190.03c17.99,27.81,21.2,58.93,21.63,76.62"/>
			<path class="st35" d="M105.42,219.57c-0.11,4.49-0.38,8.55-0.7,12.06"/>
			<path class="st35" d="M100.28,203.1c-0.11,4.49-0.38,8.55-0.71,12.06"/>
			<path class="st35" d="M92.54,188.2c0.39,3.34,0.34,7.5,0.01,11.01"/>
			<path class="st35" d="M86.01,196.48c2.87,1.75,6.11,4.36,8.68,6.78"/>
			<path class="st35" d="M87.05,199.36c2.87,1.75,6.11,4.36,8.68,6.78"/>
			<path class="st35" d="M92.79,213.89c2.87,1.75,6.11,4.36,8.68,6.78"/>
		</g>
		<g>
			<path class="st34" d="M103.56,256.98c0,0,21.09-28.98,14.35-35.08C111.16,215.8,101.56,237.56,103.56,256.98z"/>
			<path class="st35" d="M115.8,225.25c-11.09,16.64-13.35,35.41-13.76,46.08"/>
			<path class="st35" d="M104.54,242.94c0.03,2.71,0.16,5.16,0.33,7.29"/>
			<path class="st35" d="M107.78,233.04c0.03,2.71,0.16,5.16,0.33,7.29"/>
			<path class="st35" d="M112.58,224.11c-0.27,2.01-0.27,4.52-0.1,6.65"/>
			<path class="st35" d="M116.45,229.16c-1.75,1.03-3.73,2.58-5.3,4.02"/>
			<path class="st35" d="M115.8,230.89c-1.75,1.03-3.73,2.58-5.3,4.02"/>
			<path class="st35" d="M112.21,239.61c-1.75,1.03-3.73,2.58-5.3,4.02"/>
		</g>
		<g>
			<polygon class="st33" points="117.72,278.06 117.57,279.07 117.25,281.2 114.2,301.69 95.99,301.69 92.94,281.2 92.62,279.07 
				92.47,278.06 			"/>
			<polygon class="st37" points="117.57,279.07 117.25,281.2 92.94,281.2 92.62,279.07 			"/>
			<path class="st33" d="M118.07,279.99H92.12c-0.83,0-1.51-0.67-1.51-1.51l0,0c0-0.83,0.67-1.51,1.51-1.51h25.96
				c0.83,0,1.51,0.67,1.51,1.51l0,0C119.58,279.31,118.9,279.99,118.07,279.99z"/>
		</g>
	</g>
	<g>
		<line class="st38" x1="345.09" y1="289.58" x2="365.99" y2="289.58"/>
		<line class="st38" x1="120.16" y1="289.6" x2="342.67" y2="289.58"/>
		<line class="st38" x1="71.83" y1="301.7" x2="123.88" y2="301.7"/>
		<line class="st38" x1="125.92" y1="301.7" x2="137.94" y2="301.7"/>
	</g>
</g>
<g id="DESIGNED_BY_FREEPIK">
</g>
</svg>
