<?xml version="1.0" encoding="UTF-8" standalone="no"?>
<svg
   xmlns:dc="http://purl.org/dc/elements/1.1/"
   xmlns:cc="http://creativecommons.org/ns#"
   xmlns:rdf="http://www.w3.org/1999/02/22-rdf-syntax-ns#"
   xmlns:svg="http://www.w3.org/2000/svg"
   xmlns="http://www.w3.org/2000/svg"
   xmlns:sodipodi="http://sodipodi.sourceforge.net/DTD/sodipodi-0.dtd"
   xmlns:inkscape="http://www.inkscape.org/namespaces/inkscape"
   version="1.1"
   id="svg4170"
   viewBox="0 0 20 21.000001"
   height="21"
   width="20"
   inkscape:version="0.91 r13725"
   sodipodi:docname="envato-logo-white.svg">
  <sodipodi:namedview
     pagecolor="#ffffff"
     bordercolor="#666666"
     borderopacity="1"
     objecttolerance="10"
     gridtolerance="10"
     guidetolerance="10"
     inkscape:pageopacity="0"
     inkscape:pageshadow="2"
     inkscape:window-width="1231"
     inkscape:window-height="660"
     id="namedview4831"
     showgrid="false"
     units="px"
     inkscape:zoom="14.528412"
     inkscape:cx="14.69007"
     inkscape:cy="10.298952"
     inkscape:window-x="236"
     inkscape:window-y="291"
     inkscape:window-maximized="0"
     inkscape:current-layer="layer1" />
  <defs
     id="defs4172" />
  <metadata
     id="metadata4175">
    <rdf:RDF>
      <cc:Work
         rdf:about="">
        <dc:format>image/svg+xml</dc:format>
        <dc:type
           rdf:resource="http://purl.org/dc/dcmitype/StillImage" />
        <dc:title></dc:title>
      </cc:Work>
    </rdf:RDF>
  </metadata>
  <g
     transform="matrix(0.15258256,0,0,0.15258256,-1.9696686,-10.697943)"
     id="layer1">
    <path
       style="fill:#f0f5fa;fill-opacity:1"
       id="path7"
       d="m 118.40629,74.265145 c -3.43888,-1.900432 -13.30303,-0.723974 -25.158105,2.895897 -20.814261,14.207996 -38.280142,35.112798 -39.547097,68.687128 -0.180993,0.81448 -2.26242,-0.0905 -2.714901,-0.36198 -5.610801,-10.76912 -7.782724,-22.08122 -3.167387,-38.37067 0.904967,-1.44795 -1.99093,-3.25788 -2.533911,-2.7149 -0.995464,0.99546 -5.33931,5.6108 -8.144711,10.49762 -14.117499,24.43417 -4.886826,55.83655 19.818795,69.59206 24.705623,13.75552 55.836517,4.88683 69.592027,-19.81879 15.92743,-28.50649 1.17646,-85.248048 -8.14471,-90.406365 z"
       class="st0"
       inkscape:connector-curvature="0" />
  </g>
</svg>
